<svg width="143" height="60" viewBox="0 0 143 60" fill="none" xmlns="http://www.w3.org/2000/svg">
<path d="M77.3922 0.00154268H29.9631C30.0362 1.68925 30.4989 3.33571 31.3137 4.80845C32.1005 6.12673 33.2125 7.21379 34.5397 7.96169C35.8669 8.70959 37.3633 9.0925 38.881 9.07284H71.8402C71.9393 8.36766 72.3076 7.73068 72.8657 7.29928C73.4238 6.8679 74.1267 6.67671 74.8222 6.76766L75.3716 6.80112C77.5539 6.80112 79.8681 6.77276 81.3357 6.88675C99.5857 8.31428 102.32 28.1588 102.32 28.1588H106.95C106.95 18.1158 97.8733 8.42989 97.8733 8.42989C89.2584 -0.32269 77.3922 0.00154268 77.3922 0.00154268Z" fill="#C71920"/>
<path d="M65.8604 26.1476C64.8077 26.1668 63.7983 26.5773 63.0233 27.3011C62.2482 28.0251 61.7611 29.0124 61.6542 30.0765C61.6 30.5768 61.6515 31.0831 61.8051 31.5616C61.9588 32.0402 62.211 32.4797 62.5452 32.8514C62.8793 33.2231 63.2877 33.5182 63.7431 33.7169C64.1983 33.9157 64.69 34.0137 65.1856 34.0042C66.2382 33.9849 67.2475 33.5747 68.0227 32.851C68.7978 32.1273 69.2852 31.1403 69.3926 30.0765C69.4468 29.576 69.3953 29.0695 69.2416 28.591C69.088 28.1123 68.8355 27.6725 68.5013 27.3007C68.167 26.929 67.7587 26.6335 67.3033 26.4348C66.8479 26.236 66.356 26.1381 65.8604 26.1476Z" fill="#C71920"/>
<path d="M88.1574 30.0765C88.1032 30.5767 88.1547 31.0831 88.3083 31.5616C88.462 32.0402 88.7143 32.4797 89.0484 32.8514C89.3827 33.223 89.791 33.5181 90.2463 33.7169C90.7015 33.9157 91.1933 34.0136 91.6887 34.0042C92.7415 33.985 93.7508 33.5747 94.526 32.851C95.3012 32.1273 95.7885 31.1403 95.8957 30.0765C95.9499 29.5761 95.8985 29.0695 95.7448 28.5908C95.5913 28.1123 95.3389 27.6725 95.0048 27.3007C94.6706 26.929 94.2623 26.634 93.807 26.4351C93.3517 26.2362 92.8599 26.1382 92.3644 26.1476C91.3115 26.1666 90.3019 26.5767 89.5267 27.3007C88.7515 28.0247 88.2644 29.0123 88.1574 30.0765Z" fill="#C71920"/>
<path d="M86.6806 27.9621C87.0402 26.7377 87.7739 25.6612 88.7755 24.8882C89.777 24.1152 90.9946 23.6858 92.2522 23.6619C93.4404 23.6378 94.5945 24.0654 95.4882 24.861C96.3819 25.6565 96.9507 26.7625 97.0832 27.9621H100.523C97.4857 13.2817 88.2328 9.71821 84.9848 8.70832C83.5276 8.25162 82.0116 8.01708 80.4866 8.01245H75.5569V8.70015H82.4477V9.72373H75.5569V10.4122H82.4477V11.4358H75.5569V12.1243H82.4265C82.376 12.3549 82.2529 12.5626 82.076 12.7158C81.899 12.8691 81.6778 12.9596 81.4456 12.9739L74.8537 13.3669C74.4979 13.4163 74.136 13.3916 73.7899 13.2941C73.4439 13.1968 73.1211 13.0287 72.8411 12.8003C72.5612 12.5719 72.3299 12.2881 72.1617 11.9659C71.9933 11.6437 71.8915 11.2899 71.8623 10.9263V10.6138L71.7626 10.6936H38.1057C38.1339 10.8777 38.1662 11.0588 38.2014 11.2342C38.6521 13.3171 39.7946 15.1793 41.4369 16.5082C43.0793 17.8369 45.1216 18.5514 47.2213 18.5319H79.9774C80.4568 16.988 82.3316 15.8349 84.5838 15.8349C87.1954 15.8349 89.3126 17.3883 89.3126 19.3053C89.3126 21.2221 87.1939 22.7757 84.5838 22.7757C82.2719 22.7757 80.3509 21.5576 79.9397 19.9475H48.3685C48.6236 24.0164 50.6546 26.0261 52.4847 27.0128C53.7032 27.6508 55.0571 27.9757 56.428 27.959H60.4301C60.7898 26.7346 61.5234 25.6581 62.5249 24.8851C63.5266 24.1121 64.7442 23.6827 66.0018 23.6588C67.1899 23.6347 68.3441 24.0623 69.2377 24.8579C70.1314 25.6534 70.7003 26.7594 70.8327 27.959L86.6806 27.9621Z" fill="#C71920"/>
<path d="M0 59.4374H5.66585V51.8953H13.7487V47.0794H5.66585V44.6881H14.9101V39.812H0V59.4374Z" fill="#C71920"/>
<path d="M63.0871 45.2629C62.661 44.7236 62.1136 44.2962 61.4907 44.0167C60.868 43.7372 60.1882 43.6141 59.5087 43.6571C58.5602 43.6152 57.6154 43.8004 56.7502 44.1976C55.8852 44.595 55.1243 45.1933 54.5288 45.9443C53.2757 47.5916 52.6319 49.6336 52.7098 51.7138C52.6296 53.7804 53.2507 55.8121 54.4691 57.4691C55.0428 58.2134 55.7833 58.8076 56.6287 59.2027C57.4741 59.5976 58.4002 59.782 59.3298 59.7401C60.1365 59.7336 60.9348 59.5745 61.684 59.2708C62.0544 59.1374 62.3951 58.9307 62.6867 58.6632C62.9783 58.3956 63.2149 58.0724 63.383 57.7117V59.4381H68.5152V39.5115H63.0879L63.0871 45.2629ZM62.4304 54.0014C62.2258 54.2793 61.9602 54.5047 61.6548 54.66C61.3494 54.8152 61.0126 54.8962 60.6709 54.8962C60.3294 54.8962 59.9926 54.8152 59.6871 54.66C59.3817 54.5047 59.1161 54.2793 58.9116 54.0014C58.4337 53.3405 58.1918 52.5338 58.2257 51.7146C58.1936 50.8908 58.4352 50.0799 58.9116 49.4125C59.1137 49.1311 59.3783 48.9021 59.6841 48.7442C59.9899 48.5864 60.328 48.5041 60.6709 48.5041C61.014 48.5041 61.352 48.5864 61.6578 48.7442C61.9635 48.9021 62.2282 49.1311 62.4304 49.4125C62.9076 50.0796 63.1495 50.8906 63.117 51.7146C63.1508 52.534 62.9087 53.3408 62.4304 54.0014Z" fill="#C71920"/>
<path d="M81.4253 54.5918C80.8122 54.6113 80.2021 54.4971 79.6363 54.2567C79.0704 54.0165 78.5619 53.6554 78.145 53.1985C77.2734 52.224 76.813 50.941 76.8628 49.6254C76.8423 48.9794 76.9492 48.336 77.1771 47.7327C77.405 47.1294 77.7492 46.578 78.1897 46.1117C78.6031 45.6626 79.1046 45.3065 79.6619 45.0664C80.2193 44.8263 80.82 44.7078 81.4253 44.7181C82.0662 44.7229 82.6993 44.8624 83.2844 45.1283C83.8696 45.3941 84.394 45.7806 84.8248 46.2628L88.5524 42.3568C86.5221 40.5129 83.8913 39.4988 81.1679 39.5099C78.4445 39.5209 75.8217 40.5565 73.8062 42.4167C71.9783 44.3667 70.9587 46.9558 70.9587 49.6483C70.9587 52.3407 71.9783 54.9304 73.8062 56.8803C74.7731 57.8558 75.9274 58.6185 77.1971 59.1212C78.4668 59.6239 79.8248 59.8559 81.1867 59.8023C82.675 59.867 84.1592 59.5996 85.5349 59.0189C86.9104 58.4382 88.144 57.5581 89.1487 56.4409L85.5389 52.412C85.0816 53.0899 84.4672 53.6431 83.75 54.0232C83.0326 54.4033 82.2343 54.5987 81.4253 54.5918Z" fill="#C71920"/>
<path d="M105.513 46.9581C105.34 46.3399 105.046 45.7635 104.65 45.2627C104.214 44.7684 103.673 44.3803 103.069 44.1271C102.3 43.7966 101.471 43.6364 100.636 43.657C99.8429 43.6125 99.0492 43.7408 98.3085 44.0337C97.5679 44.3265 96.8974 44.7769 96.3423 45.3545V39.5073H90.915V59.4339H96.3423V52.135C96.3037 51.2796 96.5392 50.4345 97.0133 49.7264C97.2197 49.4302 97.4955 49.1906 97.8155 49.0293C98.1356 48.8681 98.4901 48.7905 98.8472 48.8028C99.9804 48.8028 100.547 49.7015 100.547 51.4992V59.4347H105.974V50.8025C105.974 50.0554 105.949 49.399 105.9 48.8335C105.835 48.1965 105.706 47.5678 105.513 46.9581Z" fill="#C71920"/>
<path d="M118.511 54.0011C118.261 54.2822 117.954 54.5071 117.613 54.6607C117.271 54.8145 116.902 54.8939 116.528 54.8939C116.155 54.8939 115.785 54.8145 115.444 54.6607C115.102 54.5071 114.796 54.2822 114.545 54.0011C114.171 53.5527 113.927 53.0065 113.843 52.4244C111.445 52.2355 109.527 52.0316 108.306 51.8882C108.309 52.9231 108.521 53.9464 108.927 54.8954C109.334 55.8445 109.927 56.6994 110.669 57.4077C112.264 58.907 114.356 59.7401 116.529 59.7401C118.702 59.7401 120.795 58.907 122.389 57.4077C123.638 56.2154 124.444 54.6226 124.672 52.8974C122.735 52.8822 120.876 52.828 119.137 52.7506C119.026 53.2109 118.812 53.6389 118.511 54.0011Z" fill="#C71920"/>
<path d="M114.56 49.4119C114.805 49.1266 115.108 48.898 115.447 48.7413C115.787 48.5847 116.155 48.5035 116.528 48.5035C116.901 48.5035 117.27 48.5847 117.609 48.7413C117.949 48.898 118.251 49.1266 118.496 49.4119C118.795 49.7703 119.009 50.1925 119.124 50.6471C120.865 50.5675 122.725 50.514 124.665 50.4988C124.437 48.7746 123.632 47.1827 122.385 45.9893C120.791 44.49 118.698 43.6572 116.526 43.6572C114.353 43.6572 112.26 44.49 110.666 45.9893C109.925 46.6987 109.333 47.5539 108.927 48.5028C108.521 49.4515 108.309 50.4742 108.304 51.5088C109.527 51.3646 111.447 51.1606 113.848 50.9725C113.939 50.3956 114.185 49.8553 114.56 49.4119Z" fill="#C71920"/>
<path d="M132.808 49.4119C133.054 49.1265 133.357 48.8976 133.696 48.7409C134.036 48.5842 134.404 48.5032 134.777 48.5032C135.15 48.5032 135.519 48.5842 135.858 48.7409C136.198 48.8976 136.5 49.1265 136.745 49.4119C137.115 49.8532 137.36 50.3894 137.451 50.962C139.832 51.1453 141.747 51.3477 142.997 51.4944C142.99 50.4624 142.778 49.4427 142.373 48.4965C141.966 47.5503 141.376 46.6973 140.637 45.9893C139.042 44.49 136.95 43.6572 134.777 43.6572C132.604 43.6572 130.511 44.49 128.917 45.9893C127.671 47.1821 126.866 48.7736 126.637 50.4974C128.575 50.5117 130.437 50.5636 132.179 50.6409C132.295 50.1884 132.511 49.7682 132.808 49.4119Z" fill="#C71920"/>
<path d="M137.462 52.4339C137.376 53.0123 137.134 53.5552 136.761 54.0012C136.51 54.2823 136.205 54.5068 135.863 54.6605C135.522 54.8142 135.152 54.8937 134.779 54.8937C134.406 54.8937 134.035 54.8142 133.695 54.6605C133.353 54.5068 133.047 54.2823 132.796 54.0012C132.496 53.6403 132.283 53.2143 132.172 52.7562C130.432 52.8359 128.572 52.8842 126.635 52.8979C126.864 54.6233 127.67 56.2164 128.919 57.4086C130.515 58.9063 132.606 59.7379 134.779 59.7379C136.951 59.7379 139.043 58.9063 140.638 57.4086C141.379 56.7015 141.97 55.8488 142.377 54.9021C142.783 53.9556 142.995 52.9348 143 51.9023C141.756 52.049 139.841 52.2506 137.462 52.4339Z" fill="#C71920"/>
<path d="M25.9263 54.0011C25.6753 54.2822 25.3693 54.5071 25.0278 54.6607C24.6863 54.8145 24.3168 54.8939 23.9432 54.8939C23.5697 54.8939 23.2002 54.8145 22.8587 54.6607C22.5172 54.5071 22.2112 54.2822 21.9601 54.0011C21.5853 53.5527 21.342 53.0065 21.2579 52.4244C18.8596 52.2355 16.9417 52.0316 15.7207 51.8882C15.7242 52.9231 15.9357 53.9464 16.3421 54.8954C16.7486 55.8445 17.3414 56.6993 18.0843 57.4077C19.6786 58.907 21.7714 59.7401 23.9439 59.7401C26.1167 59.7401 28.2094 58.907 29.8036 57.4077C31.0524 56.2154 31.8587 54.6226 32.0865 52.8974C30.1498 52.8822 28.2907 52.828 26.5518 52.7506C26.4413 53.2109 26.2272 53.6389 25.9263 54.0011Z" fill="#C71920"/>
<path d="M21.9752 49.4119C22.2205 49.1266 22.523 48.898 22.8624 48.7413C23.2019 48.5847 23.5704 48.5035 23.9433 48.5035C24.3161 48.5035 24.6847 48.5847 25.0242 48.7413C25.3637 48.898 25.6662 49.1266 25.9115 49.4119C26.2098 49.7703 26.4245 50.1925 26.5393 50.6471C28.2798 50.5675 30.1404 50.514 32.0803 50.4988C31.8519 48.7746 31.0471 47.1827 29.8006 45.9893C28.2063 44.49 26.1136 43.6572 23.9409 43.6572C21.7682 43.6572 19.6756 44.49 18.0812 45.9893C17.3398 46.6987 16.7482 47.5539 16.3422 48.5028C15.9361 49.4515 15.7242 50.4742 15.7192 51.5088C16.9426 51.3646 18.862 51.1606 21.2634 50.9725C21.3543 50.3956 21.6006 49.8553 21.9752 49.4119Z" fill="#C71920"/>
<path d="M40.5879 49.4119C40.833 49.1265 41.1355 48.8976 41.475 48.7409C41.8145 48.5842 42.1831 48.5032 42.5559 48.5032C42.9289 48.5032 43.2975 48.5842 43.6369 48.7409C43.9763 48.8976 44.2789 49.1265 44.5242 49.4119C44.8949 49.8531 45.1392 50.3894 45.2303 50.962C47.6113 51.1453 49.5261 51.3477 50.7762 51.4944C50.7694 50.4624 50.5569 49.4427 50.1511 48.4965C49.7454 47.5503 49.1551 46.6973 48.4156 45.9893C46.8213 44.49 44.7287 43.6572 42.5559 43.6572C40.3832 43.6572 38.2906 44.49 36.6963 45.9893C35.4499 47.1822 34.6448 48.7736 34.4158 50.4974C36.3541 50.5117 38.2164 50.5636 39.9585 50.6409C40.0746 50.1884 40.2896 49.7682 40.5879 49.4119Z" fill="#C71920"/>
<path d="M44.5391 54.0012C44.288 54.2823 43.982 54.5068 43.6405 54.6605C43.299 54.8142 42.9295 54.8937 42.5559 54.8937C42.1824 54.8937 41.8129 54.8142 41.4714 54.6605C41.1299 54.5068 40.8239 54.2823 40.5728 54.0012C40.2736 53.6403 40.0601 53.2143 39.949 52.7562C38.2085 52.8359 36.3494 52.8842 34.4126 52.8979C34.6408 54.6233 35.4472 56.2164 36.6962 57.4086C38.2913 58.9063 40.3837 59.7379 42.5559 59.7379C44.7282 59.7379 46.8206 58.9063 48.4156 57.4086C49.1565 56.7015 49.748 55.8488 50.154 54.9021C50.5601 53.9556 50.7722 52.9348 50.7777 51.9023C49.5292 52.049 47.6167 52.2506 45.239 52.4339C45.1537 53.0123 44.9114 53.5552 44.5391 54.0012Z" fill="#C71920"/>
</svg>
