<svg width="193" height="50" viewBox="0 0 193 50" fill="none" xmlns="http://www.w3.org/2000/svg">
<g clip-path="url(#clip0_993_8343)">
<path d="M7.99665 34.5756C7.19755 34.6028 6.40316 34.4443 5.67729 34.1129C4.95143 33.7815 4.31441 33.2863 3.81737 32.6672C2.71694 31.2403 2.16171 29.475 2.24997 27.6829C2.19169 25.9314 2.66638 24.203 3.61275 22.7211C4.00486 22.0904 4.55708 21.5721 5.21453 21.2176C5.87199 20.8631 6.61186 20.6849 7.36059 20.7004C8.43539 20.6678 9.48 21.0549 10.268 21.7781C11.1674 22.6089 11.9334 23.5704 12.5394 24.6295H12.6757V21.3516C11.1042 20.3831 9.30238 19.841 7.45154 19.7799C6.46084 19.7528 5.47612 19.9397 4.566 20.3274C3.65587 20.7152 2.8421 21.2946 2.18176 22.0251C0.73249 23.665 -0.00926944 25.8007 0.114994 27.9748C0.00229804 30.1502 0.733478 32.2861 2.1593 33.947C2.80176 34.6753 3.59917 35.2543 4.49446 35.6425C5.38976 36.0306 6.36059 36.2183 7.33786 36.1921C8.59328 36.2034 9.82487 35.8522 10.8814 35.1818C12.014 34.4658 12.907 33.4347 13.448 32.2182C12.7609 32.9713 11.9192 33.571 10.9792 33.9775C10.0393 34.384 9.02256 34.5879 7.99665 34.5756Z" fill="#272A3D"/>
<path d="M22.6019 19.78C21.5921 19.7599 20.5893 19.9492 19.6581 20.336C18.727 20.7227 17.8881 21.2982 17.196 22.0252C15.7243 23.6305 14.9494 25.743 15.0381 27.9075C14.9544 30.0848 15.7279 32.2095 17.196 33.8348C17.8837 34.5675 18.7216 35.1468 19.6538 35.5339C20.586 35.9211 21.5911 36.1073 22.6019 36.08C23.6121 36.103 24.6157 35.9149 25.5473 35.528C26.4789 35.1411 27.3174 34.5641 28.0078 33.8348C29.5255 32.2321 30.3418 30.102 30.2792 27.9075C30.3124 26.8307 30.1287 25.7582 29.7388 24.7522C29.3488 23.7462 28.7604 22.8269 28.0078 22.0477C27.3176 21.3166 26.4798 20.7369 25.5486 20.3462C24.6173 19.9556 23.6134 19.7627 22.6019 19.78ZM26.4405 33.049C26.0253 33.6804 25.4562 34.1985 24.7854 34.5555C24.1146 34.9125 23.3637 35.0971 22.6019 35.0921C21.8362 35.1008 21.0807 34.9181 20.4056 34.5609C19.7305 34.2037 19.1578 33.6836 18.7405 33.049C17.7137 31.5229 17.1974 29.7167 17.2642 27.8851C17.1946 26.0671 17.7116 24.2744 18.7405 22.7661C19.1604 22.1356 19.7345 21.62 20.4094 21.2668C21.0843 20.9136 21.8383 20.7343 22.6019 20.7454C23.3637 20.7405 24.1146 20.925 24.7854 21.2821C25.4562 21.6391 26.0253 22.1571 26.4405 22.7885C27.4846 24.2825 28.0106 26.0707 27.9397 27.8851C28.0156 29.721 27.4898 31.5322 26.4405 33.049Z" fill="#272A3D"/>
<path d="M37.5233 20.2514C36.5254 20.7031 35.6926 21.4479 35.1384 22.3844V19.9595H32.6172V20.0718C32.9461 21.4254 33.1213 22.811 33.1396 24.2029V31.6345C33.1213 33.0264 32.9461 34.412 32.6172 35.7656V35.8779H35.6835V35.7656C35.3475 34.4128 35.1646 33.0272 35.1384 31.6345V23.2151C35.5943 22.5757 36.2244 22.0774 36.9555 21.7781C37.4692 21.5742 38.015 21.4603 38.5682 21.4414C38.9126 21.4531 39.2548 21.4982 39.5902 21.5761C40.1452 21.7243 40.6634 21.9842 41.1122 22.3394H41.2257L41.521 19.9371C40.9978 19.7803 40.4549 19.6971 39.9083 19.6901C39.0847 19.7275 38.2756 19.9179 37.5233 20.2514Z" fill="#272A3D"/>
<path d="M50.5627 34.5756C49.7534 34.6129 48.9469 34.457 48.2114 34.1209C47.476 33.7848 46.8334 33.2785 46.3379 32.6448C45.2427 31.2152 44.6883 29.4519 44.7707 27.6605V27.2788H56.1276C56.227 25.2967 55.5705 23.3498 54.2878 21.8231C53.7051 21.1608 52.9814 20.6342 52.1685 20.2809C51.3556 19.9277 50.4737 19.7566 49.586 19.7799C48.6194 19.7591 47.6602 19.9495 46.7767 20.3376C45.8932 20.7257 45.1074 21.302 44.4754 22.0251C43.0908 23.6636 42.3704 25.7516 42.4538 27.885C42.3561 30.0524 43.1042 32.1743 44.5436 33.8123C45.1881 34.5382 45.9857 35.1155 46.8805 35.5035C47.7754 35.8914 48.7455 36.0805 49.7223 36.0574C51.0813 36.0604 52.4102 35.6617 53.5382 34.9124C54.7112 34.1425 55.6403 33.0607 56.2184 31.7916C55.5285 32.6247 54.6677 33.3035 53.6928 33.7834C52.7178 34.2633 51.651 34.5333 50.5627 34.5756ZM46.3379 22.2945C46.7206 21.7852 47.2218 21.3744 47.799 21.097C48.3762 20.8195 49.0126 20.6835 49.6542 20.7005C50.2467 20.6798 50.8354 20.8018 51.3695 21.0561C51.9037 21.3103 52.3674 21.6891 52.7205 22.1598C53.5446 23.3757 53.987 24.805 53.9925 26.2684L44.9069 26.4256C44.9891 24.9444 45.4844 23.5147 46.3379 22.2945Z" fill="#272A3D"/>
<path d="M109.027 11.63L106.278 12.1239C106.8 13.4066 107.04 14.7841 106.982 16.1653V21.5312C106.442 20.8563 105.75 20.3144 104.962 19.9482C104.174 19.582 103.31 19.4015 102.44 19.4208C101.502 19.4171 100.575 19.6161 99.7237 20.004C98.8722 20.3918 98.1169 20.9591 97.5107 21.6659C96.0546 23.4081 95.3166 25.6288 95.4438 27.885C95.3404 29.9498 95.9756 31.9846 97.2381 33.6327C97.7833 34.3042 98.4753 34.8448 99.262 35.2142C100.049 35.5836 100.91 35.7721 101.781 35.7656C102.808 35.7716 103.82 35.5166 104.719 35.0252C105.617 34.5338 106.373 33.8224 106.914 32.9591C106.974 33.482 107.073 33.9998 107.21 34.5083L107.437 35.5411H109.435C109.076 34.1851 108.893 32.7894 108.89 31.3876L109.027 11.63ZM107.005 31.8366C106.538 32.632 105.878 33.3005 105.085 33.7824C104.293 34.2643 103.391 34.5446 102.462 34.5981C101.754 34.6212 101.053 34.4511 100.436 34.1065C99.8192 33.762 99.31 33.2564 98.9644 32.6449C98.0788 31.1421 97.6454 29.4207 97.7151 27.683C97.6226 25.8759 98.1247 24.0879 99.1461 22.5865C99.5566 21.9933 100.11 21.5103 100.756 21.1811C101.403 20.8519 102.122 20.6867 102.849 20.7005C103.657 20.7038 104.454 20.8968 105.173 21.2637C105.891 21.6306 106.512 22.1609 106.982 22.811L107.005 31.8366Z" fill="#272A3D"/>
<path d="M120.112 34.2838C119.302 34.3181 118.496 34.1632 117.758 33.8316C117.02 33.5001 116.371 33.0011 115.865 32.3754C114.788 30.9292 114.243 29.1628 114.32 27.3687V26.987H125.677C125.777 25.0048 125.12 23.058 123.837 21.5312C123.253 20.8714 122.528 20.3464 121.716 19.9934C120.904 19.6404 120.023 19.4679 119.136 19.4881C118.169 19.4688 117.21 19.6599 116.327 20.048C115.444 20.436 114.658 21.0113 114.025 21.7333C112.638 23.3617 111.917 25.4438 112.003 27.5707C111.914 29.7399 112.652 31.8631 114.07 33.5204C114.723 34.2422 115.526 34.8164 116.423 35.2038C117.321 35.5913 118.293 35.7829 119.272 35.7656C120.628 35.7752 121.957 35.3844 123.088 34.643C124.262 33.8643 125.19 32.7752 125.768 31.4998C125.082 32.3372 124.222 33.0191 123.246 33.4995C122.271 33.9798 121.202 34.2473 120.112 34.2838ZM115.887 22.0027C116.273 21.4975 116.775 21.091 117.352 20.8175C117.929 20.5441 118.564 20.4116 119.204 20.4311C119.797 20.4065 120.387 20.5268 120.922 20.7814C121.457 21.0359 121.92 21.4168 122.27 21.8905C123.081 23.1039 123.523 24.5223 123.542 25.9767L114.456 26.1563C114.538 24.668 115.033 23.2308 115.887 22.0027Z" fill="#272A3D"/>
<path d="M134.693 26.4033H134.557L132.808 25.797C132.366 25.6434 131.94 25.448 131.536 25.2134C131.181 25.0245 130.883 24.7454 130.673 24.4051C130.492 24.0741 130.399 23.7035 130.4 23.3273C130.397 22.9298 130.493 22.5377 130.679 22.1853C130.865 21.8329 131.136 21.5312 131.468 21.3067C132.218 20.7851 133.118 20.5173 134.035 20.5434C135.109 20.6422 136.146 20.9855 137.064 21.5464C137.982 22.1073 138.757 22.8705 139.327 23.7764V20.9699C137.687 20.0863 135.857 19.6014 133.989 19.5555C132.591 19.5012 131.216 19.9124 130.082 20.723C129.575 21.0952 129.167 21.5841 128.894 22.1475C128.621 22.711 128.491 23.3317 128.515 23.956C128.5 24.5065 128.616 25.0529 128.856 25.5501C129.13 26.0404 129.529 26.4509 130.014 26.7401C130.523 27.0488 131.054 27.319 131.604 27.5483L133.876 28.3566C135.014 28.6827 136.1 29.1665 137.101 29.7935C137.421 30.0287 137.677 30.3382 137.848 30.6945C138.018 31.0508 138.097 31.443 138.078 31.8366C138.103 32.269 138.018 32.7009 137.832 33.0929C137.645 33.4849 137.363 33.8248 137.01 34.0817C136.282 34.614 135.394 34.8906 134.489 34.8676C133.304 34.7303 132.166 34.3273 131.162 33.6891C130.158 33.051 129.315 32.1946 128.697 31.1854H128.379V34.194C130.128 35.2253 132.113 35.8044 134.148 35.8779C135.553 35.9319 136.934 35.5034 138.055 34.6655C138.575 34.258 138.988 33.7336 139.261 33.136C139.533 32.5384 139.657 31.885 139.622 31.2304C139.653 30.684 139.559 30.1378 139.346 29.6324C139.134 29.1271 138.809 28.6756 138.396 28.3116C137.296 27.448 136.039 26.8003 134.693 26.4033Z" fill="#272A3D"/>
<path d="M144.073 11.9893C143.856 11.9828 143.639 12.0192 143.437 12.0963C143.234 12.1734 143.049 12.2896 142.892 12.4383C142.735 12.5899 142.612 12.7718 142.53 12.9728C142.448 13.1737 142.408 13.3892 142.415 13.6058C142.41 13.8188 142.45 14.0305 142.532 14.2275C142.614 14.4245 142.737 14.6026 142.892 14.7508C143.049 14.8995 143.234 15.0158 143.437 15.0928C143.639 15.1699 143.856 15.2063 144.073 15.1998C144.504 15.2069 144.92 15.0455 145.231 14.7508C145.386 14.6026 145.508 14.4245 145.591 14.2275C145.673 14.0305 145.713 13.8188 145.708 13.6058C145.714 13.3892 145.675 13.1737 145.593 12.9728C145.511 12.7718 145.388 12.5899 145.231 12.4383C144.92 12.1436 144.504 11.9822 144.073 11.9893Z" fill="#272A3D"/>
<path d="M145.119 19.6901H142.643C142.971 21.0439 143.146 22.4294 143.166 23.8212V31.2528C143.132 32.6538 142.942 34.0469 142.598 35.4063H145.641C145.313 34.045 145.138 32.652 145.119 31.2528V19.6901Z" fill="#272A3D"/>
<path d="M158.475 33.3183H153.206C151.32 33.3183 150.389 32.8019 150.389 31.7692C150.384 31.3678 150.539 30.9806 150.821 30.6915C151.129 30.3769 151.524 30.1584 151.956 30.0628C152.898 30.5135 153.932 30.744 154.977 30.7364C156.58 30.7585 158.136 30.2085 159.361 29.1872C159.972 28.6948 160.459 28.0701 160.786 27.3615C161.113 26.6529 161.27 25.8794 161.246 25.101C161.268 24.2417 161.072 23.3908 160.675 22.626C160.278 21.8611 159.694 21.2069 158.975 20.723C159.508 20.4475 160.1 20.3013 160.701 20.2964C161.298 20.3018 161.884 20.4562 162.405 20.7454L162.791 18.837C162.496 18.8147 162.2 18.8147 161.905 18.837C161.243 18.8038 160.583 18.9442 159.992 19.2438C159.402 19.5434 158.902 19.9917 158.544 20.5433C157.459 19.9042 156.218 19.5703 154.955 19.5779C153.353 19.5444 151.797 20.1051 150.594 21.1495C149.999 21.6427 149.525 22.2624 149.206 22.9622C148.888 23.6619 148.733 24.4238 148.754 25.1908C148.727 26.0813 148.935 26.9634 149.357 27.7506C149.779 28.5377 150.401 29.203 151.162 29.6812C150.496 29.841 149.906 30.2232 149.492 30.7632C149.078 31.3032 148.866 31.9678 148.89 32.6448C148.855 33.1181 148.972 33.5904 149.225 33.9938C149.478 34.3972 149.854 34.7109 150.298 34.89C149.736 35.2243 149.271 35.6989 148.952 36.2663C148.634 36.8337 148.471 37.474 148.481 38.123C148.466 38.8193 148.69 39.5 149.117 40.0539C149.579 40.6115 150.183 41.0376 150.866 41.2887C151.594 41.5872 152.357 41.791 153.138 41.8949C153.889 42.01 154.648 42.07 155.409 42.0745C156.169 42.0789 156.928 42.0263 157.68 41.9173C158.499 41.7841 159.305 41.5813 160.088 41.3112C160.93 41.0568 161.669 40.5461 162.2 39.8518C162.747 39.1445 163.028 38.2715 162.995 37.3821C163.027 36.8269 162.931 36.2719 162.715 35.7586C162.498 35.2453 162.167 34.7871 161.746 34.4185C160.832 33.6625 159.666 33.2703 158.475 33.3183ZM150.912 25.101C150.83 23.8407 151.236 22.5969 152.047 21.621C152.417 21.2187 152.87 20.9 153.376 20.6869C153.882 20.4738 154.428 20.3712 154.977 20.3861C155.527 20.3726 156.073 20.4759 156.578 20.689C157.084 20.902 157.537 21.2199 157.908 21.621C158.735 22.589 159.15 23.8365 159.066 25.101C159.148 26.3652 158.733 27.6119 157.908 28.5811C157.541 28.9886 157.089 29.3123 156.583 29.5294C156.077 29.7466 155.529 29.852 154.977 29.8384C154.426 29.8505 153.879 29.7443 153.373 29.5273C152.867 29.3102 152.415 28.9875 152.047 28.5811C151.24 27.603 150.835 26.3608 150.912 25.101ZM159.77 40.1212C158.57 40.8649 157.162 41.211 155.75 41.1091C154.339 41.18 152.937 40.853 151.707 40.1661C151.25 39.9054 150.872 39.5284 150.612 39.0743C150.352 38.6203 150.22 38.1057 150.23 37.5842C150.22 37.1359 150.302 36.6903 150.469 36.2738C150.637 35.8572 150.888 35.4783 151.207 35.1594C151.768 35.2694 152.339 35.3221 152.91 35.3166H158.498C158.857 35.2932 159.216 35.3451 159.553 35.469C159.889 35.5928 160.196 35.7857 160.451 36.035C160.89 36.5134 161.126 37.1405 161.11 37.7862C161.096 38.2538 160.966 38.711 160.733 39.1179C160.499 39.5248 160.169 39.8692 159.77 40.1212Z" fill="#272A3D"/>
<path d="M178.577 25.0561C178.653 24.28 178.554 23.4968 178.287 22.7631C178.02 22.0294 177.591 21.3633 177.033 20.8127C176.002 19.9273 174.673 19.4548 173.308 19.4881C172.252 19.5201 171.218 19.7943 170.287 20.2892C169.357 20.7841 168.556 21.4859 167.947 22.3394V19.6902H165.426C165.765 21.0419 165.94 22.4286 165.948 23.8213V31.2528C165.94 32.6528 165.765 34.047 165.426 35.4064H168.515C168.162 34.0485 167.972 32.6545 167.947 31.2528V23.3049C168.521 22.5912 169.24 22.0046 170.058 21.583C170.875 21.1614 171.774 20.9144 172.694 20.8577C173.206 20.8419 173.716 20.9293 174.192 21.1146C174.668 21.2999 175.102 21.5791 175.465 21.9353C175.862 22.3675 176.165 22.8751 176.357 23.4272C176.548 23.9792 176.624 24.5641 176.578 25.1459V31.2528C176.57 32.6528 176.395 34.047 176.056 35.4064H179.145C178.792 34.0485 178.602 32.6545 178.577 31.2528V25.0561Z" fill="#272A3D"/>
<path d="M191.773 28.2443C190.654 27.3995 189.382 26.7746 188.025 26.4033H187.889L186.14 25.797C185.699 25.6391 185.274 25.4439 184.868 25.2133C184.512 25.0244 184.215 24.7454 184.005 24.405C183.824 24.074 183.73 23.7034 183.732 23.3273C183.729 22.9298 183.824 22.5376 184.01 22.1853C184.197 21.8329 184.468 21.5312 184.8 21.3067C185.551 20.788 186.45 20.5205 187.366 20.5433C188.441 20.6422 189.478 20.9855 190.396 21.5464C191.314 22.1072 192.088 22.8705 192.659 23.7764V20.9699C191.026 20.0864 189.204 19.6015 187.344 19.5554C185.939 19.5014 184.556 19.9123 183.414 20.723C182.906 21.0952 182.498 21.5841 182.225 22.1475C181.952 22.7109 181.822 23.3317 181.847 23.956C181.831 24.5065 181.948 25.0529 182.187 25.5501C182.464 26.0459 182.872 26.4575 183.369 26.74C183.872 27.0576 184.404 27.3282 184.958 27.5483L187.23 28.3566C188.375 28.6836 189.468 29.1672 190.478 29.7934C190.794 30.0326 191.047 30.3428 191.217 30.6981C191.386 31.0535 191.468 31.4437 191.455 31.8365C191.477 32.271 191.389 32.7041 191.199 33.0963C191.008 33.4885 190.721 33.8273 190.364 34.0817C189.639 34.6203 188.75 34.8976 187.843 34.8675C186.66 34.7319 185.525 34.3293 184.525 33.6909C183.524 33.0525 182.686 32.1952 182.074 31.1854H181.938V34.194C183.694 35.2289 185.686 35.8081 187.73 35.8779C189.134 35.9281 190.513 35.5001 191.636 34.6655C192.149 34.2533 192.556 33.7274 192.824 33.1305C193.093 32.5336 193.215 31.8827 193.181 31.2304C193.201 30.6582 193.083 30.0896 192.838 29.5707C192.594 29.0518 192.229 28.5973 191.773 28.2443Z" fill="#272A3D"/>
<path d="M1.68107 16.2326C1.66943 16.6437 1.79745 17.0468 2.04457 17.3776C2.17255 17.5263 2.33317 17.644 2.51426 17.7219C2.69536 17.7997 2.89205 17.8356 3.08932 17.8267C3.43032 17.8301 3.76397 17.728 4.0434 17.5348C4.35624 17.3564 4.6089 17.0909 4.77013 16.7715C4.40594 17.0706 3.94902 17.237 3.47556 17.2429C2.81685 17.2429 2.476 16.8613 2.476 16.0979V11.9892H4.29322V11.5851H2.476V9.99103H2.29439C2.20336 10.4185 2.02569 10.8233 1.77201 11.181C1.6475 11.3365 1.49299 11.4662 1.31757 11.5625C1.14215 11.6588 0.949396 11.7199 0.75 11.7423V11.9892H1.68107V16.2326Z" fill="#272A3D"/>
<path d="M5.72568 10.1482V16.0755C5.71937 16.6202 5.65087 17.1624 5.52133 17.692H6.72496C6.59798 17.162 6.52952 16.62 6.52061 16.0755V12.9322C6.74566 12.6535 7.02825 12.4252 7.34937 12.2627C7.67049 12.1001 8.02296 12.0069 8.38331 11.9892C8.58488 11.983 8.78554 12.0176 8.97306 12.0909C9.16057 12.1643 9.33091 12.2749 9.47353 12.4158C9.62574 12.5869 9.74217 12.7861 9.81623 13.0019C9.8903 13.2177 9.9204 13.4458 9.90496 13.6731V16.0755C9.89865 16.6202 9.83015 17.1624 9.70061 17.692H10.9045C10.7711 17.1626 10.695 16.6207 10.6774 16.0755V13.6058C10.6974 13.3038 10.6553 13.0009 10.5538 12.7154C10.4523 12.4299 10.2935 12.1676 10.0868 11.9443C9.67983 11.5916 9.15128 11.4067 8.61039 11.4279C8.19629 11.4345 7.78978 11.5401 7.4259 11.7355C7.06201 11.931 6.75146 12.2106 6.52061 12.5505V8.32959L5.45312 8.53168C5.65534 9.0463 5.74812 9.59655 5.72568 10.1482Z" fill="#272A3D"/>
<path d="M17.2616 16.1428C16.986 16.4775 16.6401 16.7492 16.248 16.9391C15.8558 17.129 15.4268 17.2327 14.9903 17.2429C14.6745 17.2561 14.36 17.196 14.0721 17.0673C13.7841 16.9386 13.5306 16.745 13.332 16.502C12.9049 15.9322 12.6885 15.2348 12.7189 14.5263V14.3915H17.2616C17.3208 13.5786 17.0604 12.7744 16.5348 12.1464C16.3094 11.885 16.0262 11.6783 15.7073 11.542C15.3883 11.4058 15.042 11.3437 14.695 11.3606C14.3169 11.3505 13.9412 11.4238 13.5955 11.5753C13.2497 11.7268 12.9425 11.9525 12.6961 12.2362C12.1521 12.8575 11.8678 13.6603 11.9011 14.4813C11.8788 15.3007 12.1618 16.0997 12.6961 16.7265C12.9513 17.0129 13.2661 17.2414 13.6189 17.3964C13.9717 17.5514 14.3542 17.6293 14.7403 17.6246C15.2739 17.6244 15.7956 17.4682 16.2395 17.1755C16.6655 16.9254 17.018 16.5693 17.2616 16.1428ZM13.3548 12.4158C13.5011 12.2133 13.6961 12.0499 13.9221 11.9402C14.148 11.8305 14.3979 11.7779 14.6495 11.7871C14.8814 11.7753 15.1127 11.8204 15.3227 11.9183C15.5327 12.0162 15.7151 12.164 15.8534 12.3484C16.1764 12.8273 16.3501 13.3894 16.353 13.965H12.7642C12.8141 13.4049 13.0184 12.8691 13.3548 12.4158Z" fill="#272A3D"/>
<path d="M56.9453 19.8024L81.9306 38.3925L80.4088 19.8024H56.9453Z" fill="#272A3D"/>
<path d="M81.9062 0V17.4225C87.9481 11.7422 96.0343 6.19667 102.053 0.583733C95.898 0.381667 87.7891 0.179614 81.9062 0Z" fill="#272A3D"/>
<path d="M80.4292 18.2757V1.0777L66.1875 18.2757H80.4292Z" fill="#272A3D"/>
<path d="M64.5074 18.3431L67.9372 14.3242C64.9617 11.0687 62.6449 8.48676 59.9646 5.61294C59.7579 5.40357 59.4858 5.26912 59.1923 5.23126C58.1474 5.23126 57.1027 5.23126 56.0352 5.23126V18.388C58.67 18.3655 61.9634 18.388 64.5074 18.3431Z" fill="#272A3D"/>
<path d="M87.9258 13.9874C87.9258 13.9874 99.9187 8.95824 104.916 6.10687H98.4878L87.9258 13.9874Z" fill="#272A3D"/>
<path d="M55.0584 5.65784L50.5156 9.72163H55.0584V5.65784Z" fill="#272A3D"/>
<path d="M84.4055 50L96.4893 44.2075L81.9297 20.7005L84.4055 50Z" fill="#272A3D"/>
<path d="M98.0348 44.2075L107.188 46.0036L88.9492 29.9506L98.0348 44.2075Z" fill="#272A3D"/>
</g>
<defs>
<clipPath id="clip0_993_8343">
<rect width="193" height="50" fill="white"/>
</clipPath>
</defs>
</svg>
