<svg width="194" height="50" viewBox="0 0 194 50" fill="none" xmlns="http://www.w3.org/2000/svg">
<path d="M7.9947 34.5756C7.1956 34.6028 6.40121 34.4443 5.67534 34.1129C4.94947 33.7815 4.31246 33.2863 3.81542 32.6672C2.71498 31.2403 2.15976 29.475 2.24801 27.6829C2.18974 25.9314 2.66443 24.203 3.61079 22.7211C4.00291 22.0904 4.55512 21.5721 5.21258 21.2176C5.87003 20.8631 6.60991 20.6849 7.35864 20.7004C8.43343 20.6678 9.47804 21.0549 10.2661 21.7781C11.1655 22.6089 11.9314 23.5704 12.5375 24.6295H12.6738V21.3516C11.1023 20.3831 9.30043 19.841 7.44959 19.7799C6.45889 19.7528 5.47417 19.9397 4.56404 20.3274C3.65392 20.7152 2.84014 21.2946 2.17981 22.0251C0.730537 23.665 -0.0112226 25.8007 0.113041 27.9748C0.000344917 30.1502 0.731525 32.2861 2.15735 33.947C2.79981 34.6753 3.59721 35.2543 4.49251 35.6425C5.3878 36.0306 6.35864 36.2183 7.33591 36.1921C8.59133 36.2034 9.82292 35.8522 10.8794 35.1818C12.012 34.4658 12.905 33.4347 13.4461 32.2182C12.7589 32.9713 11.9172 33.571 10.9773 33.9775C10.0373 34.384 9.02061 34.5879 7.9947 34.5756Z" fill="white"/>
<path d="M22.5999 19.7798C21.5901 19.7596 20.5873 19.949 19.6562 20.3357C18.725 20.7225 17.8862 21.2979 17.194 22.0249C15.7224 23.6303 14.9474 25.7427 15.0362 27.9073C14.9524 30.0846 15.7259 32.2093 17.194 33.8346C17.8817 34.5673 18.7196 35.1465 19.6519 35.5337C20.5841 35.9208 21.5891 36.107 22.5999 36.0798C23.6101 36.1027 24.6138 35.9146 25.5454 35.5277C26.4769 35.1408 27.3154 34.5639 28.0058 33.8346C29.5236 32.2319 30.3399 30.1017 30.2772 27.9073C30.3104 26.8305 30.1268 25.7579 29.7368 24.7519C29.3469 23.7459 28.7584 22.8266 28.0058 22.0474C27.3157 21.3163 26.4779 20.7366 25.5466 20.346C24.6153 19.9554 23.6114 19.7625 22.5999 19.7798ZM26.4386 33.0488C26.0234 33.6802 25.4542 34.1982 24.7834 34.5552C24.1126 34.9123 23.3618 35.0968 22.5999 35.0919C21.8343 35.1006 21.0788 34.9179 20.4037 34.5607C19.7286 34.2035 19.1558 33.6834 18.7385 33.0488C17.7118 31.5226 17.1955 29.7164 17.2622 27.8848C17.1926 26.0669 17.7096 24.2742 18.7385 22.7658C19.1585 22.1354 19.7325 21.6197 20.4074 21.2665C21.0823 20.9134 21.8363 20.734 22.5999 20.7452C23.3618 20.7403 24.1126 20.9248 24.7834 21.2818C25.4542 21.6388 26.0234 22.1569 26.4386 22.7883C27.4826 24.2823 28.0087 26.0704 27.9378 27.8848C28.0137 29.7208 27.4878 31.5319 26.4386 33.0488Z" fill="white"/>
<path d="M37.5233 20.2517C36.5254 20.7034 35.6926 21.4482 35.1384 22.3847V19.9598H32.6172V20.0721C32.9461 21.4257 33.1213 22.8113 33.1396 24.2032V31.6348C33.1213 33.0267 32.9461 34.4123 32.6172 35.7659V35.8782H35.6835V35.7659C35.3475 34.4131 35.1646 33.0275 35.1384 31.6348V23.2154C35.5943 22.576 36.2244 22.0777 36.9555 21.7784C37.4692 21.5745 38.015 21.4606 38.5682 21.4417C38.9126 21.4534 39.2548 21.4985 39.5902 21.5764C40.1452 21.7246 40.6634 21.9845 41.1122 22.3397H41.2257L41.521 19.9374C40.9978 19.7806 40.4549 19.6974 39.9083 19.6904C39.0847 19.7278 38.2756 19.9182 37.5233 20.2517Z" fill="white"/>
<path d="M50.5607 34.5761C49.7514 34.6134 48.9449 34.4575 48.2095 34.1214C47.4741 33.7853 46.8314 33.279 46.336 32.6453C45.2408 31.2157 44.6863 29.4524 44.7687 27.661V27.2793H56.1257C56.2251 25.2972 55.5685 23.3503 54.2858 21.8235C53.7031 21.1613 52.9794 20.6347 52.1665 20.2814C51.3537 19.9282 50.4717 19.7571 49.5841 19.7804C48.6175 19.7596 47.6582 19.95 46.7748 20.3381C45.8913 20.7262 45.1055 21.3025 44.4734 22.0256C43.0888 23.6641 42.3684 25.7521 42.4519 27.8855C42.3541 30.0529 43.1023 32.1747 44.5416 33.8128C45.1861 34.5387 45.9838 35.116 46.8786 35.504C47.7734 35.8919 48.7435 36.081 49.7203 36.0579C51.0794 36.0609 52.4082 35.6621 53.5362 34.9129C54.7093 34.143 55.6383 33.0612 56.2165 31.7921C55.5266 32.6251 54.6658 33.304 53.6908 33.7839C52.7159 34.2638 51.649 34.5338 50.5607 34.5761ZM46.336 22.295C46.7187 21.7857 47.2198 21.3749 47.797 21.0975C48.3743 20.82 49.0106 20.684 49.6523 20.701C50.2448 20.6803 50.8334 20.8023 51.3676 21.0566C51.9018 21.3108 52.3654 21.6896 52.7186 22.1603C53.5426 23.3762 53.9851 24.8055 53.9906 26.2689L44.905 26.4261C44.9872 24.9449 45.4825 23.5151 46.336 22.295Z" fill="white"/>
<path d="M109.027 11.6299L106.278 12.1238C106.8 13.4065 107.04 14.784 106.982 16.1651V21.5311C106.442 20.8561 105.75 20.3143 104.962 19.9481C104.174 19.5819 103.31 19.4013 102.44 19.4206C101.502 19.4169 100.575 19.616 99.7237 20.0039C98.8722 20.3917 98.1169 20.9589 97.5107 21.6658C96.0546 23.408 95.3166 25.6287 95.4438 27.8849C95.3404 29.9496 95.9756 31.9845 97.2381 33.6326C97.7833 34.304 98.4753 34.8447 99.262 35.2141C100.049 35.5835 100.91 35.772 101.781 35.7655C102.808 35.7715 103.82 35.5165 104.719 35.0251C105.617 34.5337 106.373 33.8222 106.914 32.959C106.974 33.4819 107.073 33.9997 107.21 34.5082L107.437 35.541H109.435C109.076 34.185 108.893 32.7892 108.89 31.3874L109.027 11.6299ZM107.005 31.8364C106.538 32.6319 105.878 33.3004 105.085 33.7823C104.293 34.2642 103.391 34.5445 102.462 34.598C101.754 34.621 101.053 34.4509 100.436 34.1064C99.8192 33.7619 99.31 33.2562 98.9644 32.6447C98.0788 31.142 97.6454 29.4206 97.7151 27.6829C97.6226 25.8758 98.1247 24.0878 99.1461 22.5863C99.5566 21.9931 100.11 21.5102 100.756 21.181C101.403 20.8518 102.122 20.6866 102.849 20.7004C103.657 20.7037 104.454 20.8967 105.173 21.2636C105.891 21.6305 106.512 22.1608 106.982 22.8109L107.005 31.8364Z" fill="white"/>
<path d="M120.11 34.2836C119.3 34.318 118.494 34.163 117.756 33.8315C117.018 33.4999 116.369 33.0009 115.863 32.3752C114.786 30.929 114.241 29.1626 114.318 27.3685V26.9868H125.675C125.775 25.0047 125.118 23.0578 123.835 21.531C123.251 20.8712 122.527 20.3463 121.714 19.9932C120.902 19.6402 120.021 19.4677 119.134 19.4879C118.167 19.4686 117.208 19.6598 116.325 20.0478C115.442 20.4358 114.656 21.0112 114.023 21.7331C112.636 23.3615 111.915 25.4436 112.001 27.5706C111.912 29.7397 112.65 31.8629 114.068 33.5203C114.721 34.242 115.524 34.8162 116.421 35.2037C117.319 35.5911 118.291 35.7827 119.27 35.7654C120.627 35.7751 121.955 35.3842 123.086 34.6428C124.26 33.8641 125.188 32.775 125.766 31.4996C125.08 32.337 124.22 33.019 123.244 33.4993C122.269 33.9796 121.2 34.2471 120.11 34.2836ZM115.886 22.0025C116.271 21.4973 116.773 21.0908 117.35 20.8174C117.927 20.5439 118.562 20.4114 119.202 20.4309C119.795 20.4063 120.385 20.5266 120.92 20.7812C121.455 21.0357 121.918 21.4167 122.268 21.8903C123.08 23.1037 123.521 24.5221 123.54 25.9765L114.455 26.1561C114.536 24.6678 115.031 23.2306 115.886 22.0025Z" fill="white"/>
<path d="M134.693 26.4034H134.557L132.808 25.7971C132.366 25.6435 131.94 25.4481 131.536 25.2134C131.181 25.0245 130.883 24.7455 130.673 24.4051C130.492 24.0741 130.399 23.7035 130.4 23.3274C130.397 22.9299 130.493 22.5377 130.679 22.1854C130.865 21.833 131.136 21.5313 131.468 21.3068C132.218 20.7852 133.118 20.5174 134.035 20.5434C135.109 20.6423 136.146 20.9856 137.064 21.5464C137.982 22.1073 138.757 22.8706 139.327 23.7765V20.97C137.687 20.0863 135.857 19.6015 133.989 19.5555C132.591 19.5013 131.216 19.9125 130.082 20.7231C129.575 21.0952 129.167 21.5842 128.894 22.1476C128.621 22.711 128.491 23.3318 128.515 23.9561C128.5 24.5066 128.616 25.053 128.856 25.5502C129.13 26.0405 129.529 26.4509 130.014 26.7401C130.523 27.0489 131.054 27.319 131.604 27.5483L133.876 28.3566C135.014 28.6828 136.1 29.1665 137.101 29.7935C137.421 30.0288 137.677 30.3382 137.848 30.6945C138.018 31.0508 138.097 31.443 138.078 31.8366C138.103 32.2691 138.018 32.7009 137.832 33.093C137.645 33.485 137.363 33.8248 137.01 34.0818C136.282 34.614 135.394 34.8906 134.489 34.8676C133.304 34.7304 132.166 34.3273 131.162 33.6892C130.158 33.0511 129.315 32.1947 128.697 31.1855H128.379V34.1941C130.128 35.2254 132.113 35.8045 134.148 35.878C135.553 35.9319 136.934 35.5035 138.055 34.6656C138.575 34.2581 138.988 33.7336 139.261 33.1361C139.533 32.5385 139.657 31.8851 139.622 31.2305C139.653 30.6841 139.559 30.1379 139.346 29.6325C139.134 29.1271 138.809 28.6757 138.396 28.3117C137.296 27.4481 136.039 26.8004 134.693 26.4034Z" fill="white"/>
<path d="M144.075 11.989C143.858 11.9826 143.641 12.0189 143.439 12.096C143.236 12.1731 143.051 12.2894 142.894 12.438C142.737 12.5896 142.614 12.7716 142.532 12.9725C142.45 13.1734 142.41 13.3889 142.417 13.6055C142.412 13.8186 142.452 14.0302 142.534 14.2272C142.616 14.4243 142.739 14.6024 142.894 14.7506C143.051 14.8992 143.236 15.0155 143.439 15.0926C143.641 15.1697 143.858 15.2061 144.075 15.1996C144.506 15.2066 144.922 15.0453 145.233 14.7506C145.388 14.6024 145.51 14.4243 145.593 14.2272C145.675 14.0302 145.715 13.8186 145.71 13.6055C145.716 13.3889 145.677 13.1734 145.595 12.9725C145.513 12.7716 145.39 12.5896 145.233 12.438C144.922 12.1433 144.506 11.982 144.075 11.989Z" fill="white"/>
<path d="M145.119 19.6904H142.643C142.971 21.0442 143.146 22.4297 143.166 23.8215V31.2531C143.132 32.6541 142.942 34.0472 142.598 35.4066H145.641C145.313 34.0453 145.138 32.6523 145.119 31.2531V19.6904Z" fill="white"/>
<path d="M158.475 33.3184H153.206C151.32 33.3184 150.389 32.802 150.389 31.7692C150.384 31.3679 150.539 30.9807 150.821 30.6915C151.129 30.3769 151.524 30.1584 151.956 30.0629C152.898 30.5136 153.932 30.7441 154.977 30.7365C156.58 30.7586 158.136 30.2085 159.361 29.1873C159.972 28.6949 160.459 28.0702 160.786 27.3616C161.113 26.653 161.27 25.8795 161.246 25.1011C161.268 24.2418 161.072 23.3908 160.675 22.626C160.278 21.8612 159.694 21.2069 158.975 20.723C159.508 20.4475 160.1 20.3013 160.701 20.2964C161.298 20.3018 161.884 20.4563 162.405 20.7454L162.791 18.837C162.496 18.8147 162.2 18.8147 161.905 18.837C161.243 18.8039 160.583 18.9443 159.992 19.2439C159.402 19.5435 158.902 19.9917 158.544 20.5434C157.459 19.9042 156.218 19.5704 154.955 19.578C153.353 19.5444 151.797 20.1051 150.594 21.1495C149.999 21.6428 149.525 22.2625 149.206 22.9622C148.888 23.662 148.733 24.4238 148.754 25.1909C148.727 26.0814 148.935 26.9634 149.357 27.7506C149.779 28.5378 150.401 29.2031 151.162 29.6812C150.496 29.8411 149.906 30.2233 149.492 30.7633C149.078 31.3032 148.866 31.9679 148.89 32.6449C148.855 33.1182 148.972 33.5905 149.225 33.9938C149.478 34.3972 149.854 34.711 150.298 34.8901C149.736 35.2244 149.271 35.6989 148.952 36.2664C148.634 36.8338 148.471 37.4741 148.481 38.1231C148.466 38.8193 148.69 39.5 149.117 40.0539C149.579 40.6116 150.183 41.0377 150.866 41.2887C151.594 41.5873 152.357 41.7911 153.138 41.895C153.889 42.0101 154.648 42.0701 155.409 42.0746C156.169 42.0789 156.928 42.0264 157.68 41.9174C158.499 41.7842 159.305 41.5814 160.088 41.3112C160.93 41.0569 161.669 40.5461 162.2 39.8519C162.747 39.1446 163.028 38.2716 162.995 37.3822C163.027 36.827 162.931 36.2719 162.715 35.7586C162.498 35.2454 162.167 34.7872 161.746 34.4185C160.832 33.6626 159.666 33.2704 158.475 33.3184ZM150.912 25.1011C150.83 23.8407 151.236 22.597 152.047 21.6211C152.417 21.2188 152.87 20.9001 153.376 20.687C153.882 20.4738 154.428 20.3712 154.977 20.3862C155.527 20.3727 156.073 20.476 156.578 20.689C157.084 20.9021 157.537 21.2199 157.908 21.6211C158.735 22.5891 159.15 23.8366 159.066 25.1011C159.148 26.3653 158.733 27.6119 157.908 28.5811C157.541 28.9887 157.089 29.3123 156.583 29.5295C156.077 29.7466 155.529 29.8521 154.977 29.8384C154.426 29.8506 153.879 29.7444 153.373 29.5273C152.867 29.3103 152.415 28.9875 152.047 28.5811C151.24 27.6031 150.835 26.3608 150.912 25.1011ZM159.77 40.1213C158.57 40.865 157.162 41.211 155.75 41.1092C154.339 41.1801 152.937 40.853 151.707 40.1662C151.25 39.9054 150.872 39.5285 150.612 39.0744C150.352 38.6203 150.22 38.1057 150.23 37.5842C150.22 37.136 150.302 36.6904 150.469 36.2738C150.637 35.8573 150.888 35.4783 151.207 35.1595C151.768 35.2695 152.339 35.3221 152.91 35.3166H158.498C158.857 35.2933 159.216 35.3452 159.553 35.469C159.889 35.5929 160.196 35.7857 160.451 36.035C160.89 36.5135 161.126 37.1406 161.11 37.7863C161.096 38.2539 160.966 38.7111 160.733 39.118C160.499 39.5249 160.169 39.8693 159.77 40.1213Z" fill="white"/>
<path d="M178.577 25.056C178.653 24.2799 178.554 23.4967 178.287 22.763C178.02 22.0292 177.591 21.3631 177.033 20.8126C176.002 19.9272 174.673 19.4547 173.308 19.488C172.252 19.52 171.218 19.7942 170.287 20.2891C169.357 20.7839 168.556 21.4858 167.947 22.3393V19.69H165.426C165.765 21.0418 165.94 22.4285 165.948 23.8211V31.2527C165.94 32.6527 165.765 34.0469 165.426 35.4062H168.515C168.162 34.0484 167.972 32.6543 167.947 31.2527V23.3048C168.521 22.5911 169.24 22.0045 170.058 21.5829C170.875 21.1613 171.774 20.9142 172.694 20.8576C173.206 20.8418 173.716 20.9292 174.192 21.1145C174.668 21.2998 175.102 21.579 175.465 21.9352C175.862 22.3673 176.165 22.875 176.357 23.427C176.548 23.9791 176.624 24.5639 176.578 25.1458V31.2527C176.57 32.6527 176.395 34.0469 176.056 35.4062H179.145C178.792 34.0484 178.602 32.6543 178.577 31.2527V25.056Z" fill="white"/>
<path d="M191.773 28.2443C190.654 27.3996 189.382 26.7747 188.025 26.4033H187.889L186.14 25.7971C185.699 25.6392 185.274 25.4439 184.868 25.2134C184.512 25.0245 184.215 24.7455 184.005 24.4051C183.824 24.0741 183.73 23.7035 183.732 23.3274C183.729 22.9299 183.824 22.5377 184.01 22.1853C184.197 21.833 184.468 21.5313 184.8 21.3067C185.551 20.788 186.45 20.5206 187.366 20.5434C188.441 20.6422 189.478 20.9855 190.396 21.5464C191.314 22.1073 192.088 22.8705 192.659 23.7764V20.97C191.026 20.0865 189.204 19.6015 187.344 19.5555C185.939 19.5014 184.556 19.9123 183.414 20.723C182.906 21.0952 182.498 21.5842 182.225 22.1476C181.952 22.711 181.822 23.3318 181.847 23.956C181.831 24.5066 181.948 25.0529 182.187 25.5502C182.464 26.046 182.872 26.4576 183.369 26.7401C183.872 27.0577 184.404 27.3282 184.958 27.5483L187.23 28.3566C188.375 28.6836 189.468 29.1672 190.478 29.7935C190.794 30.0327 191.047 30.3428 191.217 30.6982C191.386 31.0535 191.468 31.4438 191.455 31.8366C191.477 32.2711 191.389 32.7042 191.199 33.0964C191.008 33.4886 190.721 33.8273 190.364 34.0818C189.639 34.6204 188.75 34.8977 187.843 34.8676C186.66 34.732 185.525 34.3294 184.525 33.691C183.524 33.0525 182.686 32.1953 182.074 31.1855H181.938V34.1941C183.694 35.229 185.686 35.8082 187.73 35.878C189.134 35.9282 190.513 35.5002 191.636 34.6655C192.149 34.2533 192.556 33.7274 192.824 33.1306C193.093 32.5337 193.215 31.8827 193.181 31.2304C193.201 30.6583 193.083 30.0896 192.838 29.5707C192.594 29.0519 192.229 28.5974 191.773 28.2443Z" fill="white"/>
<path d="M1.68107 16.2328C1.66943 16.6439 1.79745 17.047 2.04457 17.3778C2.17255 17.5265 2.33317 17.6442 2.51426 17.722C2.69536 17.7999 2.89205 17.8357 3.08932 17.8269C3.43032 17.8303 3.76397 17.7282 4.0434 17.535C4.35624 17.3566 4.6089 17.0911 4.77013 16.7716C4.40594 17.0707 3.94902 17.2372 3.47556 17.2431C2.81685 17.2431 2.476 16.8614 2.476 16.0981V11.9894H4.29322V11.5853H2.476V9.99121H2.29439C2.20336 10.4187 2.02569 10.8235 1.77201 11.1811C1.6475 11.3367 1.49299 11.4664 1.31757 11.5627C1.14215 11.659 0.949396 11.7201 0.75 11.7424V11.9894H1.68107V16.2328Z" fill="white"/>
<path d="M5.72373 10.1477V16.075C5.71742 16.6197 5.64892 17.162 5.51938 17.6915H6.72301C6.59603 17.1615 6.52757 16.6195 6.51866 16.075V12.9317C6.74371 12.653 7.0263 12.4247 7.34742 12.2622C7.66854 12.0996 8.021 12.0064 8.38135 11.9887C8.58292 11.9825 8.78359 12.0171 8.9711 12.0905C9.15862 12.1638 9.32896 12.2744 9.47158 12.4153C9.62378 12.5865 9.74022 12.7856 9.81428 13.0014C9.88834 13.2172 9.91844 13.4453 9.90301 13.6726V16.075C9.8967 16.6197 9.8282 17.162 9.69866 17.6915H10.9026C10.7691 17.1621 10.6931 16.6202 10.6755 16.075V13.6053C10.6954 13.3033 10.6533 13.0004 10.5518 12.7149C10.4503 12.4294 10.2915 12.1671 10.0849 11.9438C9.67788 11.5911 9.14933 11.4062 8.60844 11.4275C8.19434 11.434 7.78783 11.5396 7.42394 11.7351C7.06006 11.9305 6.7495 12.2102 6.51866 12.55V8.3291L5.45117 8.53119C5.65339 9.04581 5.74616 9.59606 5.72373 10.1477Z" fill="white"/>
<path d="M17.2636 16.1424C16.9879 16.4771 16.642 16.7488 16.2499 16.9387C15.8578 17.1286 15.4288 17.2323 14.9922 17.2425C14.6765 17.2557 14.362 17.1955 14.074 17.0669C13.7861 16.9382 13.5326 16.7446 13.334 16.5016C12.9068 15.9318 12.6905 15.2344 12.7208 14.5258V14.3911H17.2636C17.3228 13.5781 17.0624 12.7739 16.5367 12.1459C16.3113 11.8846 16.0282 11.6778 15.7092 11.5416C15.3903 11.4054 15.044 11.3433 14.6969 11.3601C14.3189 11.35 13.9432 11.4234 13.5974 11.5749C13.2516 11.7263 12.9445 11.9521 12.6981 12.2357C12.1541 12.8571 11.8697 13.6599 11.903 14.4809C11.8808 15.3003 12.1638 16.0992 12.6981 16.7261C12.9533 17.0125 13.268 17.241 13.6208 17.396C13.9737 17.551 14.3562 17.6288 14.7423 17.6241C15.2758 17.624 15.7975 17.4678 16.2414 17.1751C16.6675 16.9249 17.0199 16.5689 17.2636 16.1424ZM13.3567 12.4154C13.5031 12.2129 13.6981 12.0495 13.924 11.9398C14.15 11.8301 14.3999 11.7775 14.6514 11.7867C14.8834 11.7749 15.1146 11.82 15.3247 11.9179C15.5347 12.0158 15.7171 12.1636 15.8554 12.348C16.1783 12.8269 16.352 13.389 16.355 13.9645H12.7662C12.8161 13.4045 13.0204 12.8687 13.3567 12.4154Z" fill="white"/>
<path d="M56.9434 19.8027L81.9286 38.3928L80.4068 19.8027H56.9434Z" fill="white"/>
<path d="M81.9062 0V17.4225C87.9481 11.7422 96.0343 6.19667 102.053 0.583733C95.898 0.381667 87.7891 0.179614 81.9062 0Z" fill="white"/>
<path d="M80.4292 18.2762V1.07812L66.1875 18.2762H80.4292Z" fill="white"/>
<path d="M64.5074 18.3432L67.9372 14.3244C64.9617 11.0689 62.6449 8.48694 59.9646 5.61312C59.7579 5.40375 59.4858 5.26931 59.1923 5.23145C58.1474 5.23145 57.1027 5.23145 56.0352 5.23145V18.3882C58.67 18.3657 61.9634 18.3882 64.5074 18.3432Z" fill="white"/>
<path d="M87.9258 13.987C87.9258 13.987 99.9187 8.95781 104.916 6.10645H98.4878L87.9258 13.987Z" fill="white"/>
<path d="M55.0584 5.6582L50.5156 9.72199H55.0584V5.6582Z" fill="white"/>
<path d="M84.4055 49.9997L96.4893 44.2072L81.9297 20.7002L84.4055 49.9997Z" fill="white"/>
<path d="M98.0328 44.207L107.187 46.0032L88.9473 29.9502L98.0328 44.207Z" fill="white"/>
</svg>
