<svg width="133" height="50" viewBox="0 0 133 50" fill="none" xmlns="http://www.w3.org/2000/svg">
<g clip-path="url(#clip0_1564_991)">
<path d="M97.4951 27.2058C96.4339 27.201 95.418 26.7663 94.6704 25.9972C93.9228 25.2281 93.5047 24.1873 93.5078 23.1036C93.5187 22.029 93.9435 21.0021 94.6903 20.245C95.4371 19.4879 96.4458 19.0617 97.498 19.0586C98.5589 19.0626 99.5749 19.4966 100.323 20.2653C101.07 21.0339 101.488 22.0743 101.485 23.1578C101.474 24.2326 101.05 25.2599 100.303 26.0175C99.5563 26.775 98.5476 27.2019 97.4951 27.2058V27.2058Z" fill="#FF0000"/>
<path d="M25.5476 25.6492C21.8109 29.9109 15.799 30.576 11.467 27.0818C7.80093 24.1233 6.58971 20.1596 7.46202 15.5307C7.77332 13.8841 8.46073 12.3358 9.46833 11.0116C10.4759 9.68742 11.7753 8.62479 13.2608 7.91009C14.7463 7.19539 16.3759 6.84879 18.0173 6.89849C19.6586 6.94819 21.2653 7.39278 22.7067 8.1961C23.8679 8.8492 24.861 9.81831 26.025 10.7152L31.1115 6.89291C29.9181 5.33688 28.4497 4.02306 26.7824 3.01946C22.6566 0.560552 18.2568 0.00977824 13.6536 1.06015C1.76551 3.80498 -2.97617 16.9362 2.59067 26.829C5.44334 31.8973 9.86971 34.7294 15.522 35.4427C21.1213 36.15 26.0545 34.5398 30.1891 30.549C30.6017 30.1517 30.973 29.7123 31.4003 29.2548L26.137 24.975L25.5476 25.6492Z" fill="#17313B"/>
<path d="M132.552 19.7953C132.546 19.146 132.478 18.4988 132.349 17.8631C131.17 12.0063 125.774 9.64367 120.779 10.995C119.685 11.296 118.678 11.8979 117.593 12.3855V1.29785H111.717V34.8678H117.611V32.1591C117.611 28.3548 117.611 24.5506 117.611 20.7434C117.644 19.638 118.064 18.5815 118.795 17.765C119.525 16.9485 120.517 16.426 121.592 16.2921C123.101 16.0543 125.258 16.7315 126.11 18.8352C126.431 19.6569 126.598 20.5329 126.602 21.4175C126.652 25.6762 126.626 29.9349 126.626 34.1936V34.8678H132.52C132.52 34.6812 132.546 34.5457 132.546 34.4073C132.564 29.5346 132.57 24.665 132.552 19.7953Z" fill="#17313B"/>
<path d="M58.9416 11.465V12.2204C58.9416 16.2233 58.9416 20.2232 58.9416 24.226C58.948 24.9546 58.8799 25.6819 58.7383 26.396C58.2667 28.6051 56.6341 29.9565 54.5152 29.9685C52.4524 29.9685 50.9199 28.6834 50.4248 26.4321C50.2798 25.7397 50.2077 25.0334 50.2097 24.3253C50.192 20.2864 50.2097 16.2444 50.2097 12.2024V11.459H44.2598V12.1783C44.2598 16.5363 44.2598 20.8933 44.2598 25.2493C44.2598 25.7008 44.2598 26.1522 44.301 26.6067C44.5957 30.7992 47.0152 33.9593 50.8168 35.106C52.8652 35.7166 55.0314 35.7891 57.1145 35.3167C57.7172 35.1863 58.3085 35.0061 58.8827 34.778V35.4702H64.7973V26.6639C64.8398 26.2429 64.8615 25.82 64.8621 25.3968C64.8621 20.9395 64.8945 16.4851 64.9092 12.0278C64.9092 11.8533 64.9092 11.6787 64.9092 11.465H58.9416Z" fill="#17313B"/>
<path d="M96.2071 29.8598C93.3131 29.2879 91.2591 26.8501 90.9939 23.7742C90.7345 20.7645 92.4114 17.8572 94.9988 16.8189C96.2786 16.2861 97.6927 16.19 99.0303 16.545C100.854 17.0295 102.154 18.1822 103.029 19.9248L108.334 16.9362C107.665 15.656 106.746 14.5293 105.634 13.6256C101.803 10.5918 97.5509 9.95982 93.0214 11.4948C85.8396 13.9296 82.5979 22.3536 86.1962 29.0201C90.0273 36.0898 99.8967 37.8535 105.864 32.5263C107.188 31.3703 108.231 29.9167 108.911 28.2797L103.474 25.6402C101.88 29.5016 98.6177 30.3534 96.2071 29.8598Z" fill="#17313B"/>
<path d="M77.9768 4.77148H72.018V11.4409H67.9512V16.7289H72.0386V34.8682H78.0033V16.6778H83.0633V11.3928H77.9768V4.77148Z" fill="#17313B"/>
<path d="M34.2344 34.8827H40.0665V1.30078H34.2285L34.2344 34.8827Z" fill="#17313B"/>
<path d="M30.2209 44.4058H28.2788V46.1575H30.0677V46.6902H28.2788V48.9294H27.6895V43.8701H30.2032L30.2209 44.4058Z" fill="#17313B"/>
<path d="M32.4488 48.9294H31.8594V43.8701H32.4488V48.9294Z" fill="#17313B"/>
<path d="M38.0033 48.9294H37.3137L36.4856 47.5119C36.4189 47.3949 36.345 47.2824 36.2646 47.1748C36.2008 47.0892 36.1266 47.0123 36.0436 46.9461C35.9713 46.8884 35.8894 46.8446 35.8019 46.8167C35.7062 46.7885 35.6068 46.7753 35.5072 46.7775H35.0328V48.9294H34.4434V43.8702H35.9168C36.1163 43.8688 36.3148 43.8972 36.5062 43.9544C36.6801 44.0036 36.8418 44.0898 36.9807 44.2073C37.1174 44.3206 37.2263 44.4648 37.299 44.6286C37.3784 44.8187 37.4166 45.024 37.411 45.2305C37.4124 45.3953 37.3865 45.5592 37.3343 45.7151C37.2831 45.8584 37.2083 45.9917 37.1133 46.1094C37.0148 46.2278 36.8984 46.3294 36.7685 46.4103C36.6264 46.4935 36.4736 46.5563 36.3147 46.5969V46.606C36.3913 46.6399 36.4636 46.6833 36.5298 46.7354C36.5935 46.7862 36.6517 46.8437 36.7037 46.9069C36.7636 46.9772 36.8187 47.0517 36.8687 47.1297C36.9218 47.2139 36.9836 47.3102 37.0485 47.4306L38.0033 48.9294ZM35.0357 44.4149V46.2508H35.8225C35.9588 46.2514 36.0942 46.229 36.2233 46.1846C36.3413 46.1417 36.4503 46.0763 36.5445 45.992C36.6338 45.9075 36.7051 45.805 36.7538 45.691C36.8057 45.5611 36.8317 45.422 36.8304 45.2817C36.8365 45.1635 36.8166 45.0454 36.7722 44.9361C36.7279 44.8267 36.6601 44.7289 36.574 44.6497C36.3605 44.4843 36.0958 44.4031 35.8284 44.4209L35.0357 44.4149Z" fill="#17313B"/>
<path d="M44.4457 48.9295H43.8563V45.5346C43.8563 45.2668 43.8711 44.9327 43.9035 44.5505C43.8671 44.718 43.8168 44.8821 43.7532 45.041L42.0616 48.9295H41.7669L40.0783 45.0711C40.0145 44.9023 39.9652 44.728 39.931 44.5505H39.9162C39.9339 44.7551 39.9427 45.0832 39.9427 45.5436V48.9295H39.3828V43.8703H40.152L41.6697 47.3976C41.7607 47.5919 41.8365 47.7931 41.8966 47.9995H41.9202C42.0174 47.7227 42.097 47.515 42.1559 47.3765L43.709 43.8643H44.4339L44.4457 48.9295Z" fill="#17313B"/>
<path d="M46.2227 48.713V48.0148C46.3079 48.0896 46.402 48.1533 46.5026 48.2044C46.6146 48.2618 46.7309 48.3101 46.8504 48.3488C46.9694 48.385 47.0905 48.4142 47.2128 48.4361C47.3247 48.4566 47.4381 48.4677 47.5517 48.4692C47.8321 48.4894 48.1115 48.4188 48.3504 48.2676C48.4379 48.1998 48.5079 48.1112 48.5542 48.0094C48.6004 47.9076 48.6215 47.7958 48.6156 47.6837C48.6186 47.5583 48.588 47.4345 48.5272 47.3256C48.4633 47.2194 48.3814 47.1257 48.2855 47.0487C48.1693 46.9592 48.0461 46.8797 47.9172 46.8109C47.7757 46.7327 47.6225 46.6514 47.4574 46.5671C47.2865 46.4798 47.1244 46.3895 46.9741 46.2962C46.833 46.2123 46.7024 46.1113 46.5851 45.9953C46.4752 45.8879 46.3862 45.7603 46.3229 45.6191C46.2571 45.4644 46.2249 45.2971 46.2285 45.1285C46.2235 44.9176 46.2755 44.7093 46.3788 44.5266C46.4757 44.3579 46.6087 44.2138 46.7678 44.1052C46.9364 43.9914 47.1228 43.9079 47.3189 43.8584C47.5249 43.8042 47.7368 43.7769 47.9496 43.7771C48.314 43.7542 48.6787 43.8159 49.0164 43.9577V44.6229C48.6799 44.4079 48.2871 44.3029 47.8906 44.3219C47.7628 44.3225 47.6354 44.3366 47.5105 44.364C47.3908 44.3876 47.2761 44.4324 47.1716 44.4965C47.0748 44.5552 46.9922 44.6355 46.9299 44.7312C46.866 44.8368 46.8342 44.9593 46.8386 45.0834C46.8356 45.1999 46.8599 45.3154 46.9093 45.4204C46.9598 45.5195 47.03 45.6067 47.1156 45.6763C47.2212 45.7624 47.3347 45.838 47.4545 45.902C47.5871 45.9772 47.7492 46.0555 47.9113 46.1428C48.0733 46.23 48.2561 46.3264 48.4152 46.4257C48.5663 46.5187 48.7066 46.6287 48.8337 46.7537C48.9524 46.8689 49.0519 47.0031 49.1284 47.151C49.1989 47.3086 49.2342 47.4803 49.2315 47.6536C49.2378 47.8731 49.1891 48.0907 49.0901 48.2857C48.9949 48.4556 48.8615 48.6 48.7011 48.707C48.5299 48.8193 48.3402 48.8989 48.1411 48.9418C47.9214 48.9907 47.6971 49.0149 47.4722 49.014C47.3736 49.0134 47.2752 49.0063 47.1775 48.9929C47.0625 48.9929 46.9447 48.9628 46.8268 48.9387C46.7111 48.9148 46.5969 48.8836 46.4849 48.8454C46.3919 48.8141 46.3036 48.7695 46.2227 48.713V48.713Z" fill="#17313B"/>
<path d="M56.4929 44.4058H55.0607V48.9204H54.4713V44.4058H53.0449V43.8701H56.4811L56.4929 44.4058Z" fill="#17313B"/>
<path d="M61.6997 48.9294H61.1103V46.621H58.5464V48.9294H57.957V43.8701H58.5464V46.0883H61.1103V43.8701H61.6997V48.9294Z" fill="#17313B"/>
<path d="M67.5386 48.9294H66.8844L66.3598 47.5118H64.2586L63.7665 48.9294H63.1211L65.019 43.8701H65.6083L67.5386 48.9294ZM66.1801 46.9791L65.405 44.8242C65.3702 44.7132 65.3446 44.5995 65.3284 44.4841H65.3136C65.2968 44.5996 65.2701 44.7134 65.2341 44.8242L64.4649 46.9791H66.1801Z" fill="#17313B"/>
<path d="M71.3962 44.4058H69.9669V48.9204H69.3775V44.4058H67.9512V43.8701H71.3873L71.3962 44.4058Z" fill="#17313B"/>
<path d="M75.5254 48.9294V43.8701H76.9046C78.6492 43.8701 79.5215 44.6918 79.5215 46.335C79.5366 46.6837 79.4796 47.0317 79.3542 47.3563C79.2288 47.681 79.0377 47.9749 78.7936 48.2191C78.531 48.4622 78.2241 48.6501 77.8903 48.772C77.5566 48.8939 77.2026 48.9473 76.8486 48.9294H75.5254ZM76.1148 44.4149V48.4027H76.8515C77.4066 48.4375 77.9524 48.2459 78.3692 47.87C78.5567 47.6712 78.7018 47.4348 78.7951 47.1757C78.8884 46.9167 78.9281 46.6407 78.9114 46.3652C78.9114 45.071 78.2366 44.4229 76.8869 44.4209L76.1148 44.4149Z" fill="#17313B"/>
<path d="M83.8142 48.9294H81.1914V43.8701H83.7052V44.4058H81.769V46.0883H83.5578V46.621H81.769V48.3937H83.8142V48.9294Z" fill="#17313B"/>
<path d="M88.0463 48.9294H85.4766V43.8701H86.066V48.3846H88.0552L88.0463 48.9294Z" fill="#17313B"/>
<path d="M90.0913 48.9294H89.502V43.8701H90.0913V48.9294Z" fill="#17313B"/>
<path d="M95.7828 43.8701L93.9498 48.9294H93.3103L91.5156 43.8701H92.161L93.5314 47.882C93.579 48.0278 93.6126 48.178 93.6316 48.3305H93.6463C93.6677 48.1741 93.7062 48.0206 93.7612 47.873L95.1581 43.8701H95.7828Z" fill="#17313B"/>
<path d="M99.8259 48.9294H97.2031V43.8701H99.7169V44.4058H97.7837V46.0883H99.5725V46.621H97.7837V48.3937H99.8259V48.9294Z" fill="#17313B"/>
<path d="M105.036 48.9294H104.347L103.519 47.5119C103.452 47.3949 103.378 47.2823 103.298 47.1748C103.234 47.0892 103.16 47.0123 103.077 46.946C103.005 46.8884 102.923 46.8445 102.835 46.8166C102.739 46.7885 102.64 46.7753 102.54 46.7775H102.066V48.9294H101.477V43.8702H102.95C103.149 43.869 103.348 43.8974 103.539 43.9544C103.713 44.0036 103.875 44.0898 104.014 44.2073C104.151 44.3206 104.26 44.4648 104.332 44.6286C104.412 44.8186 104.45 45.024 104.444 45.2305C104.446 45.3953 104.42 45.5591 104.368 45.7151C104.316 45.8583 104.242 45.9917 104.147 46.1093C104.048 46.2278 103.932 46.3294 103.802 46.4103C103.66 46.4935 103.507 46.5563 103.348 46.5969V46.6059C103.425 46.6398 103.497 46.6833 103.563 46.7354C103.626 46.787 103.684 46.8444 103.737 46.9069C103.797 46.9772 103.852 47.0516 103.902 47.1296L104.082 47.4306L105.036 48.9294ZM102.069 44.4149V46.2508H102.856C102.992 46.2511 103.127 46.2287 103.257 46.1846C103.375 46.1416 103.484 46.0763 103.578 45.992C103.667 45.9074 103.738 45.805 103.787 45.691C103.839 45.5611 103.865 45.422 103.864 45.2817C103.87 45.1635 103.85 45.0454 103.805 44.9361C103.761 44.8267 103.693 44.7289 103.607 44.6497C103.393 44.4848 103.129 44.4037 102.862 44.4209L102.069 44.4149Z" fill="#17313B"/>
</g>
<defs>
<clipPath id="clip0_1564_991">
<rect width="132.296" height="48.4648" fill="white" transform="translate(0.267578 0.548828)"/>
</clipPath>
</defs>
</svg>
