<svg width="176" height="27" viewBox="0 0 176 27" fill="none" xmlns="http://www.w3.org/2000/svg">
<path d="M10.953 9.241C10.953 9.241 9.50033 9.09629 9.50033 10.3924V16.1496H19.0937V17.8773C19.0937 17.8773 19.1223 18.7406 18.2216 18.7406H9.50033V26.2255H19.9658C19.9658 26.2255 26.3024 25.2462 26.361 18.7406V9.241H10.953ZM26.0694 0.0283203H7.17425C0.341789 1.64007 0.197266 7.25375 0.197266 7.25375V26.2255H7.46579V8.95283C7.46579 7.48454 8.9185 7.22631 8.9185 7.22631H26.0707L26.0694 0.0283203ZM51.0147 20.7965C50.5163 21.1295 50.1475 21.374 49.8871 21.53C48.9552 22.1076 48.0669 22.5529 47.2434 22.9084C46.051 23.3975 44.9883 23.642 44.0352 23.642C40.7622 23.642 38.0524 22.6415 35.8621 20.6181C33.6719 18.5946 32.5904 16.061 32.5904 12.9934C32.5904 10.0369 33.566 7.47955 35.5382 5.30019C37.5105 3.12208 39.8951 2.05424 42.7133 2.05424C43.8844 2.05424 45.1403 2.25383 46.441 2.67798C48.1317 3.21065 49.4972 4.01154 50.5811 5.05568L48.6948 7.14522C47.8937 6.36804 46.8534 5.78921 45.6386 5.43367C44.7291 5.16671 43.7324 5.03448 42.6261 5.03448C40.6538 5.03448 38.9843 5.83287 37.6624 7.41218C36.3406 9.01271 35.669 10.9026 35.669 13.1257C35.669 15.3275 36.4265 17.1276 37.944 18.5734C39.4615 20.018 41.3902 20.7515 43.7312 20.7515C44.7067 20.7515 45.7047 20.4397 46.7226 19.8409C47.5685 19.1959 48.0021 18.8841 48.0233 18.8616V14.3045H41.6942L42.6037 11.459H51.0147V20.7965ZM70.1329 15.2377C70.1329 17.4382 69.3529 19.3506 67.7918 20.9511C66.2307 22.5517 64.3021 23.375 62.0047 23.375C59.8804 23.375 58.0166 22.5741 56.4119 20.996C54.8072 19.418 54.0272 17.5056 54.0272 15.2601C54.0272 13.0371 54.7872 11.1247 56.3035 9.47927C57.8197 7.83383 59.6848 7.0342 61.8739 7.0342C64.3021 7.0342 66.2743 7.81263 67.813 9.39069C69.3529 10.9251 70.1329 12.8812 70.1329 15.2377ZM67.1627 15.2826C67.1627 13.7931 66.6643 12.5256 65.6676 11.5027C64.6709 10.4573 63.435 9.94583 61.9611 9.94583C60.5744 9.94583 59.4032 10.4797 58.4277 11.5476C57.4522 12.6142 56.975 13.8367 56.975 15.2152C56.975 16.661 57.4734 17.8836 58.4489 18.9065C59.4244 19.9294 60.6392 20.4621 62.1118 20.4621C63.4786 20.4621 64.6485 19.9507 65.6464 18.9277C66.6643 17.9048 67.1627 16.6822 67.1627 15.2826ZM88.9907 15.2377C88.9907 17.4382 88.2107 19.3506 86.6496 20.9511C85.0885 22.5517 83.1599 23.375 80.8625 23.375C78.7382 23.375 76.8744 22.5741 75.2697 20.996C73.6662 19.418 72.885 17.5056 72.885 15.2601C72.885 13.0371 73.645 11.1247 75.1613 9.47927C76.6788 7.83383 78.5426 7.0342 80.7317 7.0342C83.1599 7.0342 85.1321 7.81263 86.6708 9.39069C88.2107 10.9251 88.9907 12.8812 88.9907 15.2377ZM86.0205 15.2826C86.0205 13.7931 85.5221 12.5256 84.5254 11.5027C83.5287 10.4573 82.2928 9.94583 80.8189 9.94583C79.4322 9.94583 78.2611 10.4797 77.2855 11.5476C76.31 12.6142 75.8328 13.8367 75.8328 15.2152C75.8328 16.661 76.3312 17.8836 77.3079 18.9065C78.2822 19.9294 79.497 20.4621 80.9709 20.4621C82.3364 20.4621 83.5063 19.9507 84.5042 18.9277C85.5221 17.9048 86.0205 16.6822 86.0205 15.2826ZM106.441 22.9296L103.71 23.3525V20.7066L103.124 21.3728C102.608 21.8566 102.024 22.2614 101.39 22.5741C100.459 23.0039 99.4457 23.2241 98.4208 23.2191C96.2966 23.2191 94.4751 22.4406 93.0012 20.8613C91.5273 19.282 90.791 17.4158 90.791 15.2377C90.791 12.9922 91.5273 11.0586 92.98 9.45681C94.4327 7.85504 96.2094 7.0554 98.3336 7.0554C99.5483 7.0554 100.61 7.255 101.498 7.65544C102.127 7.94486 102.669 8.32285 103.124 8.79065C103.276 8.99025 103.428 9.2123 103.58 9.4119V2.47589L106.483 2.05299L106.441 22.9296ZM103.883 15.4373C103.883 13.8816 103.362 12.5693 102.301 11.5027C101.239 10.4124 100.045 9.87971 98.6812 9.87971C97.1637 9.87971 95.9502 10.3912 95.0183 11.4141C94.1499 12.3909 93.6951 13.5922 93.6951 14.9931C93.6951 16.5712 94.1499 17.8823 95.0606 18.9053C95.9701 19.9282 97.1201 20.4397 98.5292 20.4397C99.9159 20.4397 101.131 19.9731 102.215 19.0175C103.32 18.0383 103.883 16.8382 103.883 15.4373ZM121.765 5.36756H113.637V10.9026H119.944V13.7482H113.637V22.9084L110.472 23.375V2.49834H121.136L121.765 5.36756ZM128.29 3.74333L126.339 6.21086L124.475 3.74333L126.447 1.29826L128.29 3.74333ZM127.704 22.9296L124.8 23.3301V7.87874L127.704 7.43464V22.9296ZM140.818 7.2787L139.453 10.4348C139.274 10.4075 139.092 10.3929 138.911 10.3912C138.629 10.3912 138.348 10.4136 138.065 10.4573C137.782 10.501 137.479 10.6132 137.156 10.7692C136.549 11.0361 136.028 11.6137 135.573 12.4807C135.07 13.4647 134.809 14.5551 134.813 15.6606V22.9084L131.91 23.375V7.87874L134.598 7.38973V10.6132C134.944 10.0569 135.313 9.50172 135.659 8.92413C136.158 8.3453 136.743 7.92365 137.394 7.6779C137.74 7.54566 138.369 7.43339 139.322 7.34482C140.233 7.2787 140.754 7.23379 140.818 7.2787ZM162.45 22.9296L159.545 23.3525V12.7477C159.545 11.7684 159.329 11.0573 158.895 10.6132C158.462 10.1679 157.811 9.94583 156.965 9.94583C155.947 9.94583 155.166 10.3687 154.647 11.2133C154.299 11.7909 154.105 12.4134 154.105 13.0358V22.9072L151.2 23.4411V12.8138C151.2 11.8807 150.984 11.1684 150.571 10.6806C150.138 10.1903 149.575 9.94583 148.837 9.94583H148.555C147.536 9.94583 146.799 10.3687 146.344 11.2357C145.998 11.8807 145.824 12.7028 145.824 13.7032V22.9072L142.812 23.4411V7.87874L145.52 7.41218V9.39069C145.824 8.92289 146.127 8.5449 146.41 8.27919C147.19 7.54566 148.101 7.18888 149.119 7.18888C150.267 7.18888 151.112 7.36727 151.698 7.74526C152.196 8.05713 152.673 8.67838 153.15 9.56784C154.147 7.98977 155.556 7.18888 157.421 7.18888C159.198 7.18888 160.521 7.74526 161.387 8.87923C162.103 9.81234 162.45 11.1908 162.45 12.9922V22.9296ZM175.718 18.2391C175.718 19.6612 175.22 20.8401 174.223 21.752C173.227 22.6851 171.968 23.1305 170.451 23.1305C169.302 23.1305 168.283 22.8635 167.351 22.3296C166.419 21.7969 165.726 21.1956 165.27 20.4846L167.309 18.662C167.459 18.8841 167.59 19.0612 167.72 19.1947C168.48 19.9731 169.389 20.3736 170.451 20.3736C171.188 20.3736 171.774 20.174 172.185 19.796C172.619 19.418 172.814 18.8841 172.814 18.1942C172.814 17.417 172.316 16.8831 171.319 16.5937C169.346 15.9936 168.283 15.6606 168.132 15.5932C167.221 15.1266 166.571 14.6376 166.159 14.0812C165.704 13.4363 165.466 12.5917 165.466 11.5027C165.466 10.1679 165.964 9.05762 166.94 8.16816C167.915 7.2787 169.085 6.85581 170.428 6.85581C171.449 6.85581 172.402 7.07786 173.269 7.54566C174.136 8.01222 174.764 8.50124 175.133 9.08007L173.399 10.9688C173.138 10.7077 172.855 10.4698 172.554 10.2577C171.86 9.76868 171.188 9.52418 170.56 9.52418C169.952 9.52418 169.454 9.65766 169.064 9.92337C168.608 10.2577 168.37 10.7467 168.37 11.3917C168.37 12.0142 168.587 12.4807 169.043 12.7701C169.433 13.0146 170.256 13.2816 171.557 13.5698C172.857 13.8816 173.855 14.4156 174.57 15.1715C175.372 15.9712 175.718 16.9717 175.718 18.2391Z" fill="#3A7AF3"/>
</svg>
