<svg width="160" height="24" viewBox="0 0 160 24" fill="none" xmlns="http://www.w3.org/2000/svg">
<g clip-path="url(#clip0_1564_998)">
<path d="M10.953 8.241C10.953 8.241 9.50033 8.09629 9.50033 9.39242V15.1496H19.0937V16.8773C19.0937 16.8773 19.1223 17.7406 18.2216 17.7406H9.50033V25.2255H19.9658C19.9658 25.2255 26.3024 24.2462 26.361 17.7406V8.241H10.953ZM26.0694 -0.97168H7.17425C0.341789 0.640071 0.197266 6.25375 0.197266 6.25375V25.2255H7.46579V7.95283C7.46579 6.48454 8.9185 6.22631 8.9185 6.22631H26.0707L26.0694 -0.97168ZM51.0147 19.7965C50.5163 20.1295 50.1475 20.374 49.8871 20.53C48.9552 21.1076 48.0669 21.5529 47.2434 21.9084C46.051 22.3975 44.9883 22.642 44.0352 22.642C40.7622 22.642 38.0524 21.6415 35.8621 19.6181C33.6719 17.5946 32.5904 15.061 32.5904 11.9934C32.5904 9.03689 33.566 6.47955 35.5382 4.30019C37.5105 2.12208 39.8951 1.05424 42.7133 1.05424C43.8844 1.05424 45.1403 1.25383 46.441 1.67798C48.1317 2.21065 49.4972 3.01154 50.5811 4.05568L48.6948 6.14522C47.8937 5.36804 46.8534 4.78921 45.6386 4.43367C44.7291 4.16671 43.7324 4.03448 42.6261 4.03448C40.6538 4.03448 38.9843 4.83287 37.6624 6.41218C36.3406 8.01271 35.669 9.90265 35.669 12.1257C35.669 14.3275 36.4265 16.1276 37.944 17.5734C39.4615 19.018 41.3902 19.7515 43.7312 19.7515C44.7067 19.7515 45.7047 19.4397 46.7226 18.8409C47.5685 18.1959 48.0021 17.8841 48.0233 17.8616V13.3045H41.6942L42.6037 10.459H51.0147V19.7965ZM70.1329 14.2377C70.1329 16.4382 69.3529 18.3506 67.7918 19.9511C66.2307 21.5517 64.3021 22.375 62.0047 22.375C59.8804 22.375 58.0166 21.5741 56.4119 19.996C54.8072 18.418 54.0272 16.5056 54.0272 14.2601C54.0272 12.0371 54.7872 10.1247 56.3035 8.47927C57.8197 6.83383 59.6848 6.0342 61.8739 6.0342C64.3021 6.0342 66.2743 6.81263 67.813 8.39069C69.3529 9.9251 70.1329 11.8812 70.1329 14.2377ZM67.1627 14.2826C67.1627 12.7931 66.6643 11.5256 65.6676 10.5027C64.6709 9.45729 63.435 8.94583 61.9611 8.94583C60.5744 8.94583 59.4032 9.47975 58.4277 10.5476C57.4522 11.6142 56.975 12.8367 56.975 14.2152C56.975 15.661 57.4734 16.8836 58.4489 17.9065C59.4244 18.9294 60.6392 19.4621 62.1118 19.4621C63.4786 19.4621 64.6485 18.9507 65.6464 17.9277C66.6643 16.9048 67.1627 15.6822 67.1627 14.2826ZM88.9907 14.2377C88.9907 16.4382 88.2107 18.3506 86.6496 19.9511C85.0885 21.5517 83.1599 22.375 80.8625 22.375C78.7382 22.375 76.8744 21.5741 75.2697 19.996C73.6662 18.418 72.885 16.5056 72.885 14.2601C72.885 12.0371 73.645 10.1247 75.1613 8.47927C76.6788 6.83383 78.5426 6.0342 80.7317 6.0342C83.1599 6.0342 85.1321 6.81263 86.6708 8.39069C88.2107 9.9251 88.9907 11.8812 88.9907 14.2377ZM86.0205 14.2826C86.0205 12.7931 85.5221 11.5256 84.5254 10.5027C83.5287 9.45729 82.2928 8.94583 80.8189 8.94583C79.4322 8.94583 78.2611 9.47975 77.2855 10.5476C76.31 11.6142 75.8328 12.8367 75.8328 14.2152C75.8328 15.661 76.3312 16.8836 77.3079 17.9065C78.2822 18.9294 79.497 19.4621 80.9709 19.4621C82.3364 19.4621 83.5063 18.9507 84.5042 17.9277C85.5221 16.9048 86.0205 15.6822 86.0205 14.2826ZM106.441 21.9296L103.71 22.3525V19.7066L103.124 20.3728C102.608 20.8566 102.024 21.2614 101.39 21.5741C100.459 22.0039 99.4457 22.2241 98.4208 22.2191C96.2966 22.2191 94.4751 21.4406 93.0012 19.8613C91.5273 18.282 90.791 16.4158 90.791 14.2377C90.791 11.9922 91.5273 10.0586 92.98 8.45681C94.4327 6.85504 96.2094 6.0554 98.3336 6.0554C99.5483 6.0554 100.61 6.255 101.498 6.65544C102.127 6.94486 102.669 7.32285 103.124 7.79065C103.276 7.99025 103.428 8.2123 103.58 8.4119V1.47589L106.483 1.05299L106.441 21.9296ZM103.883 14.4373C103.883 12.8816 103.362 11.5693 102.301 10.5027C101.239 9.41238 100.045 8.87971 98.6812 8.87971C97.1637 8.87971 95.9502 9.39118 95.0183 10.4141C94.1499 11.3909 93.6951 12.5922 93.6951 13.9931C93.6951 15.5712 94.1499 16.8823 95.0606 17.9053C95.9701 18.9282 97.1201 19.4397 98.5292 19.4397C99.9159 19.4397 101.131 18.9731 102.215 18.0175C103.32 17.0383 103.883 15.8382 103.883 14.4373ZM121.765 4.36756H113.637V9.90265H119.944V12.7482H113.637V21.9084L110.472 22.375V1.49834H121.136L121.765 4.36756ZM128.29 2.74333L126.339 5.21086L124.475 2.74333L126.447 0.29826L128.29 2.74333ZM127.704 21.9296L124.8 22.3301V6.87874L127.704 6.43464V21.9296ZM140.818 6.2787L139.453 9.43484C139.274 9.40745 139.092 9.39286 138.911 9.39118C138.629 9.39118 138.348 9.41363 138.065 9.45729C137.782 9.50096 137.479 9.61323 137.156 9.76916C136.549 10.0361 136.028 10.6137 135.573 11.4807C135.07 12.4647 134.809 13.5551 134.813 14.6606V21.9084L131.91 22.375V6.87874L134.598 6.38973V9.61323C134.944 9.05685 135.313 8.50172 135.659 7.92413C136.158 7.3453 136.743 6.92365 137.394 6.6779C137.74 6.54566 138.369 6.43339 139.322 6.34482C140.233 6.2787 140.754 6.23379 140.818 6.2787ZM162.45 21.9296L159.545 22.3525V11.7477C159.545 10.7684 159.329 10.0573 158.895 9.61323C158.462 9.16788 157.811 8.94583 156.965 8.94583C155.947 8.94583 155.166 9.36872 154.647 10.2133C154.299 10.7909 154.105 11.4134 154.105 12.0358V21.9072L151.2 22.4411V11.8138C151.2 10.8807 150.984 10.1684 150.571 9.68059C150.138 9.19033 149.575 8.94583 148.837 8.94583H148.555C147.536 8.94583 146.799 9.36872 146.344 10.2357C145.998 10.8807 145.824 11.7028 145.824 12.7032V21.9072L142.812 22.4411V6.87874L145.52 6.41218V8.39069C145.824 7.92289 146.127 7.5449 146.41 7.27919C147.19 6.54566 148.101 6.18888 149.119 6.18888C150.267 6.18888 151.112 6.36727 151.698 6.74526C152.196 7.05713 152.673 7.67838 153.15 8.56784C154.147 6.98977 155.556 6.18888 157.421 6.18888C159.198 6.18888 160.521 6.74526 161.387 7.87923C162.103 8.81234 162.45 10.1908 162.45 11.9922V21.9296ZM175.718 17.2391C175.718 18.6612 175.22 19.8401 174.223 20.752C173.227 21.6851 171.968 22.1305 170.451 22.1305C169.302 22.1305 168.283 21.8635 167.351 21.3296C166.419 20.7969 165.726 20.1956 165.27 19.4846L167.309 17.662C167.459 17.8841 167.59 18.0612 167.72 18.1947C168.48 18.9731 169.389 19.3736 170.451 19.3736C171.188 19.3736 171.774 19.174 172.185 18.796C172.619 18.418 172.814 17.8841 172.814 17.1942C172.814 16.417 172.316 15.8831 171.319 15.5937C169.346 14.9936 168.283 14.6606 168.132 14.5932C167.221 14.1266 166.571 13.6376 166.159 13.0812C165.704 12.4363 165.466 11.5917 165.466 10.5027C165.466 9.16788 165.964 8.05762 166.94 7.16816C167.915 6.2787 169.085 5.85581 170.428 5.85581C171.449 5.85581 172.402 6.07786 173.269 6.54566C174.136 7.01222 174.764 7.50124 175.133 8.08007L173.399 9.96876C173.138 9.7077 172.855 9.46978 172.554 9.2577C171.86 8.76868 171.188 8.52418 170.56 8.52418C169.952 8.52418 169.454 8.65766 169.064 8.92337C168.608 9.2577 168.37 9.74671 168.37 10.3917C168.37 11.0142 168.587 11.4807 169.043 11.7701C169.433 12.0146 170.256 12.2816 171.557 12.5698C172.857 12.8816 173.855 13.4156 174.57 14.1715C175.372 14.9712 175.718 15.9717 175.718 17.2391Z" fill="#D0D0D0"/>
</g>
<defs>
<clipPath id="clip0_1564_998">
<rect width="159.803" height="23.5775" fill="white" transform="translate(0.197266 0.337891)"/>
</clipPath>
</defs>
</svg>
