<svg width="78" height="62" viewBox="0 0 78 62" fill="none" xmlns="http://www.w3.org/2000/svg">
<g clip-path="url(#clip0_1564_989)">
<path d="M72.0723 34.1123H75.4677L73.77 39.0163L75.4677 42.3201H68.9609V34.1123H72.0723Z" fill="#D0D0D0"/>
<path d="M77.2813 43.204H68.7949V33.2305H77.2266L75.0703 39.1239L77.2813 43.204ZM69.1273 42.79H76.6501L74.6853 39.1674L76.7048 33.6445H69.1315L69.1273 42.79Z" fill="#D0D0D0"/>
<path d="M5.20788 34.2783H1.8125L3.51019 39.1823L1.8125 42.4861H8.31926V34.2783H5.20788Z" fill="#D0D0D0"/>
<path d="M8.4904 43.3679H0.00195312L2.21295 39.2941L0.0566515 33.3965H8.4904V43.3679ZM0.628853 42.9539H8.15591V33.8105H0.582578L2.60002 39.3313L0.628853 42.9539Z" fill="#D0D0D0"/>
<path d="M8.09375 15.3908V46.1725L38.6353 61.5634L69.1769 46.1725V15.3908L38.6353 0L8.09375 15.3908Z" fill="#D0D0D0"/>
<path d="M38.6336 58.3506L38.5705 58.3175L11.3359 44.593V16.9744L38.6336 3.2168L38.6967 3.24992L65.9334 16.9744V44.593L38.6336 58.3506ZM11.6683 44.3136L38.6336 57.9034L65.5989 44.3136V17.2497L38.6336 3.65978L11.6683 17.2497V44.3136Z" fill="white"/>
<path d="M72.5354 39.2376H4.69727V32.926V26.6123H72.5354V39.2376Z" fill="#D0D0D0"/>
<path d="M72.701 39.4446H4.54102V26.4033H72.701V39.4446ZM4.86289 39.0306H72.3665V26.8173H4.86289V39.0306Z" fill="white"/>
<path d="M71.5413 38.1237H5.69531V27.7383H71.5413V38.1237ZM6.0235 37.7097H71.2089V28.1523H6.0235V37.7097Z" fill="white"/>
<path d="M15.2578 31.0635H16.7619C17.9295 31.0635 18.7142 31.8418 18.7142 33.0507C18.7142 34.2596 17.9505 35.1208 16.7409 35.1208H15.2683L15.2578 31.0635ZM15.87 34.6198H16.6946C17.6308 34.6198 18.0726 33.9554 18.0726 33.0611C18.0726 32.2848 17.6687 31.5686 16.6967 31.5686H15.8553L15.87 34.6198Z" fill="white"/>
<path d="M22.7961 33.2536H20.7576V34.6136H22.9981L22.9202 35.1249H20.1602V31.0635H22.895V31.5748H20.7618V32.7444H22.7961V33.2536Z" fill="white"/>
<path d="M24.6897 33.9816C24.797 34.4536 25.1273 34.702 25.7037 34.702C26.3159 34.702 26.5599 34.4246 26.5599 34.0582C26.5599 33.6918 26.3495 33.4537 25.5543 33.2633C24.553 33.0252 24.2269 32.6837 24.2269 32.1165C24.2269 31.4955 24.696 31.0049 25.6258 31.0049C26.6314 31.0049 27.0416 31.5679 27.0984 32.1124H26.4673C26.4 31.7729 26.1854 31.4913 25.5985 31.4913C25.1231 31.4913 24.8517 31.6983 24.8517 32.0668C24.8517 32.4353 25.0747 32.574 25.7857 32.7416C26.968 33.0232 27.1847 33.4724 27.1847 34.0023C27.1847 34.673 26.6777 35.1864 25.6532 35.1864C24.6287 35.1864 24.1469 34.6378 24.0586 33.992L24.6897 33.9816Z" fill="white"/>
<path d="M29.1708 31.0635V35.1249H28.5586V31.0635H29.1708Z" fill="white"/>
<path d="M34.2252 35.1243H33.7603C33.7213 34.9524 33.703 34.7766 33.7056 34.6006C33.5162 34.8924 33.1523 35.1802 32.4433 35.1802C31.2526 35.1802 30.6152 34.2921 30.6152 33.137C30.6152 31.9198 31.301 31.0049 32.5548 31.0049C33.5331 31.0049 34.141 31.5307 34.2546 32.2469H33.6425C33.5141 31.8329 33.2028 31.4955 32.5443 31.4955C31.6061 31.4955 31.2526 32.2366 31.2526 33.1039C31.2526 33.9154 31.6166 34.6772 32.5149 34.6772C33.4131 34.6772 33.6214 34.0872 33.6214 33.4641V33.4227H32.5086V32.9135H34.221L34.2252 35.1243Z" fill="white"/>
<path d="M35.8047 35.1249V31.0635H36.5999C37.1784 32.0074 38.4028 33.9615 38.6258 34.3963C38.5837 33.8932 38.5879 33.2412 38.5879 32.5767V31.0635H39.1601V35.1249H38.4112C37.8831 34.2596 36.5957 32.1399 36.3475 31.6824C36.3769 32.1254 36.379 32.8396 36.379 33.5724V35.1249H35.8047Z" fill="white"/>
<path d="M42.916 31.0635H45.6087V31.5748H43.5177V32.8313H45.4783V33.3405H43.5177V35.1249H42.916V31.0635Z" fill="white"/>
<path d="M47.5126 31.0635V35.1249H46.9004V31.0635H47.5126Z" fill="white"/>
<path d="M49.8088 33.3674V35.1249H49.2051V31.0635H50.8544C51.7127 31.0635 52.1713 31.523 52.1713 32.1565C52.1849 32.3684 52.1246 32.5785 52.0002 32.7521C51.8759 32.9257 51.695 33.0522 51.4876 33.1108C51.7989 33.1977 52.0934 33.4378 52.0934 34.1458V34.3238C52.0747 34.5915 52.0938 34.8604 52.1503 35.1228H51.5591C51.4878 34.8345 51.4629 34.5369 51.4855 34.241V34.1561C51.4855 33.6034 51.3298 33.3612 50.604 33.3612L49.8088 33.3674ZM49.8088 32.8665H50.6777C51.2814 32.8665 51.5423 32.6429 51.5423 32.2103C51.5423 31.7776 51.2688 31.5644 50.7324 31.5644H49.8088V32.8665Z" fill="white"/>
<path d="M57.1795 33.4337C57.1795 32.6905 57.1795 31.9225 57.2068 31.4899H57.1837C57.0028 32.1792 56.3843 33.8477 55.9215 35.1249H55.3808C55.0337 34.0713 54.3921 32.1958 54.207 31.4816H54.188C54.2196 31.9515 54.2343 32.8396 54.2343 33.5372V35.1249H53.6621V31.0635H54.5751C55.0169 32.2869 55.5491 33.856 55.688 34.3901C55.7847 33.976 56.4201 32.2558 56.8787 31.0635H57.7643V35.1249H57.1669L57.1795 33.4337Z" fill="white"/>
<path d="M59.7148 33.9816C59.8242 34.4536 60.1545 34.702 60.7288 34.702C61.3409 34.702 61.5871 34.4246 61.5871 34.0582C61.5871 33.6918 61.3767 33.4537 60.5794 33.2633C59.5802 33.0252 59.2541 32.6837 59.2541 32.1165C59.2541 31.4955 59.7211 31.0049 60.653 31.0049C61.6565 31.0049 62.0667 31.5679 62.1256 32.1124H61.4945C61.4272 31.7729 61.2147 31.4913 60.6257 31.4913C60.1502 31.4913 59.881 31.6983 59.881 32.0668C59.881 32.4353 60.0913 32.574 60.815 32.7416C61.9952 33.0232 62.214 33.4724 62.214 34.0023C62.214 34.673 61.707 35.1864 60.6825 35.1864C59.658 35.1864 59.1762 34.6378 59.0879 33.992L59.7148 33.9816Z" fill="white"/>
<path d="M38.6315 53.3698L36.8433 54.6491L37.527 52.5791L35.7305 51.2956H37.9415L38.6231 49.2256L39.2984 51.2729H41.5136L41.4925 51.2894L40.5227 51.9829L39.7443 52.5377C39.717 52.5584 39.717 52.5522 39.7296 52.5894L40.3923 54.5994C40.3955 54.6096 40.3955 54.6204 40.3923 54.6305L38.6315 53.3698Z" fill="white"/>
<path d="M45.4395 50.6105L44.2277 51.4778L44.6884 50.0743L43.4746 49.207H44.9766L45.4395 47.8076C45.5909 48.2699 45.7431 48.7316 45.896 49.1925H47.4085L47.3938 49.2049L46.7354 49.681L46.2094 50.0557C46.1905 50.0702 46.1905 50.0557 46.2094 50.0909L46.6575 51.4509C46.6587 51.4584 46.6587 51.4661 46.6575 51.4737L45.4395 50.6105Z" fill="white"/>
<path d="M31.8417 50.6105L30.632 51.4778L31.0948 50.0743L29.8789 49.207H31.3788L31.8417 47.8076C31.9931 48.2692 32.1467 48.7309 32.2982 49.1925H33.7981L33.7855 49.2049L33.1291 49.6748L32.6011 50.0495C32.5822 50.064 32.5822 50.0495 32.5906 50.0847C32.7406 50.5387 32.8907 50.992 33.0408 51.4447C33.0429 51.4521 33.0429 51.46 33.0408 51.4675L31.8417 50.6105Z" fill="white"/>
<path d="M50.6611 48.2489L49.7608 48.8927L50.1058 47.8576L49.2012 47.2118H50.3182L50.6611 46.1768L51.0019 47.2118H52.119H52.1085L51.6204 47.5616L51.2292 47.8411C51.2144 47.8411 51.2144 47.8411 51.2292 47.8659L51.5636 48.8761C51.5647 48.8816 51.5647 48.8872 51.5636 48.8927L50.6611 48.2489Z" fill="white"/>
<path d="M26.6042 48.2489L25.7059 48.8927L26.0509 47.8576L25.1484 47.2118H26.2634L26.6084 46.1768L26.9492 47.2118H28.0663L27.5782 47.5616L27.189 47.8411C27.1743 47.8411 27.1743 47.8411 27.189 47.8659C27.2984 48.2026 27.4092 48.5394 27.5214 48.8761C27.5235 48.8814 27.5235 48.8873 27.5214 48.8927L26.6042 48.2489Z" fill="white"/>
<path d="M35.1914 10.5137H42.0747C42.0747 10.5137 41.9611 14.2087 39.1295 16.0925L39.1001 16.906L39.6996 17.5808H37.6149L38.1576 17.0426L38.2144 16.0925C38.2144 16.0925 35.507 14.7987 35.1914 10.5137Z" fill="white"/>
<path d="M35.9062 11.2861C35.9062 11.2861 35.9904 12.7186 36.8761 13.7868V11.2861H35.9062Z" fill="#D0D0D0"/>
<path d="M40.5625 11.2861H41.5323C41.5323 11.2861 41.4481 12.7186 40.5625 13.7868" fill="#D0D0D0"/>
<path d="M36.8108 10.0209L36.125 8.22206L37.1243 9.45788V8.22206L37.9237 8.8969L38.7084 6.90137L39.6087 8.9797L40.6374 7.74388V9.3461L41.8366 8.22206L40.6374 10.0209H36.8108Z" fill="white"/>
<path d="M25.7928 26.6122V18.657H22.9023V16.6553H31.2751V18.657H28.3846V26.6122H25.7928Z" fill="white"/>
<path d="M35.1842 16.1855C35.1842 16.1855 32.4726 17.2661 32.7145 21.7747C32.9564 26.2833 37.7634 26.5172 37.7634 26.5172C37.7634 26.5172 43.8473 27.5833 44.6909 21.7147C44.6909 21.7147 45.4146 18.9035 42.2821 16.1897L40.7759 17.6118C40.7759 17.6118 43.0647 19.1064 42.4588 21.8347C41.853 24.5631 38.8426 24.857 38.8426 24.857C38.8426 24.857 34.4459 24.917 34.7467 20.8266C34.7467 20.8266 34.6878 18.7027 36.68 17.6408L36.7347 17.6118L35.1842 16.1855Z" fill="white"/>
<path d="M53.4655 22.0753C53.7308 21.7581 53.9274 21.3907 54.0432 20.9959C54.1589 20.6012 54.1914 20.1873 54.1387 19.7797C53.8568 16.4303 50.9179 16.4365 50.798 16.4365H46.6074V26.3376H48.5954V23.4395H50.4888C50.4888 23.4395 52.4137 23.2843 53.4655 22.0753ZM48.9257 21.3881V18.2333H50.3794C50.3794 18.2333 51.6416 18.2457 51.7573 19.761C51.873 21.2763 50.3794 21.3881 50.3794 21.3881H48.9257Z" fill="white"/>
</g>
<defs>
<clipPath id="clip0_1564_989">
<rect width="77.2817" height="61.5634" fill="white"/>
</clipPath>
</defs>
</svg>
