<svg width="148" height="50" viewBox="0 0 148 50" fill="none" xmlns="http://www.w3.org/2000/svg">
<g clip-path="url(#clip0_1564_996)">
<path d="M36.875 19.3587L51.9646 0.548828L55.8767 4.47924L36.875 19.3587Z" fill="#D0D0D0"/>
<path d="M22.0654 5.60254H0.548828V12.3404H7.81418V33.3962H14.5207V12.3404H22.0654V5.60254Z" fill="#D0D0D0"/>
<path d="M36.8766 4.47949C33.9474 4.47949 31.084 5.35216 28.6485 6.98713C26.213 8.6221 24.3147 10.9459 23.1938 13.6648C22.0728 16.3837 21.7795 19.3754 22.351 22.2617C22.9224 25.1481 24.333 27.7993 26.4042 29.8803C28.4754 31.9612 31.1144 33.3783 33.9872 33.9524C36.8601 34.5266 39.8379 34.2319 42.5441 33.1057C45.2503 31.9795 47.5634 30.0724 49.1907 27.6255C50.8181 25.1786 51.6867 22.3018 51.6867 19.3589C51.6867 15.4126 50.1263 11.628 47.3489 8.83758C44.5715 6.04714 40.8044 4.47949 36.8766 4.47949ZM36.8766 28.062C35.1633 28.062 33.4885 27.5515 32.0639 26.5952C30.6394 25.6389 29.5291 24.2797 28.8734 22.6894C28.2178 21.0992 28.0462 19.3493 28.3805 17.661C28.7147 15.9728 29.5397 14.4221 30.7512 13.2049C31.9627 11.9878 33.5062 11.1589 35.1866 10.8231C36.8669 10.4873 38.6087 10.6596 40.1916 11.3183C41.7744 11.9771 43.1273 13.0925 44.0792 14.5238C45.031 15.955 45.5391 17.6376 45.5391 19.3589C45.5391 21.6671 44.6264 23.8808 43.0019 25.5129C41.3773 27.145 39.174 28.062 36.8766 28.062V28.062Z" fill="#D0D0D0"/>
<path d="M36.8749 23.0083C38.8811 23.0083 40.5075 21.3743 40.5075 19.3587C40.5075 17.343 38.8811 15.709 36.8749 15.709C34.8686 15.709 33.2422 17.343 33.2422 19.3587C33.2422 21.3743 34.8686 23.0083 36.8749 23.0083Z" fill="#D0D0D0"/>
<path d="M66.4967 5.8834H56.4369L53.6426 8.41009V34.2385H60.3491V24.974H69.0116C69.0116 24.974 77.3947 25.2547 77.3947 15.1479C77.3947 5.04117 66.4967 5.8834 66.4967 5.8834ZM68.4527 18.5169H60.3491V11.779H68.1733C68.1733 11.779 71.2471 11.779 71.2471 15.1479C71.2471 18.5169 68.4527 18.5169 68.4527 18.5169Z" fill="#D0D0D0"/>
<path d="M85.4969 11.779H79.9082V24.9739H87.1736C87.2714 24.9739 91.6082 24.1149 91.3651 17.6746C91.122 11.2343 85.4969 11.779 85.4969 11.779ZM85.4969 21.8858H82.7026V14.8672H85.4969C85.4969 14.8672 88.5707 14.8672 88.5707 18.2361C88.5707 21.605 85.4969 21.8858 85.4969 21.8858Z" fill="#D0D0D0"/>
<path d="M95.5582 11.498H92.4844V24.9737H95.5582V11.498Z" fill="#D0D0D0"/>
<path d="M104.22 19.9204H107.015C107.015 19.9204 106.456 22.1663 103.661 22.1663C102.869 22.1766 102.089 21.9738 101.401 21.5789C100.713 21.184 100.143 20.6113 99.7492 19.9204C99.415 18.9183 99.415 17.8342 99.7492 16.8322C99.906 16.3438 100.16 15.8927 100.497 15.5065C100.833 15.1203 101.244 14.8071 101.705 14.5862C102.337 14.2701 103.05 14.1544 103.748 14.2547C104.447 14.355 105.099 14.6665 105.617 15.1477L107.853 13.1825C107.853 13.1825 105.897 10.3751 100.867 11.7788C95.8371 13.1825 96.6754 19.9204 96.6754 19.9204C96.6754 19.9204 97.2343 25.2545 103.661 25.2545C103.661 25.2545 106.176 24.9737 107.294 23.8508V24.9737H110.088V17.1129H104.22V19.9204Z" fill="#D0D0D0"/>
<path d="M113.999 11.498H111.205V24.9737H113.999V11.498Z" fill="#D0D0D0"/>
<path d="M125.456 11.498H115.117V14.5862H118.75V24.9737H121.824V14.5862H125.456V11.498Z" fill="#D0D0D0"/>
<path d="M122.662 24.9737H126.295L127.133 23.0085H132.163L133.281 24.9737H136.913L129.648 11.498L122.662 24.9737ZM128.53 20.4818L129.648 18.2359L131.045 20.4818H128.53Z" fill="#D0D0D0"/>
<path d="M140.546 22.1663V11.498H137.473V24.9737H146.973V22.1663H140.546Z" fill="#D0D0D0"/>
<path d="M71.9276 28.3732C71.0939 27.6757 70.0362 27.3065 68.9516 27.3345C65.2798 27.3345 62.3066 30.4227 62.3066 34.2604C62.3066 38.0982 65.2799 41.1864 68.9489 41.1864C70.0191 41.1864 71.1843 40.9056 71.9276 40.1476V40.9899H75.5883V27.5142H71.922L71.9276 28.3732ZM68.9321 37.4356C67.3085 37.4356 65.9924 36.0123 65.9449 34.3306C65.9449 34.2997 65.9449 34.2717 65.9449 34.2408C65.9395 33.563 66.1478 32.9008 66.5398 32.3491C66.9318 31.7974 67.4875 31.3845 68.1273 31.1694C68.3889 31.0884 68.6611 31.0468 68.9349 31.0459C70.5863 31.0459 71.9248 32.5198 71.9248 34.2408C71.9248 35.9617 70.5835 37.4356 68.9321 37.4356Z" fill="#D0D0D0"/>
<path d="M87.0799 27.6015V28.4438C86.2389 27.7685 85.1917 27.4056 84.1151 27.4162C80.4601 27.4162 77.498 30.482 77.498 34.2664C77.498 38.0508 80.4685 41.2569 84.1151 41.2569C85.214 41.2433 86.2695 40.8236 87.0799 40.0778V42.4388C87.0799 44.1401 85.7442 45.6337 84.1011 45.6337C82.785 45.6337 81.67 44.6399 81.276 43.4158L77.8613 44.6932C78.7583 47.3799 81.2146 49.0054 84.1179 49.0054C84.9968 49 85.8659 48.8198 86.6752 48.4754C87.4845 48.1309 88.2179 47.629 88.8332 46.9985C89.4486 46.3681 89.9336 45.6215 90.2605 44.8018C90.5874 43.9821 90.7496 43.1056 90.7378 42.2227V27.5931L87.0799 27.6015ZM84.1011 37.4416C82.4553 37.4416 81.1224 35.9845 81.1224 34.2832C81.1224 32.5819 82.4553 31.1249 84.1011 31.1249C85.747 31.1249 87.0799 32.5791 87.0799 34.2832C87.0799 35.9873 85.7442 37.4416 84.1011 37.4416Z" fill="#D0D0D0"/>
<path d="M99.277 27.2646C95.5857 27.2646 92.5957 30.3865 92.5957 34.2355C92.5957 38.0845 95.5857 41.2064 99.277 41.2064C100.152 41.2048 101.018 41.0266 101.823 40.6822C102.628 40.3379 103.356 39.8345 103.963 39.2019C104.365 38.7894 104.714 38.3282 105.003 37.829V37.829L101.398 36.4674H101.364C101.093 36.756 100.767 36.9873 100.406 37.1478C100.045 37.3084 99.6552 37.3949 99.2603 37.4023C98.6834 37.3895 98.1221 37.2118 97.6421 36.8901C97.162 36.5684 96.7831 36.116 96.5497 35.5859H105.835C105.918 35.1443 105.959 34.696 105.958 34.2467C105.956 30.3865 102.966 27.2646 99.277 27.2646ZM96.5357 32.8795C96.745 32.3304 97.1141 31.8574 97.5948 31.5221C98.0756 31.1868 98.6458 31.0049 99.231 31.0001C99.8163 30.9952 100.389 31.1677 100.876 31.4949C101.362 31.8222 101.739 32.289 101.957 32.8346L96.5357 32.8795Z" fill="#D0D0D0"/>
<path d="M114.032 27.5845C113.011 27.5694 112.019 27.9242 111.237 28.5839C111.237 28.3284 111.237 27.5059 111.237 27.5059H107.725L107.741 40.9535H111.206V34.283C111.206 32.6379 112.455 31.2285 114.001 31.2285C115.546 31.2285 116.795 32.6322 116.795 34.283V40.9535H120.316V34.2999C120.324 30.5884 117.508 27.5845 114.032 27.5845Z" fill="#D0D0D0"/>
<path d="M129.03 30.9872C129.905 30.998 130.745 31.334 131.389 31.9305L134.057 29.3814C132.715 28.0746 130.918 27.3462 129.05 27.3516C125.138 27.3516 121.969 30.4398 121.969 34.2803C121.969 38.1209 125.14 41.2063 129.05 41.2063C130.918 41.2128 132.715 40.4854 134.057 39.1793L131.408 36.574C130.762 37.18 129.914 37.5223 129.03 37.5342C127.27 37.5342 125.691 35.9817 125.691 34.2607C125.691 32.5397 127.27 30.9872 129.03 30.9872Z" fill="#D0D0D0"/>
<path d="M143.34 27.5L141.105 33.6764L138.59 27.5H134.678L138.869 38.449C138.869 38.449 138.869 43.2216 134.957 42.6602V46.5906C134.957 46.5906 139.708 47.7135 141.943 41.5372L147.252 27.5H143.34Z" fill="#D0D0D0"/>
</g>
<defs>
<clipPath id="clip0_1564_996">
<rect width="146.704" height="48.4648" fill="white" transform="translate(0.548828 0.548828)"/>
</clipPath>
</defs>
</svg>
