<svg width="170" height="44" viewBox="0 0 170 44" fill="none" xmlns="http://www.w3.org/2000/svg">
<g clip-path="url(#clip0_1564_993)">
<path d="M53.8482 19.3429V18.4459H60.5789V15.2334H43.3691V18.4681H50.0742V37.4663C51.1247 37.4663 52.0547 37.4317 52.9797 37.4663C53.6407 37.5009 53.8585 37.3329 53.8559 36.6978C53.838 30.9203 53.8482 25.1328 53.8482 19.3429Z" fill="black"/>
<path d="M97.0348 28.2636C95.8127 27.9596 94.5931 27.6433 93.3735 27.3295C93.0365 27.2739 92.7072 27.181 92.3923 27.0527C91.7568 26.7141 90.978 26.4917 90.7755 25.7257C90.5193 24.7521 90.8294 24.4605 92.3128 23.8229C93.7527 23.2051 96.3482 23.8451 96.6044 25.4959C96.6473 25.6233 96.7151 25.7416 96.8042 25.8443H100.135C100.171 23.7092 98.4081 21.5074 95.9741 21.0775C94.731 20.855 93.4599 20.8183 92.2052 20.9687C90.4579 21.1738 88.9769 21.7719 87.9752 23.1705C86.8427 24.7545 86.9503 27.9448 89.4971 29.2644C90.4143 29.7364 91.475 30.0057 92.4871 30.3023C93.7297 30.6828 95.0492 30.9077 96.2303 31.3995C97.601 31.9678 97.7035 33.8138 96.4993 34.4834C95.7202 34.9164 94.8364 35.1432 93.9372 35.1408C92.3461 35.1556 90.6064 34.2882 90.4553 32.635C90.4271 32.5468 90.3761 32.4669 90.3071 32.4029C90.2381 32.3389 90.1533 32.2929 90.0607 32.2693C89.0359 32.2372 88.011 32.252 86.9375 32.252C87.0041 33.8657 87.4038 35.2816 88.7002 36.2973C89.4831 36.91 90.3849 37.366 91.3528 37.6384C92.3207 37.9108 93.3352 37.9942 94.3369 37.8837C95.3769 37.7949 96.3953 37.5446 97.3525 37.1424C98.208 36.7717 98.9721 36.2302 99.5944 35.5535C101.531 33.4233 101.15 29.2817 97.0348 28.2636Z" fill="black"/>
<path d="M81.2113 22.1253C81.2113 25.1525 81.2497 28.1821 81.1831 31.2117C81.1523 32.6425 80.7193 33.9028 79.1693 34.7504C77.7421 35.5313 75.1493 34.9975 74.7265 33.3394C74.5466 32.673 74.446 31.9891 74.4268 31.3007C74.396 28.2488 74.4114 25.1994 74.4114 22.1575V21.3271H71.0038V27.9029C71.0038 29.3287 70.9602 30.7546 71.0294 32.178C71.1139 33.9078 71.4086 35.5412 72.951 36.8163C73.5146 37.2858 74.3397 37.486 75.1852 37.7133C75.9805 37.8692 76.8007 37.865 77.5943 37.7009C78.3879 37.5367 79.1378 37.2162 79.797 36.7595C80.3273 36.4135 80.7142 35.9119 81.2523 35.4078V37.4341H84.56V21.3346H81.2113V22.1253Z" fill="black"/>
<path d="M166.259 23.9319H169.213V21.2507H166.172V16.4443H162.777V21.2977H160.215V23.9937H162.777V24.8289C162.777 27.567 162.751 30.305 162.79 33.0431C162.808 33.909 162.913 34.7713 163.102 35.618C163.302 36.5323 163.971 37.1328 164.991 37.3478C166.38 37.6246 167.813 37.6196 169.2 37.333V34.6419L168.688 34.6839C166.566 34.847 166.195 34.5579 166.185 32.6452C166.169 29.9516 166.185 27.2581 166.185 24.5645C166.205 24.3668 166.238 24.1766 166.259 23.9319Z" fill="black"/>
<path d="M107.625 16.4707H104.222V21.2969H101.693V23.9805H104.24V24.8232C104.24 27.5415 104.24 30.2597 104.24 32.978C104.245 33.6454 104.297 34.3117 104.396 34.9722C104.563 36.0645 105.06 36.9763 106.338 37.3099C107.784 37.688 109.236 37.5966 110.666 37.342V34.6411C110.41 34.6633 110.212 34.6831 110.015 34.693C108.042 34.7992 107.676 34.5076 107.661 32.6963C107.637 29.9113 107.661 27.1263 107.661 24.3413C107.672 24.2117 107.691 24.083 107.719 23.9558H110.702V21.2623H107.627L107.625 16.4707Z" fill="black"/>
<path d="M137.596 37.4192H140.901V15.2061H137.596V37.4192Z" fill="black"/>
<path d="M63.0732 24.2183V21.3122H59.9141V37.3376H63.2448V36.5963C63.2448 34.434 63.1884 32.2718 63.2704 30.1145C63.2733 29.0042 63.4593 27.9015 63.8213 26.8476C64.5515 24.9671 65.7506 24.0997 67.9437 24.2455L68.8892 24.3122V21.0256C66.3937 20.5932 64.9691 21.3691 63.0732 24.2183Z" fill="black"/>
<path d="M131.131 37.4213H134.441V21.3193H131.131V37.4213Z" fill="black"/>
<path d="M134.419 15.2129H131.121V18.4254H134.419V15.2129Z" fill="black"/>
<path d="M123.23 21.1563C122.267 20.9778 121.284 20.9238 120.307 20.9957C119.33 21.0476 118.367 21.2897 117.657 21.9841C117.232 22.4042 116.817 22.8293 116.307 23.3433V21.3268H113.199V43.3868H116.615V35.5927C117.252 36.129 117.76 36.7913 118.459 37.0927C119.945 37.7352 121.457 38.1652 123.235 37.6957C125.477 37.1051 126.778 35.7731 127.529 33.9395C128.147 32.5009 128.461 30.9581 128.454 29.401C128.447 27.844 128.119 26.3038 127.488 24.8704C126.717 23.0789 125.423 21.6184 123.23 21.1563ZM124.375 32.7485C123.645 34.3621 121.89 35.4667 119.958 35.0466C119.348 34.9329 118.776 34.674 118.296 34.2934C117.815 33.9128 117.441 33.4226 117.206 32.8671C116.768 31.7551 116.363 29.3877 116.438 29.3704C116.484 27.7543 116.694 26.1802 117.839 24.8408C117.908 24.7529 117.983 24.6703 118.065 24.5937C119.328 23.5212 121.887 23.4644 123.143 24.5442C124.056 25.3623 124.661 26.4512 124.859 27.6381C125.205 29.3654 125.144 31.0854 124.375 32.7485Z" fill="black"/>
<path d="M153.563 21.181C152.576 20.9924 151.571 20.9095 150.565 20.9338C148.331 20.9907 146.586 22.0236 145.331 23.6051C143.957 25.335 143.552 27.3811 143.563 29.8497C143.616 30.2476 143.673 31.0038 143.819 31.7476C144.616 35.647 147.69 38.0614 151.931 37.9032C152.443 37.8834 152.955 37.6561 153.468 37.5474C155.822 37.0383 157.332 35.6545 158.221 33.6899C159.573 30.6973 159.502 27.6776 158.069 24.7419C157.216 22.9552 155.769 21.6035 153.563 21.181ZM154.969 32.7954C154.257 34.278 152.33 35.4296 150.614 35.0194C149.312 34.7105 148.259 33.9939 147.795 32.8349C147.347 31.7253 146.914 29.3753 146.981 29.3481C147.055 27.732 147.28 26.1554 148.567 24.9C148.856 24.6009 149.196 24.3504 149.571 24.1587C152.243 22.8984 154.564 24.4972 155.292 26.6644C156.02 28.6676 155.904 30.8663 154.969 32.7879V32.7954Z" fill="black"/>
<path d="M14.8443 15.243L19.4561 0.168945L24.068 15.243H39.1845L27.1425 25.1276L31.4981 40.9429L19.4561 31.0583L7.41417 40.9429L12.2822 25.1276L0.240234 15.243H14.8443Z" fill="#00B679"/>
<path d="M27.1434 25.1279L19.457 31.0587L28.1682 29.0818L27.1434 25.1279Z" fill="#005227"/>
</g>
<defs>
<clipPath id="clip0_1564_993">
<rect width="168.972" height="43.2254" fill="white" transform="translate(0.240234 0.168945)"/>
</clipPath>
</defs>
</svg>
