<svg width="17" height="15" viewBox="0 0 17 15" fill="none" xmlns="http://www.w3.org/2000/svg">
<path d="M14.2991 15C14.2637 15 14.2283 15 14.1911 15C14.1539 15 14.1185 15 14.0814 15H10.1944L9.9147 14.6959V9.71826H9.80849C9.44564 9.71649 9.07747 9.71649 8.68275 9.71649C8.24024 9.71649 7.76057 9.71826 7.2154 9.72003H7.11627L7.10919 9.81728C7.10565 9.85618 7.10388 9.89332 7.10034 9.92868C7.09326 10.0065 7.08618 10.079 7.08618 10.155V10.6731C7.08441 11.8702 7.08264 13.1062 7.08795 14.3228C7.08972 14.6234 7.01184 14.7984 6.8313 14.9045C6.73572 14.9611 6.61004 14.9947 6.49499 14.9947C5.98522 14.9965 5.42766 14.9982 4.79222 14.9982C4.20457 14.9982 3.6063 14.9965 3.02927 14.9965L2.44692 14.9947C2.41683 14.9947 2.3832 14.9894 2.35134 14.9859C2.34426 14.9841 2.33718 14.9841 2.3301 14.9823C2.07699 14.8338 1.97433 14.6198 1.9761 14.2485C1.98318 12.4431 1.98318 10.6077 1.98141 8.83237C1.98141 8.24531 1.98141 7.65649 1.98141 7.06943V6.18354L1.81325 6.30732C1.74245 6.3586 1.67696 6.40811 1.61501 6.45232C1.48226 6.55134 1.36543 6.63621 1.24861 6.71932C1.21144 6.74584 1.17604 6.77237 1.14064 6.79889C1.03267 6.87846 0.930005 6.9545 0.820263 7.01285C0.738842 7.05705 0.65034 7.07827 0.560068 7.07827C0.395455 7.07827 0.239692 7.00401 0.13172 6.87493C-0.0346629 6.67511 -0.0452831 6.37274 0.11048 6.1694C0.163581 6.10044 0.234382 6.03324 0.328194 5.96251C1.50881 5.07485 2.67172 4.20488 3.65409 3.46929C4.58689 2.77084 5.5197 2.07415 6.45251 1.37746C6.90387 1.03973 7.35523 0.701992 7.80659 0.366026C7.92164 0.279382 8.03669 0.192738 8.14643 0.111399L8.26503 0.0212189C8.32875 0.00707297 8.3907 0 8.44911 0C8.62965 0 8.79249 0.0636567 8.98012 0.205116C9.6191 0.691383 10.2758 1.17942 10.9095 1.65154C11.2068 1.87257 11.513 2.10067 11.8139 2.32701C12.106 2.54627 12.4034 2.76907 12.6919 2.98656C12.9857 3.20759 13.2919 3.43746 13.5911 3.66203C13.6247 3.68678 13.6583 3.69209 13.6937 3.69739C13.7096 3.69916 13.7291 3.7027 13.7521 3.708L13.8813 3.7363V3.60368C13.8813 3.51527 13.8813 3.42862 13.8813 3.34198C13.8813 3.12272 13.8813 2.91406 13.8813 2.70187C13.8813 2.67535 13.8813 2.64706 13.8813 2.62053C13.8796 2.54096 13.8778 2.46493 13.8937 2.39774C13.9521 2.15372 14.1858 1.97689 14.4513 1.97689C14.5734 1.97689 14.6885 2.01403 14.7841 2.08653C14.8407 2.12896 14.892 2.18555 14.9487 2.2492C14.9699 2.27219 14.9912 2.29518 15.0124 2.31993V4.72297L15.0549 4.7548C15.177 4.84675 15.2974 4.93693 15.416 5.02534C15.7133 5.24814 15.9948 5.45856 16.2815 5.67606C16.3328 5.71496 16.3859 5.75209 16.4355 5.78922C16.5753 5.89001 16.7063 5.98373 16.8196 6.0969C16.9665 6.24366 17.0285 6.43817 16.9878 6.63091C16.9488 6.81834 16.8196 6.96687 16.6337 7.0376C16.5612 7.0659 16.4886 7.08004 16.4196 7.08004C16.301 7.08004 16.1842 7.0376 16.0726 6.95626C15.8833 6.81657 15.6956 6.67688 15.4921 6.52835L15.0478 6.20123L15.0372 6.3975C15.0336 6.45055 15.0301 6.49829 15.0283 6.5425C15.0212 6.63268 15.0159 6.71048 15.0159 6.79005C15.0142 8.797 15.0142 10.8376 15.0142 12.8091V14.1742C15.0142 14.199 15.0142 14.2237 15.0142 14.2503C15.0142 14.3086 15.0159 14.3634 15.0124 14.4182C14.9965 14.7754 14.7947 14.9823 14.4442 15C14.4053 14.9982 14.3575 15 14.2991 15ZM3.13901 5.30119L3.13724 5.3507C3.06467 6.882 3.08591 13.4192 3.18857 13.787L3.20981 13.8666L3.29123 13.8648C3.46469 13.863 3.64701 13.8613 3.86649 13.8613C4.04349 13.8613 4.2205 13.8613 4.3975 13.863C4.57627 13.863 4.75505 13.8648 4.93382 13.8648C5.29137 13.8648 5.58165 13.8613 5.84716 13.8542L5.94982 13.8524V13.1716C5.94982 12.795 5.94982 12.4184 5.94982 12.0417C5.94805 11.1152 5.94805 10.155 5.95159 9.21254C5.95336 8.78816 6.16046 8.58305 6.58526 8.58128C6.99591 8.57951 7.43488 8.57951 8.01014 8.57951C8.24555 8.57951 8.4792 8.57951 8.71461 8.57951C8.95003 8.57951 9.18367 8.57951 9.41909 8.57951C9.82796 8.57951 10.1607 8.57951 10.4669 8.57774H10.4687C10.6192 8.57774 10.7448 8.62195 10.8546 8.71213C10.9997 8.83237 11.0581 8.98974 11.0564 9.25675C11.0511 10.4733 11.0528 11.7093 11.0546 12.9064V13.3821C11.0546 13.4669 11.0617 13.5518 11.067 13.6331C11.0705 13.6703 11.0723 13.7074 11.0741 13.7428L11.0794 13.8418H13.8654V5.30296L8.50221 1.28551L3.13901 5.30119Z" fill="white"/>
</svg>
