<svg width="724" height="70" viewBox="0 0 724 70" fill="none" xmlns="http://www.w3.org/2000/svg">
<rect x="20" y="13" width="622" height="2" fill="#333333"/>
<rect x="128" width="27" height="27" rx="13.5" fill="#272A3D"/>
<rect x="136" y="8" width="11" height="11" rx="5.5" fill="white"/>
<rect x="256" width="27" height="27" rx="13.5" fill="#787A8A"/>
<rect x="264" y="8" width="11" height="11" rx="5.5" fill="white"/>
<rect width="27" height="27" rx="13.5" fill="#787A8A"/>
<rect x="8" y="8" width="11" height="11" rx="5.5" fill="white"/>
<rect x="384" width="27" height="27" rx="13.5" fill="#787A8A"/>
<rect x="392" y="8" width="11" height="11" rx="5.5" fill="white"/>
<rect x="512" width="27" height="27" rx="13.5" fill="#787A8A"/>
<rect x="520" y="8" width="11" height="11" rx="5.5" fill="white"/>
<rect x="640" width="27" height="27" rx="13.5" fill="#787A8A"/>
<rect x="648" y="8" width="11" height="11" rx="5.5" fill="white"/>
<path d="M129.28 64V52.64H131.072V64H129.28ZM132.762 59.824C132.762 59.024 132.922 58.2987 133.242 57.648C133.573 56.9867 134.021 56.464 134.586 56.08C135.152 55.6853 135.802 55.488 136.538 55.488C137.178 55.488 137.754 55.6533 138.266 55.984C138.789 56.3147 139.194 56.7253 139.482 57.216V52.32H141.242V62.016C141.242 62.2187 141.28 62.3627 141.354 62.448C141.429 62.5333 141.552 62.5813 141.722 62.592V64C141.392 64.0533 141.136 64.08 140.954 64.08C140.624 64.08 140.341 63.984 140.106 63.792C139.882 63.6 139.765 63.3707 139.754 63.104L139.738 62.48C139.418 63.0133 138.986 63.4293 138.442 63.728C137.898 64.016 137.333 64.16 136.746 64.16C136.17 64.16 135.637 64.048 135.146 63.824C134.666 63.6 134.245 63.2853 133.882 62.88C133.53 62.4747 133.253 62.0107 133.05 61.488C132.858 60.9653 132.762 60.4107 132.762 59.824ZM139.482 60.992V58.8C139.365 58.4587 139.173 58.1547 138.906 57.888C138.65 57.6107 138.357 57.392 138.026 57.232C137.706 57.072 137.386 56.992 137.066 56.992C136.693 56.992 136.352 57.072 136.042 57.232C135.744 57.392 135.482 57.6053 135.258 57.872C135.045 58.1387 134.88 58.4427 134.762 58.784C134.645 59.1253 134.586 59.4827 134.586 59.856C134.586 60.24 134.65 60.6027 134.778 60.944C134.906 61.2747 135.088 61.5733 135.322 61.84C135.568 62.096 135.845 62.2987 136.154 62.448C136.474 62.5867 136.821 62.656 137.194 62.656C137.429 62.656 137.664 62.6133 137.898 62.528C138.144 62.4427 138.373 62.3253 138.586 62.176C138.81 62.0267 138.997 61.8507 139.146 61.648C139.306 61.4453 139.418 61.2267 139.482 60.992ZM147.27 64.16C146.619 64.16 146.027 64.048 145.494 63.824C144.971 63.5893 144.518 63.2747 144.134 62.88C143.75 62.4747 143.451 62.016 143.238 61.504C143.035 60.9813 142.934 60.4267 142.934 59.84C142.934 59.0507 143.115 58.3307 143.478 57.68C143.841 57.0187 144.347 56.4907 144.998 56.096C145.649 55.6907 146.411 55.488 147.286 55.488C148.161 55.488 148.913 55.6907 149.542 56.096C150.182 56.4907 150.678 57.0133 151.03 57.664C151.382 58.3147 151.558 59.0133 151.558 59.76C151.558 59.888 151.553 60.0107 151.542 60.128C151.531 60.2347 151.521 60.3253 151.51 60.4H144.806C144.838 60.8907 144.971 61.3227 145.206 61.696C145.451 62.0587 145.761 62.3467 146.134 62.56C146.507 62.7627 146.907 62.864 147.334 62.864C147.803 62.864 148.246 62.7467 148.662 62.512C149.089 62.2773 149.377 61.968 149.526 61.584L151.03 62.016C150.849 62.4213 150.571 62.7893 150.198 63.12C149.835 63.44 149.403 63.696 148.902 63.888C148.401 64.0693 147.857 64.16 147.27 64.16ZM144.758 59.232H149.814C149.782 58.752 149.643 58.3307 149.398 57.968C149.163 57.5947 148.859 57.3067 148.486 57.104C148.123 56.8907 147.718 56.784 147.27 56.784C146.833 56.784 146.427 56.8907 146.054 57.104C145.691 57.3067 145.393 57.5947 145.158 57.968C144.923 58.3307 144.79 58.752 144.758 59.232ZM152.386 61.552C152.386 61.0187 152.535 60.5547 152.834 60.16C153.143 59.7547 153.564 59.4453 154.098 59.232C154.631 59.008 155.25 58.896 155.954 58.896C156.327 58.896 156.706 58.9227 157.09 58.976C157.484 59.0293 157.831 59.1147 158.13 59.232V58.704C158.13 58.1173 157.954 57.6587 157.602 57.328C157.25 56.9973 156.743 56.832 156.082 56.832C155.612 56.832 155.17 56.9173 154.754 57.088C154.338 57.248 153.895 57.4773 153.426 57.776L152.834 56.592C153.388 56.2187 153.943 55.9413 154.498 55.76C155.063 55.5787 155.655 55.488 156.274 55.488C157.394 55.488 158.274 55.7867 158.914 56.384C159.564 56.9707 159.89 57.808 159.89 58.896V62.016C159.89 62.2187 159.922 62.3627 159.986 62.448C160.06 62.5333 160.183 62.5813 160.354 62.592V64C160.194 64.032 160.05 64.0533 159.922 64.064C159.794 64.0747 159.687 64.08 159.602 64.08C159.228 64.08 158.946 63.9893 158.754 63.808C158.562 63.6267 158.45 63.4133 158.418 63.168L158.37 62.688C158.007 63.1573 157.543 63.52 156.978 63.776C156.412 64.032 155.842 64.16 155.266 64.16C154.711 64.16 154.215 64.048 153.778 63.824C153.34 63.5893 152.999 63.2747 152.754 62.88C152.508 62.4853 152.386 62.0427 152.386 61.552ZM157.714 62.064C157.842 61.9253 157.943 61.7867 158.018 61.648C158.092 61.5093 158.13 61.3867 158.13 61.28V60.32C157.831 60.2027 157.516 60.1173 157.186 60.064C156.855 60 156.53 59.968 156.21 59.968C155.57 59.968 155.047 60.096 154.642 60.352C154.247 60.608 154.049 60.96 154.049 61.408C154.049 61.6533 154.114 61.888 154.242 62.112C154.38 62.336 154.572 62.5173 154.818 62.656C155.074 62.7947 155.388 62.864 155.762 62.864C156.146 62.864 156.514 62.7893 156.866 62.64C157.218 62.4907 157.5 62.2987 157.714 62.064ZM166.618 63.568C166.469 63.6427 166.282 63.7227 166.058 63.808C165.834 63.8933 165.578 63.968 165.29 64.032C165.013 64.096 164.725 64.128 164.426 64.128C164.064 64.128 163.728 64.064 163.418 63.936C163.109 63.808 162.858 63.6053 162.666 63.328C162.485 63.04 162.394 62.672 162.394 62.224V56.992H161.29V55.632H162.394V52.88H164.154V55.632H165.978V56.992H164.154V61.664C164.176 61.952 164.266 62.1653 164.426 62.304C164.597 62.4427 164.805 62.512 165.05 62.512C165.296 62.512 165.53 62.4693 165.754 62.384C165.978 62.2987 166.144 62.2293 166.25 62.176L166.618 63.568ZM167.837 64V55.632H169.597V64H167.837ZM167.837 54.256V52.32H169.597V54.256H167.837ZM175.472 64.16C174.811 64.16 174.219 64.048 173.696 63.824C173.174 63.5893 172.72 63.2693 172.336 62.864C171.963 62.4587 171.675 62 171.472 61.488C171.27 60.9653 171.168 60.4107 171.168 59.824C171.168 59.2373 171.27 58.6827 171.472 58.16C171.675 57.6373 171.963 57.1787 172.336 56.784C172.72 56.3787 173.174 56.064 173.696 55.84C174.23 55.6053 174.822 55.488 175.472 55.488C176.123 55.488 176.71 55.6053 177.232 55.84C177.766 56.064 178.219 56.3787 178.592 56.784C178.976 57.1787 179.27 57.6373 179.472 58.16C179.675 58.6827 179.776 59.2373 179.776 59.824C179.776 60.4107 179.675 60.9653 179.472 61.488C179.27 62 178.976 62.4587 178.592 62.864C178.219 63.2693 177.766 63.5893 177.232 63.824C176.71 64.048 176.123 64.16 175.472 64.16ZM172.976 59.84C172.976 60.3733 173.088 60.8533 173.312 61.28C173.536 61.7067 173.835 62.0427 174.208 62.288C174.582 62.5333 175.003 62.656 175.472 62.656C175.931 62.656 176.347 62.5333 176.72 62.288C177.104 62.032 177.408 61.6907 177.632 61.264C177.856 60.8267 177.968 60.3467 177.968 59.824C177.968 59.2907 177.856 58.8107 177.632 58.384C177.408 57.9573 177.104 57.6213 176.72 57.376C176.347 57.12 175.931 56.992 175.472 56.992C175.003 56.992 174.582 57.12 174.208 57.376C173.835 57.632 173.536 57.9733 173.312 58.4C173.088 58.816 172.976 59.296 172.976 59.84ZM188.841 64H187.081V59.312C187.081 58.5333 186.953 57.9627 186.697 57.6C186.452 57.2373 186.084 57.056 185.593 57.056C185.252 57.056 184.911 57.1413 184.569 57.312C184.239 57.4827 183.94 57.7173 183.673 58.016C183.407 58.304 183.215 58.64 183.097 59.024V64H181.337V55.632H182.937V57.312C183.151 56.9387 183.428 56.6187 183.769 56.352C184.121 56.0747 184.516 55.8613 184.953 55.712C185.391 55.5627 185.855 55.488 186.345 55.488C186.847 55.488 187.257 55.5787 187.577 55.76C187.908 55.9413 188.164 56.192 188.345 56.512C188.537 56.8213 188.665 57.184 188.729 57.6C188.804 58.0053 188.841 58.4373 188.841 58.896V64Z" fill="#272A3D"/>
<path d="M1.424 64V52.64H6.224C6.71467 52.64 7.16267 52.7413 7.568 52.944C7.97333 53.1467 8.32533 53.424 8.624 53.776C8.93333 54.1173 9.168 54.5013 9.328 54.928C9.49867 55.344 9.584 55.7707 9.584 56.208C9.584 56.752 9.47733 57.264 9.264 57.744C9.06133 58.224 8.768 58.6293 8.384 58.96C8.01067 59.2907 7.568 59.5093 7.056 59.616L9.84 64H8.576L5.904 59.808H2.544V64H1.424ZM2.544 58.816H6.256C6.704 58.816 7.09333 58.6933 7.424 58.448C7.75467 58.2027 8.01067 57.8827 8.192 57.488C8.37333 57.0827 8.464 56.656 8.464 56.208C8.464 55.7493 8.35733 55.328 8.144 54.944C7.94133 54.5493 7.664 54.2347 7.312 54C6.97067 53.7547 6.58667 53.632 6.16 53.632H2.544V58.816ZM15.0031 64.16C14.4058 64.16 13.8511 64.048 13.3391 63.824C12.8271 63.5893 12.3845 63.2747 12.0111 62.88C11.6378 62.4747 11.3445 62.0107 11.1311 61.488C10.9285 60.9653 10.8271 60.4053 10.8271 59.808C10.8271 59.0293 11.0031 58.3147 11.3551 57.664C11.7178 57.0133 12.2138 56.496 12.8431 56.112C13.4725 55.7173 14.1871 55.52 14.9871 55.52C15.8085 55.52 16.5231 55.7173 17.1311 56.112C17.7498 56.5067 18.2351 57.0293 18.5871 57.68C18.9391 58.32 19.1151 59.024 19.1151 59.792C19.1151 59.8773 19.1151 59.9627 19.1151 60.048C19.1151 60.1227 19.1098 60.1813 19.0991 60.224H11.9631C12.0165 60.8213 12.1818 61.3547 12.4591 61.824C12.7471 62.2827 13.1151 62.6507 13.5631 62.928C14.0218 63.1947 14.5178 63.328 15.0511 63.328C15.5951 63.328 16.1071 63.1893 16.5871 62.912C17.0778 62.6347 17.4191 62.272 17.6111 61.824L18.5551 62.08C18.3845 62.4747 18.1231 62.832 17.7711 63.152C17.4191 63.472 17.0031 63.7227 16.5231 63.904C16.0538 64.0747 15.5471 64.16 15.0031 64.16ZM11.9311 59.44H18.0911C18.0485 58.832 17.8831 58.2987 17.5951 57.84C17.3178 57.3813 16.9498 57.024 16.4911 56.768C16.0431 56.5013 15.5471 56.368 15.0031 56.368C14.4591 56.368 13.9631 56.5013 13.5151 56.768C13.0671 57.024 12.6991 57.3867 12.4111 57.856C12.1338 58.3147 11.9738 58.8427 11.9311 59.44ZM23.5298 64.16C22.8471 64.16 22.2124 64.048 21.6258 63.824C21.0391 63.6 20.5324 63.2587 20.1058 62.8L20.5538 62.032C21.0231 62.4693 21.4924 62.7893 21.9618 62.992C22.4418 63.184 22.9484 63.28 23.4818 63.28C24.1324 63.28 24.6604 63.152 25.0658 62.896C25.4711 62.6293 25.6738 62.2507 25.6738 61.76C25.6738 61.4293 25.5724 61.1787 25.3698 61.008C25.1778 60.8267 24.8951 60.6827 24.5218 60.576C24.1591 60.4587 23.7218 60.336 23.2098 60.208C22.6338 60.048 22.1484 59.8827 21.7538 59.712C21.3698 59.5307 21.0764 59.3067 20.8738 59.04C20.6818 58.7627 20.5858 58.4053 20.5858 57.968C20.5858 57.424 20.7191 56.976 20.9858 56.624C21.2631 56.2613 21.6364 55.9893 22.1058 55.808C22.5858 55.616 23.1191 55.52 23.7057 55.52C24.3458 55.52 24.9111 55.6213 25.4018 55.824C25.8924 56.0267 26.2924 56.3093 26.6018 56.672L26.0738 57.408C25.7751 57.0667 25.4178 56.816 25.0018 56.656C24.5964 56.4853 24.1431 56.4 23.6418 56.4C23.3004 56.4 22.9751 56.448 22.6658 56.544C22.3564 56.6293 22.1004 56.7787 21.8978 56.992C21.7058 57.1947 21.6098 57.4773 21.6098 57.84C21.6098 58.1387 21.6844 58.3733 21.8338 58.544C21.9831 58.704 22.2071 58.8427 22.5058 58.96C22.8044 59.0667 23.1724 59.184 23.6098 59.312C24.2391 59.4827 24.7884 59.6587 25.2578 59.84C25.7271 60.0107 26.0898 60.2347 26.3458 60.512C26.6018 60.7893 26.7298 61.1787 26.7298 61.68C26.7298 62.4587 26.4364 63.0667 25.8498 63.504C25.2631 63.9413 24.4898 64.16 23.5298 64.16ZM32.1281 64.16C31.5308 64.16 30.9761 64.048 30.4641 63.824C29.9521 63.5893 29.5095 63.2747 29.1361 62.88C28.7628 62.4747 28.4695 62.0107 28.2561 61.488C28.0535 60.9653 27.9521 60.4053 27.9521 59.808C27.9521 59.0293 28.1281 58.3147 28.4801 57.664C28.8428 57.0133 29.3388 56.496 29.9681 56.112C30.5975 55.7173 31.3121 55.52 32.1121 55.52C32.9335 55.52 33.6481 55.7173 34.2561 56.112C34.8748 56.5067 35.3601 57.0293 35.7121 57.68C36.0641 58.32 36.2401 59.024 36.2401 59.792C36.2401 59.8773 36.2401 59.9627 36.2401 60.048C36.2401 60.1227 36.2348 60.1813 36.2241 60.224H29.0881C29.1415 60.8213 29.3068 61.3547 29.5841 61.824C29.8721 62.2827 30.2401 62.6507 30.6881 62.928C31.1468 63.1947 31.6428 63.328 32.1761 63.328C32.7201 63.328 33.2321 63.1893 33.7121 62.912C34.2028 62.6347 34.5441 62.272 34.7361 61.824L35.6801 62.08C35.5095 62.4747 35.2481 62.832 34.8961 63.152C34.5441 63.472 34.1281 63.7227 33.6481 63.904C33.1788 64.0747 32.6721 64.16 32.1281 64.16ZM29.0561 59.44H35.2161C35.1735 58.832 35.0081 58.2987 34.7201 57.84C34.4428 57.3813 34.0748 57.024 33.6161 56.768C33.1681 56.5013 32.6721 56.368 32.1281 56.368C31.5841 56.368 31.0881 56.5013 30.6401 56.768C30.1921 57.024 29.8241 57.3867 29.5361 57.856C29.2588 58.3147 29.0988 58.8427 29.0561 59.44ZM37.2467 61.6C37.2467 61.0773 37.3961 60.6293 37.6948 60.256C37.9934 59.872 38.4041 59.5787 38.9268 59.376C39.4601 59.1627 40.0734 59.056 40.7668 59.056C41.1721 59.056 41.5934 59.088 42.0308 59.152C42.4681 59.216 42.8574 59.312 43.1988 59.44V58.736C43.1988 58.032 42.9908 57.472 42.5748 57.056C42.1588 56.64 41.5828 56.432 40.8468 56.432C40.3988 56.432 39.9561 56.5173 39.5188 56.688C39.0921 56.848 38.6441 57.088 38.1748 57.408L37.7588 56.64C38.3028 56.2667 38.8361 55.9893 39.3588 55.808C39.8814 55.616 40.4148 55.52 40.9588 55.52C41.9828 55.52 42.7934 55.8133 43.3908 56.4C43.9881 56.9867 44.2868 57.7973 44.2868 58.832V62.688C44.2868 62.8373 44.3188 62.9493 44.3828 63.024C44.4468 63.088 44.5481 63.1253 44.6868 63.136V64C44.5694 64.0107 44.4681 64.0213 44.3828 64.032C44.2974 64.0427 44.2334 64.0427 44.1908 64.032C43.9241 64.0213 43.7214 63.936 43.5828 63.776C43.4441 63.616 43.3694 63.4453 43.3588 63.264L43.3428 62.656C42.9694 63.136 42.4841 63.5093 41.8868 63.776C41.2894 64.032 40.6814 64.16 40.0628 64.16C39.5294 64.16 39.0441 64.048 38.6068 63.824C38.1801 63.5893 37.8441 63.28 37.5988 62.896C37.3641 62.5013 37.2467 62.0693 37.2467 61.6ZM42.8308 62.24C42.9481 62.0907 43.0388 61.9467 43.1028 61.808C43.1668 61.6693 43.1988 61.5467 43.1988 61.44V60.224C42.8361 60.0853 42.4574 59.9787 42.0628 59.904C41.6788 59.8293 41.2894 59.792 40.8948 59.792C40.1161 59.792 39.4868 59.9467 39.0068 60.256C38.5268 60.5653 38.2868 60.9867 38.2868 61.52C38.2868 61.8293 38.3668 62.1227 38.5268 62.4C38.6868 62.6667 38.9214 62.8907 39.2308 63.072C39.5401 63.2427 39.9028 63.328 40.3188 63.328C40.8414 63.328 41.3268 63.2267 41.7748 63.024C42.2334 62.8213 42.5854 62.56 42.8308 62.24ZM50.7975 56.624C50.0722 56.6453 49.4322 56.848 48.8775 57.232C48.3335 57.616 47.9495 58.144 47.7255 58.816V64H46.6375V55.664H47.6615V57.664C47.9495 57.0773 48.3282 56.6027 48.7975 56.24C49.2775 55.8773 49.7842 55.6747 50.3175 55.632C50.4242 55.6213 50.5148 55.616 50.5895 55.616C50.6748 55.616 50.7442 55.6213 50.7975 55.632V56.624ZM55.6129 64.16C55.0049 64.16 54.4449 64.048 53.9329 63.824C53.4315 63.5893 52.9889 63.2693 52.6049 62.864C52.2315 62.4587 51.9382 61.9947 51.7249 61.472C51.5222 60.9493 51.4209 60.3947 51.4209 59.808C51.4209 59.0187 51.5969 58.2987 51.9489 57.648C52.3009 56.9973 52.7915 56.48 53.4209 56.096C54.0502 55.712 54.7755 55.52 55.5969 55.52C56.3755 55.52 57.0635 55.7013 57.6609 56.064C58.2582 56.416 58.7009 56.896 58.9889 57.504L57.9329 57.84C57.6982 57.4133 57.3675 57.0827 56.9409 56.848C56.5249 56.6027 56.0609 56.48 55.5489 56.48C54.9942 56.48 54.4875 56.624 54.0289 56.912C53.5702 57.2 53.2022 57.5947 52.9249 58.096C52.6582 58.5973 52.5249 59.168 52.5249 59.808C52.5249 60.4373 52.6635 61.008 52.9409 61.52C53.2182 62.032 53.5862 62.4427 54.0449 62.752C54.5035 63.0507 55.0102 63.2 55.5649 63.2C55.9275 63.2 56.2742 63.136 56.6049 63.008C56.9462 62.88 57.2395 62.7093 57.4849 62.496C57.7409 62.272 57.9115 62.032 57.9969 61.776L59.0689 62.096C58.9195 62.4907 58.6689 62.848 58.3169 63.168C57.9755 63.4773 57.5702 63.7227 57.1009 63.904C56.6422 64.0747 56.1462 64.16 55.6129 64.16ZM67.7861 64H66.6981V59.344C66.6981 58.4053 66.5328 57.7013 66.2021 57.232C65.8715 56.752 65.3968 56.512 64.7781 56.512C64.3728 56.512 63.9675 56.6187 63.5621 56.832C63.1675 57.0347 62.8155 57.3173 62.5061 57.68C62.2075 58.032 61.9941 58.4373 61.8661 58.896V64H60.7781V52.32H61.8661V57.552C62.1968 56.9333 62.6555 56.4427 63.2421 56.08C63.8395 55.7067 64.4741 55.52 65.1461 55.52C65.6261 55.52 66.0315 55.6053 66.3621 55.776C66.7035 55.9467 66.9755 56.1973 67.1781 56.528C67.3915 56.848 67.5461 57.2267 67.6421 57.664C67.7381 58.0907 67.7861 58.576 67.7861 59.12V64Z" fill="#787A8A"/>
<path d="M385.424 64V52.64H390.224C390.715 52.64 391.163 52.7413 391.568 52.944C391.973 53.1467 392.325 53.424 392.624 53.776C392.933 54.1173 393.168 54.5013 393.328 54.928C393.499 55.344 393.584 55.7707 393.584 56.208C393.584 56.752 393.477 57.264 393.264 57.744C393.061 58.224 392.768 58.6293 392.384 58.96C392.011 59.2907 391.568 59.5093 391.056 59.616L393.84 64H392.576L389.904 59.808H386.544V64H385.424ZM386.544 58.816H390.256C390.704 58.816 391.093 58.6933 391.424 58.448C391.755 58.2027 392.011 57.8827 392.192 57.488C392.373 57.0827 392.464 56.656 392.464 56.208C392.464 55.7493 392.357 55.328 392.144 54.944C391.941 54.5493 391.664 54.2347 391.312 54C390.971 53.7547 390.587 53.632 390.16 53.632H386.544V58.816ZM399.003 64.16C398.406 64.16 397.851 64.048 397.339 63.824C396.827 63.5893 396.384 63.2747 396.011 62.88C395.638 62.4747 395.344 62.0107 395.131 61.488C394.928 60.9653 394.827 60.4053 394.827 59.808C394.827 59.0293 395.003 58.3147 395.355 57.664C395.718 57.0133 396.214 56.496 396.843 56.112C397.472 55.7173 398.187 55.52 398.987 55.52C399.808 55.52 400.523 55.7173 401.131 56.112C401.75 56.5067 402.235 57.0293 402.587 57.68C402.939 58.32 403.115 59.024 403.115 59.792C403.115 59.8773 403.115 59.9627 403.115 60.048C403.115 60.1227 403.11 60.1813 403.099 60.224H395.963C396.016 60.8213 396.182 61.3547 396.459 61.824C396.747 62.2827 397.115 62.6507 397.563 62.928C398.022 63.1947 398.518 63.328 399.051 63.328C399.595 63.328 400.107 63.1893 400.587 62.912C401.078 62.6347 401.419 62.272 401.611 61.824L402.555 62.08C402.384 62.4747 402.123 62.832 401.771 63.152C401.419 63.472 401.003 63.7227 400.523 63.904C400.054 64.0747 399.547 64.16 399.003 64.16ZM395.931 59.44H402.091C402.048 58.832 401.883 58.2987 401.595 57.84C401.318 57.3813 400.95 57.024 400.491 56.768C400.043 56.5013 399.547 56.368 399.003 56.368C398.459 56.368 397.963 56.5013 397.515 56.768C397.067 57.024 396.699 57.3867 396.411 57.856C396.134 58.3147 395.974 58.8427 395.931 59.44ZM407.055 64L403.679 55.664H404.815L407.663 62.912L410.527 55.664H411.599L408.223 64H407.055ZM413.106 64V55.664H414.194V64H413.106ZM413.106 53.92V52.32H414.194V53.92H413.106ZM419.327 64.16C418.644 64.16 418.009 64.048 417.423 63.824C416.836 63.6 416.329 63.2587 415.903 62.8L416.351 62.032C416.82 62.4693 417.289 62.7893 417.759 62.992C418.239 63.184 418.745 63.28 419.279 63.28C419.929 63.28 420.457 63.152 420.863 62.896C421.268 62.6293 421.471 62.2507 421.471 61.76C421.471 61.4293 421.369 61.1787 421.167 61.008C420.975 60.8267 420.692 60.6827 420.319 60.576C419.956 60.4587 419.519 60.336 419.007 60.208C418.431 60.048 417.945 59.8827 417.551 59.712C417.167 59.5307 416.873 59.3067 416.671 59.04C416.479 58.7627 416.383 58.4053 416.383 57.968C416.383 57.424 416.516 56.976 416.783 56.624C417.06 56.2613 417.433 55.9893 417.903 55.808C418.383 55.616 418.916 55.52 419.503 55.52C420.143 55.52 420.708 55.6213 421.199 55.824C421.689 56.0267 422.089 56.3093 422.399 56.672L421.871 57.408C421.572 57.0667 421.215 56.816 420.799 56.656C420.393 56.4853 419.94 56.4 419.439 56.4C419.097 56.4 418.772 56.448 418.463 56.544C418.153 56.6293 417.897 56.7787 417.695 56.992C417.503 57.1947 417.407 57.4773 417.407 57.84C417.407 58.1387 417.481 58.3733 417.631 58.544C417.78 58.704 418.004 58.8427 418.303 58.96C418.601 59.0667 418.969 59.184 419.407 59.312C420.036 59.4827 420.585 59.6587 421.055 59.84C421.524 60.0107 421.887 60.2347 422.143 60.512C422.399 60.7893 422.527 61.1787 422.527 61.68C422.527 62.4587 422.233 63.0667 421.647 63.504C421.06 63.9413 420.287 64.16 419.327 64.16ZM424.325 64V55.664H425.413V64H424.325ZM424.325 53.92V52.32H425.413V53.92H424.325ZM431.361 64.16C430.764 64.16 430.209 64.048 429.697 63.824C429.196 63.5893 428.759 63.2747 428.385 62.88C428.023 62.4747 427.74 62.016 427.537 61.504C427.335 60.9813 427.233 60.432 427.233 59.856C427.233 59.2587 427.335 58.704 427.537 58.192C427.74 57.6693 428.028 57.2107 428.401 56.816C428.775 56.4107 429.212 56.096 429.713 55.872C430.225 55.6373 430.78 55.52 431.377 55.52C431.975 55.52 432.524 55.6373 433.025 55.872C433.527 56.096 433.964 56.4107 434.337 56.816C434.711 57.2107 434.999 57.6693 435.201 58.192C435.404 58.704 435.505 59.2587 435.505 59.856C435.505 60.432 435.404 60.9813 435.201 61.504C434.999 62.016 434.711 62.4747 434.337 62.88C433.975 63.2747 433.537 63.5893 433.025 63.824C432.524 64.048 431.969 64.16 431.361 64.16ZM428.337 59.872C428.337 60.4907 428.471 61.056 428.737 61.568C429.015 62.0693 429.383 62.4693 429.841 62.768C430.3 63.056 430.807 63.2 431.361 63.2C431.916 63.2 432.423 63.0507 432.881 62.752C433.34 62.4533 433.708 62.048 433.985 61.536C434.263 61.0133 434.401 60.448 434.401 59.84C434.401 59.2213 434.263 58.656 433.985 58.144C433.708 57.632 433.34 57.2267 432.881 56.928C432.423 56.6293 431.916 56.48 431.361 56.48C430.807 56.48 430.3 56.6347 429.841 56.944C429.393 57.2533 429.031 57.664 428.753 58.176C428.476 58.6773 428.337 59.2427 428.337 59.872ZM444.333 64H443.245V59.344C443.245 58.3627 443.101 57.648 442.813 57.2C442.525 56.7413 442.072 56.512 441.453 56.512C441.026 56.512 440.605 56.6187 440.189 56.832C439.773 57.0347 439.405 57.3173 439.085 57.68C438.776 58.032 438.552 58.4373 438.413 58.896V64H437.325V55.664H438.317V57.552C438.541 57.1467 438.834 56.7947 439.197 56.496C439.56 56.1867 439.97 55.9467 440.429 55.776C440.888 55.6053 441.362 55.52 441.853 55.52C442.312 55.52 442.701 55.6053 443.021 55.776C443.341 55.9467 443.597 56.192 443.789 56.512C443.981 56.8213 444.12 57.2 444.205 57.648C444.29 58.0853 444.333 58.576 444.333 59.12V64ZM449.389 64.16C448.706 64.16 448.072 64.048 447.485 63.824C446.898 63.6 446.392 63.2587 445.965 62.8L446.413 62.032C446.882 62.4693 447.352 62.7893 447.821 62.992C448.301 63.184 448.808 63.28 449.341 63.28C449.992 63.28 450.52 63.152 450.925 62.896C451.33 62.6293 451.533 62.2507 451.533 61.76C451.533 61.4293 451.432 61.1787 451.229 61.008C451.037 60.8267 450.754 60.6827 450.381 60.576C450.018 60.4587 449.581 60.336 449.069 60.208C448.493 60.048 448.008 59.8827 447.613 59.712C447.229 59.5307 446.936 59.3067 446.733 59.04C446.541 58.7627 446.445 58.4053 446.445 57.968C446.445 57.424 446.578 56.976 446.845 56.624C447.122 56.2613 447.496 55.9893 447.965 55.808C448.445 55.616 448.978 55.52 449.565 55.52C450.205 55.52 450.77 55.6213 451.261 55.824C451.752 56.0267 452.152 56.3093 452.461 56.672L451.933 57.408C451.634 57.0667 451.277 56.816 450.861 56.656C450.456 56.4853 450.002 56.4 449.501 56.4C449.16 56.4 448.834 56.448 448.525 56.544C448.216 56.6293 447.96 56.7787 447.757 56.992C447.565 57.1947 447.469 57.4773 447.469 57.84C447.469 58.1387 447.544 58.3733 447.693 58.544C447.842 58.704 448.066 58.8427 448.365 58.96C448.664 59.0667 449.032 59.184 449.469 59.312C450.098 59.4827 450.648 59.6587 451.117 59.84C451.586 60.0107 451.949 60.2347 452.205 60.512C452.461 60.7893 452.589 61.1787 452.589 61.68C452.589 62.4587 452.296 63.0667 451.709 63.504C451.122 63.9413 450.349 64.16 449.389 64.16Z" fill="#787A8A"/>
<path d="M257.424 64V52.64H261.28C262.485 52.64 263.488 52.896 264.288 53.408C265.099 53.9093 265.707 54.592 266.112 55.456C266.517 56.3093 266.72 57.2587 266.72 58.304C266.72 59.456 266.496 60.4587 266.048 61.312C265.611 62.1653 264.981 62.8267 264.16 63.296C263.349 63.7653 262.389 64 261.28 64H257.424ZM265.6 58.304C265.6 57.3973 265.429 56.592 265.088 55.888C264.757 55.184 264.272 54.6347 263.632 54.24C262.992 53.8347 262.208 53.632 261.28 53.632H258.544V63.008H261.28C262.219 63.008 263.008 62.8 263.648 62.384C264.288 61.968 264.773 61.408 265.104 60.704C265.435 59.9893 265.6 59.1893 265.6 58.304ZM272.238 64.16C271.64 64.16 271.086 64.048 270.574 63.824C270.062 63.5893 269.619 63.2747 269.246 62.88C268.872 62.4747 268.579 62.0107 268.366 61.488C268.163 60.9653 268.062 60.4053 268.062 59.808C268.062 59.0293 268.238 58.3147 268.59 57.664C268.952 57.0133 269.448 56.496 270.078 56.112C270.707 55.7173 271.422 55.52 272.222 55.52C273.043 55.52 273.758 55.7173 274.366 56.112C274.984 56.5067 275.47 57.0293 275.822 57.68C276.174 58.32 276.35 59.024 276.35 59.792C276.35 59.8773 276.35 59.9627 276.35 60.048C276.35 60.1227 276.344 60.1813 276.334 60.224H269.198C269.251 60.8213 269.416 61.3547 269.694 61.824C269.982 62.2827 270.35 62.6507 270.798 62.928C271.256 63.1947 271.752 63.328 272.286 63.328C272.83 63.328 273.342 63.1893 273.822 62.912C274.312 62.6347 274.654 62.272 274.846 61.824L275.79 62.08C275.619 62.4747 275.358 62.832 275.006 63.152C274.654 63.472 274.238 63.7227 273.758 63.904C273.288 64.0747 272.782 64.16 272.238 64.16ZM269.166 59.44H275.326C275.283 58.832 275.118 58.2987 274.83 57.84C274.552 57.3813 274.184 57.024 273.726 56.768C273.278 56.5013 272.782 56.368 272.238 56.368C271.694 56.368 271.198 56.5013 270.75 56.768C270.302 57.024 269.934 57.3867 269.646 57.856C269.368 58.3147 269.208 58.8427 269.166 59.44ZM280.764 64.16C280.081 64.16 279.447 64.048 278.86 63.824C278.273 63.6 277.767 63.2587 277.34 62.8L277.788 62.032C278.257 62.4693 278.727 62.7893 279.196 62.992C279.676 63.184 280.183 63.28 280.716 63.28C281.367 63.28 281.895 63.152 282.3 62.896C282.705 62.6293 282.908 62.2507 282.908 61.76C282.908 61.4293 282.807 61.1787 282.604 61.008C282.412 60.8267 282.129 60.6827 281.756 60.576C281.393 60.4587 280.956 60.336 280.444 60.208C279.868 60.048 279.383 59.8827 278.988 59.712C278.604 59.5307 278.311 59.3067 278.108 59.04C277.916 58.7627 277.82 58.4053 277.82 57.968C277.82 57.424 277.953 56.976 278.22 56.624C278.497 56.2613 278.871 55.9893 279.34 55.808C279.82 55.616 280.353 55.52 280.94 55.52C281.58 55.52 282.145 55.6213 282.636 55.824C283.127 56.0267 283.527 56.3093 283.836 56.672L283.308 57.408C283.009 57.0667 282.652 56.816 282.236 56.656C281.831 56.4853 281.377 56.4 280.876 56.4C280.535 56.4 280.209 56.448 279.9 56.544C279.591 56.6293 279.335 56.7787 279.132 56.992C278.94 57.1947 278.844 57.4773 278.844 57.84C278.844 58.1387 278.919 58.3733 279.068 58.544C279.217 58.704 279.441 58.8427 279.74 58.96C280.039 59.0667 280.407 59.184 280.844 59.312C281.473 59.4827 282.023 59.6587 282.492 59.84C282.961 60.0107 283.324 60.2347 283.58 60.512C283.836 60.7893 283.964 61.1787 283.964 61.68C283.964 62.4587 283.671 63.0667 283.084 63.504C282.497 63.9413 281.724 64.16 280.764 64.16ZM285.763 64V55.664H286.851V64H285.763ZM285.763 53.92V52.32H286.851V53.92H285.763ZM292.591 64.112C292.026 64.112 291.503 63.9947 291.023 63.76C290.543 63.5253 290.127 63.2107 289.775 62.816C289.434 62.4107 289.167 61.952 288.975 61.44C288.783 60.928 288.687 60.4 288.687 59.856C288.687 59.2693 288.778 58.72 288.959 58.208C289.151 57.6853 289.418 57.2213 289.759 56.816C290.111 56.4107 290.522 56.096 290.991 55.872C291.46 55.6373 291.983 55.52 292.559 55.52C293.274 55.52 293.892 55.7013 294.415 56.064C294.948 56.4267 295.396 56.8747 295.759 57.408V55.664H296.735V64.032C296.735 64.8 296.548 65.4453 296.175 65.968C295.812 66.5013 295.316 66.9013 294.687 67.168C294.068 67.4347 293.391 67.568 292.655 67.568C291.706 67.568 290.938 67.3973 290.351 67.056C289.764 66.7147 289.284 66.256 288.911 65.68L289.583 65.152C289.914 65.6747 290.351 66.064 290.895 66.32C291.45 66.576 292.036 66.704 292.655 66.704C293.199 66.704 293.695 66.6027 294.143 66.4C294.602 66.208 294.964 65.9147 295.231 65.52C295.508 65.1253 295.647 64.6293 295.647 64.032V62.384C295.327 62.9067 294.89 63.328 294.335 63.648C293.78 63.9573 293.199 64.112 292.591 64.112ZM292.895 63.2C293.226 63.2 293.54 63.1413 293.839 63.024C294.148 62.9067 294.431 62.752 294.687 62.56C294.943 62.3573 295.156 62.1333 295.327 61.888C295.498 61.6427 295.604 61.392 295.647 61.136V58.56C295.487 58.1547 295.258 57.7973 294.959 57.488C294.66 57.168 294.319 56.9227 293.935 56.752C293.562 56.5707 293.172 56.48 292.767 56.48C292.298 56.48 291.876 56.5813 291.503 56.784C291.14 56.976 290.831 57.2373 290.575 57.568C290.33 57.888 290.138 58.2507 289.999 58.656C289.86 59.0613 289.791 59.4667 289.791 59.872C289.791 60.32 289.871 60.7467 290.031 61.152C290.191 61.5467 290.41 61.904 290.687 62.224C290.975 62.5333 291.306 62.7733 291.679 62.944C292.063 63.1147 292.468 63.2 292.895 63.2ZM306.146 64H305.058V59.344C305.058 58.3627 304.914 57.648 304.626 57.2C304.338 56.7413 303.884 56.512 303.266 56.512C302.839 56.512 302.418 56.6187 302.002 56.832C301.586 57.0347 301.218 57.3173 300.898 57.68C300.588 58.032 300.364 58.4373 300.226 58.896V64H299.138V55.664H300.13V57.552C300.354 57.1467 300.647 56.7947 301.01 56.496C301.372 56.1867 301.783 55.9467 302.242 55.776C302.7 55.6053 303.175 55.52 303.666 55.52C304.124 55.52 304.514 55.6053 304.834 55.776C305.154 55.9467 305.41 56.192 305.602 56.512C305.794 56.8213 305.932 57.2 306.017 57.648C306.103 58.0853 306.146 58.576 306.146 59.12V64Z" fill="#787A8A"/>
<path d="M513.424 64V52.64H517.28C518.485 52.64 519.488 52.896 520.288 53.408C521.099 53.9093 521.707 54.592 522.112 55.456C522.517 56.3093 522.72 57.2587 522.72 58.304C522.72 59.456 522.496 60.4587 522.048 61.312C521.611 62.1653 520.981 62.8267 520.16 63.296C519.349 63.7653 518.389 64 517.28 64H513.424ZM521.6 58.304C521.6 57.3973 521.429 56.592 521.088 55.888C520.757 55.184 520.272 54.6347 519.632 54.24C518.992 53.8347 518.208 53.632 517.28 53.632H514.544V63.008H517.28C518.219 63.008 519.008 62.8 519.648 62.384C520.288 61.968 520.773 61.408 521.104 60.704C521.435 59.9893 521.6 59.1893 521.6 58.304ZM528.238 64.16C527.64 64.16 527.086 64.048 526.574 63.824C526.062 63.5893 525.619 63.2747 525.246 62.88C524.872 62.4747 524.579 62.0107 524.366 61.488C524.163 60.9653 524.062 60.4053 524.062 59.808C524.062 59.0293 524.238 58.3147 524.59 57.664C524.952 57.0133 525.448 56.496 526.078 56.112C526.707 55.7173 527.422 55.52 528.222 55.52C529.043 55.52 529.758 55.7173 530.366 56.112C530.984 56.5067 531.47 57.0293 531.822 57.68C532.174 58.32 532.35 59.024 532.35 59.792C532.35 59.8773 532.35 59.9627 532.35 60.048C532.35 60.1227 532.344 60.1813 532.334 60.224H525.198C525.251 60.8213 525.416 61.3547 525.694 61.824C525.982 62.2827 526.35 62.6507 526.798 62.928C527.256 63.1947 527.752 63.328 528.286 63.328C528.83 63.328 529.342 63.1893 529.822 62.912C530.312 62.6347 530.654 62.272 530.846 61.824L531.79 62.08C531.619 62.4747 531.358 62.832 531.006 63.152C530.654 63.472 530.238 63.7227 529.758 63.904C529.288 64.0747 528.782 64.16 528.238 64.16ZM525.166 59.44H531.326C531.283 58.832 531.118 58.2987 530.83 57.84C530.552 57.3813 530.184 57.024 529.726 56.768C529.278 56.5013 528.782 56.368 528.238 56.368C527.694 56.368 527.198 56.5013 526.75 56.768C526.302 57.024 525.934 57.3867 525.646 57.856C525.368 58.3147 525.208 58.8427 525.166 59.44ZM536.289 64L532.913 55.664H534.049L536.897 62.912L539.761 55.664H540.833L537.457 64H536.289ZM545.659 64.16C545.062 64.16 544.507 64.048 543.995 63.824C543.483 63.5893 543.041 63.2747 542.667 62.88C542.294 62.4747 542.001 62.0107 541.787 61.488C541.585 60.9653 541.483 60.4053 541.483 59.808C541.483 59.0293 541.659 58.3147 542.011 57.664C542.374 57.0133 542.87 56.496 543.499 56.112C544.129 55.7173 544.843 55.52 545.643 55.52C546.465 55.52 547.179 55.7173 547.787 56.112C548.406 56.5067 548.891 57.0293 549.243 57.68C549.595 58.32 549.771 59.024 549.771 59.792C549.771 59.8773 549.771 59.9627 549.771 60.048C549.771 60.1227 549.766 60.1813 549.755 60.224H542.619C542.673 60.8213 542.838 61.3547 543.115 61.824C543.403 62.2827 543.771 62.6507 544.219 62.928C544.678 63.1947 545.174 63.328 545.707 63.328C546.251 63.328 546.763 63.1893 547.243 62.912C547.734 62.6347 548.075 62.272 548.267 61.824L549.211 62.08C549.041 62.4747 548.779 62.832 548.427 63.152C548.075 63.472 547.659 63.7227 547.179 63.904C546.71 64.0747 546.203 64.16 545.659 64.16ZM542.587 59.44H548.747C548.705 58.832 548.539 58.2987 548.251 57.84C547.974 57.3813 547.606 57.024 547.147 56.768C546.699 56.5013 546.203 56.368 545.659 56.368C545.115 56.368 544.619 56.5013 544.171 56.768C543.723 57.024 543.355 57.3867 543.067 57.856C542.79 58.3147 542.63 58.8427 542.587 59.44ZM551.498 52.32H552.586V62.112C552.586 62.528 552.661 62.8 552.81 62.928C552.959 63.056 553.141 63.12 553.354 63.12C553.546 63.12 553.738 63.0987 553.93 63.056C554.122 63.0133 554.287 62.9707 554.426 62.928L554.618 63.808C554.415 63.8933 554.165 63.9627 553.866 64.016C553.578 64.0693 553.327 64.096 553.114 64.096C552.623 64.096 552.229 63.952 551.93 63.664C551.642 63.376 551.498 62.9813 551.498 62.48V52.32ZM559.361 64.16C558.764 64.16 558.209 64.048 557.697 63.824C557.196 63.5893 556.759 63.2747 556.385 62.88C556.023 62.4747 555.74 62.016 555.537 61.504C555.335 60.9813 555.233 60.432 555.233 59.856C555.233 59.2587 555.335 58.704 555.537 58.192C555.74 57.6693 556.028 57.2107 556.401 56.816C556.775 56.4107 557.212 56.096 557.713 55.872C558.225 55.6373 558.78 55.52 559.377 55.52C559.975 55.52 560.524 55.6373 561.025 55.872C561.527 56.096 561.964 56.4107 562.337 56.816C562.711 57.2107 562.999 57.6693 563.201 58.192C563.404 58.704 563.505 59.2587 563.505 59.856C563.505 60.432 563.404 60.9813 563.201 61.504C562.999 62.016 562.711 62.4747 562.337 62.88C561.975 63.2747 561.537 63.5893 561.025 63.824C560.524 64.048 559.969 64.16 559.361 64.16ZM556.337 59.872C556.337 60.4907 556.471 61.056 556.737 61.568C557.015 62.0693 557.383 62.4693 557.841 62.768C558.3 63.056 558.807 63.2 559.361 63.2C559.916 63.2 560.423 63.0507 560.881 62.752C561.34 62.4533 561.708 62.048 561.985 61.536C562.263 61.0133 562.401 60.448 562.401 59.84C562.401 59.2213 562.263 58.656 561.985 58.144C561.708 57.632 561.34 57.2267 560.881 56.928C560.423 56.6293 559.916 56.48 559.361 56.48C558.807 56.48 558.3 56.6347 557.841 56.944C557.393 57.2533 557.031 57.664 556.753 58.176C556.476 58.6773 556.337 59.2427 556.337 59.872ZM569.581 64.16C568.888 64.16 568.264 63.9787 567.709 63.616C567.165 63.2533 566.733 62.8053 566.413 62.272V67.408H565.325V55.664H566.301V57.28C566.632 56.7573 567.074 56.336 567.629 56.016C568.184 55.6853 568.776 55.52 569.405 55.52C569.981 55.52 570.509 55.6427 570.989 55.888C571.469 56.1227 571.885 56.4427 572.237 56.848C572.589 57.2533 572.861 57.7173 573.053 58.24C573.256 58.752 573.357 59.2853 573.357 59.84C573.357 60.6187 573.197 61.3387 572.877 62C572.568 62.6507 572.13 63.1733 571.565 63.568C571 63.9627 570.338 64.16 569.581 64.16ZM569.277 63.2C569.736 63.2 570.146 63.1093 570.509 62.928C570.872 62.736 571.181 62.48 571.437 62.16C571.704 61.84 571.906 61.4827 572.045 61.088C572.184 60.6827 572.253 60.2667 572.253 59.84C572.253 59.392 572.173 58.9653 572.013 58.56C571.864 58.1547 571.645 57.7973 571.357 57.488C571.069 57.1787 570.738 56.9333 570.365 56.752C569.992 56.5707 569.586 56.48 569.149 56.48C568.872 56.48 568.584 56.5333 568.285 56.64C567.986 56.7467 567.698 56.9013 567.421 57.104C567.154 57.296 566.93 57.5147 566.749 57.76C566.568 58.0053 566.456 58.2667 566.413 58.544V61.104C566.584 61.4987 566.813 61.856 567.101 62.176C567.389 62.4853 567.72 62.736 568.093 62.928C568.477 63.1093 568.872 63.2 569.277 63.2ZM587.6 64H586.512V59.344C586.512 58.3733 586.357 57.6587 586.048 57.2C585.739 56.7413 585.28 56.512 584.672 56.512C584.043 56.512 583.477 56.736 582.976 57.184C582.485 57.632 582.139 58.208 581.936 58.912V64H580.848V59.344C580.848 58.3627 580.699 57.648 580.4 57.2C580.101 56.7413 579.643 56.512 579.024 56.512C578.405 56.512 577.845 56.7307 577.344 57.168C576.843 57.6053 576.491 58.1813 576.288 58.896V64H575.2V55.664H576.192V57.552C576.544 56.9013 576.992 56.4 577.536 56.048C578.091 55.696 578.704 55.52 579.376 55.52C580.069 55.52 580.629 55.7173 581.056 56.112C581.483 56.5067 581.744 57.024 581.84 57.664C582.224 56.96 582.683 56.4267 583.216 56.064C583.76 55.7013 584.373 55.52 585.056 55.52C585.525 55.52 585.92 55.6053 586.24 55.776C586.571 55.9467 586.832 56.192 587.024 56.512C587.227 56.8213 587.371 57.2 587.456 57.648C587.552 58.0853 587.6 58.576 587.6 59.12V64ZM593.503 64.16C592.906 64.16 592.351 64.048 591.839 63.824C591.327 63.5893 590.884 63.2747 590.511 62.88C590.138 62.4747 589.844 62.0107 589.631 61.488C589.428 60.9653 589.327 60.4053 589.327 59.808C589.327 59.0293 589.503 58.3147 589.855 57.664C590.218 57.0133 590.714 56.496 591.343 56.112C591.972 55.7173 592.687 55.52 593.487 55.52C594.308 55.52 595.023 55.7173 595.631 56.112C596.25 56.5067 596.735 57.0293 597.087 57.68C597.439 58.32 597.615 59.024 597.615 59.792C597.615 59.8773 597.615 59.9627 597.615 60.048C597.615 60.1227 597.61 60.1813 597.599 60.224H590.463C590.516 60.8213 590.682 61.3547 590.959 61.824C591.247 62.2827 591.615 62.6507 592.063 62.928C592.522 63.1947 593.018 63.328 593.551 63.328C594.095 63.328 594.607 63.1893 595.087 62.912C595.578 62.6347 595.919 62.272 596.111 61.824L597.055 62.08C596.884 62.4747 596.623 62.832 596.271 63.152C595.919 63.472 595.503 63.7227 595.023 63.904C594.554 64.0747 594.047 64.16 593.503 64.16ZM590.431 59.44H596.591C596.548 58.832 596.383 58.2987 596.095 57.84C595.818 57.3813 595.45 57.024 594.991 56.768C594.543 56.5013 594.047 56.368 593.503 56.368C592.959 56.368 592.463 56.5013 592.015 56.768C591.567 57.024 591.199 57.3867 590.911 57.856C590.634 58.3147 590.474 58.8427 590.431 59.44ZM606.302 64H605.214V59.344C605.214 58.3627 605.07 57.648 604.782 57.2C604.494 56.7413 604.04 56.512 603.422 56.512C602.995 56.512 602.574 56.6187 602.158 56.832C601.742 57.0347 601.374 57.3173 601.054 57.68C600.744 58.032 600.52 58.4373 600.382 58.896V64H599.294V55.664H600.286V57.552C600.51 57.1467 600.803 56.7947 601.166 56.496C601.528 56.1867 601.939 55.9467 602.398 55.776C602.856 55.6053 603.331 55.52 603.822 55.52C604.28 55.52 604.67 55.6053 604.99 55.776C605.31 55.9467 605.566 56.192 605.758 56.512C605.95 56.8213 606.088 57.2 606.174 57.648C606.259 58.0853 606.302 58.576 606.302 59.12V64ZM612.544 63.6C612.458 63.632 612.325 63.6907 612.144 63.776C611.962 63.8613 611.744 63.936 611.488 64C611.232 64.064 610.954 64.096 610.656 64.096C610.346 64.096 610.053 64.0373 609.776 63.92C609.509 63.8027 609.296 63.6267 609.136 63.392C608.976 63.1467 608.896 62.848 608.896 62.496V56.528H607.744V55.664H608.896V52.848H609.984V55.664H611.904V56.528H609.984V62.192C610.005 62.4907 610.112 62.7147 610.304 62.864C610.506 63.0133 610.736 63.088 610.992 63.088C611.29 63.088 611.562 63.04 611.808 62.944C612.053 62.8373 612.202 62.7627 612.256 62.72L612.544 63.6Z" fill="#787A8A"/>
<path d="M641.424 64V52.64H648.88V53.632H642.544V57.808H647.888V58.736H642.544V64H641.424ZM650.622 64V55.664H651.71V64H650.622ZM650.622 53.92V52.32H651.71V53.92H650.622ZM661.114 64H660.026V59.344C660.026 58.3627 659.882 57.648 659.594 57.2C659.306 56.7413 658.853 56.512 658.234 56.512C657.808 56.512 657.386 56.6187 656.97 56.832C656.554 57.0347 656.186 57.3173 655.866 57.68C655.557 58.032 655.333 58.4373 655.194 58.896V64H654.106V55.664H655.098V57.552C655.322 57.1467 655.616 56.7947 655.978 56.496C656.341 56.1867 656.752 55.9467 657.21 55.776C657.669 55.6053 658.144 55.52 658.634 55.52C659.093 55.52 659.482 55.6053 659.802 55.776C660.122 55.9467 660.378 56.192 660.57 56.512C660.762 56.8213 660.901 57.2 660.986 57.648C661.072 58.0853 661.114 58.576 661.114 59.12V64ZM662.762 61.6C662.762 61.0773 662.912 60.6293 663.21 60.256C663.509 59.872 663.92 59.5787 664.442 59.376C664.976 59.1627 665.589 59.056 666.282 59.056C666.688 59.056 667.109 59.088 667.546 59.152C667.984 59.216 668.373 59.312 668.714 59.44V58.736C668.714 58.032 668.506 57.472 668.09 57.056C667.674 56.64 667.098 56.432 666.362 56.432C665.914 56.432 665.472 56.5173 665.034 56.688C664.608 56.848 664.16 57.088 663.69 57.408L663.274 56.64C663.818 56.2667 664.352 55.9893 664.874 55.808C665.397 55.616 665.93 55.52 666.474 55.52C667.498 55.52 668.309 55.8133 668.906 56.4C669.504 56.9867 669.802 57.7973 669.802 58.832V62.688C669.802 62.8373 669.834 62.9493 669.898 63.024C669.962 63.088 670.064 63.1253 670.202 63.136V64C670.085 64.0107 669.984 64.0213 669.898 64.032C669.813 64.0427 669.749 64.0427 669.706 64.032C669.44 64.0213 669.237 63.936 669.098 63.776C668.96 63.616 668.885 63.4453 668.874 63.264L668.858 62.656C668.485 63.136 668 63.5093 667.402 63.776C666.805 64.032 666.197 64.16 665.578 64.16C665.045 64.16 664.56 64.048 664.122 63.824C663.696 63.5893 663.36 63.28 663.114 62.896C662.88 62.5013 662.762 62.0693 662.762 61.6ZM668.346 62.24C668.464 62.0907 668.554 61.9467 668.618 61.808C668.682 61.6693 668.714 61.5467 668.714 61.44V60.224C668.352 60.0853 667.973 59.9787 667.578 59.904C667.194 59.8293 666.805 59.792 666.41 59.792C665.632 59.792 665.002 59.9467 664.522 60.256C664.042 60.5653 663.802 60.9867 663.802 61.52C663.802 61.8293 663.882 62.1227 664.042 62.4C664.202 62.6667 664.437 62.8907 664.746 63.072C665.056 63.2427 665.418 63.328 665.834 63.328C666.357 63.328 666.842 63.2267 667.29 63.024C667.749 62.8213 668.101 62.56 668.346 62.24ZM672.201 52.32H673.289V62.112C673.289 62.528 673.364 62.8 673.513 62.928C673.662 63.056 673.844 63.12 674.057 63.12C674.249 63.12 674.441 63.0987 674.633 63.056C674.825 63.0133 674.99 62.9707 675.129 62.928L675.321 63.808C675.118 63.8933 674.868 63.9627 674.569 64.016C674.281 64.0693 674.03 64.096 673.817 64.096C673.326 64.096 672.932 63.952 672.633 63.664C672.345 63.376 672.201 62.9813 672.201 62.48V52.32ZM676.513 64V55.664H677.601V64H676.513ZM676.513 53.92V52.32H677.601V53.92H676.513ZM679.293 63.264L684.877 56.48H679.421V55.664H686.109V56.4L680.557 63.184H686.093V64H679.293V63.264ZM687.2 61.6C687.2 61.0773 687.349 60.6293 687.648 60.256C687.947 59.872 688.357 59.5787 688.88 59.376C689.413 59.1627 690.027 59.056 690.72 59.056C691.125 59.056 691.547 59.088 691.984 59.152C692.421 59.216 692.811 59.312 693.152 59.44V58.736C693.152 58.032 692.944 57.472 692.528 57.056C692.112 56.64 691.536 56.432 690.8 56.432C690.352 56.432 689.909 56.5173 689.472 56.688C689.045 56.848 688.597 57.088 688.128 57.408L687.712 56.64C688.256 56.2667 688.789 55.9893 689.312 55.808C689.835 55.616 690.368 55.52 690.912 55.52C691.936 55.52 692.747 55.8133 693.344 56.4C693.941 56.9867 694.24 57.7973 694.24 58.832V62.688C694.24 62.8373 694.272 62.9493 694.336 63.024C694.4 63.088 694.501 63.1253 694.64 63.136V64C694.523 64.0107 694.421 64.0213 694.336 64.032C694.251 64.0427 694.187 64.0427 694.144 64.032C693.877 64.0213 693.675 63.936 693.536 63.776C693.397 63.616 693.323 63.4453 693.312 63.264L693.296 62.656C692.923 63.136 692.437 63.5093 691.84 63.776C691.243 64.032 690.635 64.16 690.016 64.16C689.483 64.16 688.997 64.048 688.56 63.824C688.133 63.5893 687.797 63.28 687.552 62.896C687.317 62.5013 687.2 62.0693 687.2 61.6ZM692.784 62.24C692.901 62.0907 692.992 61.9467 693.056 61.808C693.12 61.6693 693.152 61.5467 693.152 61.44V60.224C692.789 60.0853 692.411 59.9787 692.016 59.904C691.632 59.8293 691.243 59.792 690.848 59.792C690.069 59.792 689.44 59.9467 688.96 60.256C688.48 60.5653 688.24 60.9867 688.24 61.52C688.24 61.8293 688.32 62.1227 688.48 62.4C688.64 62.6667 688.875 62.8907 689.184 63.072C689.493 63.2427 689.856 63.328 690.272 63.328C690.795 63.328 691.28 63.2267 691.728 63.024C692.187 62.8213 692.539 62.56 692.784 62.24ZM700.528 63.6C700.443 63.632 700.309 63.6907 700.128 63.776C699.947 63.8613 699.728 63.936 699.472 64C699.216 64.064 698.939 64.096 698.64 64.096C698.331 64.096 698.037 64.0373 697.76 63.92C697.493 63.8027 697.28 63.6267 697.12 63.392C696.96 63.1467 696.88 62.848 696.88 62.496V56.528H695.728V55.664H696.88V52.848H697.968V55.664H699.888V56.528H697.968V62.192C697.989 62.4907 698.096 62.7147 698.288 62.864C698.491 63.0133 698.72 63.088 698.976 63.088C699.275 63.088 699.547 63.04 699.792 62.944C700.037 62.8373 700.187 62.7627 700.24 62.72L700.528 63.6ZM701.888 64V55.664H702.976V64H701.888ZM701.888 53.92V52.32H702.976V53.92H701.888ZM708.924 64.16C708.327 64.16 707.772 64.048 707.26 63.824C706.759 63.5893 706.321 63.2747 705.948 62.88C705.585 62.4747 705.303 62.016 705.1 61.504C704.897 60.9813 704.796 60.432 704.796 59.856C704.796 59.2587 704.897 58.704 705.1 58.192C705.303 57.6693 705.591 57.2107 705.964 56.816C706.337 56.4107 706.775 56.096 707.276 55.872C707.788 55.6373 708.343 55.52 708.94 55.52C709.537 55.52 710.087 55.6373 710.588 55.872C711.089 56.096 711.527 56.4107 711.9 56.816C712.273 57.2107 712.561 57.6693 712.764 58.192C712.967 58.704 713.068 59.2587 713.068 59.856C713.068 60.432 712.967 60.9813 712.764 61.504C712.561 62.016 712.273 62.4747 711.9 62.88C711.537 63.2747 711.1 63.5893 710.588 63.824C710.087 64.048 709.532 64.16 708.924 64.16ZM705.9 59.872C705.9 60.4907 706.033 61.056 706.3 61.568C706.577 62.0693 706.945 62.4693 707.404 62.768C707.863 63.056 708.369 63.2 708.924 63.2C709.479 63.2 709.985 63.0507 710.444 62.752C710.903 62.4533 711.271 62.048 711.548 61.536C711.825 61.0133 711.964 60.448 711.964 59.84C711.964 59.2213 711.825 58.656 711.548 58.144C711.271 57.632 710.903 57.2267 710.444 56.928C709.985 56.6293 709.479 56.48 708.924 56.48C708.369 56.48 707.863 56.6347 707.404 56.944C706.956 57.2533 706.593 57.664 706.316 58.176C706.039 58.6773 705.9 59.2427 705.9 59.872ZM721.896 64H720.808V59.344C720.808 58.3627 720.664 57.648 720.376 57.2C720.088 56.7413 719.634 56.512 719.016 56.512C718.589 56.512 718.168 56.6187 717.752 56.832C717.336 57.0347 716.968 57.3173 716.648 57.68C716.338 58.032 716.114 58.4373 715.976 58.896V64H714.888V55.664H715.88V57.552C716.104 57.1467 716.397 56.7947 716.76 56.496C717.122 56.1867 717.533 55.9467 717.992 55.776C718.45 55.6053 718.925 55.52 719.416 55.52C719.874 55.52 720.264 55.6053 720.584 55.776C720.904 55.9467 721.16 56.192 721.352 56.512C721.544 56.8213 721.682 57.2 721.767 57.648C721.853 58.0853 721.896 58.576 721.896 59.12V64Z" fill="#787A8A"/>
</svg>
