<svg width="152" height="40" viewBox="0 0 152 40" fill="none" xmlns="http://www.w3.org/2000/svg">
<g clip-path="url(#clip0_993_7752)">
<path d="M6.29602 27.6609C5.66667 27.6827 5.04104 27.5559 4.46937 27.2907C3.89771 27.0256 3.39602 26.6294 3.00457 26.1341C2.1379 24.9926 1.70063 23.5804 1.77013 22.1467C1.72424 20.7455 2.09809 19.3628 2.84341 18.1773C3.15223 17.6727 3.58713 17.2581 4.10492 16.9745C4.62271 16.6909 5.20541 16.5483 5.79508 16.5607C6.64155 16.5346 7.46425 16.8443 8.08489 17.4229C8.79321 18.0875 9.39643 18.8567 9.87375 19.704H9.98108V17.0816C8.74345 16.3069 7.32437 15.8732 5.86671 15.8243C5.08647 15.8027 4.31094 15.9521 3.59416 16.2623C2.87737 16.5726 2.23647 17.0361 1.71641 17.6205C0.575022 18.9324 -0.00916234 20.641 0.0887035 22.3802C-5.21988e-05 24.1205 0.5758 25.8293 1.69873 27.158C2.20471 27.7407 2.83272 28.2039 3.53782 28.5144C4.24292 28.8249 5.00752 28.975 5.77718 28.9541C6.7659 28.9631 7.73586 28.6822 8.56791 28.1458C9.45991 27.573 10.1632 26.7482 10.5893 25.7749C10.0482 26.3774 9.38528 26.8572 8.645 27.1824C7.90472 27.5076 7.10399 27.6707 6.29602 27.6609Z" fill="white"/>
<path d="M17.7983 15.8244C17.003 15.8083 16.2132 15.9598 15.4799 16.2692C14.7465 16.5785 14.0859 17.0389 13.5408 17.6205C12.3818 18.9048 11.7715 20.5948 11.8413 22.3264C11.7754 24.0683 12.3846 25.768 13.5408 27.0683C14.0824 27.6544 14.7423 28.1178 15.4765 28.4275C16.2107 28.7373 17.0022 28.8862 17.7983 28.8644C18.5939 28.8828 19.3843 28.7323 20.118 28.4228C20.8517 28.1132 21.5121 27.6517 22.0558 27.0683C23.2511 25.7861 23.894 24.082 23.8447 22.3264C23.8708 21.465 23.7262 20.6069 23.4191 19.8021C23.112 18.9973 22.6485 18.2619 22.0558 17.6385C21.5122 17.0536 20.8524 16.5899 20.119 16.2774C19.3856 15.9649 18.5949 15.8106 17.7983 15.8244ZM20.8215 26.4396C20.4945 26.9447 20.0462 27.3592 19.5179 27.6448C18.9896 27.9304 18.3983 28.078 17.7983 28.0741C17.1953 28.0811 16.6003 27.9349 16.0686 27.6491C15.5369 27.3634 15.0858 26.9473 14.7572 26.4396C13.9486 25.2187 13.5419 23.7737 13.5945 22.3084C13.5397 20.8541 13.9469 19.4199 14.7572 18.2132C15.0879 17.7089 15.54 17.2964 16.0716 17.0138C16.6031 16.7313 17.1969 16.5878 17.7983 16.5967C18.3983 16.5928 18.9896 16.7404 19.5179 17.026C20.0462 17.3117 20.4945 17.7261 20.8215 18.2312C21.6437 19.4264 22.058 20.8569 22.0022 22.3084C22.062 23.7772 21.6478 25.2261 20.8215 26.4396Z" fill="white"/>
<path d="M29.5514 16.201C28.7655 16.5623 28.1096 17.1582 27.6731 17.9073V15.9675H25.6875V16.0573C25.9466 17.1402 26.0845 18.2486 26.0989 19.3622V25.3074C26.0845 26.421 25.9466 27.5295 25.6875 28.6123V28.7021H28.1024V28.6123C27.8378 27.5301 27.6938 26.4216 27.6731 25.3074V18.5719C28.0321 18.0604 28.5284 17.6618 29.1042 17.4223C29.5088 17.2592 29.9386 17.1681 30.3743 17.1529C30.6455 17.1624 30.915 17.1984 31.1792 17.2607C31.6163 17.3793 32.0244 17.5872 32.3778 17.8714H32.4673L32.6998 15.9496C32.2878 15.8241 31.8602 15.7575 31.4297 15.752C30.7811 15.7819 30.1439 15.9342 29.5514 16.201Z" fill="white"/>
<path d="M39.8187 27.6605C39.1813 27.6904 38.5462 27.5656 37.967 27.2967C37.3878 27.0278 36.8817 26.6228 36.4915 26.1158C35.6289 24.9722 35.1922 23.5615 35.2571 22.1284V21.823H44.2015C44.2798 20.2373 43.7627 18.6798 42.7525 17.4584C42.2936 16.9286 41.7236 16.5073 41.0834 16.2247C40.4432 15.9422 39.7486 15.8053 39.0495 15.8239C38.2883 15.8073 37.5328 15.9596 36.837 16.2701C36.1413 16.5806 35.5224 17.0416 35.0246 17.6201C33.9341 18.9309 33.3668 20.6013 33.4325 22.308C33.3555 24.0419 33.9447 25.7394 35.0783 27.0498C35.5859 27.6306 36.2141 28.0924 36.9188 28.4028C37.6235 28.7131 38.3876 28.8644 39.1569 28.846C40.2272 28.8484 41.2738 28.5293 42.1621 27.9299C43.086 27.314 43.8177 26.4486 44.273 25.4333C43.7296 26.0997 43.0517 26.6428 42.2839 27.0267C41.5161 27.4107 40.6758 27.6267 39.8187 27.6605ZM36.4915 17.8356C36.7929 17.4281 37.1876 17.0995 37.6422 16.8776C38.0968 16.6556 38.5979 16.5468 39.1033 16.5604C39.5699 16.5438 40.0335 16.6415 40.4542 16.8449C40.8749 17.0482 41.2401 17.3513 41.5182 17.7279C42.1672 18.7006 42.5156 19.844 42.5199 21.0148L35.3645 21.1405C35.4292 19.9556 35.8193 18.8117 36.4915 17.8356Z" fill="white"/>
<path d="M85.8647 9.30371L83.7003 9.69886C84.1109 10.725 84.2999 11.827 84.2548 12.9319V17.2247C83.829 16.6847 83.2843 16.2512 82.6636 15.9583C82.0428 15.6653 81.3628 15.5209 80.6771 15.5363C79.9387 15.5334 79.2086 15.6926 78.5381 16.0029C77.8675 16.3132 77.2726 16.7669 76.7952 17.3325C75.6484 18.7262 75.0672 20.5027 75.1673 22.3077C75.0859 23.9595 75.5862 25.5874 76.5805 26.9059C77.0099 27.443 77.5549 27.8755 78.1745 28.1711C78.7941 28.4666 79.4723 28.6174 80.1582 28.6122C80.9672 28.617 81.7639 28.413 82.4718 28.0199C83.1798 27.6267 83.7752 27.0576 84.2011 26.367C84.2481 26.7853 84.3258 27.1996 84.4337 27.6064L84.6126 28.4326H86.1867C85.9034 27.3478 85.7592 26.2312 85.7574 25.1098L85.8647 9.30371ZM84.2727 25.469C83.9045 26.1053 83.3851 26.6401 82.7607 27.0257C82.1364 27.4112 81.4267 27.6354 80.695 27.6782C80.1372 27.6966 79.5851 27.5606 79.0991 27.2849C78.6132 27.0093 78.2122 26.6048 77.9401 26.1156C77.2426 24.9134 76.9013 23.5363 76.9562 22.1461C76.8833 20.7005 77.2787 19.27 78.0832 18.0689C78.4065 17.5943 78.8422 17.208 79.3513 16.9446C79.8603 16.6812 80.4265 16.5491 80.9991 16.5601C81.6361 16.5628 82.2634 16.7172 82.8294 17.0107C83.3954 17.3042 83.8839 17.7285 84.2548 18.2485L84.2727 25.469Z" fill="white"/>
<path d="M94.5951 27.4267C93.9572 27.4542 93.3219 27.3302 92.7407 27.065C92.1595 26.7997 91.6487 26.4006 91.2499 25.9C90.4018 24.743 89.9726 23.3299 90.0335 21.8946V21.5892H98.9778C99.0561 20.0035 98.5391 18.446 97.5289 17.2246C97.0683 16.6968 96.4981 16.2768 95.8582 15.9944C95.2184 15.712 94.5246 15.574 93.8259 15.5901C93.0649 15.5747 92.3098 15.7276 91.6142 16.038C90.9186 16.3484 90.2995 16.8087 89.8009 17.3863C88.7086 18.689 88.1407 20.3547 88.2088 22.0563C88.1386 23.7916 88.7195 25.4901 89.8368 26.816C90.3509 27.3934 90.9829 27.8528 91.6898 28.1627C92.3968 28.4727 93.162 28.626 93.9332 28.6121C95.0017 28.6199 96.0481 28.3072 96.9385 27.7141C97.863 27.0911 98.5944 26.2198 99.0494 25.1995C98.5091 25.8694 97.8319 26.415 97.0634 26.7992C96.2949 27.1835 95.4531 27.3975 94.5951 27.4267ZM91.2678 17.6018C91.5712 17.1976 91.9667 16.8725 92.4211 16.6537C92.8756 16.4349 93.3758 16.3289 93.8796 16.3445C94.3467 16.3249 94.8114 16.4211 95.2326 16.6248C95.6538 16.8284 96.0186 17.1331 96.2945 17.512C96.9336 18.4828 97.2813 19.6175 97.2963 20.781L90.1408 20.9247C90.2051 19.7341 90.595 18.5843 91.2678 17.6018Z" fill="white"/>
<path d="M106.079 21.1227H105.971L104.594 20.6377C104.246 20.5148 103.91 20.3585 103.592 20.1707C103.312 20.0196 103.078 19.7964 102.912 19.5241C102.77 19.2593 102.696 18.9628 102.698 18.6619C102.695 18.3439 102.77 18.0302 102.917 17.7483C103.064 17.4664 103.277 17.225 103.538 17.0454C104.129 16.6281 104.838 16.4139 105.56 16.4347C106.406 16.5138 107.223 16.7884 107.946 17.2372C108.669 17.6859 109.279 18.2964 109.728 19.0212V16.776C108.436 16.0691 106.995 15.6812 105.524 15.6444C104.423 15.601 103.34 15.93 102.447 16.5785C102.047 16.8762 101.726 17.2674 101.511 17.7181C101.296 18.1688 101.193 18.6654 101.213 19.1648C101.2 19.6053 101.292 20.0424 101.481 20.4401C101.697 20.8324 102.011 21.1607 102.393 21.3921C102.794 21.6391 103.213 21.8552 103.646 22.0387L105.434 22.6853C106.331 22.9462 107.186 23.3332 107.975 23.8348C108.227 24.023 108.429 24.2706 108.563 24.5556C108.697 24.8407 108.759 25.1544 108.744 25.4693C108.764 25.8153 108.697 26.1607 108.55 26.4744C108.403 26.788 108.181 27.0599 107.903 27.2654C107.329 27.6912 106.631 27.9125 105.918 27.8941C104.984 27.7843 104.088 27.4619 103.297 26.9514C102.507 26.4409 101.843 25.7558 101.356 24.9484H101.105V27.3553C102.483 28.1803 104.046 28.6436 105.649 28.7024C106.756 28.7455 107.843 28.4028 108.726 27.7325C109.135 27.4065 109.461 26.9869 109.676 26.5088C109.89 26.0308 109.988 25.5081 109.96 24.9844C109.985 24.5473 109.91 24.1103 109.743 23.706C109.576 23.3017 109.32 22.9405 108.994 22.6494C108.128 21.9585 107.139 21.4403 106.079 21.1227Z" fill="white"/>
<path d="M113.467 9.59141C113.295 9.58624 113.125 9.61535 112.965 9.67702C112.806 9.7387 112.66 9.83171 112.536 9.95063C112.413 10.0719 112.316 10.2175 112.251 10.3782C112.187 10.5389 112.156 10.7114 112.161 10.8846C112.157 11.055 112.189 11.2244 112.253 11.382C112.318 11.5396 112.414 11.6821 112.536 11.8006C112.66 11.9196 112.806 12.0126 112.965 12.0743C113.125 12.136 113.295 12.165 113.467 12.1599C113.806 12.1655 114.134 12.0364 114.379 11.8006C114.501 11.6821 114.597 11.5396 114.662 11.382C114.726 11.2244 114.758 11.055 114.755 10.8846C114.759 10.7114 114.729 10.5389 114.664 10.3782C114.599 10.2175 114.502 10.0719 114.379 9.95063C114.134 9.71486 113.806 9.58577 113.467 9.59141Z" fill="white"/>
<path d="M114.29 15.752H112.34C112.599 16.835 112.737 17.9433 112.752 19.0568V25.0021C112.726 26.1229 112.576 27.2373 112.305 28.3249H114.702C114.444 27.2358 114.306 26.1215 114.29 25.0021V15.752Z" fill="white"/>
<path d="M124.809 26.6551H120.659C119.174 26.6551 118.441 26.242 118.441 25.4158C118.437 25.0947 118.559 24.785 118.781 24.5536C119.024 24.3019 119.334 24.1271 119.675 24.0507C120.416 24.4113 121.231 24.5957 122.054 24.5896C123.316 24.6073 124.542 24.1672 125.507 23.3502C125.988 22.9563 126.372 22.4565 126.629 21.8897C126.886 21.3228 127.01 20.704 126.991 20.0812C127.009 19.3938 126.854 18.7131 126.541 18.1012C126.229 17.4893 125.769 16.9659 125.203 16.5788C125.622 16.3584 126.088 16.2414 126.562 16.2375C127.032 16.2419 127.494 16.3654 127.904 16.5967L128.208 15.07C127.976 15.0522 127.743 15.0522 127.51 15.07C126.988 15.0435 126.469 15.1558 126.004 15.3955C125.539 15.6352 125.145 15.9938 124.863 16.4351C124.008 15.9238 123.031 15.6567 122.036 15.6628C120.775 15.6359 119.55 16.0845 118.602 16.92C118.133 17.3146 117.76 17.8104 117.509 18.3702C117.258 18.93 117.136 19.5394 117.153 20.1531C117.132 20.8655 117.295 21.5711 117.628 22.2009C117.96 22.8306 118.45 23.3629 119.049 23.7454C118.525 23.8733 118.06 24.179 117.734 24.611C117.408 25.043 117.241 25.5747 117.26 26.1163C117.232 26.495 117.324 26.8728 117.524 27.1955C117.723 27.5182 118.019 27.7692 118.369 27.9124C117.926 28.1799 117.56 28.5595 117.309 29.0135C117.058 29.4674 116.93 29.9797 116.938 30.4989C116.926 31.0559 117.103 31.6004 117.439 32.0435C117.803 32.4896 118.278 32.8306 118.816 33.0314C119.389 33.2702 119.991 33.4333 120.605 33.5164C121.197 33.6084 121.795 33.6564 122.394 33.66C122.993 33.6635 123.591 33.6215 124.183 33.5343C124.828 33.4277 125.462 33.2655 126.079 33.0494C126.742 32.8459 127.325 32.4373 127.743 31.8819C128.173 31.3161 128.395 30.6177 128.369 29.9061C128.394 29.462 128.318 29.0179 128.148 28.6073C127.978 28.1967 127.717 27.8302 127.385 27.5352C126.665 26.9305 125.747 26.6167 124.809 26.6551ZM118.852 20.0812C118.788 19.073 119.108 18.078 119.747 17.2972C120.038 16.9754 120.395 16.7205 120.793 16.55C121.191 16.3795 121.621 16.2974 122.054 16.3093C122.487 16.2986 122.917 16.3812 123.315 16.5516C123.713 16.722 124.07 16.9763 124.362 17.2972C125.013 18.0717 125.341 19.0696 125.274 20.0812C125.339 21.0926 125.012 22.0899 124.362 22.8653C124.073 23.1914 123.717 23.4502 123.319 23.624C122.92 23.7977 122.489 23.882 122.054 23.8711C121.62 23.8808 121.189 23.7959 120.791 23.6223C120.392 23.4486 120.036 23.1904 119.747 22.8653C119.111 22.0828 118.792 21.0891 118.852 20.0812ZM125.829 32.0974C124.884 32.6924 123.775 32.9692 122.662 32.8877C121.551 32.9445 120.447 32.6828 119.478 32.1333C119.118 31.9247 118.821 31.6232 118.616 31.2599C118.412 30.8966 118.308 30.485 118.316 30.0678C118.308 29.7092 118.372 29.3527 118.504 29.0195C118.636 28.6862 118.834 28.383 119.085 28.128C119.526 28.216 119.976 28.2581 120.426 28.2537H124.827C125.109 28.235 125.392 28.2765 125.658 28.3756C125.923 28.4747 126.164 28.629 126.365 28.8284C126.711 29.2112 126.897 29.7128 126.884 30.2294C126.873 30.6035 126.771 30.9692 126.587 31.2948C126.403 31.6203 126.143 31.8958 125.829 32.0974Z" fill="white"/>
<path d="M140.639 20.0446C140.698 19.4237 140.62 18.7972 140.41 18.2102C140.2 17.6232 139.862 17.0903 139.422 16.6499C138.61 15.9415 137.564 15.5636 136.489 15.5902C135.657 15.6158 134.843 15.8352 134.11 16.2311C133.377 16.627 132.746 17.1885 132.267 17.8713V15.7518H130.281C130.548 16.8332 130.686 17.9426 130.693 19.0567V25.0019C130.686 26.1219 130.548 27.2373 130.281 28.3248H132.714C132.436 27.2385 132.286 26.1233 132.267 25.0019V18.6436C132.719 18.0727 133.285 17.6034 133.929 17.2661C134.573 16.9289 135.281 16.7312 136.006 16.6859C136.409 16.6733 136.81 16.7432 137.185 16.8914C137.56 17.0396 137.902 17.263 138.188 17.548C138.501 17.8937 138.739 18.2998 138.89 18.7414C139.041 19.1831 139.1 19.651 139.065 20.1164V25.0019C139.058 26.1219 138.92 27.2373 138.653 28.3248H141.086C140.808 27.2385 140.658 26.1233 140.639 25.0019V20.0446Z" fill="white"/>
<path d="M151.034 22.5955C150.153 21.9196 149.152 21.4197 148.083 21.1227H147.976L146.598 20.6377C146.251 20.5113 145.916 20.3551 145.596 20.1707C145.317 20.0196 145.082 19.7964 144.917 19.5241C144.774 19.2593 144.7 18.9628 144.702 18.6619C144.699 18.3439 144.775 18.0302 144.921 17.7483C145.068 17.4664 145.281 17.225 145.543 17.0454C146.134 16.6304 146.843 16.4164 147.564 16.4347C148.41 16.5138 149.227 16.7884 149.95 17.2371C150.673 17.6858 151.283 18.2964 151.732 19.0212V16.776C150.447 16.0692 149.011 15.6812 147.546 15.6444C146.44 15.6011 145.351 15.9299 144.451 16.5784C144.052 16.8762 143.73 17.2673 143.515 17.7181C143.3 18.1688 143.198 18.6654 143.217 19.1648C143.205 19.6052 143.297 20.0423 143.486 20.4401C143.703 20.8368 144.025 21.166 144.416 21.3921C144.812 21.6461 145.231 21.8626 145.668 22.0387L147.457 22.6853C148.359 22.9469 149.22 23.3338 150.015 23.8348C150.263 24.0261 150.463 24.2743 150.597 24.5586C150.73 24.8428 150.795 25.155 150.784 25.4693C150.802 25.8169 150.732 26.1633 150.582 26.4771C150.432 26.7908 150.207 27.0619 149.925 27.2654C149.354 27.6963 148.654 27.9181 147.94 27.8941C147.008 27.7856 146.114 27.4635 145.326 26.9528C144.538 26.442 143.878 25.7562 143.396 24.9484H143.289V27.3553C144.672 28.1832 146.241 28.6465 147.85 28.7024C148.956 28.7426 150.043 28.4001 150.927 27.7324C151.331 27.4027 151.651 26.9819 151.863 26.5044C152.074 26.027 152.17 25.5062 152.144 24.9843C152.159 24.5266 152.067 24.0717 151.874 23.6566C151.681 23.2415 151.394 22.8779 151.034 22.5955Z" fill="white"/>
<path d="M1.32312 12.9864C1.31395 13.3153 1.41478 13.6378 1.6094 13.9024C1.71019 14.0214 1.83669 14.1156 1.97932 14.1778C2.12194 14.2401 2.27685 14.2688 2.43221 14.2617C2.70077 14.2644 2.96354 14.1828 3.18361 14.0282C3.42999 13.8855 3.62898 13.6731 3.75595 13.4175C3.46913 13.6568 3.10928 13.7899 2.7364 13.7947C2.21762 13.7947 1.94918 13.4893 1.94918 12.8787V9.59173H3.38036V9.26843H1.94918V7.99316H1.80615C1.73446 8.33513 1.59453 8.65896 1.39475 8.94512C1.29668 9.06956 1.175 9.17328 1.03684 9.25035C0.898689 9.32741 0.746881 9.37629 0.589844 9.39415V9.59173H1.32312V12.9864Z" fill="white"/>
<path d="M4.50762 8.11893V12.8608C4.50266 13.2965 4.44871 13.7303 4.34669 14.154H5.29462C5.19462 13.73 5.1407 13.2964 5.13368 12.8608V10.3462C5.31093 10.1232 5.53348 9.94057 5.78638 9.81051C6.03929 9.68045 6.31688 9.60589 6.60068 9.59178C6.75942 9.58676 6.91746 9.61445 7.06514 9.67315C7.21282 9.73184 7.34697 9.8203 7.4593 9.93305C7.57917 10.0699 7.67087 10.2293 7.7292 10.4019C7.78753 10.5745 7.81123 10.757 7.79908 10.9389V12.8608C7.79411 13.2965 7.74016 13.7303 7.63814 14.154H8.58629C8.48121 13.7305 8.42129 13.297 8.40745 12.8608V10.885C8.42314 10.6434 8.38998 10.4011 8.31006 10.1727C8.23013 9.94431 8.10506 9.73448 7.94233 9.55585C7.62177 9.27364 7.20551 9.12577 6.77952 9.14274C6.45339 9.14801 6.13324 9.23244 5.84665 9.38883C5.56007 9.54521 5.31549 9.76891 5.13368 10.0408V6.66406L4.29297 6.82574C4.45223 7.23743 4.52529 7.67763 4.50762 8.11893Z" fill="white"/>
<path d="M13.595 12.9139C13.3779 13.1817 13.1054 13.399 12.7966 13.551C12.4878 13.7029 12.1499 13.7858 11.8061 13.794C11.5574 13.8045 11.3098 13.7564 11.083 13.6535C10.8562 13.5505 10.6565 13.3957 10.5002 13.2012C10.1637 12.7454 9.99333 12.1875 10.0172 11.6207V11.5129H13.595C13.6416 10.8625 13.4365 10.2192 13.0225 9.71676C12.845 9.50767 12.622 9.34226 12.3708 9.23327C12.1196 9.12429 11.8469 9.07462 11.5735 9.0881C11.2758 9.08002 10.9799 9.13871 10.7076 9.25989C10.4353 9.38106 10.1934 9.56168 9.99933 9.78859C9.57088 10.2857 9.34695 10.9279 9.37316 11.5847C9.35566 12.2402 9.57852 12.8794 9.99933 13.3809C10.2003 13.61 10.4482 13.7928 10.7261 13.9168C11.0039 14.0408 11.3052 14.1031 11.6092 14.0993C12.0295 14.0992 12.4403 13.9742 12.79 13.7401C13.1255 13.5399 13.4031 13.2551 13.595 12.9139ZM10.5181 9.93229C10.6333 9.77032 10.7869 9.63959 10.9648 9.55182C11.1428 9.46405 11.3396 9.42198 11.5377 9.42937C11.7204 9.41992 11.9025 9.45597 12.0679 9.53431C12.2333 9.61266 12.377 9.73087 12.4859 9.8784C12.7403 10.2615 12.877 10.7112 12.8794 11.1716H10.0529C10.0923 10.7236 10.2531 10.295 10.5181 9.93229Z" fill="white"/>
<path d="M44.8477 15.8418L64.5252 30.7138L63.3267 15.8418H44.8477Z" fill="white"/>
<path d="M64.5078 0V13.938C69.2662 9.39379 75.6346 4.95733 80.3751 0.466986C75.5272 0.305334 69.141 0.143691 64.5078 0Z" fill="white"/>
<path d="M63.3451 14.6207V0.862305L52.1289 14.6207H63.3451Z" fill="white"/>
<path d="M50.8053 14.674L53.5065 11.4589C51.163 8.85451 49.3384 6.78897 47.2275 4.48991C47.0647 4.32242 46.8504 4.21486 46.6193 4.18457C45.7964 4.18457 44.9736 4.18457 44.1328 4.18457V14.7099C46.2079 14.692 48.8017 14.7099 50.8053 14.674Z" fill="white"/>
<path d="M69.2461 11.1902C69.2461 11.1902 78.6913 7.16684 82.6268 4.88574H77.5644L69.2461 11.1902Z" fill="white"/>
<path d="M43.3629 4.52637L39.7852 7.7774H43.3629V4.52637Z" fill="white"/>
<path d="M66.4733 40.0002L75.9901 35.3661L64.5234 16.5605L66.4733 40.0002Z" fill="white"/>
<path d="M77.2063 35.3664L84.4154 36.8033L70.0508 23.9609L77.2063 35.3664Z" fill="white"/>
</g>
<defs>
<clipPath id="clip0_993_7752">
<rect width="152" height="40" fill="white"/>
</clipPath>
</defs>
</svg>
