<svg width="196" height="22" viewBox="0 0 196 22" fill="none" xmlns="http://www.w3.org/2000/svg">
<rect x="164.316" width="31.6855" height="21.1237" rx="1" fill="white"/>
<path d="M177.744 16.7137L177.975 15.2615H177.46H175.031L176.721 4.528C176.726 4.49475 176.742 4.46425 176.767 4.44219C176.794 4.42168 176.826 4.41012 176.86 4.40918H180.959C182.326 4.40918 183.263 4.69303 183.758 5.25413C183.977 5.48948 184.13 5.77879 184.2 6.09247C184.277 6.47369 184.277 6.86646 184.2 7.24767V7.57773L184.431 7.70975C184.607 7.79742 184.766 7.91591 184.9 8.05962C185.102 8.30319 185.232 8.59797 185.276 8.91116C185.326 9.32058 185.308 9.73532 185.223 10.139C185.136 10.6293 184.964 11.1007 184.715 11.5318C184.514 11.8775 184.242 12.1767 183.916 12.4098C183.589 12.6329 183.225 12.7961 182.84 12.8917C182.409 13.0005 181.965 13.0538 181.52 13.0501H181.197C180.97 13.0501 180.75 13.1295 180.576 13.2745C180.401 13.4221 180.286 13.6288 180.253 13.8554V13.9874L179.85 16.5487V16.6477C179.855 16.665 179.855 16.6832 179.85 16.7005H179.81L177.744 16.7137Z" fill="#253D80"/>
<path d="M184.65 7.31445L184.611 7.5587C184.069 10.3312 182.215 11.2949 179.851 11.2949H178.65C178.361 11.2946 178.115 11.5046 178.069 11.79L177.455 15.6979L177.277 16.8069C177.264 16.8957 177.289 16.986 177.348 17.0543C177.406 17.1227 177.491 17.1625 177.581 17.1634H179.719C179.973 17.1631 180.189 16.9783 180.228 16.7277V16.6221L180.63 14.0674V13.9288C180.666 13.6792 180.88 13.4938 181.132 13.4931H181.482C183.548 13.4931 185.172 12.6548 185.641 10.1926C185.894 9.351 185.738 8.43921 185.218 7.73033C185.053 7.56121 184.861 7.42068 184.65 7.31445V7.31445Z" fill="#189BD7"/>
<path d="M184.085 7.08931L183.834 7.0233L183.557 6.97049C183.207 6.91821 182.854 6.89393 182.5 6.89787H179.279C179.204 6.89581 179.129 6.91165 179.061 6.94408C178.908 7.01574 178.801 7.15966 178.777 7.32695L178.117 11.6639V11.7893C178.163 11.5039 178.409 11.2939 178.698 11.2942H179.899C182.263 11.2942 184.118 10.3305 184.659 7.55799L184.699 7.31375C184.556 7.24027 184.408 7.17846 184.256 7.12891L184.085 7.08931Z" fill="#242E65"/>
<path d="M178.775 7.32752C178.799 7.16024 178.906 7.01632 179.059 6.94466C179.127 6.91222 179.202 6.89638 179.277 6.89845H182.498C182.852 6.89451 183.205 6.91879 183.555 6.97106L183.832 7.02387L184.083 7.08988L184.208 7.12949C184.36 7.17903 184.508 7.24084 184.65 7.31432C184.865 6.48959 184.668 5.612 184.122 4.95771C183.462 4.25799 182.38 3.96094 180.967 3.96094H176.861C176.572 3.96059 176.326 4.17056 176.28 4.45602L174.57 15.2885C174.555 15.3907 174.585 15.4944 174.652 15.573C174.719 15.6515 174.817 15.697 174.92 15.6978H177.455L178.115 11.6645L178.775 7.32752Z" fill="#253D80"/>
<path d="M116.214 0H83.5753C82.7916 0 82.1562 0.635342 82.1562 1.41908V19.8671C82.1562 20.6508 82.7916 21.2861 83.5753 21.2861H116.214C116.998 21.2861 117.633 20.6508 117.633 19.8671V1.41908C117.633 0.635342 116.998 0 116.214 0Z" fill="white"/>
<path fill-rule="evenodd" clip-rule="evenodd" d="M102.069 10.816C102.069 14.6398 98.9698 17.7391 95.1462 17.7391C91.3224 17.7391 88.2227 14.6398 88.2227 10.816C88.2227 6.99229 91.3224 3.89258 95.1462 3.89258C98.9698 3.89258 102.069 6.99229 102.069 10.816Z" fill="#CC0000"/>
<path fill-rule="evenodd" clip-rule="evenodd" d="M104.44 3.89258C102.65 3.89258 101.021 4.57125 99.7918 5.68461C99.5418 5.91153 99.3084 6.15661 99.093 6.41756H100.492C100.683 6.65016 100.859 6.8947 101.02 7.15083H98.5651C98.4183 7.38617 98.2848 7.6307 98.1662 7.8841H101.418C101.529 8.12141 101.627 8.36583 101.712 8.61704H97.873C97.7931 8.85577 97.7257 9.10041 97.6719 9.34987H101.912C102.014 9.82252 102.068 10.3129 102.068 10.816C102.068 11.5846 101.943 12.3244 101.712 13.0153H97.873C97.9572 13.2663 98.055 13.5111 98.166 13.7487H101.418C101.299 14.0015 101.167 14.2462 101.019 14.4819H98.5651C98.7252 14.7372 98.9015 14.9821 99.093 15.2144H100.491C100.276 15.4756 100.043 15.7206 99.792 15.9476C101.021 17.0609 102.65 17.7391 104.44 17.7391C108.263 17.7391 111.363 14.6398 111.363 10.816C111.363 6.99262 108.263 3.89258 104.44 3.89258Z" fill="#FF9900"/>
<path fill-rule="evenodd" clip-rule="evenodd" d="M93.5284 11.573C93.4495 11.564 93.4147 11.5611 93.3606 11.5611C92.9345 11.5611 92.7191 11.7073 92.7191 11.996C92.7191 12.1738 92.8243 12.2869 92.9884 12.2869C93.2946 12.2869 93.5153 11.9954 93.5284 11.573ZM94.0751 12.8455H93.4522L93.4665 12.5496C93.2766 12.7833 93.0231 12.8949 92.6787 12.8949C92.2715 12.8949 91.9922 12.5769 91.9922 12.1149C91.9922 11.4193 92.4779 11.0138 93.3117 11.0138C93.3971 11.0138 93.5063 11.0216 93.6181 11.0358C93.6413 10.9414 93.6475 10.9014 93.6475 10.8505C93.6475 10.6615 93.5166 10.5906 93.1655 10.5906C92.7978 10.5868 92.4945 10.6784 92.3699 10.7193C92.3778 10.6719 92.4741 10.077 92.4741 10.077C92.8485 9.96692 93.0956 9.92578 93.3736 9.92578C94.0191 9.92578 94.361 10.2155 94.3603 10.7632C94.3616 10.9101 94.3372 11.0908 94.2994 11.3291C94.2342 11.7427 94.0942 12.6296 94.0751 12.8455Z" fill="#000066"/>
<path fill-rule="evenodd" clip-rule="evenodd" d="M91.6781 12.8467H90.9263L91.3572 10.1473L90.3956 12.8467H89.8834L89.8201 10.1624L89.3676 12.8467H88.6641L89.2517 9.33496H90.3326L90.3979 11.3006L91.0573 9.33496H92.2594L91.6781 12.8467Z" fill="#000066"/>
<path fill-rule="evenodd" clip-rule="evenodd" d="M105.372 11.573C105.293 11.564 105.258 11.5611 105.204 11.5611C104.778 11.5611 104.563 11.7073 104.563 11.996C104.563 12.1738 104.668 12.2869 104.832 12.2869C105.138 12.2869 105.359 11.9954 105.372 11.573ZM105.919 12.8455H105.296L105.31 12.5496C105.12 12.7833 104.867 12.8949 104.523 12.8949C104.115 12.8949 103.836 12.5769 103.836 12.1149C103.836 11.4193 104.322 11.0138 105.155 11.0138C105.241 11.0138 105.35 11.0216 105.462 11.0358C105.485 10.9414 105.491 10.9014 105.491 10.8505C105.491 10.6615 105.36 10.5906 105.009 10.5906C104.641 10.5868 104.338 10.6784 104.213 10.7193C104.221 10.6719 104.318 10.077 104.318 10.077C104.692 9.96692 104.939 9.92578 105.217 9.92578C105.863 9.92578 106.204 10.2155 106.204 10.7632C106.205 10.9101 106.181 11.0908 106.143 11.3291C106.078 11.7427 105.938 12.6296 105.919 12.8455Z" fill="#000066"/>
<path fill-rule="evenodd" clip-rule="evenodd" d="M97.4155 12.8024C97.2097 12.8672 97.0494 12.8952 96.8755 12.8952C96.4913 12.8952 96.2816 12.6744 96.2816 12.2677C96.2762 12.1415 96.3368 11.8094 96.3845 11.5065C96.4281 11.2397 96.7106 9.55762 96.7106 9.55762H97.4575L97.3703 9.9899H97.8216L97.7198 10.6763H97.2669C97.1802 11.2193 97.0564 11.8959 97.055 11.9857C97.055 12.1329 97.1336 12.1973 97.3124 12.1973C97.3981 12.1973 97.4644 12.1885 97.5151 12.1703L97.4155 12.8024Z" fill="#000066"/>
<path fill-rule="evenodd" clip-rule="evenodd" d="M99.7069 12.779C99.4503 12.8574 99.2029 12.8957 98.9404 12.8949C98.104 12.8938 97.668 12.4572 97.668 11.6208C97.668 10.6446 98.2226 9.92578 98.9756 9.92578C99.5915 9.92578 99.9851 10.3282 99.9851 10.9591C99.9851 11.1688 99.9582 11.3732 99.8928 11.6616H98.4051C98.3548 12.0759 98.6198 12.2485 99.0547 12.2485C99.3218 12.2485 99.5632 12.1933 99.8313 12.0689L99.7069 12.779ZM99.287 11.086C99.2913 11.0263 99.3661 10.5761 98.9391 10.5761C98.7015 10.5761 98.5311 10.7575 98.4621 11.086H99.287Z" fill="#000066"/>
<path fill-rule="evenodd" clip-rule="evenodd" d="M94.5268 10.8925C94.5268 11.2535 94.7018 11.5026 95.099 11.6898C95.4033 11.833 95.4506 11.8754 95.4506 12.005C95.4506 12.1828 95.3163 12.2636 95.019 12.2636C94.7946 12.2636 94.5861 12.2283 94.3455 12.1505C94.3455 12.1505 94.2469 12.7803 94.2422 12.8104C94.413 12.8474 94.5653 12.8818 95.0244 12.8949C95.8174 12.8949 96.1837 12.5929 96.1837 11.9403C96.1837 11.5479 96.0305 11.3176 95.6539 11.1443C95.3389 10.9998 95.3025 10.9674 95.3025 10.8341C95.3025 10.6797 95.4275 10.6008 95.6703 10.6008C95.8179 10.6008 96.0193 10.6166 96.2105 10.6436L96.3174 9.98125C96.1228 9.95029 95.8277 9.92578 95.6559 9.92578C94.8152 9.92578 94.524 10.3648 94.5268 10.8925Z" fill="#000066"/>
<path fill-rule="evenodd" clip-rule="evenodd" d="M103.363 10.0007C103.572 10.0007 103.767 10.0549 104.034 10.1903L104.158 9.42813C104.047 9.3848 103.66 9.13086 103.331 9.13086C102.829 9.13086 102.403 9.38075 102.104 9.79225C101.668 9.64782 101.488 9.93973 101.269 10.2308L101.073 10.2763C101.088 10.1805 101.101 10.0855 101.097 9.98908H100.407C100.313 10.8732 100.145 11.7684 100.015 12.6529L99.9805 12.845H100.732C100.858 12.0295 100.927 11.5075 100.968 11.1539L101.251 10.997C101.294 10.8393 101.426 10.7864 101.692 10.7928C101.657 10.979 101.638 11.1752 101.638 11.3782C101.638 12.3126 102.143 12.8944 102.952 12.8944C103.16 12.8944 103.339 12.867 103.616 12.7915L103.748 11.9913C103.499 12.1137 103.295 12.1714 103.11 12.1714C102.673 12.1714 102.408 11.8487 102.408 11.3158C102.408 10.5424 102.801 10.0007 103.363 10.0007Z" fill="#000066"/>
<path fill-rule="evenodd" clip-rule="evenodd" d="M109.727 9.33496L109.56 10.3495C109.355 10.0792 109.134 9.88333 108.842 9.88333C108.463 9.88333 108.118 10.1709 107.892 10.5943C107.577 10.529 107.252 10.4179 107.252 10.4179L107.252 10.4206C107.277 10.184 107.287 10.04 107.285 9.99077H106.594C106.5 10.8749 106.333 11.7701 106.203 12.6546L106.168 12.8467H106.92C107.022 12.1876 107.099 11.6397 107.156 11.2058C107.414 10.9734 107.542 10.7713 107.801 10.7844C107.686 11.0626 107.619 11.3827 107.619 11.7111C107.619 12.4248 107.98 12.8961 108.527 12.8961C108.802 12.8961 109.014 12.801 109.22 12.5808L109.184 12.8465H109.896L110.468 9.33496H109.727ZM108.787 12.187C108.531 12.187 108.401 11.9973 108.401 11.6239C108.401 11.0626 108.644 10.6646 108.984 10.6646C109.243 10.6646 109.383 10.8611 109.383 11.2239C109.383 11.7901 109.137 12.187 108.787 12.187Z" fill="#000066"/>
<path fill-rule="evenodd" clip-rule="evenodd" d="M91.8928 12.6374H91.1413L91.572 9.93802L90.6107 12.6374H90.0983L90.035 9.95367L89.5824 12.6374H88.8789L89.4666 9.12598H90.5474L90.5776 11.2997L91.3069 9.12598H92.4742L91.8928 12.6374Z" fill="white"/>
<path fill-rule="evenodd" clip-rule="evenodd" d="M93.7471 11.3654C93.6683 11.3562 93.6335 11.3537 93.5793 11.3537C93.1533 11.3537 92.9378 11.4996 92.9378 11.7882C92.9378 11.9657 93.043 12.0794 93.2072 12.0794C93.5134 12.0794 93.734 11.7879 93.7471 11.3654ZM94.2937 12.6375H93.671L93.6852 12.3418C93.4953 12.5754 93.2418 12.6871 92.8975 12.6871C92.4902 12.6871 92.2109 12.3687 92.2109 11.9068C92.2109 11.2111 92.6967 10.8061 93.5305 10.8061C93.6158 10.8061 93.725 10.8138 93.8369 10.8283C93.8601 10.7338 93.8662 10.6936 93.8662 10.6425C93.8662 10.4536 93.7354 10.3832 93.3843 10.3832C93.0164 10.3788 92.7132 10.4704 92.5885 10.5112C92.5965 10.464 92.6928 9.86909 92.6928 9.86909C93.0673 9.75924 93.3143 9.71777 93.5924 9.71777C94.2378 9.71777 94.5796 10.0078 94.579 10.5553C94.5802 10.702 94.556 10.8835 94.5182 11.1212C94.4529 11.5344 94.3128 12.422 94.2937 12.6375Z" fill="white"/>
<path fill-rule="evenodd" clip-rule="evenodd" d="M104.374 9.22047L104.251 9.98252C103.983 9.84762 103.789 9.79302 103.58 9.79302C103.019 9.79302 102.625 10.3354 102.625 11.1089C102.625 11.6418 102.89 11.9638 103.327 11.9638C103.512 11.9638 103.716 11.9066 103.965 11.7837L103.833 12.584C103.556 12.6594 103.377 12.6869 103.169 12.6869C102.36 12.6869 101.855 12.1051 101.855 11.1708C101.855 9.91545 102.552 9.03809 103.548 9.03809C103.877 9.03809 104.264 9.17715 104.374 9.22047Z" fill="white"/>
<path fill-rule="evenodd" clip-rule="evenodd" d="M105.586 11.3654C105.508 11.3562 105.473 11.3537 105.419 11.3537C104.993 11.3537 104.778 11.4996 104.778 11.7882C104.778 11.9657 104.883 12.0794 105.047 12.0794C105.353 12.0794 105.574 11.7879 105.586 11.3654ZM106.133 12.6375H105.511L105.525 12.3418C105.335 12.5754 105.081 12.6871 104.737 12.6871C104.33 12.6871 104.051 12.3687 104.051 11.9068C104.051 11.2111 104.536 10.8061 105.37 10.8061C105.455 10.8061 105.564 10.8138 105.676 10.8283C105.699 10.7338 105.706 10.6936 105.706 10.6425C105.706 10.4536 105.575 10.3832 105.224 10.3832C104.856 10.3788 104.553 10.4704 104.428 10.5112C104.436 10.464 104.533 9.86909 104.533 9.86909C104.907 9.75924 105.154 9.71777 105.432 9.71777C106.077 9.71777 106.419 10.0078 106.419 10.5553C106.42 10.702 106.396 10.8835 106.358 11.1212C106.293 11.5344 106.153 12.422 106.133 12.6375Z" fill="white"/>
<path fill-rule="evenodd" clip-rule="evenodd" d="M97.6343 12.5942C97.4287 12.659 97.2682 12.6871 97.0944 12.6871C96.7102 12.6871 96.5003 12.4662 96.5003 12.0599C96.4951 11.9332 96.5558 11.6017 96.6036 11.2985C96.6468 11.0315 96.9294 9.34961 96.9294 9.34961H97.6766L97.5892 9.78178H97.9728L97.8706 10.468H97.4858C97.399 11.0116 97.2753 11.6877 97.2737 11.7774C97.2737 11.9251 97.3526 11.989 97.5313 11.989C97.617 11.989 97.6832 11.9806 97.734 11.962L97.6343 12.5942Z" fill="white"/>
<path fill-rule="evenodd" clip-rule="evenodd" d="M99.9219 12.5715C99.6651 12.6502 99.4172 12.6873 99.155 12.6871C98.3185 12.6865 97.8828 12.2494 97.8828 11.4131C97.8828 10.4366 98.4373 9.71777 99.1898 9.71777C99.8064 9.71777 100.2 10.1202 100.2 10.7518C100.2 10.9611 100.172 11.1654 100.108 11.4539H98.6198C98.5694 11.8682 98.8347 12.0411 99.2692 12.0411C99.5364 12.0411 99.7777 11.9857 100.046 11.861L99.9219 12.5715ZM99.5019 10.878C99.5059 10.8182 99.5811 10.3682 99.1542 10.3682C98.9163 10.3682 98.746 10.55 98.6767 10.878H99.5019Z" fill="white"/>
<path fill-rule="evenodd" clip-rule="evenodd" d="M94.7414 10.6845C94.7414 11.0461 94.9167 11.2947 95.3139 11.4821C95.6182 11.6252 95.6654 11.6676 95.6654 11.7973C95.6654 11.9754 95.5311 12.0557 95.2336 12.0557C95.0094 12.0557 94.8008 12.0209 94.5601 11.9433C94.5601 11.9433 94.4616 12.5726 94.457 12.6023C94.6277 12.6397 94.7801 12.6738 95.239 12.6871C96.0322 12.6871 96.3985 12.3852 96.3985 11.7326C96.3985 11.34 96.2451 11.1098 95.8686 10.9369C95.5535 10.792 95.5173 10.7599 95.5173 10.6264C95.5173 10.4721 95.6423 10.3926 95.8853 10.3926C96.0325 10.3926 96.2342 10.409 96.4252 10.4359L96.5322 9.77368C96.3376 9.74294 96.0426 9.71777 95.8707 9.71777C95.0298 9.71777 94.7389 10.1569 94.7414 10.6845Z" fill="white"/>
<path fill-rule="evenodd" clip-rule="evenodd" d="M110.108 12.6374H109.397L109.433 12.3716C109.226 12.5919 109.015 12.687 108.74 12.687C108.193 12.687 107.832 12.2163 107.832 11.5018C107.832 10.5519 108.392 9.75126 109.055 9.75126C109.346 9.75126 109.567 9.8703 109.773 10.1408L109.94 9.12598H110.681L110.108 12.6374ZM108.999 11.9775C109.35 11.9775 109.595 11.5809 109.595 11.0153C109.595 10.6524 109.455 10.4552 109.197 10.4552C108.856 10.4552 108.614 10.8532 108.614 11.4148C108.614 11.7886 108.744 11.9775 108.999 11.9775Z" fill="white"/>
<path fill-rule="evenodd" clip-rule="evenodd" d="M106.809 9.78066C106.715 10.6646 106.548 11.5598 106.417 12.4444L106.383 12.6364H107.135C107.404 10.89 107.468 10.5492 107.89 10.5917C107.957 10.2343 108.082 9.92125 108.175 9.76348C107.861 9.69784 107.685 9.87574 107.454 10.2138C107.473 10.0675 107.506 9.92563 107.5 9.78066H106.809Z" fill="white"/>
<path fill-rule="evenodd" clip-rule="evenodd" d="M100.622 9.78066C100.527 10.6646 100.36 11.5598 100.229 12.4444L100.195 12.6364H100.947C101.216 10.89 101.281 10.5492 101.702 10.5917C101.77 10.2343 101.895 9.92125 101.988 9.76348C101.673 9.69784 101.497 9.87574 101.267 10.2138C101.285 10.0675 101.319 9.92563 101.312 9.78066H100.622Z" fill="white"/>
<path d="M157.292 0H124.653C123.87 0 123.234 0.635346 123.234 1.41909V19.8672C123.234 20.6509 123.87 21.2863 124.653 21.2863H157.292C158.076 21.2863 158.712 20.6509 158.712 19.8672V1.41909C158.712 0.635346 158.076 0 157.292 0Z" fill="white"/>
<path d="M124.653 0.25H157.292C157.938 0.25 158.462 0.773417 158.462 1.41909V19.8672C158.462 20.5129 157.938 21.0363 157.292 21.0363H124.653C124.008 21.0363 123.484 20.5129 123.484 19.8672V1.41909C123.484 0.773417 124.008 0.25 124.653 0.25Z" fill="white" stroke="#E6772F" stroke-width="0.5"/>
<path d="M131.789 21.2872H157.292C158.075 21.2872 158.711 20.6532 158.711 19.87V11.9561C158.711 11.9561 149.203 18.4022 131.789 21.2872Z" fill="white"/>
<path d="M131.789 21.2872H157.292C158.075 21.2872 158.711 20.6532 158.711 19.87V11.9561C158.711 11.9561 149.203 18.4022 131.789 21.2872Z" fill="#E7772F"/>
<path fill-rule="evenodd" clip-rule="evenodd" d="M129.722 10.5805C129.456 10.8082 129.117 10.9078 128.575 10.9078H128.35V8.19024H128.575C129.117 8.19024 129.443 8.28312 129.722 8.52218C130.011 8.76921 130.184 9.1503 130.184 9.54447C130.184 9.94056 130.011 10.3352 129.722 10.5805ZM128.743 7.49414H127.512V11.6042H128.735C129.386 11.6042 129.856 11.456 130.268 11.1288C130.757 10.7413 131.048 10.1563 131.048 9.55022C131.048 8.3369 130.1 7.49414 128.743 7.49414Z" fill="#1A1918"/>
<path fill-rule="evenodd" clip-rule="evenodd" d="M131.434 7.49414H132.268V11.6042H131.434V7.49414Z" fill="#1A1918"/>
<path fill-rule="evenodd" clip-rule="evenodd" d="M134.318 9.06949C133.814 8.89267 133.666 8.7749 133.666 8.55276C133.666 8.29455 133.93 8.09875 134.291 8.09875C134.542 8.09875 134.749 8.19481 134.969 8.42956L135.405 7.88251C135.045 7.5793 134.614 7.42578 134.144 7.42578C133.384 7.42578 132.805 7.93182 132.805 8.60096C132.805 9.16907 133.074 9.45728 133.86 9.73097C134.188 9.84028 134.355 9.91497 134.44 9.96555C134.607 10.0691 134.691 10.2175 134.691 10.3891C134.691 10.7234 134.414 10.9692 134.04 10.9692C133.641 10.9692 133.319 10.7783 133.126 10.4199L132.586 10.9203C132.972 11.4617 133.435 11.7036 134.072 11.7036C134.942 11.7036 135.555 11.1465 135.555 10.353C135.555 9.69921 135.27 9.40286 134.318 9.06949Z" fill="#1A1918"/>
<path fill-rule="evenodd" clip-rule="evenodd" d="M135.82 9.55032C135.82 10.759 136.812 11.6956 138.088 11.6956C138.448 11.6956 138.756 11.6276 139.136 11.4561V10.5115C138.801 10.8343 138.506 10.9617 138.125 10.9617C137.281 10.9617 136.684 10.3778 136.684 9.54457C136.684 8.75735 137.301 8.1337 138.088 8.1337C138.485 8.1337 138.789 8.26839 139.136 8.59601V7.65255C138.769 7.47494 138.468 7.40137 138.105 7.40137C136.836 7.40137 135.82 8.35632 135.82 9.55032Z" fill="#1A1918"/>
<path fill-rule="evenodd" clip-rule="evenodd" d="M145.922 10.2535L144.777 7.49414H143.863L145.684 11.7079H146.133L147.989 7.49414H147.083L145.922 10.2535Z" fill="#1A1918"/>
<path fill-rule="evenodd" clip-rule="evenodd" d="M148.371 11.6042H150.746V10.9078H149.209V9.79837H150.688V9.1021H149.209V8.19024H150.746V7.49414H148.371V11.6042Z" fill="#1A1918"/>
<path fill-rule="evenodd" clip-rule="evenodd" d="M152.38 9.38409H152.137V8.14093H152.394C152.917 8.14093 153.197 8.3511 153.197 8.7515C153.197 9.16291 152.917 9.38409 152.38 9.38409ZM154.06 8.70682C154.06 7.93714 153.508 7.49414 152.541 7.49414H151.297V11.6042H152.137V9.95173H152.246L153.403 11.6042H154.433L153.082 9.87194C153.714 9.74842 154.06 9.33573 154.06 8.70682Z" fill="#1A1918"/>
<path fill-rule="evenodd" clip-rule="evenodd" d="M143.982 9.55972C143.982 10.743 142.98 11.7021 141.743 11.7021C140.506 11.7021 139.504 10.743 139.504 9.55972C139.504 8.37625 140.506 7.41699 141.743 7.41699C142.98 7.41699 143.982 8.37625 143.982 9.55972Z" fill="#E7772F"/>
<path d="M34.0578 0H1.41908C0.635342 0 0 0.635342 0 1.41908V19.8671C0 20.6508 0.635342 21.2861 1.41908 21.2861H34.0578C34.8416 21.2861 35.4769 20.6508 35.4769 19.8671V1.41908C35.4769 0.635342 34.8416 0 34.0578 0Z" fill="white"/>
<path fill-rule="evenodd" clip-rule="evenodd" d="M13.3086 13.7513L14.3994 6.98438H16.1431L15.0523 13.7513H13.3086Z" fill="#26337A"/>
<path fill-rule="evenodd" clip-rule="evenodd" d="M21.3805 7.15013C21.0357 7.01431 20.4935 6.86621 19.818 6.86621C18.0941 6.86621 16.8806 7.78451 16.8706 9.09946C16.8596 10.0721 17.7365 10.6146 18.3976 10.9379C19.077 11.2692 19.3053 11.4813 19.3026 11.7776C19.2979 12.2308 18.7603 12.4385 18.259 12.4385C17.5609 12.4385 17.19 12.3363 16.6166 12.0836L16.3923 11.9759L16.1484 13.4906C16.555 13.6791 17.3088 13.8427 18.091 13.8513C19.9231 13.8513 21.1136 12.9441 21.1275 11.5399C21.1338 10.7686 20.6692 10.184 19.6629 9.70127C19.0536 9.38747 18.6796 9.17961 18.6839 8.86201C18.6843 8.58079 18.9999 8.27969 19.6828 8.27969C20.2531 8.2705 20.666 8.40221 20.9877 8.53972L21.1443 8.61707L21.3805 7.15013Z" fill="#26337A"/>
<path fill-rule="evenodd" clip-rule="evenodd" d="M23.6997 11.353C23.8442 10.9641 24.3943 9.46158 24.3943 9.46158C24.3842 9.47947 24.538 9.06964 24.6261 8.816L24.7438 9.39962C24.7438 9.39962 25.0784 11.0148 25.1473 11.353H23.6997ZM25.8509 6.99219H24.5033C24.0854 6.99219 23.7725 7.11191 23.5894 7.55312L21 13.7546H22.8314C22.8314 13.7546 23.1302 12.9203 23.198 12.7372C23.3978 12.7372 25.1773 12.7407 25.4313 12.7407C25.4836 12.9769 25.6436 13.7546 25.6436 13.7546H27.262L25.8509 6.99219Z" fill="#26337A"/>
<path fill-rule="evenodd" clip-rule="evenodd" d="M11.8478 6.99121L10.1412 11.6046L9.95837 10.6668C9.64034 9.58632 8.65035 8.41518 7.54297 7.82837L9.10431 13.7465L10.9497 13.7454L13.6956 6.99121H11.8478Z" fill="#26337A"/>
<path fill-rule="evenodd" clip-rule="evenodd" d="M8.55762 6.98535H5.74579L5.72266 7.12556C7.91058 7.6861 9.35823 9.03911 9.95909 10.6656L9.34806 7.55628C9.24265 7.12746 8.93628 7.00034 8.55762 6.98535Z" fill="#ED982D"/>
<path d="M75.136 0H42.4972C41.7135 0 41.0781 0.635342 41.0781 1.41908V19.8671C41.0781 20.6508 41.7135 21.2861 42.4972 21.2861H75.136C75.9197 21.2861 76.555 20.6508 76.555 19.8671V1.41908C76.555 0.635342 75.9197 0 75.136 0Z" fill="#0072CE"/>
<path fill-rule="evenodd" clip-rule="evenodd" d="M71.0244 12.2986H69.7709C69.6458 12.2986 69.5627 12.3032 69.4926 12.3504C69.4201 12.3969 69.3921 12.4658 69.3921 12.5568C69.3921 12.6651 69.4534 12.7387 69.5425 12.7705C69.6151 12.7957 69.693 12.8031 69.8076 12.8031L70.1803 12.813C70.5564 12.8223 70.8075 12.8867 70.9606 13.044C70.9884 13.0658 71.0052 13.0904 71.0244 13.115V12.2986ZM71.0244 14.1902C70.8573 14.4338 70.5318 14.5572 70.0911 14.5572H68.763V13.942H70.0857C70.2169 13.942 70.3087 13.9248 70.364 13.8709C70.4119 13.8266 70.4453 13.7621 70.4453 13.6838C70.4453 13.6002 70.4119 13.5338 70.3613 13.494C70.3114 13.4503 70.2388 13.4304 70.119 13.4304C69.4733 13.4085 68.6677 13.4503 68.6677 12.5423C68.6677 12.1261 68.9327 11.6881 69.6544 11.6881H71.0243V11.1172H69.7515C69.3674 11.1172 69.0884 11.2089 68.8908 11.3515V11.1172H67.0082C66.7071 11.1172 66.3538 11.1916 66.1866 11.3515V11.1172H62.8248V11.3515C62.5572 11.1591 62.1058 11.1172 61.8974 11.1172H59.6799V11.3515C59.4683 11.1471 58.9976 11.1172 58.7106 11.1172H56.2289L55.661 11.7299L55.1291 11.1172H51.4219V15.1208H55.0593L55.6445 14.4983L56.1957 15.1208L58.4379 15.1227V14.1809H58.6583C58.9558 14.1855 59.3067 14.1736 59.6162 14.0402V15.1207H61.4656V14.0772H61.5548C61.6687 14.0772 61.6799 14.0819 61.6799 14.1953V15.1206H67.2979C67.6546 15.1206 68.0274 15.0296 68.2338 14.8644V15.1206H70.0158C70.3867 15.1206 70.7488 15.0688 71.0244 14.936V14.1902ZM68.281 13.044C68.4149 13.1821 68.4867 13.3566 68.4867 13.6519C68.4867 14.2691 68.0999 14.5572 67.4063 14.5572H66.0668V13.942H67.401C67.5314 13.942 67.6239 13.9248 67.6819 13.8709C67.7292 13.8266 67.7631 13.7621 67.7631 13.6838C67.7631 13.6002 67.7264 13.5338 67.6792 13.494C67.6266 13.4503 67.5541 13.4304 67.4343 13.4304C66.7911 13.4085 65.9857 13.4503 65.9857 12.5423C65.9857 12.1261 66.248 11.6881 66.969 11.6881H68.3477V12.2987H67.0861C66.9611 12.2987 66.8797 12.3034 66.8106 12.3506C66.7353 12.397 66.7073 12.466 66.7073 12.557C66.7073 12.6652 66.7713 12.7389 66.8578 12.7707C66.9303 12.7959 67.0083 12.8033 67.1254 12.8033L67.4957 12.8132C67.869 12.8223 68.1253 12.8867 68.281 13.044ZM62.0753 12.8668C61.9833 12.9212 61.8696 12.9259 61.7357 12.9259H60.9003V12.2814H61.7471C61.8696 12.2814 61.9921 12.284 62.0753 12.3333C62.1645 12.3797 62.2177 12.4686 62.2177 12.5914C62.2177 12.7141 62.1645 12.813 62.0753 12.8668ZM62.4907 13.2238C62.6438 13.2802 62.7689 13.3811 62.8276 13.4647C62.9247 13.6048 62.9387 13.7355 62.9415 13.9884V14.5572H62.2511V14.1983C62.2511 14.0256 62.2677 13.7701 62.1399 13.6366C62.0394 13.5338 61.8862 13.5093 61.6353 13.5093H60.9004V14.5572H60.2093V11.688H61.7971C62.1453 11.688 62.3989 11.7033 62.6246 11.8234C62.8416 11.9541 62.9781 12.1332 62.9781 12.4605C62.978 12.9185 62.6717 13.1522 62.4907 13.2238ZM63.3595 11.688H65.6548V12.2813H64.0444V12.803H65.6155V13.3884H64.0444V13.9593L65.6548 13.9619V14.5572H63.3595V11.688ZM58.7194 13.0121H57.8307V12.2814H58.7274C58.9757 12.2814 59.148 12.3823 59.148 12.6332C59.148 12.8814 58.9837 13.0121 58.7194 13.0121ZM57.1457 14.2963L56.0898 13.1275L57.1457 11.9959V14.2963ZM54.4189 13.9593H52.728V13.3884H54.2378V12.803H52.728V12.2813H54.4522L55.2044 13.1175L54.4189 13.9593ZM59.8864 12.6332C59.8864 13.4303 59.2899 13.5948 58.6888 13.5948H57.8307V14.5572H56.4939L55.6471 13.6074L54.767 14.5572H52.0429V11.688H54.8089L55.6551 12.6285L56.5299 11.688H58.7274C59.2732 11.688 59.8864 11.8386 59.8864 12.6332Z" fill="white"/>
<path fill-rule="evenodd" clip-rule="evenodd" d="M48.7603 8.38122L48.2896 7.23765L47.8216 8.38122H48.7603ZM59.13 7.92585C59.0355 7.98304 58.9238 7.98494 58.7899 7.98494H57.9544V7.34779H58.8012C58.9211 7.34779 59.0461 7.35316 59.1274 7.39953C59.2166 7.44132 59.2718 7.53027 59.2718 7.65313C59.2718 7.7785 59.2193 7.87939 59.13 7.92585ZM65.0902 8.38122L64.6142 7.23765L64.1409 8.38122H65.0902ZM53.9801 9.61901H53.2751L53.2725 7.37236L52.2753 9.61901H51.6714L50.6716 7.37037V9.61901H49.2728L49.0086 8.97917H47.5766L47.3097 9.61901H46.5628L47.7943 6.75044H48.8161L49.9858 9.46638V6.75044H51.1082L52.0082 8.69642L52.835 6.75044H53.9801V9.61901H53.9801ZM56.7901 9.61901H54.4927V6.75044H56.7901V7.34779H55.1804V7.86485H56.7515V8.45286H55.1804V9.02572H56.7901V9.61901ZM60.0294 7.523C60.0294 7.98036 59.7232 8.21665 59.5448 8.2876C59.6953 8.3447 59.8238 8.44559 59.885 8.52917C59.9821 8.67184 59.9988 8.79929 59.9988 9.05549V9.61901H59.3052L59.3026 9.25726C59.3026 9.08464 59.3191 8.83641 59.194 8.69841C59.0935 8.59752 58.9403 8.57563 58.6927 8.57563H57.9545V9.61901H57.2668V6.75044H58.8486C59.2001 6.75044 59.459 6.7597 59.6814 6.88784C59.8989 7.01598 60.0294 7.20304 60.0294 7.523ZM61.13 9.61901H60.4282V6.75044H61.13V9.61901ZM69.271 9.61901H68.2964L66.9928 7.46598V9.61901H65.5922L65.3246 8.97917H63.8959L63.6363 9.61901H62.8315C62.4972 9.61901 62.074 9.54529 61.8343 9.30173C61.5926 9.05817 61.4669 8.72826 61.4669 8.20661C61.4669 7.78118 61.542 7.39226 61.8376 7.08494C62.0599 6.856 62.4081 6.75044 62.882 6.75044H63.5478V7.3651H62.896C62.645 7.3651 62.5033 7.4023 62.3668 7.53503C62.2496 7.65581 62.1691 7.88414 62.1691 8.18481C62.1691 8.49214 62.2304 8.71372 62.3582 8.85847C62.4641 8.97199 62.6565 9.00643 62.8375 9.00643H63.1464L64.1157 6.75053H65.1461L66.3105 9.46379V6.75053H67.3576L68.5665 8.74833V6.75053H69.271V9.61901ZM46.5548 10.1824H47.7298L47.9948 9.54529H48.5879L48.8522 10.1824H51.1642V9.69532L51.3706 10.1845H52.5708L52.7771 9.68805V10.1824H58.5229L58.5202 9.13656H58.6314C58.7092 9.13924 58.732 9.14642 58.732 9.27456V10.1824H61.7037V9.93897C61.9434 10.067 62.3162 10.1824 62.8068 10.1824H64.057L64.3246 9.54529H64.9177L65.1794 10.1824H67.5886V9.57722L67.9534 10.1824H69.884V6.18164H67.9734V6.65414L67.7058 6.18164H65.7453V6.65414L65.4996 6.18164H62.8514C62.4081 6.18164 62.0185 6.24333 61.7037 6.41525V6.18164H59.8762V6.41525C59.6759 6.23805 59.403 6.18164 59.0995 6.18164H52.423L51.975 7.21498L51.515 6.18164H49.412V6.65414L49.181 6.18164H47.3875L46.5547 8.08384V10.1824H46.5548Z" fill="white"/>
</svg>
