<svg width="16" height="16" viewBox="0 0 16 16" fill="none" xmlns="http://www.w3.org/2000/svg">
<path d="M4.3246 7.23421C5.59233 9.68166 7.51465 11.0719 8.77411 11.6629C9.1884 11.3466 9.61926 11.0136 10.0418 10.6889C10.191 10.5724 10.3484 10.4559 10.4976 10.331C10.9367 9.94805 11.4256 9.91475 11.9642 10.0729C12.511 10.2394 13.0662 10.3976 13.6545 10.4226C14.0108 10.4392 14.3671 10.4642 14.7234 10.4975C15.3199 10.5474 15.7425 10.8971 15.9165 11.4298C15.9828 11.6213 15.9994 11.8377 15.9994 12.0375C16.0077 12.7451 16.0077 13.4527 15.9994 14.1603C15.9994 14.4184 15.9745 14.6848 15.9331 14.9428C15.8419 15.5505 15.3034 15.9668 14.7648 15.9918C14.2842 16.0084 13.8036 15.9918 13.323 15.9418C12.569 15.8669 11.8233 15.7503 11.0941 15.5672C10.4561 15.409 9.8347 15.1843 9.22154 14.9512C7.86266 14.4267 6.61978 13.6941 5.48462 12.7784C3.47115 11.1468 1.98798 9.11558 1.01854 6.70143C0.637386 5.73577 0.380524 4.73681 0.189949 3.7212C0.123663 3.37157 0.107091 3.00528 0.0822332 2.64732C0.0490898 2.22276 0.0242322 1.79821 -0.00062542 1.37365C-0.0337689 0.641078 0.604243 -0.00824548 1.34997 7.91778e-05C2.28627 0.0167285 3.23086 7.9178e-05 4.16716 0.00840384C4.90461 0.0167285 5.47633 0.59113 5.48462 1.3237C5.4929 2.25606 5.65033 3.16345 5.91548 4.04586C6.06463 4.55367 6.0232 5.01985 5.67519 5.45273C5.21118 6.02713 4.78032 6.63484 4.3246 7.23421ZM0.935677 1.14056C0.803104 9.40695 7.85437 15.3757 14.8311 15.0427C15.0051 14.9095 15.0796 14.7264 15.0796 14.5016C15.0796 13.6692 15.0796 12.8367 15.0796 12.0042C15.0796 11.7462 15.0051 11.5464 14.7648 11.4215C13.6048 11.4382 12.4862 11.1884 11.3593 10.8554C11.0859 11.0552 10.8207 11.2467 10.5639 11.4465C10.0998 11.7961 9.64412 12.1458 9.1884 12.5037C8.95639 12.6869 8.73268 12.7202 8.46753 12.5537C8.09466 12.3206 7.68866 12.1374 7.32408 11.896C6.32977 11.255 5.46804 10.4642 4.7306 9.54014C4.21688 8.89082 3.77773 8.19155 3.41315 7.44233C3.36344 7.33411 3.33029 7.21756 3.28886 7.10102C3.76116 6.47667 4.22517 5.87729 4.6726 5.26127C4.83832 5.0365 5.0869 4.84503 5.09518 4.61194C4.95432 4.01257 4.81346 3.49644 4.7306 2.96366C4.64774 2.42256 4.6146 1.8648 4.56489 1.3237C4.54831 1.14888 4.48203 1.04066 4.31631 0.949091C3.27229 0.949091 2.2117 0.949091 1.14282 0.949091C1.07654 0.999039 1.01025 1.06564 0.935677 1.14056Z" fill="white"/>
</svg>
