<svg width="16" height="16" viewBox="0 0 16 16" fill="none" xmlns="http://www.w3.org/2000/svg">
<path d="M1.38891 16C1.0579 16 0.736639 15.8762 0.483521 15.6489L0.481898 15.6472L0.480276 15.6455C0.45756 15.6285 0.438089 15.6099 0.421864 15.5895L0.418619 15.5861L0.416996 15.5844C0.147652 15.3063 0 14.9382 0 14.5464V6.25379C0 6.24701 0 6.24022 0 6.23344V6.23004V6.22665C0 6.21478 0 6.2063 0 6.19782C0.00324511 6.07908 0.0649021 5.97223 0.162255 5.91116C1.05466 5.35991 2.0071 4.90872 2.99523 4.56949L3.04067 4.55422V1.17545C3.04067 0.52751 3.54528 0 4.1651 0H11.8333C12.4531 0 12.9577 0.52751 12.9577 1.17545V4.55422L13.0031 4.56949C13.9913 4.90872 14.9437 5.35991 15.8361 5.91116C15.9335 5.97223 15.9951 6.07908 15.9984 6.19782C15.9984 6.2063 15.9984 6.21647 15.9984 6.22665V6.23004V6.23344C15.9984 6.24022 15.9984 6.24701 15.9984 6.25379V14.5464C15.9984 14.9314 15.8556 15.2944 15.596 15.5675L15.5927 15.5709L15.5911 15.5743C15.5879 15.5777 15.5846 15.5827 15.5814 15.5861C15.5603 15.6116 15.536 15.6336 15.51 15.6523L15.5067 15.654L15.5035 15.6574C15.2536 15.8779 14.9356 15.9983 14.6095 15.9983H1.38891V16ZM1.24774 15.3063H14.7539L9.77264 10.8809L8.78937 11.59C8.55735 11.7562 8.28476 11.8444 8.00081 11.8444C7.73634 11.8444 7.47835 11.7664 7.25768 11.6205C7.24308 11.6103 7.22848 11.6001 7.21225 11.59L6.22087 10.8759L1.24774 15.3063ZM0.663624 14.5464C0.663624 14.6193 0.67336 14.6923 0.694453 14.7618L0.723659 14.8619L5.65784 10.4671L3.19319 8.69289C3.18994 8.69119 3.18832 8.68949 3.18507 8.6861L0.663624 6.8695V14.5464ZM10.3389 10.4739L15.2796 14.8619L15.3072 14.7618C15.3266 14.6923 15.3364 14.6193 15.3364 14.5464V6.8695L10.3389 10.4739ZM4.16672 0.693735C3.91198 0.693735 3.70591 0.910845 3.70591 1.17545V8.21796L7.59031 11.0183C7.712 11.1048 7.85316 11.1523 8.00243 11.1523C8.15171 11.1523 8.29287 11.1065 8.41456 11.0183L9.5682 10.1855L9.57144 10.1821C9.59254 10.1618 9.61525 10.1465 9.63959 10.1329L9.64284 10.1312L12.2973 8.21626V1.17545C12.2973 0.909149 12.0896 0.693735 11.8365 0.693735H4.16672ZM2.95467 5.31581C2.30078 5.55497 1.65987 5.84671 1.04979 6.18594L0.955684 6.23852L3.04067 7.74133V5.28528L2.95467 5.31581ZM12.9593 7.74133L15.0443 6.23852L14.9502 6.18594C14.3401 5.84671 13.6992 5.55497 13.0453 5.31581L12.9593 5.28358V7.74133Z" fill="white"/>
<path d="M5.4875 3.15151C5.30415 3.15151 5.15649 2.99546 5.15649 2.80549C5.15649 2.61382 5.30577 2.45947 5.4875 2.45947H10.5109C10.6943 2.45947 10.8419 2.61552 10.8419 2.80549C10.8419 2.99716 10.6926 3.15151 10.5109 3.15151H5.4875Z" fill="white"/>
<path d="M5.4875 7.4103C5.30415 7.4103 5.15649 7.25425 5.15649 7.06428C5.15649 6.87261 5.30577 6.71826 5.4875 6.71826H7.99921C8.18256 6.71826 8.33021 6.87431 8.33021 7.06428C8.33021 7.25595 8.18093 7.4103 7.99921 7.4103H5.4875Z" fill="white"/>
<path d="M5.4875 5.28188C5.30415 5.28188 5.15649 5.12583 5.15649 4.93586C5.15649 4.74589 5.30577 4.58984 5.4875 4.58984H10.5109C10.6943 4.58984 10.8419 4.74589 10.8419 4.93586C10.8419 5.12583 10.6926 5.28188 10.5109 5.28188H5.4875Z" fill="white"/>
</svg>
