<svg width="56" height="54" viewBox="0 0 56 54" fill="none" xmlns="http://www.w3.org/2000/svg">
<path d="M11.4888 18.1663H6.23877C6.00671 18.1663 5.78415 18.2581 5.62005 18.4215C5.45596 18.5848 5.36377 18.8065 5.36377 19.0375V23.7425C5.36377 23.9735 5.45596 24.1951 5.62005 24.3585C5.78415 24.5219 6.00671 24.6137 6.23877 24.6137H11.4888C11.7208 24.6137 11.9434 24.5219 12.1075 24.3585C12.2716 24.1951 12.3638 23.9735 12.3638 23.7425V19.0375C12.3638 18.8065 12.2716 18.5848 12.1075 18.4215C11.9434 18.2581 11.7208 18.1663 11.4888 18.1663ZM10.6138 22.8712H7.11377V19.8478H10.6138V22.8712Z" fill="black"/>
<path d="M11.4888 28.4299H6.23877C6.00671 28.4299 5.78415 28.5217 5.62005 28.6851C5.45596 28.8485 5.36377 29.0701 5.36377 29.3012V33.98C5.36377 34.2111 5.45596 34.4327 5.62005 34.5961C5.78415 34.7595 6.00671 34.8513 6.23877 34.8513H11.4888C11.7208 34.8513 11.9434 34.7595 12.1075 34.5961C12.2716 34.4327 12.3638 34.2111 12.3638 33.98V29.2751C12.3569 29.0486 12.2617 28.8336 12.0984 28.6758C11.935 28.518 11.7164 28.4298 11.4888 28.4299ZM10.6138 33.1436H7.11377V30.1202H10.6138V33.1436Z" fill="black"/>
<path d="M11.4888 38.6848H6.23877C6.00671 38.6848 5.78415 38.7766 5.62005 38.94C5.45596 39.1034 5.36377 39.325 5.36377 39.5561V44.261C5.36377 44.4921 5.45596 44.7137 5.62005 44.8771C5.78415 45.0405 6.00671 45.1323 6.23877 45.1323H11.4888C11.7208 45.1323 11.9434 45.0405 12.1075 44.8771C12.2716 44.7137 12.3638 44.4921 12.3638 44.261V39.5561C12.3638 39.325 12.2716 39.1034 12.1075 38.94C11.9434 38.7766 11.7208 38.6848 11.4888 38.6848ZM10.6138 43.3984H7.11377V40.3838H10.6138V43.3984Z" fill="black"/>
<path d="M11.4888 7.90247H6.23877C6.00671 7.90247 5.78415 7.99426 5.62005 8.15766C5.45596 8.32106 5.36377 8.54267 5.36377 8.77375V13.4787C5.36377 13.7097 5.45596 13.9314 5.62005 14.0948C5.78415 14.2581 6.00671 14.3499 6.23877 14.3499H11.4888C11.7208 14.3499 11.9434 14.2581 12.1075 14.0948C12.2716 13.9314 12.3638 13.7097 12.3638 13.4787V8.71276C12.3482 8.49241 12.2492 8.28616 12.0868 8.13573C11.9244 7.9853 11.7106 7.90193 11.4888 7.90247ZM10.6138 12.6161H7.11377V9.58404H10.6138V12.6161Z" fill="black"/>
<path d="M55.125 0H49.735C49.5029 0 49.2804 0.0917954 49.1163 0.255192C48.9522 0.418589 48.86 0.640203 48.86 0.871281V2.36117H45.36V0.871281C45.36 0.640203 45.2678 0.418589 45.1037 0.255192C44.9396 0.0917954 44.7171 0 44.485 0L39.095 0C38.8629 0 38.6404 0.0917954 38.4763 0.255192C38.3122 0.418589 38.22 0.640203 38.22 0.871281V10.2637H17.7625V0.871281C17.7625 0.640203 17.6703 0.418589 17.5062 0.255192C17.3421 0.0917954 17.1196 0 16.8875 0L11.4975 0C11.2654 0 11.0429 0.0917954 10.8788 0.255192C10.7147 0.418589 10.6225 0.640203 10.6225 0.871281V2.36117H7.1225V0.871281C7.1225 0.640203 7.03031 0.418589 6.86622 0.255192C6.70212 0.0917954 6.47956 0 6.2475 0L0.875 0C0.642936 0 0.420376 0.0917954 0.256282 0.255192C0.0921872 0.418589 0 0.640203 0 0.871281L0 52.1549C0 52.3859 0.0921872 52.6076 0.256282 52.7709C0.420376 52.9343 0.642936 53.0261 0.875 53.0261H6.265C6.49706 53.0261 6.71962 52.9343 6.88372 52.7709C7.04781 52.6076 7.14 52.3859 7.14 52.1549V50.6475H10.64V52.1549C10.64 52.3859 10.7322 52.6076 10.8963 52.7709C11.0604 52.9343 11.2829 53.0261 11.515 53.0261H16.9312C17.1633 53.0261 17.3859 52.9343 17.55 52.7709C17.7141 52.6076 17.8062 52.3859 17.8062 52.1549V42.6927H38.2463V52.1461C38.2463 52.3772 38.3384 52.5988 38.5025 52.7622C38.6666 52.9256 38.8892 53.0174 39.1213 53.0174H44.5375C44.7696 53.0174 44.9921 52.9256 45.1562 52.7622C45.3203 52.5988 45.4125 52.3772 45.4125 52.1461V50.6388H48.9125V52.1461C48.9125 52.3772 49.0047 52.5988 49.1688 52.7622C49.3329 52.9256 49.5554 53.0174 49.7875 53.0174H55.125C55.3571 53.0174 55.5796 52.9256 55.7437 52.7622C55.9078 52.5988 56 52.3772 56 52.1461V0.871281C56 0.640203 55.9078 0.418589 55.7437 0.255192C55.5796 0.0917954 55.3571 0 55.125 0V0ZM16.065 51.301H12.3462V49.7937C12.3462 49.5626 12.2541 49.341 12.09 49.1776C11.9259 49.0142 11.7033 48.9224 11.4712 48.9224H6.22125C5.98919 48.9224 5.76663 49.0142 5.60253 49.1776C5.43844 49.341 5.34625 49.5626 5.34625 49.7937V51.301H1.6975V1.69028H5.41625V3.20631C5.41625 3.43739 5.50844 3.659 5.67253 3.8224C5.83663 3.9858 6.05919 4.07759 6.29125 4.07759H11.5412C11.7733 4.07759 11.9959 3.9858 12.16 3.8224C12.3241 3.659 12.4162 3.43739 12.4162 3.20631V1.69028H16.135L16.065 51.301ZM38.2463 41.0373H17.7625V11.954H38.2463V41.0373ZM54.3025 51.301H50.5838V49.7937C50.5838 49.5626 50.4916 49.341 50.3275 49.1776C50.1634 49.0142 49.9408 48.9224 49.7088 48.9224H44.4588C44.2267 48.9224 44.0041 49.0142 43.84 49.1776C43.6759 49.341 43.5838 49.5626 43.5838 49.7937V51.301H39.9438V1.69028H43.6625V3.20631C43.6625 3.43739 43.7547 3.659 43.9188 3.8224C44.0829 3.9858 44.3054 4.07759 44.5375 4.07759H49.7875C50.0196 4.07759 50.2421 3.9858 50.4062 3.8224C50.5703 3.659 50.6625 3.43739 50.6625 3.20631V1.69028H54.3813L54.3025 51.301Z" fill="black"/>
<path d="M49.7351 7.90247H44.4851C44.253 7.90247 44.0305 7.99426 43.8664 8.15766C43.7023 8.32106 43.6101 8.54267 43.6101 8.77375V13.4787C43.6101 13.7097 43.7023 13.9314 43.8664 14.0948C44.0305 14.2581 44.253 14.3499 44.4851 14.3499H49.7351C49.9672 14.3499 50.1897 14.2581 50.3538 14.0948C50.5179 13.9314 50.6101 13.7097 50.6101 13.4787V8.71276C50.5946 8.49241 50.4956 8.28616 50.3331 8.13573C50.1707 7.9853 49.9569 7.90193 49.7351 7.90247ZM48.8601 12.6161H45.3601V9.58404H48.8601V12.6161Z" fill="black"/>
<path d="M49.7351 18.1663H44.4851C44.253 18.1663 44.0305 18.2581 43.8664 18.4215C43.7023 18.5848 43.6101 18.8065 43.6101 19.0375V23.7425C43.6101 23.9735 43.7023 24.1951 43.8664 24.3585C44.0305 24.5219 44.253 24.6137 44.4851 24.6137H49.7351C49.9672 24.6137 50.1897 24.5219 50.3538 24.3585C50.5179 24.1951 50.6101 23.9735 50.6101 23.7425V19.0375C50.6101 18.8065 50.5179 18.5848 50.3538 18.4215C50.1897 18.2581 49.9672 18.1663 49.7351 18.1663ZM48.8601 22.8712H45.3601V19.8478H48.8601V22.8712Z" fill="black"/>
<path d="M49.7351 28.4299H44.4851C44.253 28.4299 44.0305 28.5217 43.8664 28.6851C43.7023 28.8485 43.6101 29.0701 43.6101 29.3012V33.98C43.6101 34.2111 43.7023 34.4327 43.8664 34.5961C44.0305 34.7595 44.253 34.8513 44.4851 34.8513H49.7351C49.9672 34.8513 50.1897 34.7595 50.3538 34.5961C50.5179 34.4327 50.6101 34.2111 50.6101 33.98V29.2751C50.6033 29.0486 50.5081 28.8336 50.3447 28.6758C50.1814 28.518 49.9627 28.4298 49.7351 28.4299ZM48.8601 33.1436H45.3601V30.1202H48.8601V33.1436Z" fill="black"/>
<path d="M49.7351 38.6848H44.4851C44.253 38.6848 44.0305 38.7766 43.8664 38.94C43.7023 39.1034 43.6101 39.325 43.6101 39.5561V44.261C43.6101 44.4921 43.7023 44.7137 43.8664 44.8771C44.0305 45.0405 44.253 45.1323 44.4851 45.1323H49.7351C49.9672 45.1323 50.1897 45.0405 50.3538 44.8771C50.5179 44.7137 50.6101 44.4921 50.6101 44.261V39.5561C50.6101 39.325 50.5179 39.1034 50.3538 38.94C50.1897 38.7766 49.9672 38.6848 49.7351 38.6848ZM48.8601 43.3984H45.3601V40.3838H48.8601V43.3984Z" fill="black"/>
</svg>
