<svg width="71" height="99" viewBox="0 0 71 99" fill="none" xmlns="http://www.w3.org/2000/svg">
<path d="M46.4675 56.2378C45.8408 56.2378 45.3036 56.0581 44.7664 55.7886L35.5444 50.9374L26.3225 55.7886C24.8004 56.5971 22.8307 56.2378 21.6667 54.8902C20.9505 54.0817 20.6819 52.9138 20.8609 51.8358L22.6516 41.5944L15.2203 34.3176C14.2355 33.3294 13.7878 31.8022 14.2355 30.4547C14.6831 29.1071 15.8471 28.1189 17.2796 27.8494L27.5759 26.3222L32.1421 17.069C32.7689 15.8113 34.0223 15.0027 35.5444 15.0027C36.9769 15.0027 38.2304 15.8113 38.9467 17.069L43.5129 26.412L53.7197 27.9392C55.1522 28.1189 56.3162 29.1071 56.7638 30.5445C57.2115 31.892 56.8534 33.4193 55.779 34.4075L48.3477 41.5944L50.1384 51.8358C50.3174 52.9138 50.0488 54.0817 49.3326 54.8902C48.6163 55.7886 47.5419 56.2378 46.4675 56.2378ZM35.4549 47.1643C35.7235 47.1643 35.9921 47.2541 36.2607 47.3439L46.378 52.6443C46.378 52.6443 46.4675 52.6443 46.557 52.5545V52.4646L44.6768 41.2351C44.5873 40.696 44.7664 40.0672 45.214 39.618L53.3616 31.7124C53.3616 31.7124 53.4511 31.6225 53.3616 31.5327C53.3616 31.4429 53.272 31.4429 53.1825 31.4429L41.9908 29.8258C41.3641 29.736 40.9164 29.3766 40.6478 28.8376L35.6339 18.5962C35.6339 18.5962 35.5444 18.5064 35.4549 18.5064C35.3653 18.5064 35.2758 18.5962 35.2758 18.5962L30.2619 28.8376C29.9933 29.3766 29.4561 29.736 28.9189 29.8258L17.7273 31.4429C17.7273 31.4429 17.6377 31.4429 17.5482 31.5327C17.5482 31.6225 17.5482 31.7124 17.5482 31.7124L25.6957 39.618C26.1434 40.0672 26.3225 40.6062 26.2329 41.2351L24.3527 52.4646C24.3527 52.5545 24.3527 52.5545 24.3527 52.5545C24.3527 52.5545 24.4423 52.6443 24.5318 52.6443L34.6491 47.3439C34.9177 47.2541 35.1863 47.1643 35.4549 47.1643Z" fill="white"/>
<path d="M35.4552 71.2405C15.9369 71.2405 0 55.2495 0 35.5753C0 15.9909 15.9369 0 35.4552 0C55.063 0 70.9105 15.9909 70.9105 35.5753C71 55.2495 55.063 71.2405 35.4552 71.2405ZM35.4552 3.59347C17.9067 3.59347 3.58134 17.9673 3.58134 35.5753C3.58134 53.2731 17.9067 67.5572 35.4552 67.5572C53.0933 67.5572 67.3291 53.1833 67.3291 35.5753C67.4187 17.9673 53.0933 3.59347 35.4552 3.59347Z" fill="white"/>
<path d="M63.7475 87.7704C62.5836 86.6025 61.0615 85.9737 59.4499 85.9737C58.0174 85.9737 55.5104 85.6143 52.1977 84.9855V72.2287C52.1977 71.2405 51.3919 70.4319 50.407 70.4319C49.4222 70.4319 48.6164 71.2405 48.6164 72.2287V86.4229C48.6164 86.5127 48.6164 86.6025 48.6164 86.7822C48.6164 86.8721 48.6164 86.8721 48.6164 86.9619C48.6164 87.0517 48.6164 87.0517 48.7059 87.1416C48.7059 87.2314 48.7954 87.2314 48.7954 87.3212C48.7954 87.4111 48.885 87.4111 48.885 87.5009C48.885 87.5907 48.9745 87.5907 48.9745 87.5907C48.9745 87.6806 49.064 87.6806 49.064 87.7704L49.1536 87.8603C49.2431 87.8603 49.2431 87.9501 49.3326 87.9501C49.4222 87.9501 49.4222 88.0399 49.5117 88.0399L49.6012 88.1298C49.6908 88.2196 49.7803 88.2196 49.9594 88.2196C54.3465 89.118 57.4802 89.5672 59.3604 89.5672C60.0766 89.5672 60.6138 89.8367 61.0615 90.2858C62.2254 91.4537 62.5836 93.6996 62.7626 95.4065H35.4549H8.14726C8.32633 93.6996 8.77399 91.4537 9.8484 90.2858C10.2961 89.7468 10.8333 89.5672 11.5495 89.5672C13.4297 89.5672 16.5634 89.118 20.9505 88.2196C21.0401 88.2196 21.2191 88.1298 21.3087 88.1298C21.3087 88.1298 21.3982 88.1298 21.3982 88.0399C21.4877 88.0399 21.4877 87.9501 21.5773 87.9501C21.6668 87.9501 21.6668 87.8603 21.6668 87.8603C21.7563 87.8603 21.7563 87.7704 21.7563 87.7704L21.8459 87.6806C21.8459 87.5907 21.9354 87.5907 21.9354 87.5009L22.0249 87.4111C22.0249 87.3212 22.1145 87.3212 22.1145 87.2314C22.1145 87.1416 22.1145 87.1416 22.204 87.0517C22.204 86.9619 22.204 86.9619 22.2935 86.872C22.2935 86.7822 22.2935 86.6924 22.2935 86.6025C22.2935 86.6025 22.2935 86.6025 22.2935 86.5127V72.2287C22.2935 71.2405 21.4877 70.4319 20.5029 70.4319C19.518 70.4319 18.7122 71.2405 18.7122 72.2287V84.8956C15.3995 85.5245 12.803 85.8838 11.46 85.8838C9.75886 85.8838 8.32633 86.5127 7.16239 87.6806C4.20779 90.735 4.38686 96.5744 4.38686 97.2033C4.38686 98.1915 5.19266 98.9102 6.17753 98.9102H35.4549H64.7324C65.7172 98.9102 66.523 98.1915 66.523 97.2033C66.523 96.6642 66.7021 90.8249 63.7475 87.7704Z" fill="white"/>
<path d="M35.4557 88.2196C34.4708 88.2196 33.665 87.411 33.665 86.4228V77.1697C33.665 76.1815 34.4708 75.3729 35.4557 75.3729C36.4406 75.3729 37.2464 76.1815 37.2464 77.1697V86.4228C37.2464 87.411 36.4406 88.2196 35.4557 88.2196Z" fill="white"/>
</svg>
