<svg width="51" height="52" viewBox="0 0 51 52" fill="none" xmlns="http://www.w3.org/2000/svg">
<path d="M20.8438 47.75H5.4375C5.19715 47.75 4.96664 47.6545 4.79668 47.4846C4.62673 47.3146 4.53125 47.0841 4.53125 46.8438V26.9063C4.53125 26.6659 4.62673 26.4354 4.79668 26.2654C4.96664 26.0955 5.19715 26 5.4375 26H18.125V15.125H5.4375C5.19715 15.125 4.96664 15.0295 4.79668 14.8596C4.62673 14.6896 4.53125 14.4591 4.53125 14.2188V1.53127C4.53125 1.29091 4.62673 1.0604 4.79668 0.89045C4.96664 0.720495 5.19715 0.625015 5.4375 0.625015H30.8125C30.9318 0.624326 31.05 0.647186 31.1604 0.692285C31.2708 0.737384 31.3713 0.803835 31.4559 0.887828L38.7059 8.13783C38.7899 8.22251 38.8564 8.32294 38.9015 8.43335C38.9466 8.54377 38.9694 8.662 38.9688 8.78127V32.3438C38.9688 32.5841 38.8733 32.8146 38.7033 32.9846C38.5334 33.1545 38.3029 33.25 38.0625 33.25H21.75V46.8438C21.75 47.0841 21.6545 47.3146 21.4846 47.4846C21.3146 47.6545 21.0841 47.75 20.8438 47.75ZM6.34375 45.9375H19.9375V32.3438C19.9375 32.1034 20.033 31.8729 20.2029 31.7029C20.3729 31.533 20.6034 31.4375 20.8438 31.4375H37.1563V9.15283L30.4409 2.43752H6.34375V13.3125H19.0313C19.2716 13.3125 19.5021 13.408 19.6721 13.5779C19.842 13.7479 19.9375 13.9784 19.9375 14.2188V26.9063C19.9375 27.1466 19.842 27.3771 19.6721 27.5471C19.5021 27.717 19.2716 27.8125 19.0313 27.8125H6.34375V45.9375Z" fill="black"/>
<path d="M49.8438 51.375H20.8438C20.6034 51.375 20.3729 51.2795 20.2029 51.1096C20.033 50.9396 19.9375 50.7091 19.9375 50.4688V32.3438C19.9375 32.1034 20.033 31.8729 20.2029 31.7029C20.3729 31.533 20.6034 31.4375 20.8438 31.4375H49.8438C50.0841 31.4375 50.3146 31.533 50.4846 31.7029C50.6545 31.8729 50.75 32.1034 50.75 32.3438V50.4688C50.75 50.7091 50.6545 50.9396 50.4846 51.1096C50.3146 51.2795 50.0841 51.375 49.8438 51.375ZM21.75 49.5625H48.9375V33.25H21.75V49.5625ZM19.0312 27.8125H0.90625C0.665898 27.8125 0.435389 27.717 0.265435 27.5471C0.0954798 27.3771 0 27.1466 0 26.9062V14.2188C0 13.9784 0.0954798 13.7479 0.265435 13.5779C0.435389 13.408 0.665898 13.3125 0.90625 13.3125H19.0312C19.2716 13.3125 19.5021 13.408 19.6721 13.5779C19.842 13.7479 19.9375 13.9784 19.9375 14.2188V26.9062C19.9375 27.1466 19.842 27.3771 19.6721 27.5471C19.5021 27.717 19.2716 27.8125 19.0312 27.8125ZM1.8125 26H18.125V15.125H1.8125V26ZM46.1462 30.5312C46.0063 30.5288 45.8689 30.494 45.7447 30.4295C45.6205 30.365 45.5129 30.2727 45.4303 30.1597L42.7841 26.5347C42.665 26.3814 42.5983 26.194 42.5938 26V6.96875C42.5938 6.48805 42.7847 6.02703 43.1246 5.68712C43.4645 5.34721 43.9255 5.15625 44.4062 5.15625H48.0312C48.512 5.15625 48.973 5.34721 49.3129 5.68712C49.6528 6.02703 49.8438 6.48805 49.8438 6.96875V26C49.8431 26.2002 49.7762 26.3946 49.6534 26.5528L46.8622 30.1778C46.7778 30.2875 46.6693 30.3764 46.5452 30.4376C46.4211 30.4989 46.2846 30.5309 46.1462 30.5312ZM44.4062 25.7009L46.1644 28.1116L48.0312 25.6919V6.96875H44.4062V25.7009Z" fill="black"/>
<path d="M48.0312 6.96875H44.4062C44.1659 6.96875 43.9354 6.87327 43.7654 6.70332C43.5955 6.53336 43.5 6.30285 43.5 6.0625V3.34375C43.5 2.62269 43.7864 1.93117 44.2963 1.4213C44.8062 0.911439 45.4977 0.625 46.2188 0.625C46.9398 0.625 47.6313 0.911439 48.1412 1.4213C48.6511 1.93117 48.9375 2.62269 48.9375 3.34375V6.0625C48.9375 6.30285 48.842 6.53336 48.6721 6.70332C48.5021 6.87327 48.2716 6.96875 48.0312 6.96875ZM45.3125 5.15625H47.125V3.34375C47.125 3.1034 47.0295 2.87289 46.8596 2.70293C46.6896 2.53298 46.4591 2.4375 46.2188 2.4375C45.9784 2.4375 45.7479 2.53298 45.5779 2.70293C45.408 2.87289 45.3125 3.1034 45.3125 3.34375V5.15625ZM6.34375 22.375C5.80603 22.375 5.28039 22.2155 4.83329 21.9168C4.3862 21.6181 4.03773 21.1935 3.83195 20.6967C3.62618 20.1999 3.57234 19.6532 3.67724 19.1258C3.78214 18.5985 4.04108 18.114 4.4213 17.7338C4.80153 17.3536 5.28596 17.0946 5.81335 16.9897C6.34074 16.8848 6.88739 16.9387 7.38417 17.1445C7.88096 17.3502 8.30557 17.6987 8.60431 18.1458C8.90305 18.5929 9.0625 19.1185 9.0625 19.6562C9.0625 20.3773 8.77606 21.0688 8.2662 21.5787C7.75633 22.0886 7.06481 22.375 6.34375 22.375ZM6.34375 18.75C6.16451 18.75 5.9893 18.8032 5.84027 18.9027C5.69123 19.0023 5.57508 19.1438 5.50649 19.3094C5.43789 19.475 5.41995 19.6573 5.45491 19.8331C5.48988 20.0088 5.57619 20.1703 5.70294 20.2971C5.82968 20.4238 5.99116 20.5101 6.16695 20.5451C6.34275 20.5801 6.52496 20.5621 6.69056 20.4935C6.85615 20.4249 6.99769 20.3088 7.09727 20.1597C7.19685 20.0107 7.25 19.8355 7.25 19.6562C7.25 19.4159 7.15452 19.1854 6.98457 19.0154C6.81461 18.8455 6.5841 18.75 6.34375 18.75ZM15.4063 21.4688H11.7813C11.5409 21.4688 11.3104 21.3733 11.1404 21.2033C10.9705 21.0334 10.875 20.8029 10.875 20.5625C10.875 20.3221 10.9705 20.0916 11.1404 19.9217C11.3104 19.7517 11.5409 19.6562 11.7813 19.6562H15.4063C15.6466 19.6562 15.8771 19.7517 16.0471 19.9217C16.217 20.0916 16.3125 20.3221 16.3125 20.5625C16.3125 20.8029 16.217 21.0334 16.0471 21.2033C15.8771 21.3733 15.6466 21.4688 15.4063 21.4688ZM15.4063 24.1875H11.7813C11.5409 24.1875 11.3104 24.092 11.1404 23.9221C10.9705 23.7521 10.875 23.5216 10.875 23.2812C10.875 23.0409 10.9705 22.8104 11.1404 22.6404C11.3104 22.4705 11.5409 22.375 11.7813 22.375H15.4063C15.6466 22.375 15.8771 22.4705 16.0471 22.6404C16.217 22.8104 16.3125 23.0409 16.3125 23.2812C16.3125 23.5216 16.217 23.7521 16.0471 23.9221C15.8771 24.092 15.6466 24.1875 15.4063 24.1875ZM12.6875 11.5C11.9705 11.5 11.2697 11.2874 10.6736 10.8891C10.0774 10.4908 9.61281 9.92461 9.33844 9.26223C9.06407 8.59985 8.99228 7.87098 9.13215 7.1678C9.27203 6.46462 9.61727 5.8187 10.1242 5.31174C10.6312 4.80477 11.2771 4.45952 11.9803 4.31965C12.6835 4.17978 13.4123 4.25157 14.0747 4.52594C14.7371 4.8003 15.3033 5.26493 15.7016 5.86106C16.0999 6.45719 16.3125 7.15804 16.3125 7.875C16.3125 8.83641 15.9306 9.75844 15.2508 10.4383C14.5709 11.1181 13.6489 11.5 12.6875 11.5ZM12.6875 6.0625C12.329 6.0625 11.9786 6.1688 11.6805 6.36796C11.3825 6.56712 11.1502 6.8502 11.013 7.18139C10.8758 7.51258 10.8399 7.87701 10.9098 8.2286C10.9798 8.58019 11.1524 8.90315 11.4059 9.15663C11.6594 9.41011 11.9823 9.58274 12.3339 9.65267C12.6855 9.72261 13.0499 9.68672 13.3811 9.54953C13.7123 9.41235 13.9954 9.18003 14.1945 8.88197C14.3937 8.58391 14.5 8.23348 14.5 7.875C14.5 7.3943 14.309 6.93328 13.9691 6.59337C13.6292 6.25346 13.1682 6.0625 12.6875 6.0625ZM27.1875 6.96875H19.0313C18.7909 6.96875 18.5604 6.87327 18.3904 6.70332C18.2205 6.53336 18.125 6.30285 18.125 6.0625C18.125 5.82215 18.2205 5.59164 18.3904 5.42168C18.5604 5.25173 18.7909 5.15625 19.0313 5.15625H27.1875C27.4279 5.15625 27.6584 5.25173 27.8283 5.42168C27.9983 5.59164 28.0938 5.82215 28.0938 6.0625C28.0938 6.30285 27.9983 6.53336 27.8283 6.70332C27.6584 6.87327 27.4279 6.96875 27.1875 6.96875ZM23.5625 10.5938H19.0313C18.7909 10.5938 18.5604 10.4983 18.3904 10.3283C18.2205 10.1584 18.125 9.92785 18.125 9.6875C18.125 9.44715 18.2205 9.21664 18.3904 9.04668C18.5604 8.87673 18.7909 8.78125 19.0313 8.78125H23.5625C23.8029 8.78125 24.0334 8.87673 24.2033 9.04668C24.3733 9.21664 24.4688 9.44715 24.4688 9.6875C24.4688 9.92785 24.3733 10.1584 24.2033 10.3283C24.0334 10.4983 23.8029 10.5938 23.5625 10.5938ZM38.0625 9.6875H30.8125C30.5721 9.6875 30.3416 9.59202 30.1717 9.42207C30.0017 9.25211 29.9063 9.0216 29.9063 8.78125V1.53125C29.9071 1.35233 29.961 1.17768 30.061 1.02931C30.161 0.880941 30.3026 0.765487 30.4681 0.6975C30.6332 0.6281 30.8151 0.609139 30.9909 0.643009C31.1667 0.676879 31.3285 0.762063 31.4559 0.887812L38.7059 8.13781C38.8317 8.26525 38.9169 8.42708 38.9507 8.60289C38.9846 8.77869 38.9656 8.96059 38.8962 9.12562C38.8283 9.29112 38.7128 9.43279 38.5644 9.53278C38.4161 9.63277 38.2414 9.68661 38.0625 9.6875ZM31.7188 7.875H35.8784L31.7188 3.71531V7.875ZM35.3438 40.5C35.2019 40.4991 35.0622 40.465 34.9359 40.4003L20.4359 33.1503C20.2399 33.0323 20.0957 32.8446 20.0323 32.6247C19.969 32.4048 19.9912 32.1691 20.0944 31.9649C20.1977 31.7607 20.3744 31.6031 20.589 31.5238C20.8036 31.4444 21.0403 31.4492 21.2516 31.5372L35.3438 38.5788L49.4359 31.5372C49.5427 31.4729 49.6616 31.4314 49.7852 31.4152C49.9087 31.3989 50.0343 31.4084 50.1541 31.4429C50.2738 31.4774 50.3852 31.5362 50.4811 31.6157C50.5771 31.6951 50.6557 31.7936 50.7119 31.9048C50.7682 32.016 50.8009 32.1376 50.808 32.262C50.8151 32.3864 50.7964 32.511 50.7532 32.6279C50.71 32.7448 50.6432 32.8515 50.5569 32.9414C50.4705 33.0313 50.3666 33.1024 50.2516 33.1503L35.7516 40.4003C35.6253 40.465 35.4856 40.4991 35.3438 40.5ZM26.7344 47.75C26.107 47.75 25.4938 47.564 24.9722 47.2154C24.4506 46.8669 24.044 46.3715 23.8039 45.792C23.5639 45.2124 23.5011 44.5746 23.6234 43.9593C23.7458 43.344 24.0479 42.7789 24.4915 42.3353C24.9351 41.8917 25.5003 41.5896 26.1156 41.4672C26.7309 41.3448 27.3686 41.4076 27.9482 41.6477C28.5278 41.8878 29.0232 42.2943 29.3717 42.8159C29.7202 43.3375 29.9063 43.9508 29.9063 44.5781C29.9063 45.4194 29.5721 46.2261 28.9772 46.821C28.3824 47.4158 27.5756 47.75 26.7344 47.75ZM26.7344 43.2188C26.4655 43.2188 26.2027 43.2985 25.9791 43.4478C25.7556 43.5972 25.5814 43.8095 25.4785 44.0579C25.3756 44.3063 25.3487 44.5796 25.4011 44.8433C25.4536 45.107 25.583 45.3492 25.7732 45.5393C25.9633 45.7295 26.2055 45.8589 26.4692 45.9114C26.7329 45.9638 27.0062 45.9369 27.2546 45.834C27.503 45.7311 27.7153 45.5569 27.8647 45.3334C28.014 45.1098 28.0938 44.847 28.0938 44.5781C28.0938 44.2176 27.9505 43.8718 27.6956 43.6169C27.4407 43.362 27.0949 43.2188 26.7344 43.2188ZM40.7812 44.125H32.625C32.3846 44.125 32.1541 44.0295 31.9842 43.8596C31.8142 43.6896 31.7188 43.4591 31.7188 43.2188C31.7188 42.9784 31.8142 42.7479 31.9842 42.5779C32.1541 42.408 32.3846 42.3125 32.625 42.3125H40.7812C41.0216 42.3125 41.2521 42.408 41.4221 42.5779C41.592 42.7479 41.6875 42.9784 41.6875 43.2188C41.6875 43.4591 41.592 43.6896 41.4221 43.8596C41.2521 44.0295 41.0216 44.125 40.7812 44.125ZM37.1562 47.75H32.625C32.3846 47.75 32.1541 47.6545 31.9842 47.4846C31.8142 47.3146 31.7188 47.0841 31.7188 46.8438C31.7188 46.6034 31.8142 46.3729 31.9842 46.2029C32.1541 46.033 32.3846 45.9375 32.625 45.9375H37.1562C37.3966 45.9375 37.6271 46.033 37.7971 46.2029C37.967 46.3729 38.0625 46.6034 38.0625 46.8438C38.0625 47.0841 37.967 47.3146 37.7971 47.4846C37.6271 47.6545 37.3966 47.75 37.1562 47.75Z" fill="black"/>
</svg>
