<svg width="16" height="16" viewBox="0 0 16 16" fill="none" xmlns="http://www.w3.org/2000/svg">
<path d="M2.03924 13.3615C1.78515 13.0102 1.53854 12.6814 1.30687 12.3451C0.694074 11.4409 0.312943 10.4395 0.133588 9.36332C0.0289637 8.77294 -0.0308215 8.18256 0.00654425 7.58471C0.118641 5.97799 0.619342 4.50578 1.59832 3.21292C2.4129 2.13679 3.43672 1.2998 4.66232 0.739311C5.45447 0.373127 6.28399 0.11904 7.15835 0.0592549C7.50211 0.0368354 7.85335 -0.0154766 8.19711 -0.000530288C9.87857 0.0592549 11.4106 0.567429 12.7632 1.56883C13.8842 2.39835 14.7361 3.45206 15.3041 4.72997C15.6478 5.49223 15.887 6.28438 15.9393 7.12138C15.9617 7.46514 16.014 7.81638 15.9991 8.16014C15.9393 9.84907 15.4386 11.396 14.4222 12.7636C13.6376 13.8173 12.6511 14.6394 11.4629 15.1998C10.6408 15.5884 9.78142 15.8425 8.8697 15.9397C8.33163 15.9995 7.80104 15.992 7.27044 15.992C5.08829 15.9995 2.9136 15.992 0.73144 15.992C0.641762 15.992 0.559557 15.9995 0.469879 15.992C0.268104 15.9771 0.118641 15.8948 0.0364368 15.6931C-0.0457678 15.4913 0.0513831 15.3643 0.178427 15.2372C0.716493 14.6991 1.25456 14.1611 1.79263 13.623C1.8823 13.5408 1.96451 13.4511 2.03924 13.3615ZM1.41897 15.1625C1.58338 15.1625 1.68053 15.1625 1.77768 15.1625C3.84774 15.1625 5.91033 15.17 7.98039 15.155C8.42131 15.155 8.8697 15.0952 9.31061 15.0205C11.022 14.7066 12.4344 13.8696 13.5404 12.5245C14.5568 11.2914 15.0649 9.87149 15.1621 8.29466C15.2069 7.56229 15.1023 6.82992 14.908 6.12745C14.497 4.64777 13.7048 3.4147 12.5091 2.44319C11.2686 1.44179 9.84868 0.933613 8.27185 0.836462C7.65905 0.799096 7.05372 0.873828 6.46334 1.00834C4.85662 1.382 3.51145 2.1891 2.45774 3.48195C1.44886 4.71502 0.948161 6.14239 0.843537 7.71175C0.806171 8.32455 0.880903 8.92988 1.01542 9.52026C1.2994 10.8206 1.90472 11.9565 2.82392 12.928C3.16021 13.2867 3.16021 13.4138 2.81645 13.7575C2.36806 14.2134 1.91967 14.6618 1.41897 15.1625Z" fill="black"/>
<path d="M11.5163 7.23418H6.84561C6.59899 7.23418 6.39722 7.03241 6.39722 6.78579C6.39722 6.53918 6.59899 6.3374 6.84561 6.3374H11.5238C11.7704 6.3374 11.9722 6.53918 11.9722 6.78579C11.9722 7.03241 11.7704 7.23418 11.5163 7.23418Z" fill="black"/>
<path d="M4.58861 7.48826C4.9807 7.48826 5.29856 7.1704 5.29856 6.77831C5.29856 6.38621 4.9807 6.06836 4.58861 6.06836C4.19652 6.06836 3.87866 6.38621 3.87866 6.77831C3.87866 7.1704 4.19652 7.48826 4.58861 7.48826Z" fill="black"/>
<path d="M11.5163 9.648H6.84561C6.59899 9.648 6.39722 9.44623 6.39722 9.19961C6.39722 8.953 6.59899 8.75122 6.84561 8.75122H11.5238C11.7704 8.75122 11.9722 8.953 11.9722 9.19961C11.9722 9.44623 11.7704 9.648 11.5163 9.648Z" fill="black"/>
<path d="M4.58861 9.90208C4.9807 9.90208 5.29856 9.58422 5.29856 9.19213C5.29856 8.80003 4.9807 8.48218 4.58861 8.48218C4.19652 8.48218 3.87866 8.80003 3.87866 9.19213C3.87866 9.58422 4.19652 9.90208 4.58861 9.90208Z" fill="black"/>
</svg>
