<svg width="57" height="47" viewBox="0 0 57 47" fill="none" xmlns="http://www.w3.org/2000/svg">
<path d="M20.9249 21.4789H15.531C10.978 21.4789 7.85277 17.7855 7.85277 13.0459C7.85277 10.6523 9.39159 8.05261 13.2149 8.05261H19.5288C20.6393 8.05261 21.5436 7.14907 21.5436 6.03946V2.06071C21.5436 0.919393 20.6234 0 19.4812 0H11.5333C4.42611 0 0 4.01045 0 11.5241V42.3872C0 44.9393 2.06234 47 4.61648 47H20.909C23.4631 47 25.5255 44.9393 25.5255 42.3872V26.0917C25.5413 23.5396 23.4631 21.4789 20.9249 21.4789Z" fill="#333333"/>
<path d="M52.3819 21.4789H46.9881C42.435 21.4789 39.3098 17.7855 39.3098 13.0459C39.3098 10.6523 40.8486 8.05261 44.6719 8.05261H50.9858C52.0963 8.05261 53.0006 7.14907 53.0006 6.03946V2.06071C53.0006 0.919393 52.0805 0 50.9382 0H42.9903C35.8831 0 31.457 4.01045 31.457 11.5241V42.3872C31.457 44.9393 33.5194 47 36.0735 47H52.366C54.9202 47 56.9825 44.9393 56.9825 42.3872V26.0917C56.9984 23.5396 54.936 21.4789 52.3819 21.4789Z" fill="#333333"/>
</svg>
