<svg width="82" height="86" viewBox="0 0 82 86" fill="none" xmlns="http://www.w3.org/2000/svg">
<g clip-path="url(#clip0_993_8289)">
<path d="M76.682 69.4897H5.31682C3.90996 69.4859 2.56182 68.9277 1.56702 67.937C0.57221 66.9463 0.0116338 65.6037 0.0078125 64.2026V18.0868C0.0109995 16.6856 0.571366 15.3426 1.56631 14.3518C2.56125 13.3609 3.90976 12.8029 5.31682 12.7997H76.682C78.089 12.8029 79.4375 13.3609 80.4325 14.3518C81.4274 15.3426 81.9878 16.6856 81.991 18.0868V64.193C81.9897 65.5957 81.4302 66.9408 80.4352 67.9336C79.4401 68.9264 78.0905 69.4859 76.682 69.4897ZM5.31682 15.1957C4.5488 15.1957 3.81225 15.4996 3.26918 16.0404C2.7261 16.5812 2.421 17.3148 2.421 18.0796V64.193C2.421 64.9579 2.7261 65.6914 3.26918 66.2322C3.81225 66.7731 4.5488 67.0769 5.31682 67.0769H76.682C77.45 67.0769 78.1865 66.7731 78.7296 66.2322C79.2727 65.6914 79.5778 64.9579 79.5778 64.193V18.0868C79.5778 17.322 79.2727 16.5884 78.7296 16.0476C78.1865 15.5068 77.45 15.2029 76.682 15.2029L5.31682 15.1957Z" fill="#272A3D"/>
<path d="M73.3474 57.2693H8.65234V44.0803C8.65234 43.7616 8.77947 43.4559 9.00575 43.2306C9.23203 43.0052 9.53893 42.8786 9.85894 42.8786C10.1789 42.8786 10.4858 43.0052 10.7121 43.2306C10.9384 43.4559 11.0655 43.7616 11.0655 44.0803V54.866H70.9342V5.13573C70.9336 4.41122 70.6443 3.71657 70.1299 3.20427C69.6154 2.69197 68.9179 2.40388 68.1904 2.40324H13.8093C13.0818 2.40388 12.3843 2.69197 11.8699 3.20427C11.3555 3.71657 11.0662 4.41122 11.0655 5.13573V28.6346C11.0655 28.9533 10.9384 29.259 10.7121 29.4843C10.4858 29.7097 10.1789 29.8363 9.85894 29.8363C9.53893 29.8363 9.23203 29.7097 9.00575 29.4843C8.77947 29.259 8.65234 28.9533 8.65234 28.6346V5.13573C8.65362 3.77404 9.19736 2.46849 10.1642 1.50563C11.1311 0.542765 12.442 0.00127261 13.8093 0L68.1904 0C69.5577 0.00127261 70.8687 0.542765 71.8355 1.50563C72.8024 2.46849 73.3461 3.77404 73.3474 5.13573V57.2693Z" fill="#272A3D"/>
<path d="M80.791 57.2692H1.20659C0.886584 57.2692 0.579686 57.1426 0.353406 56.9173C0.127126 56.6919 0 56.3863 0 56.0676C0 55.7489 0.127126 55.4433 0.353406 55.2179C0.579686 54.9926 0.886584 54.866 1.20659 54.866H80.791C81.111 54.866 81.4179 54.9926 81.6442 55.2179C81.8705 55.4433 81.9976 55.7489 81.9976 56.0676C81.9976 56.3863 81.8705 56.6919 81.6442 56.9173C81.4179 57.1426 81.111 57.2692 80.791 57.2692Z" fill="#272A3D"/>
<path d="M22.3646 23.5902H16.9253C16.6053 23.5902 16.2984 23.4636 16.0722 23.2382C15.8459 23.0129 15.7188 22.7073 15.7188 22.3886C15.7188 22.0699 15.8459 21.7642 16.0722 21.5389C16.2984 21.3135 16.6053 21.187 16.9253 21.187H22.3646C22.6846 21.187 22.9915 21.3135 23.2178 21.5389C23.4441 21.7642 23.5712 22.0699 23.5712 22.3886C23.5712 22.7073 23.4441 23.0129 23.2178 23.2382C22.9915 23.4636 22.6846 23.5902 22.3646 23.5902Z" fill="#272A3D"/>
<path d="M46.4769 23.5902H34.0152C33.6952 23.5902 33.3883 23.4636 33.162 23.2382C32.9357 23.0129 32.8086 22.7073 32.8086 22.3886C32.8086 22.0699 32.9357 21.7642 33.162 21.5389C33.3883 21.3135 33.6952 21.187 34.0152 21.187H46.4769C46.7969 21.187 47.1038 21.3135 47.3301 21.5389C47.5563 21.7642 47.6835 22.0699 47.6835 22.3886C47.6835 22.7073 47.5563 23.0129 47.3301 23.2382C47.1038 23.4636 46.7969 23.5902 46.4769 23.5902Z" fill="#272A3D"/>
<path d="M65.4784 23.5902H53.0191C52.6991 23.5902 52.3922 23.4636 52.1659 23.2382C51.9396 23.0129 51.8125 22.7073 51.8125 22.3886C51.8125 22.0699 51.9396 21.7642 52.1659 21.5389C52.3922 21.3135 52.6991 21.187 53.0191 21.187H65.4784C65.7984 21.187 66.1053 21.3135 66.3315 21.5389C66.5578 21.7642 66.6849 22.0699 66.6849 22.3886C66.6849 22.7073 66.5578 23.0129 66.3315 23.2382C66.1053 23.4636 65.7984 23.5902 65.4784 23.5902Z" fill="#272A3D"/>
<path d="M65.4775 8.89201H49.5191C49.1991 8.89201 48.8922 8.76541 48.6659 8.54006C48.4396 8.31472 48.3125 8.00908 48.3125 7.69039C48.3125 7.3717 48.4396 7.06606 48.6659 6.84072C48.8922 6.61537 49.1991 6.48877 49.5191 6.48877H65.4775C65.7975 6.48877 66.1044 6.61537 66.3307 6.84072C66.5569 7.06606 66.6841 7.3717 66.6841 7.69039C66.6841 8.00908 66.5569 8.31472 66.3307 8.54006C66.1044 8.76541 65.7975 8.89201 65.4775 8.89201Z" fill="#272A3D"/>
<path d="M29.387 29.2499H16.9253C16.6053 29.2499 16.2984 29.1233 16.0722 28.8979C15.8459 28.6726 15.7188 28.3669 15.7188 28.0482C15.7188 27.7296 15.8459 27.4239 16.0722 27.1986C16.2984 26.9732 16.6053 26.8466 16.9253 26.8466H29.387C29.707 26.8466 30.0139 26.9732 30.2402 27.1986C30.4665 27.4239 30.5936 27.7296 30.5936 28.0482C30.5936 28.3669 30.4665 28.6726 30.2402 28.8979C30.0139 29.1233 29.707 29.2499 29.387 29.2499Z" fill="#272A3D"/>
<path d="M65.4784 29.2499H53.0191C52.6991 29.2499 52.3922 29.1233 52.1659 28.8979C51.9396 28.6726 51.8125 28.3669 51.8125 28.0482C51.8125 27.7296 51.9396 27.4239 52.1659 27.1986C52.3922 26.9732 52.6991 26.8466 53.0191 26.8466H65.4784C65.7984 26.8466 66.1053 26.9732 66.3315 27.1986C66.5578 27.4239 66.6849 27.7296 66.6849 28.0482C66.6849 28.3669 66.5578 28.6726 66.3315 28.8979C66.1053 29.1233 65.7984 29.2499 65.4784 29.2499Z" fill="#272A3D"/>
<path d="M9.87154 33.6454C9.7906 33.6458 9.7098 33.6385 9.63022 33.6238C9.55254 33.6079 9.47658 33.5845 9.4034 33.5541C9.33059 33.5244 9.26105 33.4874 9.19587 33.4435C9.06349 33.3565 8.95019 33.2437 8.86285 33.1119C8.81881 33.047 8.78159 32.9777 8.75182 32.9052C8.72125 32.8323 8.69784 32.7567 8.68186 32.6793C8.65292 32.5244 8.65292 32.3656 8.68186 32.2107C8.69818 32.1334 8.72159 32.0578 8.75182 31.9848C8.78159 31.9123 8.81881 31.843 8.86285 31.7781C8.95019 31.6462 9.06349 31.5334 9.19587 31.4464C9.26105 31.4026 9.33059 31.3655 9.4034 31.3359C9.47658 31.3054 9.55254 31.2821 9.63022 31.2662C9.78941 31.2333 9.95368 31.2333 10.1129 31.2662C10.1905 31.2821 10.2665 31.3054 10.3397 31.3359C10.4125 31.3655 10.4821 31.4026 10.5472 31.4464C10.6796 31.5334 10.7929 31.6462 10.8803 31.7781C10.9243 31.843 10.9615 31.9123 10.9913 31.9848C11.0537 32.1306 11.0849 32.2877 11.083 32.4462C11.0834 32.5268 11.0761 32.6073 11.0613 32.6865C11.0453 32.7639 11.0218 32.8395 10.9913 32.9124C10.9615 32.9849 10.9243 33.0542 10.8803 33.1191C10.7701 33.2831 10.6212 33.4175 10.4465 33.5105C10.2718 33.6036 10.0769 33.6524 9.87879 33.6526L9.87154 33.6454Z" fill="#272A3D"/>
<path d="M17.1789 8.89199C17.0979 8.89236 17.0171 8.88512 16.9376 8.87036C16.8599 8.85445 16.7839 8.83111 16.7107 8.80067C16.6379 8.77102 16.5684 8.73398 16.5032 8.69012C16.3708 8.60313 16.2575 8.49031 16.1702 8.35847C16.1261 8.29356 16.0889 8.2243 16.0592 8.15179C16.0346 8.07989 16.0169 8.00587 16.0061 7.9307C15.9771 7.77581 15.9771 7.61695 16.0061 7.46206C16.0224 7.38479 16.0458 7.30917 16.0761 7.23616C16.1058 7.16365 16.143 7.09439 16.1871 7.02948C16.2744 6.89764 16.3877 6.78482 16.5201 6.69783C16.5853 6.65398 16.6548 6.61693 16.7276 6.58728C16.8008 6.55684 16.8768 6.5335 16.9545 6.51759C17.1098 6.48632 17.2697 6.48632 17.425 6.51759C17.5027 6.5335 17.5787 6.55684 17.6519 6.58728C17.7247 6.61693 17.7942 6.65398 17.8594 6.69783C17.9918 6.78482 18.1051 6.89764 18.1924 7.02948C18.2365 7.09439 18.2737 7.16365 18.3034 7.23616C18.3658 7.38196 18.3971 7.5391 18.3951 7.69758C18.3955 7.77819 18.3883 7.85866 18.3734 7.93791C18.3574 8.01527 18.334 8.09093 18.3034 8.16381C18.2737 8.23632 18.2365 8.30558 18.1924 8.37049C18.0823 8.53445 17.9333 8.66889 17.7587 8.76194C17.584 8.85498 17.389 8.90378 17.191 8.90401L17.1789 8.89199Z" fill="#272A3D"/>
<path d="M22.0981 8.89199C22.0172 8.89235 21.9364 8.88511 21.8568 8.87036C21.7791 8.85444 21.7031 8.8311 21.63 8.80066C21.5572 8.77102 21.4876 8.73397 21.4224 8.69011C21.29 8.60313 21.1768 8.4903 21.0894 8.35847C21.0454 8.29356 21.0082 8.2243 20.9784 8.15179C20.9478 8.0789 20.9244 8.00325 20.9084 7.92588C20.8795 7.771 20.8795 7.61213 20.9084 7.45725C20.9247 7.37997 20.9482 7.30435 20.9784 7.23135C21.0082 7.15884 21.0454 7.08958 21.0894 7.02467C21.1768 6.89283 21.29 6.78001 21.4224 6.69302C21.4876 6.64916 21.5572 6.61212 21.63 6.58247C21.7031 6.55203 21.7791 6.52869 21.8568 6.51278C22.016 6.47987 22.1802 6.47987 22.3394 6.51278C22.4171 6.52869 22.4931 6.55203 22.5663 6.58247C22.6391 6.61212 22.7086 6.64916 22.7738 6.69302C22.9062 6.78001 23.0195 6.89283 23.1068 7.02467C23.1509 7.08958 23.1881 7.15884 23.2178 7.23135C23.2802 7.37715 23.3115 7.53429 23.3095 7.69277C23.3099 7.77338 23.3027 7.85385 23.2878 7.93309C23.2718 8.01046 23.2484 8.08611 23.2178 8.159C23.1881 8.23151 23.1509 8.30077 23.1068 8.36568C22.9967 8.52964 22.8477 8.66408 22.6731 8.75712C22.4984 8.85017 22.3034 8.89896 22.1054 8.8992L22.0981 8.89199Z" fill="#272A3D"/>
<path d="M26.7192 8.89198C26.6383 8.89235 26.5575 8.8851 26.4779 8.87035C26.4002 8.85444 26.3242 8.8311 26.2511 8.80065C26.1782 8.77101 26.1087 8.73396 26.0435 8.69011C25.9111 8.60312 25.7979 8.49029 25.7105 8.35846C25.6665 8.29355 25.6293 8.22429 25.5995 8.15178C25.5689 8.07889 25.5455 8.00324 25.5295 7.92587C25.5006 7.77099 25.5006 7.61212 25.5295 7.45724C25.5458 7.37996 25.5693 7.30434 25.5995 7.23134C25.6293 7.15883 25.6665 7.08957 25.7105 7.02466C25.7979 6.89282 25.9111 6.78 26.0435 6.69301C26.1087 6.64915 26.1782 6.61211 26.2511 6.58246C26.3242 6.55202 26.4002 6.52868 26.4779 6.51277C26.6332 6.4815 26.7932 6.4815 26.9485 6.51277C27.0262 6.52868 27.1021 6.55202 27.1753 6.58246C27.2481 6.61211 27.3177 6.64915 27.3829 6.69301C27.5152 6.78 27.6285 6.89282 27.7159 7.02466C27.7599 7.08957 27.7971 7.15883 27.8269 7.23134C27.8893 7.37714 27.9205 7.53428 27.9186 7.69276C27.919 7.77337 27.9117 7.85384 27.8969 7.93308C27.8809 8.01045 27.8574 8.0861 27.8269 8.15899C27.7971 8.2315 27.7599 8.30076 27.7159 8.36567C27.6057 8.52963 27.4568 8.66407 27.2821 8.75711C27.1075 8.85016 26.9125 8.89895 26.7144 8.89919L26.7192 8.89198Z" fill="#272A3D"/>
<path d="M59.6679 86H22.3359V81.4338C22.3359 80.7469 22.472 80.0667 22.7362 79.4322C23.0005 78.7977 23.3878 78.2213 23.876 77.736C24.3641 77.2508 24.9436 76.8661 25.5812 76.6041C26.2189 76.3421 26.9021 76.2079 27.5919 76.2092H54.4361C55.8265 76.2104 57.1595 76.7611 58.1427 77.7401C59.1258 78.7192 59.6787 80.0468 59.68 81.4314L59.6679 86ZM24.7491 83.5967H57.2547V81.4338C57.2535 80.6866 56.9548 79.9703 56.4242 79.4419C55.8937 78.9135 55.1744 78.6161 54.424 78.6148H27.5919C26.8413 78.6155 26.1217 78.9127 25.591 79.4412C25.0603 79.9697 24.7618 80.6864 24.7612 81.4338L24.7491 83.5967Z" fill="#272A3D"/>
<path d="M35.7652 78.6125C35.4452 78.6125 35.1383 78.4859 34.912 78.2605C34.6857 78.0352 34.5586 77.7295 34.5586 77.4108V68.2785C34.5586 67.9598 34.6857 67.6542 34.912 67.4289C35.1383 67.2035 35.4452 67.0769 35.7652 67.0769C36.0852 67.0769 36.3921 67.2035 36.6184 67.4289C36.8447 67.6542 36.9718 67.9598 36.9718 68.2785V77.4108C36.9718 77.7295 36.8447 78.0352 36.6184 78.2605C36.3921 78.4859 36.0852 78.6125 35.7652 78.6125Z" fill="#272A3D"/>
<path d="M46.2378 78.6125C45.9178 78.6125 45.6109 78.4859 45.3847 78.2605C45.1584 78.0352 45.0312 77.7295 45.0312 77.4108V68.2785C45.0312 67.9598 45.1584 67.6542 45.3847 67.4289C45.6109 67.2035 45.9178 67.0769 46.2378 67.0769C46.5579 67.0769 46.8647 67.2035 47.091 67.4289C47.3173 67.6542 47.4444 67.9598 47.4444 68.2785V77.4108C47.4444 77.7295 47.3173 78.0352 47.091 78.2605C46.8647 78.4859 46.5579 78.6125 46.2378 78.6125Z" fill="#272A3D"/>
<path d="M16.683 55.8321V55.1304L20.6527 54.1403C21.3187 53.9744 21.9872 53.8014 22.6557 53.6428C22.8574 53.5977 23.0442 53.5018 23.198 53.3642C23.3518 53.2266 23.4675 53.0519 23.534 52.8569C24.0167 51.6337 24.5234 50.4128 25.0568 49.2064C25.1514 48.9954 25.188 48.7632 25.163 48.5336C25.138 48.3039 25.0522 48.0849 24.9144 47.899C23.9491 46.3161 22.9927 44.7292 22.0451 43.1382C21.9582 42.994 21.8786 42.845 21.7869 42.6888L25.7083 38.7859L29.4077 40.9921C29.97 41.3262 30.5347 41.653 31.097 41.9919C31.2722 42.1004 31.4729 42.1613 31.6791 42.1685C31.8853 42.1756 32.0898 42.1288 32.2722 42.0327C33.4707 41.5168 34.6773 41.0202 35.892 40.5427C36.1034 40.4691 36.2917 40.3416 36.4382 40.173C36.5847 40.0043 36.6842 39.8003 36.7269 39.5814C37.1734 37.767 37.6343 35.9549 38.0904 34.1405C38.1314 33.9771 38.1772 33.8136 38.2086 33.6983H43.8024C44.2609 35.5223 44.7676 37.3921 45.1924 39.2786C45.2446 39.6144 45.396 39.9271 45.6272 40.177C45.8584 40.4269 46.1589 40.6027 46.4907 40.6821C47.5311 41.0379 48.5469 41.4618 49.5313 41.951C49.7768 42.0905 50.057 42.1578 50.3393 42.145C50.6217 42.1323 50.8946 42.04 51.1264 41.8789C52.8156 40.8359 54.5435 39.8265 56.2761 38.7908L60.2144 42.7128L57.8013 46.7142C57.5286 47.1685 57.2583 47.6275 56.9784 48.0817C56.8733 48.2486 56.8138 48.4399 56.8058 48.6368C56.7977 48.8336 56.8414 49.0291 56.9325 49.204C57.4538 50.4152 57.9597 51.6329 58.4504 52.8569C58.5268 53.0645 58.6559 53.2488 58.825 53.392C58.9942 53.5352 59.1977 53.6324 59.4157 53.674C61.3897 54.1547 63.3588 54.6521 65.2604 55.116C65.2604 55.3563 65.2604 55.5966 65.2604 55.8225H67.4661V54.6473C67.4661 53.775 67.2248 53.4818 66.3922 53.2703C64.5051 52.7896 62.618 52.321 60.7261 51.8716C60.5784 51.8443 60.4414 51.7759 60.3312 51.6742C60.221 51.5725 60.142 51.4418 60.1034 51.2972C59.8211 50.545 59.505 49.8024 59.172 49.0694C59.1076 48.9524 59.078 48.8195 59.0865 48.6863C59.0951 48.5532 59.1414 48.4251 59.2202 48.3172C60.2241 46.6782 61.1918 45.0175 62.2053 43.3833C62.3411 43.1892 62.4359 42.9695 62.484 42.7378C62.5322 42.5061 62.5326 42.267 62.4853 42.0351L56.9349 36.5077C56.7015 36.4611 56.4611 36.462 56.228 36.5103C55.9949 36.5587 55.7741 36.6534 55.5787 36.7889C53.9546 37.7862 52.2992 38.7355 50.6727 39.7352C50.5426 39.8256 50.3888 39.8763 50.2302 39.881C50.0716 39.8857 49.9151 39.8442 49.7798 39.7617C49.08 39.4348 48.3609 39.144 47.6345 38.8797C47.4892 38.8429 47.3576 38.765 47.2556 38.6554C47.1537 38.5458 47.0859 38.4092 47.0602 38.262C46.6017 36.3611 46.119 34.4649 45.6388 32.5688C45.4409 31.7901 45.1296 31.5522 44.3212 31.5522H37.7019C36.8259 31.5522 36.5339 31.7781 36.3215 32.6192C35.8389 34.4986 35.3707 36.3779 34.9122 38.2596C34.8942 38.4003 34.8349 38.5326 34.7417 38.6399C34.6486 38.7472 34.5257 38.8247 34.3886 38.8628C33.6139 39.1464 32.8537 39.4709 32.1032 39.8097C31.9853 39.8731 31.8516 39.9018 31.7179 39.8925C31.5841 39.8831 31.4558 39.8361 31.3479 39.7569C29.6587 38.7283 27.9695 37.7213 26.2585 36.7095C25.5901 36.3106 25.1919 36.3563 24.6465 36.897L19.8925 41.6314C19.323 42.1985 19.2796 42.5927 19.6971 43.2776C20.713 44.9599 21.7241 46.6638 22.757 48.3436C22.8329 48.4539 22.8757 48.5835 22.8804 48.7171C22.8851 48.8507 22.8515 48.9829 22.7835 49.0983C22.4529 49.8312 22.1344 50.5714 21.8569 51.3285C21.8153 51.4718 21.7331 51.6002 21.6201 51.6983C21.5071 51.7963 21.3681 51.8598 21.2198 51.8812C19.3254 52.3354 17.4407 52.8113 15.5536 53.2847C14.7404 53.4866 14.5063 53.787 14.5039 54.6257V55.8273L16.683 55.8321Z" fill="#272A3D"/>
<path d="M29.1957 55.8321C29.71 52.8144 31.3839 50.1147 33.8627 48.3051C35.2012 47.3271 36.7285 46.6357 38.3484 46.2744C39.9683 45.913 41.6459 45.8897 43.2753 46.2057C44.9048 46.5218 46.4509 47.1704 47.8163 48.1108C49.1816 49.0512 50.3367 50.2629 51.2087 51.6697C52.0098 52.9456 52.5526 54.3654 52.8062 55.8489H54.8985C54.5054 53.1295 53.3102 50.5876 51.4645 48.5455C46.0734 42.5902 36.7441 42.3427 30.9524 47.935C30.243 48.9204 29.4418 49.8576 28.8361 50.903C27.9552 52.4216 27.3645 54.0896 27.0938 55.8225L29.1957 55.8321Z" fill="#272A3D"/>
</g>
<defs>
<clipPath id="clip0_993_8289">
<rect width="82" height="86" fill="white"/>
</clipPath>
</defs>
</svg>
