<svg width="87" height="113" viewBox="0 0 87 113" fill="none" xmlns="http://www.w3.org/2000/svg">
<path d="M23.2518 74.8819C16.8576 74.8819 11.626 69.6576 11.626 63.2723C11.626 56.887 16.8576 51.6627 23.2518 51.6627C29.646 51.6627 34.8776 56.887 34.8776 63.2723C34.8776 69.6576 29.646 74.8819 23.2518 74.8819ZM23.2518 54.9521C18.6015 54.9521 14.92 58.6285 14.92 63.2723C14.92 67.9161 18.6015 71.5925 23.2518 71.5925C27.9021 71.5925 31.5837 67.9161 31.5837 63.2723C31.7774 58.6285 27.9021 54.9521 23.2518 54.9521Z" fill="white"/>
<path d="M1.55011 113C0.775056 113 0 112.226 0 111.452V83.5891C0 80.8802 1.74388 78.3647 4.26281 77.3973L12.9822 74.1079C13.7572 73.7209 14.7261 74.1079 15.1136 75.0754C15.5011 75.8493 15.1136 76.8168 14.1448 77.2038L5.42539 80.4932C4.06904 81.0736 3.10022 82.4281 3.10022 83.7825V111.646C3.10022 112.226 2.51893 113 1.55011 113Z" fill="white"/>
<path d="M44.9537 113C44.1786 113 43.4036 112.226 43.4036 111.452V83.5891C43.4036 82.0411 42.4347 80.8802 41.0784 80.2997L32.359 77.0103C31.584 76.6233 31.1964 75.8494 31.3902 74.8819C31.7777 74.1079 32.5528 73.7209 33.5216 73.9144L42.241 77.2038C44.7599 78.1713 46.5038 80.6867 46.5038 83.3956V111.259C46.6975 112.226 45.9225 113 44.9537 113Z" fill="white"/>
<path d="M9.88214 113C9.10709 113 8.33203 112.226 8.33203 111.452V94.2312C8.33203 93.4572 9.10709 92.6832 9.88214 92.6832C10.6572 92.6832 11.4323 93.4572 11.4323 94.2312V111.452C11.626 112.226 10.851 113 9.88214 113Z" fill="white"/>
<path d="M36.6214 113C35.8463 113 35.0713 112.226 35.0713 111.452V94.2312C35.0713 93.4572 35.8463 92.6832 36.6214 92.6832C37.3965 92.6832 38.1715 93.4572 38.1715 94.2312V111.452C38.1715 112.226 37.5902 113 36.6214 113Z" fill="white"/>
<path d="M63.7479 60.9504C57.3537 60.9504 52.1221 55.7261 52.1221 49.3408C52.1221 42.9555 57.3537 37.7312 63.7479 37.7312C70.1421 37.7312 75.3737 42.9555 75.3737 49.3408C75.3737 55.7261 70.1421 60.9504 63.7479 60.9504ZM63.7479 41.0206C59.0976 41.0206 55.4161 44.697 55.4161 49.3408C55.4161 53.9846 59.0976 57.661 63.7479 57.661C68.3982 57.661 72.0798 53.9846 72.0798 49.3408C72.2735 44.697 68.3982 41.0206 63.7479 41.0206Z" fill="white"/>
<path d="M50.3782 99.0685C49.6032 99.0685 48.8281 98.2945 48.8281 97.5205V80.2997C48.8281 79.5257 49.6032 78.7517 50.3782 78.7517C51.1533 78.7517 51.9283 79.5257 51.9283 80.2997V97.5205C51.9283 98.2945 51.3471 99.0685 50.3782 99.0685Z" fill="white"/>
<path d="M77.1185 99.0685C76.3434 99.0685 75.5684 98.2945 75.5684 97.5205V80.2997C75.5684 79.5257 76.3434 78.7517 77.1185 78.7517C77.8935 78.7517 78.6686 79.5257 78.6686 80.2997V97.5205C78.6686 98.2945 77.8935 99.0685 77.1185 99.0685Z" fill="white"/>
<path d="M44.9531 99.0685C44.178 99.0685 43.403 98.2945 43.403 97.5206V83.589C43.403 82.2346 42.6279 80.8801 41.2716 80.2997C40.6903 80.1062 40.3027 79.5257 40.3027 78.9452V69.6575C40.3027 66.9486 42.0466 64.4332 44.5655 63.4658L53.2849 60.1764C54.06 59.7894 55.0288 60.1764 55.4163 61.1438C55.8038 61.9178 55.4163 62.8853 54.4475 63.2723L45.7281 66.5616C44.3718 67.1421 43.403 68.4966 43.403 69.851V78.1712C45.3406 79.3322 46.3094 81.4606 46.3094 83.7825V97.714C46.6969 98.2945 45.9219 99.0685 44.9531 99.0685Z" fill="white"/>
<path d="M85.4498 99.0685C84.6747 99.0685 83.8997 98.2946 83.8997 97.5206V69.6576C83.8997 68.1096 82.9308 66.9487 81.5745 66.3682L72.8551 63.0788C72.0801 62.6918 71.6925 61.9178 71.8863 60.9504C72.2738 60.1764 73.0489 59.7894 74.0177 59.9829L82.7371 63.2723C85.256 64.2398 86.9999 66.7552 86.9999 69.4641V97.3271C86.9999 98.2945 86.4186 99.0685 85.4498 99.0685Z" fill="white"/>
<path d="M7.55673 53.5976C7.1692 53.5976 6.78167 53.4041 6.58791 53.2106C6.20038 52.8236 5.81285 52.2431 6.00662 51.4691L9.49437 40.44C8.71931 39.0856 8.33178 37.5376 8.33178 35.9897C8.33178 28.6369 17.0512 22.8322 28.0957 22.8322C39.1402 22.8322 47.8596 28.6369 47.8596 35.9897C47.8596 43.3424 39.1402 49.1472 28.0957 49.1472C24.4142 49.1472 20.9264 48.5667 17.8262 47.2123L8.13802 53.0171C8.13802 53.5976 7.94426 53.5976 7.55673 53.5976ZM28.2895 25.928C19.1826 25.928 11.6258 30.5719 11.6258 35.9897C11.6258 37.1506 12.0133 38.3116 12.5946 39.4726C12.7884 39.8596 12.9821 40.2465 12.7884 40.827L10.4632 48.5667L17.2449 44.5034C17.6325 44.3099 18.2137 44.1164 18.795 44.3099C21.7015 45.4709 24.9955 46.2448 28.4832 46.2448C37.5901 46.2448 45.1469 41.601 45.1469 36.1832C44.9532 30.5719 37.2026 25.928 28.2895 25.928Z" fill="white"/>
<path d="M27.902 39.4727C29.6142 39.4727 31.0022 38.0866 31.0022 36.3768C31.0022 34.667 29.6142 33.2809 27.902 33.2809C26.1898 33.2809 24.8018 34.667 24.8018 36.3768C24.8018 38.0866 26.1898 39.4727 27.902 39.4727Z" fill="white"/>
<path d="M37.9782 39.4727C39.6904 39.4727 41.0784 38.0866 41.0784 36.3768C41.0784 34.667 39.6904 33.2809 37.9782 33.2809C36.2659 33.2809 34.8779 34.667 34.8779 36.3768C34.8779 38.0866 36.2659 39.4727 37.9782 39.4727Z" fill="white"/>
<path d="M21.1204 36.3767C21.1204 38.1181 19.764 39.4726 18.0201 39.4726C16.2763 39.4726 14.9199 38.1181 14.9199 36.3767C14.9199 34.6353 16.2763 33.2808 18.0201 33.2808C19.764 33.0873 21.1204 34.6353 21.1204 36.3767Z" fill="white"/>
<path d="M82.5435 30.7654C82.3498 30.7654 81.9622 30.7654 81.7685 30.5719L72.0803 24.7671C68.9801 25.9281 65.4923 26.7021 61.8108 26.7021C50.7662 26.7021 42.0469 20.8973 42.0469 13.5445C42.2406 5.80479 50.7662 0 62.0046 0C73.0491 0 81.7685 5.80479 81.7685 13.1575C81.7685 14.7055 81.3809 16.0599 80.6059 17.6079L84.0936 28.637C84.2874 29.2175 84.0936 29.9914 83.5123 30.3784C83.3186 30.5719 82.9311 30.7654 82.5435 30.7654ZM72.274 21.2842C72.4678 21.2842 72.8553 21.2842 73.0491 21.4777L79.8308 25.5411L77.5057 17.8014C77.3119 17.4144 77.5057 16.8339 77.6994 16.4469C78.4745 15.286 78.6682 14.125 78.6682 12.964C78.6682 7.54623 71.1115 2.9024 62.0046 2.9024C52.8977 2.9024 45.3409 7.54623 45.3409 12.964C45.3409 18.3818 52.8977 23.0257 62.0046 23.0257C65.4923 23.0257 68.7863 22.4452 71.6928 21.0908C71.8865 21.2842 72.0803 21.2842 72.274 21.2842Z" fill="white"/>
<path d="M59.0977 13.5445C59.0977 15.286 60.454 16.6404 62.1979 16.6404C63.9418 16.6404 65.2981 15.286 65.2981 13.5445C65.2981 11.8031 63.9418 10.4487 62.1979 10.4487C60.454 10.2552 59.0977 11.8031 59.0977 13.5445Z" fill="white"/>
<path d="M49.0225 13.5445C49.0225 15.286 50.3788 16.6404 52.1227 16.6404C53.8666 16.6404 55.2229 15.286 55.2229 13.5445C55.2229 11.8031 53.8666 10.4487 52.1227 10.4487C50.3788 10.2552 49.0225 11.8031 49.0225 13.5445Z" fill="white"/>
<path d="M68.9805 13.5445C68.9805 15.286 70.3368 16.6404 72.0807 16.6404C73.8246 16.6404 75.1809 15.286 75.1809 13.5445C75.1809 11.8031 73.8246 10.4487 72.0807 10.4487C70.5306 10.2552 68.9805 11.8031 68.9805 13.5445Z" fill="white"/>
</svg>
