<svg width="63" height="52" viewBox="0 0 63 52" fill="none" xmlns="http://www.w3.org/2000/svg">
<path d="M5.63284 0C5.04391 0 4.50809 0.538539 4.50803 1.13043V4.66304V8.19565L0.430622 12.0109C0.216896 12.2138 0.0907238 12.4928 0.0791214 12.788L0.00882123 14.413C-0.00294041 14.5069 -0.00294041 14.6018 0.00882123 14.6957V15.1902C-0.00294041 15.284 -0.00294041 15.379 0.00882123 15.4728V15.8261C0.00882123 18.3117 2.03493 20.3478 4.50803 20.3478V21.4783V41.8261C4.50754 41.8645 4.50462 41.929 4.50803 41.9674C4.51528 42.042 4.55638 42.107 4.57833 42.1793C4.58974 42.2155 4.56339 42.2161 4.57833 42.25C4.62223 42.354 4.71684 42.4467 4.78923 42.5326C4.81416 42.562 4.83178 42.5761 4.85954 42.6033C4.91328 42.6553 4.9371 42.7039 5.00014 42.7446C5.09501 42.8056 5.24301 42.8565 5.35164 42.8859C5.44892 42.913 5.53213 42.9565 5.63284 42.9565H22.5049V49.7391H15.7561V52H23.4188H39.5878H47.2506V49.7391H40.5017V42.9565H57.3738C57.449 42.9565 57.511 42.9791 57.5847 42.9565C57.6584 42.9339 57.7262 42.9153 57.7956 42.8859C57.8301 42.8633 57.9034 42.8333 57.9362 42.8152C58.0018 42.779 58.0198 42.7237 58.0768 42.6739C58.1346 42.6264 58.2404 42.5914 58.2877 42.5326C58.3097 42.5032 58.2687 42.4936 58.2877 42.462C58.3084 42.4303 58.3406 42.3546 58.358 42.3207C58.376 42.2867 58.414 42.2862 58.4283 42.25C58.4418 42.2161 58.4183 42.1449 58.4283 42.1087C58.4375 42.0725 58.4932 42.0742 58.4986 42.038C58.5049 42.0019 58.4959 41.9329 58.4986 41.8967C58.5011 41.8696 58.4981 41.8532 58.4986 41.8261V21.4783V20.3478C60.9717 20.3478 62.9978 18.3117 62.9978 15.8261V15.4728V15.3315C63.0007 15.2845 63.0007 15.2373 62.9978 15.1902V14.5543V14.4837C63.0007 14.4366 63.0007 14.3894 62.9978 14.3424L62.9275 12.788C62.9159 12.4928 62.7897 12.2138 62.576 12.0109L58.4986 8.19565V1.13043C58.4985 0.538539 57.9627 0 57.3738 0H41.9077H36.354H5.63284ZM6.75764 2.26087H36.354H41.9077H56.249V6.07609L54.9133 4.80435C54.7003 4.61538 54.424 4.51442 54.14 4.52174H29.3943H29.1131H26.0902H8.86665C8.7502 4.50323 8.63159 4.50323 8.51515 4.52174C8.35498 4.58246 8.21072 4.67912 8.09334 4.80435L6.75764 6.07609V4.45109V2.26087ZM9.28845 6.78261H26.3714H29.1131H29.2537H53.7182L57.3035 10.1033L5.56254 10.2446L9.28845 6.78261ZM59.6937 12.3641L60.6779 13.2826L60.7482 14.3424C60.7475 14.3659 60.7475 14.3895 60.7482 14.413V14.5543V15.1902V15.2609C60.7453 15.3079 60.7453 15.3551 60.7482 15.4022V15.4728V15.8261C60.7482 17.0981 59.7643 18.087 58.4986 18.087C57.2328 18.087 56.249 17.0981 56.249 15.8261C56.249 15.5263 56.1304 15.2388 55.9195 15.0268C55.7086 14.8148 55.4225 14.6957 55.1242 14.6957C54.8259 14.6957 54.5398 14.8148 54.3289 15.0268C54.1179 15.2388 53.9994 15.5263 53.9994 15.8261C53.9994 17.0981 53.0155 18.087 51.7498 18.087C50.484 18.087 49.5002 17.0981 49.5002 15.8261C49.5001 15.5263 49.3816 15.2388 49.1707 15.0268C48.9597 14.8148 48.6737 14.6957 48.3754 14.6957C48.0771 14.6957 47.791 14.8148 47.58 15.0268C47.3691 15.2388 47.2506 15.5263 47.2506 15.8261C47.2506 17.0981 46.2667 18.087 45.0009 18.087C43.7352 18.087 42.7513 17.0981 42.7513 15.8261C42.7513 15.5263 42.6328 15.2388 42.4219 15.0268C42.2109 14.8148 41.9248 14.6957 41.6265 14.6957C41.3282 14.6957 41.0422 14.8148 40.8312 15.0268C40.6203 15.2388 40.5018 15.5263 40.5017 15.8261C40.5017 17.0981 39.5179 18.087 38.2521 18.087C36.9864 18.087 36.0025 17.0981 36.0025 15.8261C36.0025 15.5263 35.884 15.2388 35.673 15.0268C35.4621 14.8148 35.176 14.6957 34.8777 14.6957C34.5794 14.6957 34.2933 14.8148 34.0824 15.0268C33.8715 15.2388 33.7529 15.5263 33.7529 15.8261C33.7529 17.0981 32.7691 18.087 31.5033 18.087C30.2376 18.087 29.2537 17.0981 29.2537 15.8261C29.2537 15.5263 29.1352 15.2388 28.9242 15.0268C28.7133 14.8148 28.4272 14.6957 28.1289 14.6957C27.8306 14.6957 27.5445 14.8148 27.3336 15.0268C27.1226 15.2388 27.0041 15.5263 27.0041 15.8261C27.0041 17.0981 26.0202 18.087 24.7545 18.087C23.4888 18.087 22.5049 17.0981 22.5049 15.8261C22.5049 15.5263 22.3863 15.2388 22.1754 15.0268C21.9645 14.8148 21.6784 14.6957 21.3801 14.6957C21.0818 14.6957 20.7957 14.8148 20.5848 15.0268C20.3738 15.2388 20.2553 15.5263 20.2553 15.8261C20.2553 17.0981 19.2714 18.087 18.0057 18.087C16.7399 18.087 15.7561 17.0981 15.7561 15.8261C15.7519 15.529 15.6315 15.2456 15.4211 15.037C15.2106 14.8284 14.9269 14.7115 14.6313 14.7115C14.3357 14.7115 14.052 14.8284 13.8415 15.037C13.631 15.2456 13.5106 15.529 13.5065 15.8261C13.5065 17.0981 12.5226 18.087 11.2569 18.087C9.99111 18.087 9.00725 17.0981 9.00725 15.8261C9.00722 15.5263 8.8887 15.2388 8.67777 15.0268C8.46683 14.8148 8.18075 14.6957 7.88244 14.6957C7.58414 14.6957 7.29806 14.8148 7.08712 15.0268C6.87618 15.2388 6.75767 15.5263 6.75764 15.8261C6.75764 17.0981 5.77377 18.087 4.50803 18.087C3.2423 18.087 2.25843 17.0981 2.25843 15.8261V15.4728V15.4022C2.26136 15.3551 2.26136 15.3079 2.25843 15.2609V15.1902V14.6957V14.4837L2.32873 13.2826L3.17233 12.5054L59.6937 12.3641ZM7.88244 18.5109C8.70831 19.5649 9.82751 20.3478 11.2569 20.3478C12.6862 20.3478 13.8054 19.5649 14.6313 18.5109C15.4571 19.5649 16.5763 20.3478 18.0057 20.3478C19.435 20.3478 20.5542 19.5649 21.3801 18.5109C22.2059 19.5649 23.3251 20.3478 24.7545 20.3478C26.1838 20.3478 27.303 19.5649 28.1289 18.5109C28.9548 19.5649 30.074 20.3478 31.5033 20.3478C32.9327 20.3478 34.0519 19.5649 34.8777 18.5109C35.7036 19.5649 36.8228 20.3478 38.2521 20.3478C39.6815 20.3478 40.8007 19.5649 41.6265 18.5109C42.4524 19.5649 43.5716 20.3478 45.0009 20.3478C46.4303 20.3478 47.5495 19.5649 48.3754 18.5109C49.2012 19.5649 50.3204 20.3478 51.7498 20.3478C53.1791 20.3478 54.2983 19.5649 55.1242 18.5109C55.44 18.914 55.8464 19.2755 56.249 19.5707V20.3478V33.913H6.75764V21.4783V20.3478V19.5707C7.16022 19.2755 7.56661 18.914 7.88244 18.5109ZM6.75764 36.1739H56.249V40.6957H6.75764V36.1739ZM24.7545 42.9565H38.2521V49.7391H24.7545V42.9565Z" fill="black"/>
</svg>
