<svg width="90" height="18" viewBox="0 0 90 18" fill="none" xmlns="http://www.w3.org/2000/svg">
<path d="M8.14319 1.42372C8.53185 0.777901 9.46815 0.777901 9.85681 1.42372L11.744 4.55957C11.8836 4.79158 12.1114 4.95705 12.3752 5.01814L15.9407 5.84393C16.675 6.014 16.9643 6.90447 16.4702 7.47367L14.071 10.2375C13.8935 10.442 13.8065 10.7097 13.83 10.9795L14.1464 14.6257C14.2116 15.3766 13.4541 15.927 12.7601 15.633L9.39009 14.2053C9.14076 14.0996 8.85924 14.0996 8.60991 14.2053L5.23995 15.633C4.54591 15.927 3.78843 15.3766 3.8536 14.6257L4.17005 10.9795C4.19346 10.7097 4.10647 10.442 3.92896 10.2375L1.52976 7.47367C1.03565 6.90447 1.32499 6.014 2.0593 5.84393L5.62483 5.01814C5.88864 4.95705 6.11639 4.79158 6.25601 4.55957L8.14319 1.42372Z" fill="#F8B820"/>
<path d="M26.1432 1.42372C26.5319 0.777901 27.4681 0.777901 27.8568 1.42372L29.744 4.55957C29.8836 4.79158 30.1114 4.95705 30.3752 5.01814L33.9407 5.84393C34.675 6.014 34.9643 6.90447 34.4702 7.47367L32.071 10.2375C31.8935 10.442 31.8065 10.7097 31.83 10.9795L32.1464 14.6257C32.2116 15.3766 31.4541 15.927 30.7601 15.633L27.3901 14.2053C27.1408 14.0996 26.8592 14.0996 26.6099 14.2053L23.2399 15.633C22.5459 15.927 21.7884 15.3766 21.8536 14.6257L22.17 10.9795C22.1935 10.7097 22.1065 10.442 21.929 10.2375L19.5298 7.47367C19.0357 6.90447 19.325 6.014 20.0593 5.84393L23.6248 5.01814C23.8886 4.95705 24.1164 4.79158 24.256 4.55957L26.1432 1.42372Z" fill="#F8B820"/>
<path d="M44.1432 1.42372C44.5319 0.777901 45.4681 0.777901 45.8568 1.42372L47.744 4.55957C47.8836 4.79158 48.1114 4.95705 48.3752 5.01814L51.9407 5.84393C52.675 6.014 52.9643 6.90447 52.4702 7.47367L50.071 10.2375C49.8935 10.442 49.8065 10.7097 49.83 10.9795L50.1464 14.6257C50.2116 15.3766 49.4541 15.927 48.7601 15.633L45.3901 14.2053C45.1408 14.0996 44.8592 14.0996 44.6099 14.2053L41.2399 15.633C40.5459 15.927 39.7884 15.3766 39.8536 14.6257L40.17 10.9795C40.1935 10.7097 40.1065 10.442 39.929 10.2375L37.5298 7.47367C37.0357 6.90447 37.325 6.014 38.0593 5.84393L41.6248 5.01814C41.8886 4.95705 42.1164 4.79158 42.256 4.55957L44.1432 1.42372Z" fill="#F8B820"/>
<path d="M62.1432 1.42372C62.5319 0.777901 63.4681 0.777901 63.8568 1.42372L65.744 4.55957C65.8836 4.79158 66.1114 4.95705 66.3752 5.01814L69.9407 5.84393C70.675 6.014 70.9643 6.90447 70.4702 7.47367L68.071 10.2375C67.8935 10.442 67.8065 10.7097 67.83 10.9795L68.1464 14.6257C68.2116 15.3766 67.4541 15.927 66.7601 15.633L63.3901 14.2053C63.1408 14.0996 62.8592 14.0996 62.6099 14.2053L59.2399 15.633C58.5459 15.927 57.7884 15.3766 57.8536 14.6257L58.17 10.9795C58.1935 10.7097 58.1065 10.442 57.929 10.2375L55.5298 7.47367C55.0357 6.90447 55.325 6.014 56.0593 5.84393L59.6248 5.01814C59.8886 4.95705 60.1164 4.79158 60.256 4.55957L62.1432 1.42372Z" fill="#F8B820"/>
<path d="M80.1432 1.42372C80.5319 0.777901 81.4681 0.777901 81.8568 1.42372L83.744 4.55957C83.8836 4.79158 84.1114 4.95705 84.3752 5.01814L87.9407 5.84393C88.675 6.014 88.9643 6.90447 88.4702 7.47367L86.071 10.2375C85.8935 10.442 85.8065 10.7097 85.83 10.9795L86.1464 14.6257C86.2116 15.3766 85.4541 15.927 84.7601 15.633L81.3901 14.2053C81.1408 14.0996 80.8592 14.0996 80.6099 14.2053L77.2399 15.633C76.5459 15.927 75.7884 15.3766 75.8536 14.6257L76.17 10.9795C76.1935 10.7097 76.1065 10.442 75.929 10.2375L73.5298 7.47367C73.0357 6.90447 73.325 6.014 74.0593 5.84393L77.6248 5.01814C77.8886 4.95705 78.1164 4.79158 78.256 4.55957L80.1432 1.42372Z" fill="#F8B820"/>
</svg>
