<svg width="113" height="99" viewBox="0 0 113 99" fill="none" xmlns="http://www.w3.org/2000/svg">
<path d="M106.713 51.9381C106.834 52.0344 106.931 52.1066 107.04 52.1909C107.064 52.6364 107.137 53.0939 106.98 53.5513C106.967 53.5875 106.955 53.6356 106.955 53.6717C107.052 54.358 106.749 54.972 106.555 55.586C106.349 56.2361 106.034 56.8742 105.597 57.428C105.331 57.7531 105.1 58.1022 104.821 58.4152C104.676 58.5717 104.47 58.6681 104.288 58.7764C104.13 58.8727 103.961 58.969 103.791 59.0653C103.827 59.2339 103.839 59.3543 103.864 59.4867C103.366 60.0285 103.039 60.6786 102.712 61.3408C102.518 61.7381 102.336 62.1354 102.093 62.6531C102.093 63.2189 102.093 63.9413 102.093 64.6636C102.093 65.1813 102.178 65.687 102.275 66.1926C102.457 67.1798 102.518 68.1911 102.384 69.2265C102.227 70.4184 101.79 71.4779 101.196 72.4892C100.784 73.1875 100.226 73.7654 99.62 74.2951C98.9774 74.873 98.2378 75.3064 97.4376 75.6435C96.4312 76.0528 95.4855 76.5705 94.7096 77.329C93.8002 78.2079 93.0606 79.2071 92.6363 80.4111C92.4059 81.0491 92.2362 81.6993 92.1271 82.3614C92.0543 82.7708 91.8967 83.1681 91.7391 83.5533C91.1935 84.9138 90.3205 86.0334 89.1929 86.9484C89.0111 87.0929 88.7807 87.1892 88.5867 87.3096C88.4412 87.1892 88.32 87.0929 88.2109 87.0086C87.932 87.1651 88.0896 87.442 87.9562 87.7069C87.6653 87.9958 87.1803 88.0921 86.7559 88.2848C86.1255 88.5737 85.4222 88.5256 84.7796 88.7423C84.525 88.8265 84.2219 88.7663 83.9309 88.7663C83.1065 88.7663 82.3062 88.8265 81.506 89.0794C80.7664 89.2961 80.1238 89.6572 79.4327 89.9462C79.0811 89.6934 78.9841 89.1877 78.5113 89.0553C78.0748 89.2118 77.6383 89.4285 77.1776 88.983C77.0564 88.6219 77.0442 88.1644 76.6926 87.8032C76.438 87.8634 76.1713 87.9236 75.8803 87.9838C75.7712 88.2848 75.6499 88.5737 75.7227 88.8988C76.0015 88.9951 76.2804 89.0553 76.5107 89.1997C76.729 89.3322 76.8745 89.573 77.0806 89.7415C77.3716 89.9823 77.6989 90.1629 78.0869 90.2231C78.1597 90.2351 78.2445 90.2592 78.3173 90.2833C78.3294 90.2833 78.3537 90.3074 78.4143 90.3555C78.4264 90.4639 78.4385 90.6083 78.4507 90.6926C77.9778 91.2103 77.5413 91.6799 77.0442 92.2337C77.0079 92.2457 76.8624 92.3059 76.6926 92.3661C76.6684 92.5587 76.6441 92.7273 76.6077 92.956C76.244 93.3533 75.8682 93.8108 75.4438 94.2322C74.9224 94.7378 74.3162 95.1111 73.6615 95.4241C72.5339 95.9779 71.3457 96.3391 70.0605 96.3631C69.1269 96.3872 68.2176 96.2187 67.3325 95.9779C66.7021 95.7973 66.108 95.5204 65.4896 95.2796C65.3926 95.2435 65.3077 95.1833 65.2108 95.1712C64.3863 95.1231 63.5618 95.0147 62.7495 95.0509C61.4764 95.099 60.2882 95.5083 59.1849 96.1705C58.4696 96.6039 57.8027 97.0855 57.0146 97.3985C56.3963 97.6393 55.7779 97.8079 55.1353 97.9162C54.7958 97.9764 54.4685 98.0246 54.129 98.0366C53.8744 98.0486 53.6076 98.0125 53.353 97.9764C52.9165 97.9282 52.4801 97.8921 52.0436 97.8079C51.1949 97.6393 50.3825 97.3383 49.6551 96.8929C48.964 96.4715 48.3335 95.9297 47.7394 95.3639C46.9271 94.5934 46.0177 94.0155 44.9871 93.5941C43.702 93.0764 42.3683 93.0523 41.0224 93.1125C40.9255 93.1125 40.8285 93.1486 40.7315 93.1727C40.3192 93.2811 39.9191 93.3533 39.4826 93.3533C39.0825 93.3533 38.6824 93.4496 38.2823 93.4496C37.8822 93.4376 37.4942 93.3533 37.0214 93.2931C36.9365 93.2209 36.8031 93.1125 36.6455 92.9801C36.1484 93.1848 35.7119 93.0042 35.2391 92.8115C34.7905 92.631 34.3782 92.4022 33.9781 92.1494C33.7963 92.029 33.6386 91.8845 33.4568 91.74C33.4568 91.4872 33.4568 91.2464 33.4568 91.0056C33.2022 91.0899 32.9718 91.1501 32.7536 91.2224C32.0261 90.6565 31.5896 89.9221 31.1289 89.1877C30.947 88.8988 30.8379 88.5857 30.7045 88.2848C30.2923 87.3698 29.7952 86.515 29.0799 85.7926C28.4615 85.1786 27.831 84.6128 27.0672 84.1794C26.5095 83.8663 25.9275 83.6135 25.297 83.4811C24.909 83.4088 24.6181 83.2764 24.4362 82.9152C24.4119 82.8671 24.3634 82.8189 24.2907 82.7346C24.0603 82.8671 23.8421 82.9875 23.6238 83.1079C20.908 82.3735 18.6164 79.9536 18.2285 78.0754C18.4467 78.1115 18.6407 78.1477 18.8468 78.1838C18.3861 77.7383 17.9375 77.329 17.7435 76.715C17.695 76.5705 17.695 76.402 17.6829 76.3056C17.8405 76.0287 17.9617 75.8 18.1436 75.4749C17.9738 75.3305 17.8284 75.2101 17.6465 75.0536C17.7556 74.885 17.9617 74.7285 18.2527 74.6563C18.8832 74.4877 19.5137 74.283 20.132 74.0784C20.7988 73.8737 21.4657 73.657 22.1325 73.4644C22.4235 73.3801 22.7145 73.3319 23.0661 73.2477C23.1995 73.3801 23.3571 73.5246 23.4905 73.6931C24.0482 74.3914 24.6059 75.0897 25.1515 75.8C26.17 77.1002 27.3461 78.244 28.5343 79.3877C29.0677 79.9054 29.674 80.3268 30.2074 80.8445C30.8621 81.4705 31.5775 82.0123 32.305 82.542C33.1415 83.156 34.0024 83.7219 34.8632 84.2997C36.1242 85.1425 37.5064 85.7926 38.8037 86.5511C39.519 86.9725 40.3314 87.2494 41.0952 87.5744C41.7014 87.8273 42.2955 88.1042 42.926 88.3088C43.702 88.5496 44.4537 88.8867 45.2539 89.0553C45.7389 89.1516 46.1996 89.3563 46.6846 89.4767C47.3999 89.6572 48.1153 89.8258 48.8306 89.9943C48.964 90.0305 49.0973 90.0545 49.2428 90.0786C49.4974 90.1268 49.7521 90.187 49.9945 90.2351C50.5644 90.3314 51.1343 90.4278 51.7041 90.5241C51.7405 90.5361 51.7768 90.5602 51.8132 90.5722C52.7347 90.6685 53.644 90.7769 54.5655 90.8371C55.2444 90.8853 55.9355 90.8371 56.6266 90.8612C56.8812 90.8612 57.1359 90.9214 57.4026 90.9454C57.5238 90.9575 57.6451 90.9816 57.7663 90.9575C58.7484 90.7649 59.7426 90.9093 60.7247 90.8491C61.1976 90.813 61.6825 90.7408 62.1554 90.6806C62.313 90.6565 62.4706 90.6324 62.6282 90.6084C63.2223 90.5241 63.8164 90.4518 64.4105 90.3676C64.75 90.3194 65.0895 90.2833 65.4169 90.2472C65.5381 90.2351 65.6715 90.2472 65.7685 90.199C66.3262 89.9341 66.9324 89.9341 67.5386 89.8619C67.6478 89.7897 67.7569 89.7174 67.866 89.6572C68.0964 89.6572 68.2904 89.6572 68.5329 89.6572C68.5692 89.8499 68.6056 90.0305 68.6541 90.2472C68.739 90.2231 68.8117 90.199 68.8845 90.1749C68.8723 89.9582 68.8602 89.7776 68.8481 89.6091C69.0663 89.3322 69.2846 89.3924 69.4907 89.5128C69.5634 89.8499 69.6241 90.1509 69.6847 90.5C69.818 90.4037 69.9029 90.3435 69.9878 90.2953C70.303 90.2833 70.4849 90.5 70.7031 90.8612C70.7153 90.6204 70.7638 90.5 70.7274 90.4278C70.6061 90.199 70.4485 89.9943 70.2909 89.7897C70.1697 89.6211 70.0242 89.4646 69.8908 89.2961C70.2545 89.0192 73.2129 87.9356 74.0737 87.743C74.1222 87.8393 74.1707 87.9356 74.2192 88.044C74.4496 88.044 74.68 88.044 74.9588 88.044C74.9831 87.7911 75.0073 87.5744 75.0316 87.2494C75.0801 87.2012 75.2013 87.0929 75.3226 86.9845C75.4923 87.0327 75.6257 87.0688 75.7712 87.1049C75.9894 86.9604 76.2319 86.816 76.4501 86.6595C76.5956 86.5631 76.7047 86.4066 76.8624 86.3344C77.7232 85.8769 78.5719 85.3953 79.4085 84.9137C81.0574 83.9626 82.573 82.843 84.0885 81.6872C85.7981 80.387 87.3136 78.9061 88.7686 77.3531C90.1386 75.8963 91.3875 74.3432 92.4787 72.6698C93.0849 71.7307 93.7275 70.8157 94.2852 69.8526C95.0975 68.444 95.825 66.9752 96.4676 65.4823C96.7465 64.8201 97.0375 64.17 97.28 63.4958C97.6437 62.4484 97.971 61.401 98.2984 60.3415C98.5045 59.6432 98.7349 58.9329 98.844 58.2106C98.9774 57.4039 99.3169 56.6454 99.2805 55.8147C99.2805 55.6943 99.3169 55.5739 99.3411 55.4656C99.4502 55.0563 99.523 54.659 99.523 54.2255C99.523 53.8523 99.5957 53.4791 99.6442 53.1059C99.6806 52.7327 99.7291 52.3595 99.7655 51.9862C99.8261 51.2518 99.8625 50.5174 99.9231 49.7108C100.056 49.6386 100.226 49.5302 100.408 49.47C101.233 49.2172 102.057 48.9884 102.869 48.7356C103.33 48.5911 103.767 48.4226 104.227 48.2781C104.555 48.1818 104.882 48.1216 105.221 48.0494C105.597 48.0855 105.743 48.4106 105.9 48.6634C106.373 49.4339 106.64 50.2887 106.895 51.1435C107.004 51.3361 106.931 51.5649 106.713 51.9381ZM71.7943 90.8251C71.661 90.9816 71.5518 91.114 71.4427 91.2464C71.4306 91.4631 71.4063 91.6678 71.6973 91.7641C71.8671 91.6197 72.0368 91.4752 72.2308 91.3187C72.4976 91.5715 72.5945 91.1622 72.8128 91.1983C72.8977 91.2585 72.9947 91.3187 73.0795 91.3789C73.3099 90.9334 73.1401 90.5361 73.0674 90.1388C73.031 89.9582 72.8977 89.7897 72.8007 89.6332C72.6915 89.6332 72.6067 89.6332 72.5824 89.6332C72.3036 89.8378 72.0489 90.0305 71.7943 90.2231C71.7943 90.3796 71.7943 90.5843 71.7943 90.8251ZM65.3441 93.6663C65.2714 93.558 65.1986 93.4496 65.138 93.3292C64.459 93.3533 63.7922 93.2931 63.1617 93.3774C63.0284 93.6423 63.0041 93.8349 63.1617 94.0757C63.4527 94.0275 63.7558 93.9312 64.0347 93.9432C64.3499 93.9673 64.653 94.0877 64.9561 94.172C64.9925 94.184 65.041 94.172 65.0774 94.16C65.1138 94.1479 65.1501 94.1359 65.1986 94.1118C65.2471 93.9794 65.2956 93.8349 65.3441 93.6663ZM74.5951 88.5135C74.1222 88.9108 74.4375 89.3322 74.486 89.7415C74.486 89.7656 74.5466 89.7897 74.6557 89.886C74.7648 89.7656 74.874 89.6452 74.9224 89.597C74.9224 89.1997 74.9224 88.9228 74.9224 88.6339C74.777 88.5857 74.68 88.5496 74.5951 88.5135ZM76.2561 91.3909C76.147 90.7408 75.565 90.6083 75.2134 90.1629C75.1286 90.3435 75.0922 90.4518 75.0437 90.5602C75.3832 90.9214 75.6257 91.3789 76.2561 91.3909ZM21.0898 75.6916C20.8958 75.499 20.7018 75.3545 20.3866 75.4509C20.4472 75.7518 20.4472 76.0408 20.7382 76.2454C20.9322 76.1251 21.1141 76.0167 21.0898 75.6916ZM46.8543 91.1501C46.7573 90.9455 46.7088 90.813 46.6603 90.7047C46.333 90.7047 46.0541 90.7047 45.751 90.7047C45.9329 91.2464 46.3451 91.1622 46.8543 91.1501Z" fill="white"/>
<path d="M15.306 46.5324C14.2512 46.8816 13.2449 47.2548 12.2022 47.5317C11.1595 47.8086 10.1653 48.1939 9.11044 48.4347C8.7952 48.2541 8.67396 47.9892 8.60121 47.6521C8.46784 47.0983 8.3466 46.5324 8.2981 45.9546C8.26173 45.5332 8.26173 45.1118 8.27385 44.6904C8.28598 44.3895 8.33448 44.1005 8.37085 43.7995C8.3951 43.6069 8.4436 43.4143 8.49209 43.2216C8.62546 42.7882 8.74671 42.3548 8.9407 41.9334C9.30443 41.1027 9.78941 40.3683 10.3956 39.7062C10.8685 39.1885 11.3413 38.6708 11.7536 38.117C12.2143 37.503 12.5538 36.8288 12.7963 36.1064C12.966 35.6248 13.1358 35.1192 13.1843 34.6135C13.2449 33.9152 13.2206 33.2049 13.1964 32.5066C13.1843 32.2418 13.063 31.9649 12.9903 31.7C12.8205 31.0981 12.8933 30.472 12.8448 29.858C12.772 28.943 13.0266 28.0762 13.2449 27.2094C13.354 26.7759 13.6329 26.3786 13.839 25.9693C14.1542 25.3433 14.5786 24.7895 15.0514 24.2838C15.6092 23.6818 16.2396 23.1521 16.9792 22.7789C17.4642 22.5381 17.9734 22.3455 18.4463 22.0926C19.4769 21.5388 20.4953 20.985 21.1743 19.9978C21.4168 19.6366 21.7441 19.3236 21.9745 18.9504C22.411 18.216 22.7868 17.4695 22.9323 16.6027C23.0657 15.8322 23.3203 15.0617 23.5992 14.3273C23.878 13.5929 24.266 12.9066 24.7874 12.3288C25.5997 11.4138 26.5212 10.6433 27.6609 10.1015C28.449 9.72827 29.2734 9.53564 30.0858 9.33097C30.5586 9.21058 31.0921 9.28282 31.5892 9.29486C32.0499 9.3069 32.4985 9.19854 32.9593 9.12631C33.808 9.00591 34.5839 8.68085 35.3357 8.30763C35.8691 8.04277 36.3541 7.68159 36.8148 7.30837C37.5666 6.69437 38.1122 5.89977 38.6578 5.10518C39.2519 4.25038 39.9914 3.54007 40.9008 2.98626C41.4343 2.6612 41.9799 2.38429 42.5376 2.14351C42.8892 1.99903 43.2529 1.8666 43.6288 1.83048C44.3684 1.74621 45.108 1.72213 45.8597 1.69805C46.7811 1.66193 47.642 1.89068 48.4786 2.22778C49.0969 2.48061 49.7395 2.76955 50.3942 2.85382C51.1217 2.95014 51.8613 3.17889 52.6009 2.91402C53.2071 3.01034 53.7527 2.75751 54.3104 2.61304C55.0985 2.40837 55.8502 2.04719 56.5171 1.57766C57.2931 1.03589 58.1175 0.578395 59.0269 0.337608C59.5725 0.193137 60.1302 -0.0115316 60.7243 0.000507737C61.0274 0.012547 61.3305 0.000507737 61.6336 0.000507737C63.4402 0.012547 65.0406 0.578395 66.4591 1.67397C66.9199 2.02311 67.3321 2.43245 67.7565 2.82975C68.3384 3.38355 69.0417 3.76881 69.757 4.12999C70.3147 4.4069 70.9088 4.58749 71.5029 4.744C71.6242 4.78011 71.7333 4.79215 71.8545 4.80419C72.2061 4.85235 72.5699 4.88847 72.9215 4.92459C73.1034 4.93663 73.2852 4.94866 73.4671 4.92459C74.2916 4.81623 75.1281 4.71992 75.9526 4.56341C76.6195 4.43097 77.262 4.44301 77.9168 4.57545C78.8018 4.75604 79.6869 4.88847 80.475 5.358C80.7418 5.51451 80.9964 5.71918 81.3722 5.98405C81.833 6.02016 82.221 6.4295 82.5726 6.86292C82.7181 7.03147 82.8757 7.1639 83.0333 7.30837C83.3485 7.62139 83.6395 7.94645 83.8699 8.31967C84.2215 8.89756 84.5125 9.51156 84.7913 10.1256C85.3006 11.2573 86.028 12.2445 87.0101 12.9909C87.8709 13.6531 88.8288 14.1708 89.92 14.4718C90.4898 14.6283 91.0839 14.7246 91.6659 14.8811C92.6965 15.17 93.5816 15.6637 94.4303 16.2777C95.4245 17 96.1641 17.9391 96.7582 18.9865C97.0613 19.5403 97.2432 20.1543 97.4614 20.7563C97.4978 20.8646 97.4614 20.9971 97.4614 21.1175C97.3644 21.2017 97.2917 21.3221 97.1825 21.3582C96.8067 21.4786 96.4187 21.5629 96.0428 21.6713C95.6427 21.7917 95.2426 21.9361 94.8425 22.0445C94.1757 22.2371 93.4967 22.4418 92.842 22.6585C92.2358 22.8511 91.6053 22.9595 91.0354 23.2484C90.7687 22.9474 90.502 22.6946 90.2958 22.4177C89.7018 21.6352 89.0228 20.9248 88.3317 20.2266C88.0407 19.9256 87.7982 19.5764 87.483 19.2995C86.3069 18.216 85.1308 17.1324 83.8699 16.1452C83.0697 15.5192 82.2452 14.9052 81.3965 14.3514C80.2325 13.5809 79.0322 12.8465 77.8076 12.1723C76.8013 11.6064 75.7465 11.1128 74.7038 10.6312C73.9521 10.2821 73.1761 9.95702 72.3759 9.71623C71.6363 9.49953 70.9452 9.12631 70.1571 8.99387C69.8055 8.93368 69.4781 8.77717 69.1387 8.65677C68.4597 8.42803 67.7565 8.28355 67.0532 8.15112C66.7986 8.10296 66.5561 7.97053 66.3015 7.93441C65.4892 7.8381 64.7011 7.58527 63.8766 7.54916C63.4038 7.52508 62.9309 7.39264 62.4581 7.32041C62.1186 7.27225 61.7791 7.23613 61.4396 7.21206C60.5424 7.1639 59.6331 7.1037 58.7359 7.09166C57.8265 7.06758 56.9172 7.06758 56.0079 7.09166C55.0985 7.11574 54.2013 7.15186 53.3041 7.22409C52.7343 7.27225 52.1644 7.41672 51.5946 7.51304C50.9035 7.62139 50.2124 7.71771 49.5213 7.81402C49.4 7.82606 49.2788 7.8381 49.1697 7.87422C48.5513 8.10296 47.8723 8.09093 47.2661 8.39191C46.3568 8.41599 45.5323 8.83736 44.6715 9.06611C43.6773 9.31893 42.7558 9.82459 41.7737 10.1376C40.7432 10.4747 39.7853 10.9804 38.8154 11.4258C37.9424 11.8352 37.0937 12.2926 36.2692 12.7742C35.3963 13.2799 34.5476 13.8457 33.711 14.3995C31.9651 15.5673 30.304 16.8435 28.8127 18.3243C28.546 18.5892 28.2186 18.8059 27.9519 19.0828C26.3514 20.7563 24.7631 22.4538 23.4294 24.356C22.6656 25.4516 21.8654 26.5231 21.2107 27.6909C20.7257 28.5578 20.2043 29.3885 19.8163 30.3155C19.5254 31.0138 19.1131 31.6519 18.8221 32.3501C18.4342 33.2651 18.1068 34.1922 17.7673 35.1192C17.4884 35.8897 17.2096 36.6482 16.9913 37.4307C16.8216 37.9966 16.6034 38.5504 16.5549 39.1524C16.5306 39.3811 16.3851 39.5978 16.3487 39.8386C16.2033 40.6211 16.0941 41.4037 15.9608 42.1863C15.888 42.6558 15.7789 43.1253 15.7183 43.5949C15.6577 44.0885 15.6455 44.5821 15.597 45.0877C15.5607 45.4369 15.5122 45.7981 15.4394 46.1472C15.4637 46.3278 15.3667 46.4361 15.306 46.5324Z" fill="white"/>
<path d="M69.3447 33.831C70.0236 33.6143 70.642 33.4096 71.2603 33.217C71.8908 33.0244 72.5213 32.8438 73.1517 32.6632C73.2366 32.6391 73.3457 32.6632 73.4548 32.6752C73.6246 33.0485 73.8186 33.3735 73.8792 33.7829C73.9277 34.144 74.0974 34.5052 74.2187 34.8543C74.4006 35.3841 74.5824 35.9018 74.7643 36.4315C74.8734 36.7445 74.9583 37.0816 75.0553 37.3946C75.322 38.2615 75.5888 39.1403 75.8555 40.0072C76.0374 40.6091 76.2071 41.2231 76.4011 41.8251C76.6072 42.4873 76.8376 43.1374 77.0437 43.7996C77.2377 44.4256 77.4196 45.0516 77.6135 45.6777C77.6984 45.9426 77.7833 46.2074 77.8682 46.4723C78.0258 46.9177 78.1834 47.3632 78.3289 47.8207C78.4986 48.3625 78.632 48.9163 78.826 49.458C78.9715 49.8794 79.0079 50.3489 79.2625 50.7342C79.2625 51.3723 79.7838 51.902 79.6505 52.6123C79.505 52.6966 79.3474 52.7809 79.1897 52.8652C79.1049 52.9133 79.0079 52.9494 78.9109 52.9735C77.7227 53.2263 76.6072 53.744 75.3826 53.9848C75.2493 53.8042 75.1159 53.6598 75.0189 53.4912C74.3399 52.3475 73.6731 51.1917 73.0062 50.0359C72.3636 48.9403 71.721 47.8448 71.0785 46.7492C71.03 46.677 71.0057 46.5806 70.9572 46.4482C70.7632 46.677 70.7996 46.8696 70.8723 47.0502C71.0542 47.5679 71.2361 48.0976 71.3694 48.6153C71.5634 49.3497 71.8423 50.048 72.0363 50.7703C72.1939 51.3482 72.3879 51.902 72.5576 52.4679C72.7516 53.0939 72.9335 53.72 73.1032 54.346C73.1275 54.4303 73.0911 54.5386 73.079 54.6951C72.4 54.9239 71.7332 55.2008 71.0421 55.3573C70.2782 55.5259 69.5508 55.9111 68.7142 55.9833C68.4717 55.261 68.2413 54.5868 68.0231 53.9126C67.8533 53.3829 67.6836 52.8531 67.5138 52.3234C67.3926 51.9261 67.2835 51.5288 67.1622 51.1315C66.8713 50.1804 66.5681 49.2413 66.2771 48.2902C66.1559 47.8809 66.0832 47.4354 65.9255 47.0381C65.7315 46.5566 65.6346 46.0629 65.4163 45.5934C65.2223 45.1841 65.1253 44.7266 65.0041 44.2932C64.8828 43.8959 64.798 43.4865 64.6767 43.0892C64.4706 42.391 64.2402 41.6927 64.022 40.9944C63.731 40.0433 63.4521 39.0922 63.149 38.1531C63.0035 37.6836 62.8217 37.2141 62.6762 36.7445C62.6034 36.5037 62.5792 36.2509 62.5186 35.9379C63.0399 35.7573 63.5249 35.5767 64.022 35.4202C64.5312 35.2516 65.0405 35.0951 65.5618 34.9386C65.9619 34.8182 66.3863 34.7942 66.75 34.5774C66.8349 34.5293 66.9804 34.5654 67.1622 34.5654C67.3562 34.8543 67.5745 35.1433 67.7442 35.4443C68.5202 36.8408 69.2962 38.2374 70.0479 39.646C70.3874 40.2961 70.8238 40.886 71.1876 41.5241C71.2118 41.5723 71.2482 41.6204 71.2967 41.7168C71.5271 41.3556 71.3331 41.1028 71.2603 40.874C70.9208 39.6942 70.5328 38.5263 70.1691 37.3465C69.8903 36.4556 69.5993 35.5767 69.3204 34.6858C69.1507 34.2283 69.1507 34.1922 69.3447 33.831ZM72.1333 35.9138C71.915 36.1787 71.7453 36.4797 71.3694 36.5519C71.2967 36.5639 71.2361 36.6964 71.1997 36.7806C71.1754 36.8288 71.2118 36.889 71.2239 36.9733C71.3694 36.9372 71.4907 36.9131 71.6604 36.877C71.7453 37.1057 71.8302 37.3224 71.915 37.5391C71.9635 37.9244 71.3088 37.9485 71.4664 38.4059C71.9393 38.418 72.3758 38.6467 72.885 38.4541C73.3336 38.2856 73.7822 38.1411 74.1096 37.7197C73.9035 36.9251 73.5397 36.2509 72.7274 35.9018C72.5334 35.9138 72.3273 35.9138 72.1333 35.9138ZM72.497 34.0598C72.1454 34.4089 72.0848 34.746 72.1939 35.1553C72.4243 35.1072 72.6304 35.059 72.8486 35.0109C72.8486 34.8062 72.8486 34.6136 72.8486 34.3969C72.7516 34.3005 72.6425 34.2042 72.497 34.0598Z" fill="white"/>
<path d="M37.482 43.643C37.7851 43.5347 38.0761 43.4263 38.3792 43.33C39.2037 43.0892 40.0524 42.9207 40.8405 42.6077C41.2042 42.4632 41.6044 42.391 41.9681 42.2345C42.4288 42.0298 42.9502 41.9335 43.4351 41.801C43.4958 41.789 43.5564 41.789 43.6049 41.7529C44.1626 41.3917 44.8416 41.4519 45.4478 41.2352C45.763 41.1268 46.1631 41.2472 46.5148 41.2954C46.8057 41.3435 47.0967 41.4278 47.3756 41.5482C47.9576 41.777 48.3819 42.2465 48.7093 42.7401C49.0851 43.318 49.3761 43.9561 49.655 44.5942C49.9581 45.3286 50.1642 46.0991 50.3946 46.8575C50.5886 47.4716 50.6007 48.0856 50.528 48.6996C50.4795 49.133 50.2976 49.5905 49.9581 49.9276C49.8369 50.06 49.7156 50.1924 49.558 50.361C49.6792 50.4332 49.7641 50.5295 49.8611 50.5416C50.8674 50.7703 51.4373 51.4566 51.7525 52.3475C52.2011 53.6236 52.577 54.9119 52.9771 56.2001C53.1468 56.7418 53.353 57.2836 53.5227 57.8374C53.6561 58.2467 53.7409 58.6802 53.8622 59.1015C53.9349 59.3544 54.0319 59.5831 54.1047 59.8359C54.1532 60.0286 54.1653 60.2212 54.1895 60.3897C53.7409 60.8111 53.2075 60.8232 52.7104 60.9436C52.577 60.9797 52.4194 60.9676 52.3103 61.0399C51.7768 61.377 51.1342 61.4251 50.5643 61.6659C50.3703 61.7502 50.14 61.7622 49.9096 61.8104C49.7884 61.6659 49.6429 61.5696 49.5944 61.4251C49.364 60.6546 49.1943 59.848 48.9154 59.0895C48.7457 58.6079 48.5395 58.1143 48.4304 57.6327C48.2728 56.9465 47.8 56.3084 48.0061 55.574C47.6423 55.2128 47.5211 54.7674 47.3998 54.334C47.3392 54.1413 47.2543 53.9607 47.2059 53.7922C47.0604 53.2986 46.7087 53.0939 46.1753 52.9856C45.9692 53.0939 45.7024 53.2264 45.4236 53.3708C45.666 54.1173 45.8843 54.8035 46.1025 55.5018C46.3693 56.3686 46.636 57.2475 46.9027 58.1143C47.1452 58.8848 47.412 59.6553 47.6666 60.4259C47.8121 60.8834 47.9576 61.3288 48.0788 61.7863C48.1273 61.9549 48.0909 62.1355 48.0909 62.3762C47.3635 62.617 46.6603 62.8578 45.9328 63.0745C45.2053 63.2912 44.4778 63.4839 43.714 63.7006C43.6413 63.6163 43.5321 63.544 43.4958 63.4477C43.2897 62.906 43.0714 62.3762 42.9259 61.8224C42.841 61.5455 42.8895 61.2325 42.8653 60.9074C42.7925 60.8472 42.6956 60.775 42.5743 60.6787C42.2469 59.5831 41.9075 58.4635 41.5559 57.3558C41.4225 56.9345 41.2527 56.5372 41.1194 56.1158C40.9618 55.5861 40.8284 55.0443 40.6708 54.5146C40.5738 54.1775 40.4525 53.8404 40.3313 53.5033C40.0524 52.6725 39.7736 51.8539 39.5068 51.0232C39.2765 50.2647 39.0825 49.4942 38.84 48.7357C38.5975 47.9411 38.3186 47.1585 38.064 46.3639C37.9064 45.8703 37.7609 45.3767 37.6396 44.8711C37.5548 44.5701 37.3244 44.3052 37.385 43.9561C37.482 43.8959 37.482 43.7875 37.482 43.643ZM43.3139 46.2074C43.4715 47.1706 44.1869 49.2775 44.4778 49.6266C44.8416 49.4942 45.2053 49.3497 45.5448 49.2293C45.6539 49.0728 45.7388 48.9404 45.86 48.7718C45.7994 47.7364 45.5812 46.7372 44.8901 45.9666C44.6476 45.8944 44.5021 45.8462 44.3324 45.7981C43.9929 45.9305 43.5685 45.8583 43.3139 46.2074ZM52.3709 57.2114C52.0799 57.2354 51.8616 57.1391 51.6313 57.3318C51.6919 57.4522 51.7525 57.5725 51.7889 57.6568C52.0435 57.6568 52.2618 57.6568 52.5285 57.6568C52.48 57.4883 52.4315 57.3679 52.3709 57.2114Z" fill="white"/>
<path d="M88.4532 23.9106C87.7379 24.4162 86.9619 24.5366 86.2951 24.7293C85.1553 23.5976 84.1005 22.5381 82.9487 21.3944C82.9366 21.3221 82.9002 21.1175 82.8396 20.8526C82.682 20.9489 82.585 21.0091 82.488 21.0693C82.4516 21.0573 82.4031 21.0573 82.3788 21.0332C81.9424 20.66 81.5059 20.2747 81.0573 19.9256C80.2571 19.2995 79.4447 18.6855 78.6203 18.0836C78.1959 17.7826 77.7473 17.5177 77.2866 17.2649C76.4379 16.7833 75.5891 16.3138 74.7162 15.8683C73.9281 15.471 73.1158 15.158 72.3155 14.7727C71.5032 14.3875 70.6666 14.0865 69.8058 13.8096C69.1632 13.6049 68.5448 13.3401 67.878 13.2197C67.3688 13.1234 66.8959 12.8946 66.3867 12.7742C65.7441 12.6177 65.1015 12.5214 64.4468 12.401C63.9618 12.3047 63.4647 12.2204 62.9797 12.1361C62.7615 12.1 62.5432 12.0759 62.325 12.0519C61.8279 12.0037 61.3308 11.9555 60.8337 11.9074C60.5791 11.8833 60.3244 11.8111 60.0577 11.8111C58.6028 11.799 57.1478 11.8111 55.6929 11.799C55.0261 11.799 54.3713 11.8592 53.7287 12.0157C53.5226 12.0639 53.2923 12.0519 53.0619 12.0398C52.5527 12.0278 52.0677 12.1241 51.5827 12.2445C51.2311 12.3288 50.8674 12.3528 50.5158 12.401C50.4794 12.401 50.4309 12.389 50.3945 12.413C49.8853 12.6779 49.3033 12.6177 48.7698 12.7983C48.491 12.8946 48.1757 12.9187 47.8969 13.015C47.521 13.1474 47.133 13.2197 46.7572 13.328C45.86 13.5929 44.9628 13.8818 44.1019 14.231C43.0713 14.6524 42.0771 15.146 41.0587 15.5914C39.4097 16.3258 37.8821 17.2649 36.4029 18.2882C35.6148 18.83 34.851 19.4079 34.0992 19.9978C33.4324 20.5396 32.7898 21.1175 32.1472 21.6833C31.735 22.0445 31.3106 22.3816 30.9469 22.7789C29.7466 24.1153 28.5099 25.4155 27.455 26.8843C26.6427 28.016 25.8788 29.1958 25.1393 30.3757C24.7392 31.0138 24.436 31.7121 24.0966 32.3863C23.7449 33.0725 23.3933 33.7587 23.0781 34.4691C22.8235 35.0229 22.6174 35.6008 22.4113 36.1786C22.1081 37.0455 21.8172 37.9003 21.5504 38.7791C21.2958 39.658 20.9927 40.5248 20.8714 41.4278C20.7381 42.3548 20.435 43.2457 20.4471 44.1968C20.4471 44.4978 20.2652 44.7988 20.1804 45.0516C19.465 45.2683 18.8224 45.461 18.1313 45.6656C18.0949 45.5332 18.0343 45.4248 18.0343 45.3165C18.0343 44.5941 17.9979 43.8838 18.2283 43.1855C18.3496 42.8003 18.3374 42.3669 18.3981 41.9455C18.4708 41.4759 18.5314 41.0064 18.6527 40.5369C18.883 39.6339 19.1498 38.743 19.4044 37.8521C19.5256 37.4187 19.6954 36.9853 19.8166 36.5519C20.0712 35.5887 20.5077 34.6978 20.8593 33.7708C20.9684 33.4698 21.1382 33.1929 21.2352 32.8919C21.3443 32.5187 21.5625 32.2659 21.9263 32.0732C21.7202 31.5555 22.0718 31.1582 22.2779 30.761C22.9084 29.6172 23.5388 28.4735 24.2542 27.3779C25.1635 25.9934 26.1698 24.6811 27.2368 23.417C28.2431 22.2371 29.2858 21.1054 30.4255 20.058C31.2257 19.3116 32.0866 18.6253 32.9595 17.9511C33.8082 17.289 34.6812 16.6388 35.5663 16.0369C36.221 15.5914 36.9242 15.1941 37.6153 14.7968C38.8642 14.0865 40.1372 13.4243 41.4588 12.8705C42.2226 12.5455 42.9743 12.2084 43.7624 11.9315C44.3808 11.7148 45.0113 11.5342 45.6175 11.3054C46.4783 10.9804 47.3755 10.8118 48.2485 10.559C48.9153 10.3543 49.6185 10.27 50.2975 10.1376C50.5279 10.0895 50.7704 10.0533 51.0007 10.0052C51.1584 9.96906 51.3038 9.9209 51.4615 9.89682C51.8616 9.84867 52.2617 9.81255 52.6497 9.76439C53.1104 9.71623 53.5711 9.69215 54.0197 9.63196C55.9718 9.40321 57.9238 9.51156 59.888 9.54768C60.9185 9.55972 61.9734 9.55972 62.9918 9.87274C63.9133 9.81255 64.762 10.1978 65.6592 10.27C66.1806 10.3062 66.7019 10.5229 67.2233 10.6553C67.4173 10.7035 67.6234 10.7155 67.8052 10.7757C68.7025 11.0526 69.5875 11.3295 70.4847 11.6064C71.6123 11.9555 72.7035 12.389 73.7705 12.8826C74.8981 13.4123 76.0014 13.9541 77.0926 14.544C78.0747 15.0737 79.0325 15.6637 79.9661 16.2656C80.5723 16.6509 81.1179 17.1204 81.6999 17.5418C82.8517 18.3725 83.9429 19.2875 84.9614 20.2867C85.3493 20.672 85.7858 20.9971 86.1617 21.3823C86.9619 22.213 87.6772 23.0317 88.4532 23.9106Z" fill="white"/>
<path d="M86.162 74.1146C86.4287 74.0544 86.6106 73.9942 86.8046 73.9701C86.9864 73.946 87.1562 73.9701 87.3986 73.9701C87.3623 73.7413 87.3259 73.5607 87.3017 73.3681C87.435 73.2598 87.5441 73.1635 87.6654 73.0671C87.629 72.706 87.2532 72.6939 87.1077 72.4772C87.0228 72.2485 87.1077 72.092 87.241 71.9234C88.4171 70.4546 89.4113 68.8654 90.357 67.2521C90.9996 66.1686 91.5452 65.049 92.0423 63.8932C92.1029 63.7487 92.2121 63.6404 92.2848 63.532C92.503 63.4959 92.6849 63.4718 92.9395 63.4357C92.7819 63.2792 92.6728 63.1829 92.5515 63.0745C92.5394 63.0143 92.5152 62.9541 92.5273 62.8939C92.6122 62.5929 92.697 62.2919 92.8183 62.003C93.1699 61.076 93.4609 60.1369 93.7397 59.1858C93.9822 58.3551 94.1884 57.5003 94.3823 56.6576C94.5036 56.1519 94.5763 55.6462 94.6733 55.1406C94.8916 55.0804 95.0492 55.0443 95.2068 55.0082C95.3402 54.7915 95.3402 54.6109 95.1826 54.4182C95.0856 54.4303 94.9886 54.4303 94.8431 54.4423C94.7703 53.7079 95.0856 53.0458 95.1462 52.4679C95.1098 52.0224 95.0734 51.6853 95.0371 51.2519C95.134 51.1556 95.2553 51.0352 95.328 50.975C95.7039 51.0352 95.9464 51.0833 96.1889 51.1195C96.4071 50.9028 96.6011 50.7342 96.8072 50.5295C96.9891 50.5295 97.1831 50.5295 97.365 50.5295C97.559 51.0232 97.5468 51.2639 97.3286 52.203C97.0376 52.203 96.7466 52.203 96.395 52.203C96.4435 52.3716 96.4799 52.4919 96.5041 52.6123C96.7587 52.6364 96.977 52.6605 97.2195 52.6846C97.2437 53.2384 97.2922 53.7681 97.1588 54.2978C97.0618 54.6831 97.0012 55.0684 96.9285 55.4657C96.8194 56.0917 96.7466 56.7177 96.6254 57.3438C96.5526 57.7291 96.4192 58.1143 96.3101 58.4875C96.0919 59.2701 95.91 60.0647 95.6554 60.8352C95.5099 61.2806 95.4372 61.7622 95.1462 62.1595C95.0249 62.316 95.0613 62.5809 94.9886 62.7735C94.4551 64.1821 93.8489 65.5666 93.1578 66.903C92.4909 68.1912 91.7998 69.4674 90.9632 70.6713C90.4783 71.3696 90.0539 72.1281 89.4962 72.7782C88.6717 73.7413 87.9443 74.8008 87.0228 75.6917C86.0407 76.6308 85.1314 77.6541 84.1372 78.5811C83.4946 79.1831 82.7307 79.6406 82.076 80.2185C81.3243 80.8806 80.4756 81.4224 79.6511 81.9762C79.0207 82.3976 78.3538 82.7467 77.6991 83.132C77.2747 83.3848 76.8504 83.6377 76.4139 83.8664C76.2563 83.9507 76.0623 83.9868 75.7834 84.0711C75.4076 84.6489 74.6195 84.7573 73.9647 85.0583C73.31 85.3713 72.6674 85.8047 71.8915 85.7686C71.4429 86.1298 70.9458 86.3345 70.4365 86.3826C70.0364 86.2622 69.8303 85.889 69.4544 85.889C69.2241 86.1659 69.5636 86.2863 69.5999 86.5271C69.2847 86.792 68.8846 86.9485 68.4724 87.0689C68.2663 87.1291 68.048 87.1893 67.8419 87.2374C67.6237 87.2856 67.4054 87.2976 67.1872 87.3337C66.9447 87.3819 66.7022 87.4421 66.3263 87.5143C66.0839 87.4541 66.2778 87.105 66.1687 86.8883C65.902 87.0087 65.9505 87.1892 66.0596 87.406C65.999 87.4662 65.9384 87.5865 65.8535 87.6106C65.4413 87.731 65.0169 87.8394 64.5925 87.9357C64.3379 87.9959 64.0833 88.02 63.8287 88.0681C63.3801 88.1404 62.9194 88.2246 62.4708 88.2969C62.0949 88.345 61.719 88.4052 61.3432 88.4173C60.4581 88.4654 59.573 88.5136 58.6879 88.5377C57.815 88.5617 56.9541 88.5377 56.0812 88.5377C55.281 88.5377 54.4807 88.4534 53.6927 88.3209C53.3047 88.2487 52.8924 88.2006 52.4923 88.2006C52.068 88.2006 51.6679 88.0802 51.2556 87.9959C50.8313 87.9116 50.3706 87.9236 49.9462 87.8153C49.4127 87.6708 48.8307 87.6588 48.3336 87.3819C48.3215 87.3698 48.2973 87.3578 48.273 87.3578C47.691 87.406 47.1818 87.117 46.6483 86.9846C45.933 86.792 45.2419 86.5632 44.5387 86.3345C44.1386 86.202 43.7506 86.0455 43.3626 85.901C42.4654 85.576 41.5924 85.1907 40.7437 84.7693C39.6404 84.2155 38.525 83.6738 37.4338 83.1079C37.07 82.9153 36.7184 82.6865 36.3668 82.4458C35.118 81.5789 33.8813 80.7121 32.6446 79.8212C32.2566 79.5443 31.905 79.2072 31.5534 78.8821C30.6683 78.0634 29.7832 77.2448 28.9345 76.39C28.3647 75.8241 27.8191 75.2463 27.2977 74.6322C26.7885 74.0423 26.3278 73.4163 25.8428 72.8023C25.8428 72.6578 25.8428 72.5254 25.8428 72.3327C26.546 72.2123 27.1643 71.803 27.9524 71.815C28.5344 72.5013 29.1285 73.1996 29.7226 73.8858C29.8438 74.0182 29.9651 74.1627 30.0863 74.2831C30.6683 74.873 31.2382 75.463 31.8444 76.0288C32.8992 77.004 34.0025 77.931 35.1544 78.7978C36.2941 79.6526 37.4823 80.4352 38.7068 81.1335C39.7495 81.7234 40.7801 82.3374 41.9077 82.7708C42.4654 82.9875 42.9746 83.3005 43.5324 83.5293C44.1386 83.7821 44.7691 83.9868 45.3874 84.2035C45.836 84.36 46.3089 84.4563 46.7575 84.6249C47.4364 84.8657 48.1518 84.962 48.8307 85.1907C49.4976 85.4195 50.1887 85.4917 50.8798 85.6121C51.874 85.8047 52.8803 85.9853 53.8988 86.0455C54.7354 86.0937 55.5719 86.0937 56.4085 86.2261C57.0633 86.3224 57.7422 86.2863 58.4091 86.2502C59.2699 86.202 60.1186 86.1057 60.9795 86.0335C61.0765 86.0214 61.1856 86.0335 61.2826 86.0214C61.7554 85.9853 62.2404 85.9733 62.7133 85.889C63.5377 85.7566 64.3622 85.6362 65.1866 85.4556C66.0232 85.275 66.8598 85.0703 67.6843 84.8536C68.0116 84.7693 68.339 84.6971 68.7391 84.6008C68.7997 84.6369 68.9452 84.7091 69.115 84.8175C69.1756 84.6851 69.2483 84.5526 69.3211 84.3961C71.1155 83.8423 72.825 83.0116 74.5831 82.2892C74.8135 82.4458 75.0317 82.5902 75.2499 82.7347C75.4439 82.4578 75.1772 82.2531 75.1651 81.9521C78.1234 80.3509 80.8878 78.4246 83.3855 76.1131C83.5794 76.2094 83.7371 76.2937 83.8947 76.3779C84.0887 76.3779 84.2948 76.3779 84.5009 76.3779C84.5373 76.3779 84.5737 76.3418 84.61 76.3178C84.7434 76.0047 84.8889 75.6797 85.0101 75.3666C85.4587 75.1138 85.774 75.6315 86.2105 75.5232C86.3681 75.4268 86.5499 75.3064 86.7318 75.1861C86.9864 74.6202 86.4772 74.4878 86.162 74.1146ZM94.1035 62.9902C94.4066 62.7013 94.637 62.4846 94.8188 62.304C94.7824 61.8465 94.4672 61.7261 94.2126 61.5335C93.8367 61.7261 93.7761 62.0873 93.5943 62.4123C93.7519 62.605 93.8974 62.7615 94.1035 62.9902ZM72.7159 84.4322C73.1645 84.4924 73.3949 84.9259 73.8556 84.7332C73.9162 84.6128 73.989 84.4804 74.0496 84.372C73.9405 84.0831 73.8193 83.8664 73.4798 83.8182C73.2615 83.9868 73.019 84.1794 72.7159 84.4322Z" fill="white"/>
<path d="M0.962999 62.8096C1.08424 62.4966 1.42373 62.4123 1.29036 62.0632C1.18124 62.1835 1.08424 62.2799 0.950874 62.4123C0.696261 61.9668 0.562891 61.5214 0.417398 61.0759C0.126411 60.173 -0.0312073 59.258 0.00516609 58.3189C0.0415395 57.4521 0.211282 56.6214 0.732634 55.9111C1.08424 55.4295 1.5086 54.9961 2.04208 54.6951C2.45431 54.4663 2.83017 54.1654 3.2909 54.0089C3.50914 53.9366 3.72738 53.8403 3.95774 53.756C5.10957 53.3587 6.29776 53.0939 7.49808 53.2865C8.22555 53.4069 8.95302 53.6477 9.53499 54.2135C10.4201 55.0683 10.9899 56.0917 11.4022 57.2354C11.584 57.741 11.778 58.2347 11.9841 58.7764C11.9114 59.0774 11.6325 59.1978 11.3415 59.27C10.311 59.5229 9.30463 59.8479 8.31042 60.1971C8.11643 60.2693 7.88607 60.2332 7.61933 60.2452C7.53446 60.0165 7.44959 59.8238 7.38896 59.6192C7.2556 59.2219 7.1586 58.8125 7.00098 58.4273C6.85549 58.0661 6.57663 57.8133 6.15227 57.5966C5.64304 57.5845 5.20656 57.8494 4.86708 58.2467C4.79433 58.6681 4.85495 59.0413 4.96407 59.4025C5.21869 60.2332 5.43693 61.0759 5.69154 61.9066C5.93403 62.6772 6.22502 63.4477 6.4675 64.2182C6.70999 65.0128 6.91611 65.8194 7.1586 66.614C7.2556 66.9511 7.38896 67.2882 7.49808 67.6253C7.66783 68.1069 7.86182 68.5885 8.00731 69.0821C8.14068 69.5155 8.44379 69.7924 8.7469 70.0573C9.58349 70.1415 9.64411 70.1175 10.1412 69.5396C10.2018 68.9135 10.1412 68.2875 9.87448 67.6855C9.71686 67.3484 9.66836 66.9632 9.54712 66.614C9.438 66.2528 9.30463 65.9037 9.17126 65.5305C8.77115 65.5786 8.41954 65.6268 8.05581 65.675C7.93457 65.4582 7.78907 65.2777 7.74057 65.073C7.54658 64.1098 7.0616 63.2189 6.98886 62.1956C7.1586 62.0993 7.29197 61.9909 7.43746 61.9548C8.67416 61.6418 9.8866 61.2324 11.0991 60.8472C11.39 60.7509 11.6689 60.6666 11.972 60.6064C12.1418 60.5703 12.3115 60.6184 12.4812 60.6305C12.7722 61.5936 13.039 62.5086 13.3057 63.4116C13.3784 63.6403 13.4633 63.857 13.5482 64.0858C13.8028 64.8804 14.0695 65.6629 14.312 66.4575C14.4697 66.9872 14.603 67.529 14.7606 68.0587C14.8698 68.4199 14.991 68.7811 15.1001 69.1302C15.3547 69.9489 15.6094 70.7555 15.864 71.5742C15.9246 71.7548 15.9488 71.9595 15.9973 72.1521C15.4517 72.5614 14.8455 72.6578 14.1544 72.7902C13.9725 72.5855 13.8028 72.3688 13.6088 72.1641C13.4391 71.9836 13.3421 71.7066 12.9783 71.6946C12.845 71.9354 12.748 72.2243 12.5661 72.4531C12.3115 72.7902 12.0326 73.1032 11.7416 73.3922C11.5113 73.6089 11.2445 73.7895 10.9293 74.0302C10.0078 74.3794 9.05002 74.8369 7.89819 74.6563C7.81332 74.572 7.71632 74.4516 7.61933 74.3553C7.41321 74.4516 7.21922 74.5239 7.01311 74.6081C6.69787 74.3071 6.35839 74.1747 5.98253 74.0664C5.55817 73.946 5.23081 73.6209 4.93982 73.2838C4.39422 72.6457 3.94562 71.9474 3.63038 71.1649C3.43639 70.6713 3.15753 70.2138 3.07266 69.672C3.02416 69.3469 2.86654 69.0339 2.75742 68.7089C2.47856 67.8781 2.19969 67.0595 1.93296 66.2288C1.69047 65.4342 1.48435 64.6275 1.25399 63.8329C1.21761 63.4718 1.07212 63.1226 0.962999 62.8096ZM9.18338 73.5848C9.23188 73.332 9.28038 73.1153 9.06214 72.9106C8.8924 72.9106 8.69841 72.9106 8.48017 72.9106C8.52866 73.1393 8.56504 73.332 8.60141 73.5246C8.43167 73.6811 8.27405 73.8256 8.08006 74.0062C8.57716 74.0543 8.8439 73.7774 9.18338 73.5848Z" fill="white"/>
<path d="M21.5506 66.0361C21.9871 66.2769 22.3872 66.2769 22.7994 66.0602C22.9085 65.9037 23.0176 65.7351 23.1389 65.5545C23.1631 65.1813 23.151 64.8081 22.9813 64.4108C22.7751 63.9412 22.7024 63.4236 22.5569 62.9299C22.4114 62.4363 22.2295 61.9548 22.0719 61.4612C21.9386 61.0277 21.7931 60.5943 21.6839 60.1489C21.5748 59.7275 21.3202 59.3543 21.3081 58.8968C21.296 58.6199 21.2111 58.355 21.1505 57.9818C20.7261 57.6327 20.714 56.9946 20.5079 56.4528C20.1926 55.6221 19.9865 54.7432 19.7198 53.8884C19.55 53.3346 19.3318 52.8049 19.2348 52.2391C19.1742 51.8899 19.0166 51.5649 18.9074 51.2278C18.7498 50.7341 18.5922 50.2405 18.4467 49.771C18.4952 49.5061 18.6528 49.3376 18.8832 49.3015C19.1378 49.2654 19.3682 49.157 19.6107 49.0727C19.8895 48.9764 20.1805 48.9042 20.4594 48.8079C21.1626 48.5791 21.8779 48.3865 22.5812 48.1939C22.6175 48.1818 22.666 48.2059 22.7388 48.2059C22.7873 48.2661 22.8721 48.3383 22.8964 48.4226C23.2359 49.458 23.5511 50.5054 23.8906 51.5408C24.0603 52.0705 24.2543 52.5882 24.4241 53.1179C24.5574 53.5273 24.6059 53.9607 24.7757 54.358C24.9697 54.8275 25.0545 55.3452 25.2849 55.8147C25.4789 56.2361 25.5759 56.7177 25.7093 57.1752C25.8426 57.6327 25.9518 58.0902 26.0973 58.5476C26.267 59.1015 26.4367 59.6432 26.6186 60.185C26.8732 60.9796 27.1157 61.7742 27.3824 62.5567C27.6492 63.3272 27.7947 64.1339 27.8917 64.9405C27.9159 65.1331 27.9159 65.3498 27.8917 65.5425C27.8674 65.7351 27.7947 65.9277 27.7583 66.0842C27.4673 66.2769 27.2006 66.4454 26.946 66.614C26.946 66.939 26.8732 67.2039 27.1036 67.4567C27.2006 67.5651 27.1763 67.7938 27.2127 67.9985C26.8247 68.3717 26.4852 68.781 26.0609 69.07C25.6123 69.383 25.0909 69.6238 24.5817 69.8405C24.1088 70.0452 23.5996 70.1776 23.1025 70.3341C22.8721 70.4063 22.6297 70.4184 22.3993 70.4545C22.1083 70.4906 21.8052 70.5388 21.5021 70.5508C21.2717 70.5508 21.0292 70.4545 20.7867 70.4786C20.1926 70.5267 19.6955 70.31 19.1742 70.0572C18.4467 69.696 17.9254 69.1061 17.4889 68.456C16.8584 67.5169 16.4947 66.4695 16.1916 65.398C16.0582 64.9285 15.8763 64.4589 15.7308 63.9894C15.5732 63.4597 15.4398 62.9179 15.2822 62.3882C15.1852 62.0511 15.064 61.714 14.9549 61.3648C14.676 60.5341 14.3971 59.7155 14.1304 58.8847C13.8879 58.0902 13.6939 57.2835 13.4393 56.4889C13.1968 55.7184 12.9058 54.9479 12.6633 54.1774C12.5057 53.7079 12.3845 53.2263 12.2511 52.7568C12.1662 52.4919 12.0692 52.2391 11.9844 51.9742C12.1177 51.7695 12.239 51.5889 12.4087 51.3361C13.6091 50.9629 14.87 50.5776 16.1673 50.1803C16.3128 50.385 16.4583 50.5174 16.531 50.698C16.6644 51.0111 16.7493 51.3361 16.8584 51.6491C17.0403 52.215 17.2221 52.7808 17.3919 53.3467C17.5495 53.8764 17.6829 54.4182 17.8405 54.9479C17.9375 55.285 18.0587 55.6221 18.1679 55.9592C18.374 56.6214 18.5801 57.2715 18.7862 57.9336C19.0408 58.7523 19.2833 59.5589 19.55 60.3656C19.647 60.6425 19.6834 60.9073 19.5137 61.1963C20.0593 61.4732 20.0593 62.039 20.229 62.5086C20.5564 63.4476 20.8231 64.3987 21.1383 65.3378C21.2353 65.6027 21.4293 65.8194 21.5506 66.0361Z" fill="white"/>
<path d="M37.8575 65.5666C37.7241 65.4462 37.5665 65.374 37.5301 65.2656C37.3725 64.6877 37.0209 64.1941 36.839 63.6282C36.742 63.3273 36.5723 63.0504 36.4268 62.7614C35.7842 62.942 35.1658 63.1226 34.5354 63.3032C34.3535 63.6644 34.4262 64.0255 34.5232 64.3988C34.6809 65.0128 34.8142 65.6268 34.9355 66.1926C34.7415 66.6862 34.2929 66.6742 33.9655 66.8307C33.5896 66.9993 33.1653 67.0474 32.7652 67.1558C32.2075 67.3123 31.6619 67.5049 31.1041 67.6614C30.9344 67.7096 30.7525 67.6855 30.5464 67.6975C30.4252 67.2641 30.2918 66.8668 30.2069 66.4695C30.1099 66 30.0372 65.5305 29.9644 65.0609C29.8068 64.1459 29.6977 63.2069 29.4552 62.316C29.2855 61.6779 29.3218 61.0157 29.043 60.4017C28.9702 60.2332 29.0672 59.9803 29.0793 59.7396C28.7762 59.2459 28.7641 58.644 28.6307 58.0781C28.5701 57.8494 28.5459 57.6086 28.4974 57.3798C28.4246 56.9946 28.364 56.5973 28.267 56.212C28.0851 55.4776 28.0488 54.7192 27.8063 53.9968C27.6972 53.6838 27.7214 53.3226 27.6608 52.9975C27.5153 52.2391 27.2607 51.4926 27.2 50.7341C27.1394 49.8914 26.7636 49.1209 26.7878 48.2661C26.7878 48.0975 26.6908 47.929 26.6544 47.7484C26.6059 47.5197 26.5817 47.2909 26.5332 47.002C28.8369 46.2194 31.1405 45.5813 33.4078 44.8469C33.9049 45.0877 33.9776 45.6295 34.1837 46.0629C34.693 47.1344 35.1658 48.242 35.6387 49.3255C36.1722 50.5415 36.6935 51.7695 37.227 52.9975C37.6877 54.045 38.1727 55.0924 38.6334 56.1518C38.8638 56.6816 39.0699 57.2233 39.3003 57.7531C39.664 58.5717 40.052 59.3784 40.4036 60.185C40.6582 60.7629 40.8765 61.3528 41.1189 61.9427C41.2281 62.1956 41.3614 62.4364 41.4827 62.6892C41.6767 63.0985 41.8585 63.5079 42.0647 63.9653C42.004 64.0857 41.9192 64.2423 41.8707 64.3386C40.4885 64.772 39.179 65.1693 37.8575 65.5666ZM31.1769 49.9877C31.286 50.4934 31.3709 50.8907 31.4679 51.288C31.674 52.1548 31.8801 53.0216 32.0983 53.8764C32.3045 54.683 32.5227 55.4897 32.7046 56.2963C32.8016 56.7658 32.9592 57.2113 33.044 57.6808C33.1047 58.042 33.2259 58.4032 33.3108 58.7764C33.3593 59.0172 33.432 59.2459 33.7109 59.3663C34.0868 59.2219 34.5839 59.27 34.8263 58.7764C34.4141 57.7169 33.9898 56.6454 33.5896 55.5739C33.2744 54.7432 32.9713 53.9125 32.6561 53.0818C32.3408 52.2631 32.0135 51.4685 31.7225 50.6378C31.5891 50.373 31.4557 50.1924 31.1769 49.9877Z" fill="white"/>
<path d="M60.0094 58.632C59.7911 58.7764 59.6335 58.8848 59.5486 58.9329C58.2271 59.2941 57.0268 59.7155 55.7779 60.0285C55.4506 59.5469 55.3778 59.0413 55.293 58.5356C55.2566 58.3189 55.2081 58.1022 55.1717 57.8976C55.099 57.4882 55.0383 57.0789 54.9292 56.6696C54.7352 55.899 54.6867 55.1044 54.4806 54.3339C54.2624 53.5393 54.2745 52.6725 54.0563 51.8779C53.8623 51.1676 53.7895 50.4332 53.6319 49.7229C53.4743 49.0607 53.3288 48.3865 53.2803 47.7003C53.2439 47.2187 53.0378 46.7371 52.9408 46.2556C52.8559 45.8342 52.8196 45.4008 52.7468 44.9673C52.9287 44.871 53.0742 44.7988 53.2318 44.7145C53.2197 44.6904 53.2197 44.6543 53.2075 44.6302C53.0499 44.6302 52.8923 44.6302 52.6862 44.6302C52.6135 43.9199 52.2861 43.2578 52.274 42.5354C52.274 42.4511 52.2861 42.3669 52.2618 42.2946C51.9466 41.5121 52.0072 40.6452 51.7284 39.8627C51.6314 39.6099 51.7041 39.3931 51.8617 39.1885C52.6741 38.9356 53.4985 38.6828 54.323 38.442C55.1475 38.2013 55.9598 37.9605 56.7964 37.7076C56.8691 37.8642 56.9419 37.9966 57.0146 38.1531C57.4632 37.9845 57.8755 37.816 58.2635 37.6595C58.4817 37.7438 58.6757 37.816 58.8818 37.8882C59.3668 38.117 59.4153 38.6467 59.6214 39.0681C60.1427 40.1516 60.555 41.2833 61.1006 42.3548C61.4643 43.0772 61.731 43.8477 62.0584 44.5941C62.5434 45.7017 62.9677 46.8214 63.5255 47.9049C63.9135 48.6514 64.1802 49.47 64.5318 50.2526C64.9925 51.3 65.4775 52.3474 65.9382 53.4069C66.2777 54.1895 66.6051 54.9841 66.9446 55.7666C67.0173 55.9472 67.1022 56.1278 67.1992 56.3325C67.1628 56.3927 67.1264 56.513 67.0537 56.5492C66.7263 56.6936 66.3868 56.8261 66.0474 56.9344C65.1744 57.2113 64.3014 57.4882 63.4285 57.7531C63.2587 57.8013 63.0769 57.8013 62.9314 57.8253C62.5313 57.5725 62.507 57.1511 62.3494 56.8261C62.1554 56.4288 62.022 56.0194 61.828 55.6221C61.7432 55.4295 61.5977 55.261 61.4643 55.0563C60.8096 55.273 60.167 55.3814 59.5486 55.6703C59.5486 56.6816 59.9972 57.6086 60.0094 58.632ZM59.8639 51.3843C59.876 51.2037 59.9245 51.0954 59.8881 51.0111C58.7606 48.0735 57.633 45.1359 56.4569 42.0659C56.3599 42.2946 56.275 42.415 56.2872 42.4993C56.3357 42.7521 56.4327 42.9929 56.4933 43.2457C56.6145 43.7032 56.7479 44.1607 56.857 44.6182C57.0025 45.2683 57.1116 45.9425 57.2814 46.5927C57.439 47.2187 57.6572 47.8447 57.8148 48.4708C57.9603 49.0607 58.0695 49.6627 58.2028 50.2646C58.2998 50.686 58.3968 51.1074 58.5059 51.5288C58.5181 51.5649 58.5544 51.589 58.5908 51.6251C59.0637 51.8538 59.3789 51.3482 59.8639 51.3843Z" fill="white"/>
<path d="M106.47 22.4177C107.136 23.6819 107.282 25.0303 107.815 26.2462C107.755 26.3305 107.718 26.4268 107.658 26.4389C106.918 26.6676 106.154 26.8482 105.439 27.1251C104.833 27.3659 104.142 27.414 103.56 27.8595C103.584 28.4855 103.899 29.0514 104.057 29.6534C104.215 30.2433 104.421 30.8212 104.627 31.4472C105.403 31.2185 106.13 31.0258 106.846 30.8091C107.27 30.6767 107.67 30.4961 108.094 30.3877C108.337 30.3276 108.604 30.3757 108.87 30.3757C109.234 31.5194 109.586 32.6511 109.949 33.819C109.901 34.1079 109.683 34.2403 109.355 34.3246C108.798 34.4691 108.252 34.6737 107.694 34.8303C107.246 34.9627 106.785 35.071 106.336 35.1914C106.154 34.9747 106.191 34.5774 105.779 34.7219C106.009 35.6369 106.106 36.5639 106.494 37.4428C106.688 37.8762 106.846 38.3337 106.906 38.8032C106.955 39.1644 107.149 39.4172 107.33 39.7423C107.864 39.5737 108.373 39.4172 108.882 39.2607C109.646 39.0199 110.398 38.7671 111.162 38.5504C111.416 38.4782 111.707 38.3457 111.998 38.719C112.192 39.3932 112.423 40.1757 112.653 40.9462C112.714 41.1389 112.774 41.3315 112.871 41.5C113.005 41.7649 113.017 42.0298 112.98 42.3428C112.641 42.4873 112.35 42.6919 111.95 42.7521C111.526 42.8123 111.113 43.005 110.701 43.1494C110.289 43.2819 109.877 43.4384 109.452 43.5588C108.579 43.8116 107.67 43.9922 106.821 44.3293C106.045 44.6303 105.209 44.7507 104.445 45.0998C104.275 45.172 104.057 45.1359 103.839 45.1479C103.742 44.9914 103.633 44.871 103.584 44.7266C103.354 43.9681 103.135 43.2096 102.905 42.4511C102.747 41.9455 102.553 41.4398 102.396 40.9342C102.25 40.4647 102.117 39.9831 101.971 39.5135C101.79 38.9477 101.608 38.3819 101.438 37.816C101.317 37.4187 101.22 37.0214 101.111 36.6362C100.977 36.1787 100.832 35.7212 100.686 35.2757C100.492 34.6737 100.25 34.0838 100.116 33.4578C100.019 33.0003 99.8012 32.5548 99.6436 32.1094C99.5345 31.7963 99.4375 31.4713 99.3405 31.1462C99.0252 30.1229 98.7343 29.0995 98.3705 28.0882C98.1523 27.4742 98.0068 26.8362 97.7764 26.2221C97.6673 25.9091 97.6431 25.572 97.5703 25.2229C97.7279 25.1266 97.8613 25.0182 98.0068 24.9701C98.7464 24.7413 99.4981 24.5366 100.238 24.3079C101.038 24.0671 101.838 23.8022 102.638 23.5615C103.536 23.2846 104.433 23.0197 105.33 22.7428C105.694 22.6705 106.057 22.5502 106.47 22.4177Z" fill="white"/>
<path d="M88.6474 35.4322C88.3079 34.9747 88.126 34.4691 88.029 33.9393C87.9684 33.6263 87.8472 33.3374 87.7502 33.0364C87.4713 32.1936 87.1803 31.3509 86.9014 30.4961C86.7438 29.9904 86.6105 29.4727 86.4771 28.9551C86.4528 28.8828 86.4892 28.7985 86.4892 28.6661C86.7317 28.5578 86.9742 28.4012 87.2409 28.317C88.0533 28.0641 88.8899 27.8354 89.7022 27.5826C90.4782 27.3418 91.2541 27.0649 92.0301 26.8241C92.5636 26.6555 93.1092 26.5472 93.6426 26.3907C94.0185 26.2823 94.3822 26.1379 94.7581 26.0175C94.94 25.9573 95.134 25.9332 95.3886 25.873C95.8493 27.1612 96.2252 28.4253 96.6495 29.7376C96.4191 29.858 96.2009 30.0266 95.9584 30.0988C95.1825 30.3396 94.3822 30.5202 93.5941 30.761C93.2183 30.8693 92.8546 31.0499 92.4181 31.2184C92.4181 31.375 92.3574 31.5676 92.4059 31.7241C92.7333 32.7474 93.0728 33.7587 93.4244 34.8302C93.5699 34.8302 93.7518 34.8664 93.9215 34.8182C94.3216 34.7098 94.7217 34.5654 95.1097 34.445C95.6189 34.2885 96.1403 34.144 96.6495 33.9875C96.7829 33.9514 96.9041 33.8791 97.0496 33.843C97.2194 33.7949 97.3891 33.7708 97.6073 33.7347C97.7771 34.2162 97.9347 34.6376 98.0802 35.059C98.2621 35.6248 98.4318 36.1907 98.6258 36.7565C98.7228 37.0334 98.6985 37.2983 98.6622 37.5993C98.3227 37.7197 97.9953 37.8521 97.6558 37.9605C97.0739 38.1531 96.4798 38.3337 95.8857 38.5143C95.6189 38.5986 95.3401 38.6467 95.0855 38.731C94.843 38.8153 94.649 38.9477 94.6732 39.2607C94.4186 39.2126 94.2125 39.1644 93.97 39.1162C93.8609 38.9357 93.7518 38.7551 93.6305 38.5624C93.2062 38.5624 93.097 38.9357 92.8546 39.1162C92.9758 39.7664 93.5335 39.357 93.8003 39.5737C93.7639 39.8747 93.7639 39.8747 93.5456 40.1637C94.0306 40.4887 94.5035 40.2961 94.9885 40.0914C95.1582 40.5248 95.3401 40.8981 95.4492 41.3315C95.5947 41.9696 95.8614 42.5715 96.0675 43.1976C97.6195 42.7642 99.1108 42.2103 100.699 41.8371C100.857 42.3187 100.99 42.728 101.136 43.1374C101.305 43.6551 101.511 44.1728 101.669 44.7025C101.778 45.0877 102.057 45.5332 101.669 45.9546C98.7228 46.8575 95.7644 47.7605 92.7454 48.6875C92.6242 48.4588 92.4908 48.2661 92.4181 48.0494C92.2605 47.604 92.1513 47.1344 92.0058 46.6769C91.7149 45.774 91.436 44.859 91.1329 43.9681C90.9146 43.318 90.7085 42.6799 90.8419 41.9936C90.4175 41.5963 90.2235 41.1148 90.0902 40.585C89.8841 39.7784 89.5809 39.0079 89.3385 38.2133C89.2172 37.816 89.1081 37.4187 88.999 37.0214C88.9626 36.889 88.9262 36.7565 88.8777 36.6241C88.805 36.4194 88.6959 36.2148 88.6595 36.0101C88.611 35.8175 88.6474 35.6128 88.6474 35.4322ZM92.6606 35.9017C92.5272 35.5646 92.5272 35.2396 92.1877 35.1071C91.8846 35.4202 91.4239 35.5767 91.3147 36.1425C91.7755 36.0944 92.1998 36.0583 92.6606 35.9017ZM89.7992 35.0349C89.8477 34.9506 89.8962 34.8423 89.9447 34.758C89.5931 34.4329 89.5931 34.4329 89.1566 34.5533C89.2415 34.9988 89.2778 35.0349 89.7992 35.0349Z" fill="white"/>
<path d="M86.3068 43.2698C86.4765 43.3902 86.5372 43.643 86.622 43.9199C86.8888 44.8229 87.204 45.7258 87.4829 46.6288C87.7132 47.3632 87.9315 48.1096 88.1497 48.844C88.2588 49.1932 88.5135 49.5303 88.3316 49.9998C87.7011 50.373 86.913 50.4693 86.1977 50.7222C85.4823 50.975 84.767 51.2037 83.9304 51.3121C83.9183 51.288 83.8576 51.2278 83.8334 51.1435C83.603 50.4091 83.312 49.6988 83.1666 48.9403C83.0938 48.5912 82.9483 48.2661 82.8271 47.929C82.5603 47.1224 82.2693 46.3158 82.0268 45.5091C81.8935 45.0998 81.8329 44.6664 81.7116 44.245C81.6025 43.8477 81.4691 43.4504 81.3236 43.0531C80.972 42.0659 80.6568 41.0546 80.3779 40.0433C80.1961 39.3691 79.9293 38.731 79.7353 38.0688C79.5777 37.5391 79.3837 37.0214 79.2625 36.4796C79.1533 35.986 78.9109 35.5165 78.7411 35.047C78.9109 34.4691 79.0927 33.8912 79.2625 33.3013C79.2625 33.2772 79.214 33.2411 79.1533 33.1688C79.0685 33.2411 78.9836 33.3013 78.8987 33.3735C78.8017 33.4457 78.7047 33.518 78.5956 33.6022C78.632 33.7828 78.6805 33.9755 78.7169 34.1199C78.5107 34.5774 78.3168 34.9868 78.0743 35.5165C77.6135 35.673 77.0316 35.8656 76.4738 36.0583C76.0737 35.8656 76.0495 35.4924 75.9525 35.1794C75.7827 34.6256 75.6494 34.0718 75.419 33.542C75.2493 33.1447 75.1765 32.7113 75.0674 32.3261C75.2977 31.8565 75.7464 31.8927 76.1222 31.7843C76.486 31.688 76.8497 31.6037 77.2255 31.5435C77.7105 31.2787 78.2319 31.1101 78.7654 30.9416C79.2746 30.785 79.8081 30.6887 80.293 30.4479C80.6083 30.2914 80.972 30.2072 81.3115 30.1349C81.942 30.0025 82.5361 29.7858 83.1302 29.557C83.5545 29.4005 84.0031 29.2922 84.4517 29.1718C84.5609 29.1477 84.6942 29.1718 84.8519 29.1718C85.2035 29.7617 85.2762 30.4359 85.4823 31.074C85.6884 31.7121 85.8824 32.3502 86.0886 33.0123C85.6399 33.1809 85.2641 33.3494 84.864 33.4818C84.4639 33.6143 84.0638 33.7106 83.6515 33.819C83.506 33.9634 83.506 34.144 83.5909 34.3126C83.8092 34.758 83.8698 35.2516 84.0759 35.7091C84.2699 36.1185 84.3547 36.576 84.4881 37.0094C84.6457 37.5391 84.7912 38.0809 84.9488 38.6106C85.2035 39.4654 85.4581 40.3202 85.7248 41.175C85.8703 41.6445 86.0522 42.114 86.1977 42.5836C86.2583 42.7521 86.2704 42.9448 86.3068 43.2698ZM82.5361 31.4111C81.9784 31.8927 81.9784 32.2538 82.5361 32.9642C82.5846 32.4104 82.5846 31.9649 82.5361 31.4111Z" fill="white"/>
<path d="M82.4149 59.6553C83.0817 59.5951 83.7122 59.5349 84.3911 59.4747C83.9425 58.8848 83.3242 58.5115 82.9241 57.9337C83.0938 57.5364 83.2515 57.1752 83.4091 56.826C83.4454 56.7418 83.5546 56.6936 83.6516 56.5973C83.7728 56.7056 83.9062 56.7899 84.0153 56.8983C84.8761 57.6808 85.7127 58.4875 86.6221 59.2098C87.01 59.5228 87.5556 59.6553 88.0285 59.8479C88.4043 60.0044 88.8045 60.1489 89.2167 60.3054C89.1924 60.8592 89.5077 61.3649 89.3258 61.8705C89.1561 62.0511 88.9742 62.0391 88.7923 61.9668C88.4043 61.8103 88.0406 61.5575 87.6405 61.4853C87.0707 61.3769 86.5978 60.9676 85.9794 61.0398C85.4217 61.1 84.864 61.112 84.2942 61.1482C83.991 61.1602 83.6879 61.1602 83.3848 61.1722C82.9847 61.1963 82.6088 61.2565 82.2451 61.4612C82.4997 61.6899 82.7301 61.8946 82.9483 62.0872C82.8877 62.5447 82.4027 62.7614 82.4634 63.243C82.9847 63.5801 83.5182 63.9292 84.0638 64.2543C84.5973 64.5673 85.155 64.8442 85.6642 65.1813C86.1856 65.5184 86.8039 65.7472 87.2283 66.2769C86.9858 66.6742 86.7554 67.0474 86.5372 67.3966C86.2826 67.4568 86.0886 67.4327 85.8825 67.3123C84.8761 66.7103 83.8455 66.1565 82.8271 65.5666C82.4027 65.3138 82.0026 65.0369 81.5904 64.76C81.0933 64.9646 81.1175 65.6027 80.5719 65.7713C80.281 65.6268 79.9415 65.4582 79.6262 65.3017C79.5171 65.0007 79.5656 64.7961 79.7232 64.5433C80.2082 63.7727 80.6568 62.9661 81.1297 62.1715C81.3237 61.8464 81.5661 61.5575 81.845 61.1482C81.8935 60.7027 82.0511 60.1489 82.4149 59.6553Z" fill="white"/>
<path d="M41.9559 18.216C42.0651 18.0595 42.1378 17.9752 42.1984 17.8668C42.6955 16.9398 43.5321 16.5907 44.5142 16.5425C45.2174 16.5064 45.8115 16.9037 46.2359 17.3853C46.8542 18.0835 47.2422 18.9263 47.5696 19.8052C47.8242 20.4794 47.909 21.1536 47.8969 21.912C48.1394 22.0685 48.394 22.2491 48.6608 22.4297C48.8063 22.9956 48.782 23.0558 48.2243 23.441C47.9575 23.3206 47.7029 23.2123 47.4726 23.1039C47.121 23.3206 46.83 23.5614 46.5147 23.7059C45.6175 24.1032 44.7324 24.1514 43.7867 23.3447C43.3745 22.9956 43.0229 22.5742 42.8047 22.0686C42.5743 21.5388 42.3318 21.0211 42.1378 20.4914C41.9074 19.8774 41.8226 19.2393 41.9438 18.5771C41.9681 18.4568 41.9559 18.3364 41.9559 18.216ZM45.9206 22.1649C45.4478 21.8157 45.0962 21.5509 44.6839 21.2619C44.9628 20.985 45.0113 20.5998 45.4235 20.4794C45.569 20.5636 45.7145 20.6479 45.8721 20.7201C46.0419 20.4914 45.9328 20.3108 45.8479 20.1423C45.666 19.7811 45.4842 19.4319 45.3144 19.0708C45.1083 18.6373 44.8173 18.3123 44.2475 18.1919C44.0656 18.3243 43.8474 18.4808 43.6897 18.5892C43.5685 19.1791 43.6897 19.6366 43.8959 20.0821C44.2232 20.8044 44.4415 21.5749 45.0719 22.1649C45.278 22.1649 45.5205 22.1649 45.9206 22.1649Z" fill="white"/>
<path d="M31.0679 39.9229C30.8375 40.0553 30.6678 39.9831 30.4738 39.8988C29.7342 39.5617 28.9946 39.2487 28.255 38.9356C27.0789 38.442 25.9028 37.9605 24.7389 37.4668C24.6298 37.4187 24.5328 37.3585 24.4358 37.3103C24.3145 36.9612 24.46 36.6963 24.6055 36.3953C24.8844 35.8656 25.0541 35.2877 25.333 34.77C25.7331 34.0477 26.3878 33.6745 27.2244 33.7467C27.8428 33.7948 28.352 34.1319 28.7157 34.6376C28.837 34.8182 28.9582 34.9988 29.1037 35.2275C29.3098 35.1433 29.5159 35.071 29.8312 34.9386C30.3161 34.8784 30.8739 34.9747 31.4073 35.3359C31.9408 35.6971 32.1227 36.2148 32.2318 36.7926C32.0984 37.9364 31.5165 38.9116 31.0679 39.9229ZM30.692 37.2381C30.2313 36.6963 29.916 36.5278 29.4917 36.6361C29.1886 36.7084 29.0067 36.889 28.9825 37.2863C29.3947 37.6234 29.8554 37.9123 30.5223 37.816C30.595 37.6113 30.6435 37.4067 30.692 37.2381ZM26.6546 35.5646C26.3636 35.7211 26.206 35.9378 26.4 36.3111C26.7758 36.4676 27.1517 36.6361 27.5033 36.7806C27.9155 36.5398 27.7458 36.2268 27.7579 35.9499C27.6124 35.8175 27.479 35.685 27.3457 35.5646C27.1153 35.5646 26.8971 35.5646 26.6546 35.5646Z" fill="white"/>
<path d="M40.9372 69.9369C41.8708 70.5148 42.7802 71.0927 43.5319 72.0077C43.5682 72.3086 43.6531 72.6819 43.6531 73.0551C43.6531 73.8376 43.1803 74.4396 42.4164 74.7045C42.1861 74.7887 41.9557 74.9091 41.7011 75.0295C41.9193 75.6435 41.8344 76.1733 41.5798 76.6789C41.3252 77.1846 40.8645 77.4615 40.3553 77.6661C39.6763 77.7745 39.0701 77.6421 38.5245 77.1484C38.1122 76.7873 37.603 76.5224 37.1544 76.1973C36.9604 76.0529 36.8028 75.8723 36.5967 75.6676C37.0332 75.0536 37.4454 74.4637 37.8697 73.8617C38.3426 73.1995 38.8276 72.5374 39.3004 71.8752C39.7127 71.3094 40.1128 70.7435 40.525 70.1897C40.6099 70.0814 40.7796 70.0332 40.9372 69.9369ZM40.0885 75.7037C40.1855 75.4629 40.2704 75.2703 40.3431 75.0656C40.1613 74.8369 40.1734 74.4516 39.7854 74.4276C39.1792 74.873 39.0822 75.0054 38.8155 75.6917C39.0458 75.9445 39.3368 76.0408 39.6763 75.9806C39.8097 75.8964 39.943 75.8 40.0885 75.7037ZM41.9436 72.3207C41.8223 72.2123 41.689 72.104 41.5677 72.0077C41.1555 72.2484 40.6705 72.8745 40.5493 73.2959C41.2282 73.633 41.4586 73.5728 41.9436 72.8865C41.9436 72.718 41.9436 72.5374 41.9436 72.3207Z" fill="white"/>
<path d="M61.7676 75.5833C62.1677 75.5111 62.4223 75.4509 62.6769 75.4268C63.2953 75.3546 63.8288 75.5472 64.2774 75.9445C64.8836 76.4742 65.2352 77.1605 65.3807 77.943C65.4656 78.3764 65.5989 78.7858 65.6474 79.2192C65.7081 79.7369 65.7081 80.2546 65.7081 80.7722C65.7081 80.8806 65.6232 80.989 65.5868 81.1093C65.5383 81.2538 65.5019 81.4103 65.4292 81.627C65.6959 81.8197 65.9505 82.0123 66.1567 82.1568C66.1082 82.6745 65.8414 82.9032 65.4898 83.0958C65.2231 82.9032 64.9321 82.6865 64.6654 82.4939C63.7075 83.0838 62.7739 83.1921 61.8525 82.6143C61.028 82.1086 60.6764 81.314 60.5066 80.4953C60.8098 80.3027 61.0401 80.1703 61.2462 80.0017C61.4524 79.8452 61.6221 79.6526 61.8282 79.4479C62.1313 79.7128 62.2526 80.0138 62.3253 80.3388C62.3981 80.6519 62.4344 80.9769 62.7618 81.1455C62.9679 81.1455 63.1619 81.1455 63.4286 81.1455C63.1134 80.8084 62.8346 80.5194 62.5557 80.2305C62.7012 80.0258 62.8224 79.8452 62.9194 79.6887C63.2832 79.472 63.5499 79.7008 63.8651 79.8934C63.8773 79.1108 63.6954 78.4246 63.4893 77.7504C63.4165 77.5216 63.2104 77.329 63.077 77.1243C62.9315 77.1123 62.8346 77.0882 62.7376 77.0882C62.6406 77.0762 62.5314 77.0882 62.4587 77.0882C61.9373 77.3531 62.0222 77.8708 61.901 78.3162C61.5251 78.3885 61.3069 78.6533 61.0886 78.9543C60.931 79.1831 60.737 79.484 60.3127 79.3396C60.3005 79.2312 60.2399 79.0747 60.2884 78.9784C60.4945 78.557 60.3975 78.1597 60.1914 77.7865C60.2884 77.2809 60.4703 76.8354 60.7249 76.402C60.9916 75.9325 61.4402 75.7759 61.7676 75.5833Z" fill="white"/>
<path d="M47.9092 15.5071C48.2729 14.869 48.9155 15.1098 49.4611 14.9533C49.546 15.1821 49.6308 15.3386 49.6672 15.5071C49.9703 16.8555 50.2492 18.216 50.5644 19.5644C50.6251 19.8413 50.819 20.0941 50.9403 20.371C51.1585 20.383 51.3283 20.3951 51.5344 20.3951C51.6435 20.2867 51.7648 20.1784 51.8496 20.0941C51.9345 19.6727 51.8375 19.3116 51.7647 18.9383C51.6435 18.3364 51.4253 17.7585 51.3889 17.1445C51.3768 16.8676 51.2434 16.6147 51.1828 16.3378C51.0858 15.9165 50.9888 15.483 50.9282 15.0617C50.9039 14.9172 50.9524 14.7487 50.9645 14.5801C51.498 14.4958 51.983 14.2671 52.565 14.4597C52.6983 15.1219 52.8438 15.7961 52.9772 16.4703C52.9893 16.5305 52.9651 16.6027 52.9893 16.6509C53.3288 17.3251 53.2561 18.0835 53.5228 18.7818C53.741 19.3356 53.7168 20.07 53.5713 20.66C53.45 21.1174 53.1469 21.4786 52.7347 21.7074C52.2012 21.9963 51.6193 22.0806 51.0009 22.1167C49.9461 22.1649 49.1701 21.274 48.964 20.4071C48.8791 20.0459 48.7943 19.6727 48.7094 19.3115C48.5518 18.6012 48.4063 17.8789 48.2487 17.1686C48.1517 16.5907 48.0304 16.0489 47.9092 15.5071Z" fill="white"/>
<path d="M72.0486 79.4118C71.8061 79.9415 71.5636 80.399 71.0301 80.712C70.7755 80.6278 70.4845 80.5435 70.1814 80.4472C70.2299 81.0973 70.0481 81.2899 69.4176 81.2899C68.7265 81.2899 68.193 80.989 67.7808 80.4472C67.3322 79.8573 67.1624 79.159 66.8715 78.4968C66.5684 77.8106 66.2895 77.1123 66.0106 76.414C65.8773 76.089 65.7803 75.7398 65.6348 75.3185C65.8409 75.1138 66.0834 74.861 66.3259 74.6081C66.5562 74.5479 66.7623 74.4998 67.0412 74.4275C67.1867 74.6924 67.3564 74.9573 67.4777 75.2462C67.7929 76.0167 68.0839 76.7872 68.3991 77.5578C68.6295 78.1356 68.872 78.7256 69.1387 79.3516C69.4661 79.4118 69.7692 79.46 70.0844 79.5081C70.2906 79.5081 70.3997 79.8332 70.6543 79.6646C70.6543 79.3757 70.6543 79.0867 70.6543 78.8098C70.6785 78.7978 70.7149 78.7858 70.7392 78.7858C70.63 78.6293 70.5573 78.3885 70.3997 78.3162C69.9026 78.0995 69.7571 77.63 69.6601 77.2086C69.551 76.7511 69.26 76.402 69.1509 75.9565C69.0417 75.5352 68.8235 75.1499 68.6659 74.7526C68.6053 74.6081 68.5446 74.4637 68.4961 74.3192C68.4476 74.1747 68.4355 74.0302 68.387 73.8376C68.8962 73.6089 69.3327 73.332 69.9268 73.344C70.0481 73.6089 70.1936 73.8617 70.3148 74.1386C70.5937 74.8008 70.8604 75.4629 71.1271 76.1251C71.4181 76.8595 71.7455 77.5939 71.988 78.3403C72.085 78.6894 72.0244 79.0867 72.0486 79.4118Z" fill="white"/>
<path d="M56.4322 20.1543C56.0806 20.5516 56.1533 21.0693 55.7047 21.3221C55.341 21.3221 54.9409 21.3221 54.5165 21.3221C54.3953 21.0211 54.4195 20.7322 54.4923 20.4432C54.6378 19.8654 54.8196 19.2995 54.9772 18.7337C55.1955 17.9511 55.4016 17.1685 55.6077 16.386C55.7775 15.7359 55.9593 15.0857 56.1412 14.4356C56.1897 14.255 56.2988 14.0865 56.3594 13.93C57.4143 13.8216 57.4991 13.8337 57.9841 14.1106C58.6267 16.4101 59.2693 18.7096 59.8998 20.997C59.4269 21.298 58.9662 21.2138 58.4934 21.2138C58.36 21.0813 58.2266 20.9609 58.1054 20.8526C58.069 20.6359 58.0326 20.4432 57.9962 20.2025C57.4749 20.0821 56.9414 20.1663 56.4322 20.1543ZM57.6325 18.5892C57.5719 18.24 57.5113 17.9752 57.4749 17.7103C57.4143 17.301 57.3779 16.8916 57.002 16.5425C57.0142 17.3251 56.5049 17.9872 56.6747 18.8179C57.0263 18.7577 57.4021 18.9624 57.6325 18.5892Z" fill="white"/>
<path d="M75.4314 78.3764C75.0676 78.6292 74.6918 78.8941 74.328 79.1469C74.0371 79.0867 73.9158 78.9302 73.8309 78.6654C73.5521 77.7383 73.2368 76.8113 72.9337 75.8843C72.7034 75.1499 72.4851 74.4034 72.2669 73.669C72.1578 73.3079 72.0365 72.9467 71.9395 72.5855C71.9032 72.429 71.9032 72.2725 71.8789 72.0678C72.182 71.815 72.4851 71.5622 72.7882 71.3093C72.9822 71.3093 73.1641 71.3093 73.3702 71.3093C73.4066 71.3334 73.4672 71.3575 73.5036 71.3936C74.2311 72.0798 74.9585 72.7661 75.6981 73.4403C76.5589 74.2228 77.4198 74.9934 78.2806 75.7759C78.4019 75.8963 78.4989 76.0408 78.5959 76.1612C78.317 76.6789 77.8078 76.7872 77.3955 77.1123C77.1409 76.8956 76.8984 76.6909 76.6317 76.4622C76.0376 76.4501 75.686 76.9678 75.2253 77.1725C75.0191 77.6179 75.3708 77.9069 75.4314 78.3764ZM75.3101 74.3553C74.9706 73.8376 74.3523 74.271 73.9764 73.8857C74.0128 74.6201 74.3523 75.2341 74.6433 75.8843C75.0313 75.8241 75.2859 75.6194 75.5162 75.3305C75.3586 75.1499 75.201 74.9813 75.0676 74.8128C75.1646 74.6322 75.2374 74.4877 75.3101 74.3553Z" fill="white"/>
<path d="M30.1221 29.4126C29.8554 29.846 29.5886 30.2674 29.3462 30.6647C29.6856 31.2064 29.7826 31.2666 30.401 31.3268C30.6313 31.0138 30.8738 30.6887 31.1284 30.3396C31.674 30.46 32.0742 30.7008 32.3409 31.1342C32.1105 31.5194 31.8923 31.8927 31.6377 32.314C32.0135 32.5669 32.3651 32.8077 32.741 33.0484C33.1411 32.5067 33.517 32.0251 33.8928 31.5194C34.4142 31.6158 34.7779 31.8686 35.081 32.2779C35.0446 32.3863 35.0446 32.5428 34.9719 32.6511C34.3657 33.53 33.8807 34.4932 33.0926 35.2998C31.1284 34.0357 29.1885 32.7956 27.2365 31.5435C27.1395 31.3027 27.1759 31.086 27.3456 30.8452C27.8063 30.1951 28.2186 29.5209 28.6672 28.8588C28.7521 28.7384 28.8854 28.642 29.0067 28.5337C29.431 28.7263 29.7705 29.0032 30.1221 29.4126Z" fill="white"/>
<path d="M45.4117 75.9445C45.8482 76.1853 46.2362 76.39 46.6363 76.6067C46.7575 77.1485 46.4302 77.5217 46.1271 77.919C45.7027 77.7504 45.3026 77.5819 44.8782 77.4133C44.4296 77.7384 44.2356 78.1477 44.2599 78.6654C44.5751 78.8099 44.854 78.9303 45.1207 79.0747C45.8967 79.472 45.9694 80.0018 45.3632 80.6278C45.3268 80.676 45.2783 80.7121 45.1935 80.7843C44.1508 80.3991 43.1323 79.9055 42.1502 79.3998C41.932 78.9664 42.2472 78.6654 42.3685 78.3644C42.6837 77.6059 43.1081 76.8836 43.4597 76.1372C43.8962 75.2342 44.3084 74.3072 44.7449 73.4042C44.854 73.1755 45.0116 72.9708 45.1571 72.7421C46.1756 73.2236 47.1455 73.6811 48.0912 74.1386C48.1276 74.6924 47.9336 75.1379 47.4971 75.5472C47.0606 75.3546 46.6242 75.1499 46.1756 74.9573C45.727 75.1138 45.7391 75.6074 45.4117 75.9445Z" fill="white"/>
<path d="M50.9639 34.8663C50.6123 34.1199 50.7699 33.3614 50.4789 32.615C50.1273 32.4223 49.7151 32.1454 49.2786 31.9769C48.9997 31.8685 48.8057 31.7 48.5996 31.4592C49.1331 31.0378 49.7514 30.8332 50.3819 30.5563C50.4547 30.4479 50.5516 30.3275 50.6608 30.171C50.7214 29.6413 50.782 29.0995 50.8426 28.4855C50.9154 28.4494 51.0245 28.3771 51.1821 28.2808C51.6429 28.7744 52.0915 29.256 52.5401 29.7496C52.9644 29.8098 53.3645 29.7617 53.7768 29.6292C54.1405 29.5088 54.5042 29.4486 54.9043 29.6894C54.6982 30.0747 54.5042 30.4359 54.2981 30.8091C54.2375 30.9174 54.189 31.0137 54.1162 31.1221C53.898 31.4351 53.8859 31.7361 54.1041 32.0612C54.3224 32.4103 54.5042 32.7835 54.7103 33.1567C54.8316 33.3735 54.8437 33.5781 54.6376 33.7106C53.9465 33.5902 53.2797 33.4698 52.6249 33.3494C52.0793 33.843 51.558 34.3246 50.9639 34.8663Z" fill="white"/>
<path d="M37.2272 28.6902C37.2272 29.1357 37.2272 29.557 37.2272 29.9664C36.8028 30.8452 36.1724 31.4472 35.1539 31.6037C34.7538 31.2666 34.3658 30.9295 33.9051 30.5322C34.3901 30.3276 34.8144 30.159 35.2388 29.9784C35.36 29.7858 35.4934 29.5932 35.6268 29.3764C35.5661 29.244 35.5055 29.1236 35.4449 29.0032C35.069 28.8708 34.7417 28.8106 34.3295 28.8828C33.699 28.9912 33.0321 28.9791 32.4017 28.8949C32.0379 28.8467 31.6863 28.5457 31.359 28.329C31.165 28.1966 30.9952 28.004 30.8982 27.9197C30.2435 26.3425 31.2377 24.958 32.4623 24.7172C33.1049 25.0904 33.3231 25.2831 33.7111 25.8248C33.3716 25.9814 33.0321 26.1499 32.7048 26.3064C32.5957 26.4629 32.4987 26.6074 32.4017 26.7519C32.7533 27.2334 32.9473 27.2936 33.4686 27.2094C34.0991 27.1131 34.7174 26.9445 35.36 27.1251C36.0148 27.3057 36.5846 27.6067 36.9362 28.2207C37.0211 28.3651 37.1181 28.5096 37.2272 28.6902Z" fill="white"/>
<path d="M63.3795 68.3958C63.1128 68.143 62.8824 67.9263 62.6642 67.6976C62.4459 67.4688 62.2519 67.216 62.0216 66.9511C61.5487 67.0234 61.0759 67.0956 60.603 67.1678C60.4212 67.1919 60.2393 67.216 60.0695 67.2039C59.9725 67.1919 59.8756 67.0836 59.7422 66.9993C60.0695 66.3853 60.3848 65.7953 60.7 65.1934C60.4575 64.6877 60.2393 64.2302 60.0089 63.7727C59.8998 63.5681 59.8998 63.5801 60.021 63.1708C60.6515 63.0624 61.2456 63.3634 61.9125 63.4477C62.6036 63.1587 62.9309 62.3762 63.5856 62.027C63.816 62.0632 63.9009 62.1835 63.913 62.3641C63.9251 62.5808 63.9373 62.8096 63.9251 63.0263C63.8888 63.4718 64.01 63.857 64.2646 64.2423C64.8223 64.5192 65.4043 64.8202 66.0227 65.1211C65.5619 65.8555 64.6647 65.8074 64.0464 66.4575C63.7675 66.915 64.0221 67.6253 63.6948 68.3116C63.719 68.2995 63.6584 68.3597 63.5856 68.3838C63.5129 68.4079 63.4523 68.3958 63.3795 68.3958Z" fill="white"/>
<path d="M52.14 75.7037C51.9824 76.2214 51.8369 76.7511 51.6551 77.3531C51.3156 77.028 51.0488 76.7632 50.77 76.4983C50.4184 76.4742 50.0546 76.402 49.7273 76.703C49.7636 76.7993 49.7879 76.9077 49.8485 77.004C50.2365 77.6541 50.673 78.2801 51.0246 78.9423C51.3156 79.472 51.2792 80.074 51.0367 80.6158C50.8427 81.0492 50.6366 81.4706 50.2001 81.7475C49.1453 82.4096 48.1268 82.1448 47.2903 81.4345C47.1205 81.29 47.0478 81.0372 46.9629 80.8927C47.072 80.4713 47.1569 80.1222 47.2539 79.7128C47.3388 79.6767 47.4842 79.6165 47.6419 79.5563C47.9813 80.062 48.3936 80.4111 49.0726 80.4472C49.2059 80.3268 49.3635 80.1824 49.5454 80.0138C49.3999 79.7128 49.315 79.472 49.1817 79.2553C48.7452 78.545 48.2966 77.8467 48.2117 76.9799C48.1875 76.7752 48.1632 76.6067 48.236 76.402C48.3208 76.1612 48.3572 75.9084 48.43 75.6194C48.6482 75.4148 48.8786 75.186 49.0726 74.9934C50.6487 74.5359 51.4247 74.861 52.14 75.7037Z" fill="white"/>
<path d="M75.1885 18.4568C75.6614 18.7698 76.0736 19.0467 76.5344 19.3597C76.4374 19.9858 76.3404 20.6239 76.2312 21.3221C76.692 21.274 76.9345 20.9971 77.2133 20.8044C77.3467 20.7202 77.4558 20.5877 77.5892 20.5035C77.8317 20.3349 78.0863 20.3229 78.3167 20.4914C78.644 20.7202 78.9592 20.961 79.3351 21.2379C78.9956 21.4786 78.7289 21.6713 78.4621 21.8519C77.9044 22.2371 77.3467 22.6224 76.789 22.9956C76.11 23.4531 75.4795 23.9587 75.1037 24.7172C74.8976 25.1266 74.6308 25.4998 74.3883 25.885C74.2913 26.0415 74.1701 26.174 74.0731 26.2823C73.4426 26.1619 73.091 25.7526 72.6182 25.4757C72.7879 25.1867 72.9334 24.9098 73.1031 24.645C73.479 24.0551 73.867 23.4772 74.2428 22.8993C74.3277 22.7669 74.4247 22.6103 74.4247 22.4659C74.4247 21.8639 74.5702 21.286 74.6793 20.7081C74.7521 20.3349 74.7642 19.9617 74.8127 19.5885C74.8491 19.3357 74.8854 19.0828 74.9461 18.83C74.9824 18.7217 75.0915 18.6133 75.1885 18.4568Z" fill="white"/>
<path d="M69.6963 23.7781C69.1022 23.7179 68.6535 23.5494 68.2777 23.2123C68.2534 22.6344 68.5687 22.189 68.7627 21.7194C69.187 20.672 69.6841 19.6487 70.1206 18.6133C70.2055 18.4086 70.2055 18.1558 70.2419 17.927C69.8902 17.7464 69.5871 17.5899 69.2719 17.4334C69.1385 16.8917 69.5386 16.5425 69.7084 16.085C70.1327 16.1693 70.5086 16.2897 70.8966 16.4703C71.6847 16.8555 72.5091 17.1445 73.3215 17.4816C73.5155 17.5659 73.6731 17.7224 73.8307 17.8428C73.5761 18.6494 73.5761 18.6494 73.1396 19.0467C73.0184 19.0106 72.8486 18.9745 72.691 18.9143C72.5455 18.8541 72.4121 18.7577 72.2667 18.6855C72.1333 18.7577 71.9999 18.8179 71.8665 18.8781C71.5149 19.6968 71.1876 20.5155 70.8117 21.3221C70.448 22.1288 70.1812 22.9835 69.6963 23.7781Z" fill="white"/>
<path d="M57.111 76.1853C57.1231 76.6307 57.208 77.0641 56.8564 77.3892C56.5048 77.4133 56.1532 77.4374 55.8379 77.4494C55.4863 77.8106 55.4621 78.2681 55.4499 78.6533C55.4257 79.4479 55.2559 80.2305 55.1832 81.0251C55.1226 81.603 55.0741 82.1688 55.0135 82.8189C54.965 82.8671 54.868 82.9634 54.771 83.0718C54.286 83.0958 53.801 83.132 53.3282 82.8791C53.1948 82.5661 53.2069 82.229 53.3039 81.9039C53.4373 81.4344 53.4858 80.9769 53.4979 80.4953C53.51 80.086 53.607 79.6767 53.6555 79.2553C53.7161 78.7858 53.7889 78.3162 53.8253 77.8347C53.8374 77.642 53.7646 77.4494 53.7283 77.2206C53.3403 77.1364 52.9644 77.0641 52.5764 76.9919C52.3825 76.4983 52.6977 76.0649 52.6492 75.5351C52.9038 75.5351 53.1099 75.487 53.2797 75.5472C53.8374 75.7519 54.4315 75.7157 55.0013 75.7639C55.6197 75.812 56.2259 75.9445 56.8321 76.0408C56.9291 76.0649 56.9897 76.1251 57.111 76.1853Z" fill="white"/>
<path d="M36.9971 22.4538C38.0883 24.031 39.4342 25.3673 40.5496 26.9204C40.2223 27.2334 39.9191 27.5103 39.5918 27.8113C39.422 27.8113 39.2523 27.8113 39.0947 27.8113C37.9429 26.4388 36.888 25.0182 35.7241 23.7541C35.1906 23.742 34.9966 24.1875 34.6329 24.3681C34.16 24.1634 33.9175 23.7541 33.6387 23.3568C33.7599 22.9474 34.1358 22.7548 34.4268 22.502C35.2512 21.8157 36.0999 21.1656 36.9729 20.4673C37.2881 20.6841 37.5185 20.985 37.7731 21.2379C37.9065 21.6111 37.7852 21.8639 37.4579 22.0565C37.3003 22.1649 37.1669 22.3214 36.9971 22.4538Z" fill="white"/>
<path d="M62.337 20.046C62.9675 20.2386 63.6586 19.9256 64.0102 20.5998C63.9617 20.8887 63.9253 21.1777 63.8768 21.4786C63.9011 21.5027 63.9253 21.5148 63.9496 21.5388C63.8404 21.6472 63.7313 21.7676 63.6586 21.8398C62.6037 21.6953 61.658 21.5629 60.6638 21.4184C60.4456 21.3101 60.3486 21.1054 60.4213 20.8044C60.4698 20.5757 60.482 20.3349 60.5062 20.0941C60.5426 19.8654 60.579 19.6246 60.6275 19.3958C60.6517 19.2754 60.7366 19.1671 60.7245 19.0587C60.676 17.9993 61.1609 17 61.1124 15.9285C61.1124 15.8924 61.1124 15.8442 61.1124 15.8081C61.2216 15.2904 61.3307 14.7607 61.4398 14.1949C61.9854 14.0143 62.4582 14.3153 62.9675 14.4477C62.9917 14.5681 63.0523 14.6644 63.0281 14.7487C62.8584 15.4229 63.0038 16.1452 62.725 16.8074C62.7129 16.8435 62.6886 16.8796 62.6886 16.9157C62.7129 17.7585 62.4219 18.5531 62.3249 19.3838C62.3128 19.5885 62.337 19.8052 62.337 20.046Z" fill="white"/>
<path d="M82.4755 72.6698C82.3179 72.8865 82.1966 73.0551 82.0875 73.2116C81.8814 73.2357 81.7117 73.2477 81.5056 73.2598C81.5419 73.4042 81.5662 73.5126 81.5904 73.645C81.1054 74.0905 80.5962 74.548 80.0749 75.0295C79.9172 74.9091 79.7354 74.8128 79.602 74.6684C79.1413 74.1988 78.6927 73.7172 78.2319 73.2357C77.4196 72.405 76.5951 71.5863 75.7949 70.7435C75.5161 70.4546 75.2857 70.1416 75.0068 69.7924C75.3584 69.3831 75.6616 68.9978 76.1344 68.7811C76.5345 68.8534 76.7528 69.1664 76.9953 69.4192C77.7712 70.2138 78.5351 71.0204 79.2989 71.8391C79.5778 72.1401 79.8081 72.4892 80.1597 72.7421C80.6205 72.3688 81.0812 72.0197 81.5783 71.6224C81.7117 71.8632 81.8208 72.0438 81.942 72.2485C82.0754 72.3688 82.2451 72.5013 82.4755 72.6698Z" fill="white"/>
<path d="M66.7139 15.0858C67.1746 15.2302 67.5868 15.3506 68.0233 15.4831C68.0233 15.6516 68.0597 15.7961 68.0233 15.9285C67.793 16.7472 67.5383 17.5538 67.3201 18.3725C67.0655 19.2995 66.8351 20.2506 66.5805 21.1777C66.4956 21.4786 66.3259 21.7555 66.3138 22.0926C66.3138 22.213 66.1319 22.3334 66.0228 22.4538C65.562 22.3094 65.0649 22.3936 64.6891 22.0325C64.5557 21.587 64.7497 21.1777 64.8346 20.7563C64.9558 20.2386 65.1377 19.7329 65.2953 19.2273C65.5984 18.228 65.9015 17.2288 66.1925 16.2175C66.2531 16.0128 66.2774 15.7961 66.338 15.5794C66.3744 15.3145 66.3865 15.3145 66.7139 15.0858Z" fill="white"/>
<path d="M84.5609 70.3101C84.2578 70.6833 84.0031 70.9963 83.7243 71.3455C83.5424 71.2853 83.3606 71.2612 83.2272 71.1769C82.6695 70.7555 82.1239 70.3221 81.5661 69.8887C80.6204 69.1423 79.6747 68.4079 78.7411 67.6614C78.4744 67.4447 78.244 67.2039 78.0137 66.9872C78.0258 66.4334 78.535 66.2167 78.6926 65.8315C78.9957 65.699 79.214 65.8194 79.408 65.9639C79.8808 66.3251 80.3416 66.7224 80.8144 67.0956C81.5055 67.6374 82.2087 68.155 82.8877 68.7089C83.3484 69.0941 83.7607 69.5275 84.282 69.8526C84.4154 69.9128 84.4639 70.1295 84.5609 70.3101Z" fill="white"/>
<path d="M58.2151 32.2177C58.0696 32.1454 57.9726 32.0853 57.8877 32.0491C57.8271 31.6278 57.7665 31.2305 57.6937 30.8091C57.2815 30.5563 56.845 30.2914 56.3115 29.9784C56.6025 29.7978 56.7965 29.6052 57.0269 29.545C57.5967 29.4005 57.7907 29.0152 57.8392 28.4975C57.8635 28.2086 57.9847 27.9678 58.1181 27.7029C58.6152 27.9437 58.8334 28.4012 59.2335 28.6661C59.7549 28.8346 60.2884 28.341 60.8461 28.7263C60.6642 29.0875 60.4824 29.4246 60.2399 29.8821C60.0701 30.3877 60.7006 30.8091 60.7249 31.399C60.4339 31.5194 60.1671 31.4351 59.9004 31.3749C59.6458 31.3268 59.379 31.3629 59.1244 31.3629C58.8213 31.6398 58.5303 31.9287 58.2151 32.2177Z" fill="white"/>
<path d="M56.978 66.0241C57.4144 66.2287 57.7782 66.4093 58.1662 66.5899C58.0207 67.2641 57.3296 67.216 56.9295 67.5892C56.8203 68.0587 56.784 68.6005 56.4081 69.058C56.0686 68.6968 55.7655 68.3717 55.4382 68.0346C54.9168 68.0708 54.4197 68.1189 53.9226 68.155C53.8014 68.0106 53.8135 67.8661 53.8983 67.7096C53.9105 67.6975 53.9226 67.6735 53.9347 67.6614C54.4924 67.0233 54.4318 66.3853 53.9711 65.7231C53.9105 65.6268 53.8741 65.5184 53.8135 65.4221C54.2863 65.2295 54.4076 65.2295 55.2927 65.5064C55.5594 65.2776 55.8625 65.0128 56.2141 64.7118C56.3232 64.7118 56.5051 64.7118 56.7112 64.7118C56.8082 65.1693 56.9052 65.6268 56.978 66.0241Z" fill="white"/>
<path d="M67.0654 64.0015C67.1139 63.5079 67.4413 63.1467 67.6595 62.7615C67.5868 62.2197 67.0533 61.8585 67.1988 61.2806C67.4655 61.0399 67.6959 61.3288 67.9384 61.3168C68.2051 61.3047 68.4597 61.3168 68.6901 61.3168C69.0417 61.0158 69.357 60.7389 69.7328 60.4138C70.0723 60.8593 69.9268 61.377 70.1208 61.7743C70.4482 62.2317 71.115 62.2317 71.4181 62.7735C71.0059 63.1949 70.2905 63.1949 69.9632 63.857C69.8541 64.1339 70.1208 64.5794 69.7692 64.9165C69.1993 64.7961 68.9811 64.2543 68.5204 63.9654C68.0718 63.8811 67.5868 64.2664 67.0654 64.0015Z" fill="white"/>
<path d="M45.9573 32.8077C46.5272 32.7475 46.9879 32.6873 47.4123 32.6391C47.679 32.9521 47.4244 33.1448 47.3032 33.3494C47.1819 33.5782 47.0728 33.819 46.9394 34.0718C47.1334 34.445 47.3274 34.8303 47.5214 35.2155C47.3153 35.6369 47.1577 35.661 46.0786 35.3359C45.7148 35.661 45.3269 35.9981 44.9268 36.3593C44.7206 36.2028 44.6236 35.9861 44.6358 35.7453C44.6479 35.3841 44.5388 35.0831 44.3327 34.746C44.0174 34.5774 43.6658 34.3969 43.3506 34.2403C43.2415 33.9755 43.3385 33.831 43.5203 33.7467C43.8113 33.6023 44.1023 33.4698 44.3933 33.3254C44.7449 32.8919 44.6358 32.3381 44.8176 31.8445C45.1571 31.7602 45.2662 32.0492 45.4481 32.2057C45.63 32.3863 45.7876 32.603 45.9573 32.8077Z" fill="white"/>
<path d="M86.4279 73.6209C86.3309 73.4764 86.2581 73.3801 86.1611 73.2356C86.343 73.0551 86.5006 72.8985 86.6703 72.718C86.9007 73.1875 86.9007 73.1995 86.4279 73.6209Z" fill="white"/>
</svg>
