<svg width="52" height="42" viewBox="0 0 52 42" fill="none" xmlns="http://www.w3.org/2000/svg">
<path d="M50.6582 14.5068H22.2566C21.5107 14.5068 20.9141 15.1151 20.9141 15.8754V34.3664C20.9141 35.1267 21.5107 35.7349 22.2566 35.7349H40.2761L46.1831 41.7566C46.75 42.3345 47.7047 41.9087 47.7047 41.118V35.7349H50.6582C51.404 35.7349 52.0007 35.1267 52.0007 34.3664V15.8754C52.0007 15.1151 51.3742 14.5068 50.6582 14.5068ZM31.2365 26.3678C30.3117 26.3678 29.5658 25.6075 29.5658 24.6647C29.5658 23.7219 30.3117 22.9616 31.2365 22.9616C32.1613 22.9616 32.9072 23.7219 32.9072 24.6647C32.9072 25.6075 32.1613 26.3678 31.2365 26.3678ZM36.4574 26.3678C35.5325 26.3678 34.7867 25.6075 34.7867 24.6647C34.7867 23.7219 35.5325 22.9616 36.4574 22.9616C37.3822 22.9616 38.1281 23.7219 38.1281 24.6647C38.1281 25.6075 37.3822 26.3678 36.4574 26.3678ZM41.6783 26.3678C40.7534 26.3678 40.0076 25.6075 40.0076 24.6647C40.0076 23.7219 40.7534 22.9616 41.6783 22.9616C42.6031 22.9616 43.3489 23.7219 43.3489 24.6647C43.3489 25.6075 42.5733 26.3678 41.6783 26.3678Z" fill="#272A3D"/>
<path d="M6.17556 32.4808V24.6039H2.14802C1.61102 24.6039 1.19334 24.1781 1.19334 23.6307V2.18972C1.19334 1.64229 1.61102 1.21651 2.14802 1.21651H37.5904C38.1274 1.21651 38.545 1.64229 38.545 2.18972V11.7393H39.7384V2.18972C39.7384 0.973208 38.7837 0 37.5904 0H2.14802C0.954676 0 0 0.973208 0 2.18972V23.6003C0 24.8168 0.954676 25.79 2.14802 25.79H4.98221V35.4004L14.4096 25.79H18.2582V24.5735H13.9025L6.17556 32.4808Z" fill="#272A3D"/>
<path d="M31.4155 8.12012H7.99609V9.33663H31.4155V8.12012Z" fill="#272A3D"/>
<path d="M18.229 16.3013H7.99609V17.5178H18.229V16.3013Z" fill="#272A3D"/>
</svg>
