<svg width="49" height="50" viewBox="0 0 49 50" fill="none" xmlns="http://www.w3.org/2000/svg">
<g clip-path="url(#clip0_1639_432)">
<path d="M17.7748 38.97C17.7874 38.9574 17.8 38.9448 17.8126 38.9322C17.9008 38.844 17.9764 38.7685 18.0646 38.6803C19.4124 37.3324 20.458 35.7578 21.3524 34.0824C21.5287 33.7549 21.7429 33.4651 21.9822 33.2258C22.4357 32.7723 23.0026 32.4826 23.708 32.3818C24.5016 32.2684 25.2826 32.1928 26.0888 32.0921C26.9076 31.9787 27.7264 31.8653 28.5327 31.7394C29.9309 27.2926 29.9687 22.8963 28.5201 18.4244C28.2807 18.3614 28.0792 18.311 27.8902 18.2732C26.5675 18.0842 25.2574 17.9079 23.9348 17.7441C22.6373 17.5804 21.7051 16.9757 21.113 15.7538C20.6469 14.809 19.9919 13.9524 19.3747 13.1084C18.8708 12.4282 18.2661 11.7984 17.6867 11.1685C16.7545 10.1356 16.6663 8.38457 17.5859 7.4398C18.3291 6.67138 19.0849 5.91556 19.8407 5.15975C20.6973 4.30315 21.5665 3.43396 22.4357 2.58996C23.3049 1.74597 24.9677 1.69558 25.8747 2.47659C26.5549 3.05605 27.1974 3.6733 27.7516 4.37873C28.6964 5.55025 29.5656 6.77216 30.4222 8.00666C31.5811 9.71985 32.5133 11.559 33.2439 13.4989C34.3525 16.4214 35.0831 19.4195 35.3098 22.5436C35.4736 24.6221 35.461 26.7006 35.209 28.7665C34.8941 31.374 34.2643 33.9438 33.2943 36.4002C31.7071 40.4565 29.427 44.0466 26.3534 47.1203C26.303 47.1706 26.2526 47.221 26.1896 47.284C25.1693 48.2792 23.3679 48.3925 22.2972 47.2966C20.8359 45.785 19.3243 44.2985 17.8252 42.8247C16.7419 41.7665 16.7671 39.9778 17.7748 38.97ZM24.1741 47.0069C24.6528 47.0069 25.1189 46.8179 25.4338 46.5282C25.4842 46.4778 25.5346 46.4274 25.585 46.377C28.4949 43.4671 30.6867 40.066 32.2866 36.0223C33.2061 33.6919 33.8234 31.2103 34.1383 28.6531C34.3651 26.7887 34.3902 24.8236 34.2265 22.6443C34.0123 19.7092 33.3699 16.8497 32.2362 13.8769C31.5055 11.9369 30.5986 10.1733 29.5278 8.59872C28.6334 7.27604 27.7768 6.11712 26.9202 5.03378C26.4793 4.49211 25.9251 3.91265 25.1819 3.2702C24.6906 2.8545 23.6702 2.89229 23.1915 3.34578C22.3097 4.20238 21.4532 5.05897 20.6218 5.89037C21.9066 7.52798 27.2226 14.4563 27.0588 17.0891C27.21 17.1143 27.3485 17.1269 27.4997 17.1521L28.0288 17.2276C28.2303 17.2528 28.4067 17.3032 28.5704 17.341C28.6334 17.3536 28.709 17.3788 28.772 17.3914L29.3641 17.53L29.553 18.0968C31.052 22.7451 31.052 27.3052 29.5656 32.0669L29.3766 32.7093L28.709 32.7975C28.4697 32.8353 28.2051 32.8731 27.9658 32.9109C27.5501 32.9739 27.1344 33.0368 26.7061 33.0872C26.366 34.3595 24.8165 39.2094 20.0297 43.4671C21.1382 44.5757 22.1334 45.5708 23.0656 46.5282C23.3427 46.8305 23.7332 46.9943 24.1741 47.0069Z" fill="#272A3D"/>
</g>
<defs>
<clipPath id="clip0_1639_432">
<rect width="34.2757" height="34.2757" fill="white" transform="matrix(-0.707107 0.707107 0.707107 0.707107 24.2363 0.763672)"/>
</clipPath>
</defs>
</svg>
