<svg width="16" height="16" viewBox="0 0 16 16" fill="none" xmlns="http://www.w3.org/2000/svg">
<path d="M4.31917 7.23119C5.33886 9.19479 6.80622 10.6675 8.7544 11.6742C9.32642 11.2333 9.89845 10.8256 10.4373 10.368C10.9181 9.95194 11.4321 9.90202 12.0124 10.0851C12.5513 10.2515 13.0902 10.3929 13.6622 10.4179C14.0021 10.4345 14.3503 10.4678 14.6902 10.4928C15.2622 10.526 15.7181 10.8755 15.9005 11.3997C15.9668 11.591 15.9834 11.8074 15.9917 12.0071C16 12.7309 16 13.4465 15.9917 14.1703C15.9917 14.42 15.9585 14.6612 15.9254 14.9109C15.8508 15.5515 15.2124 15.9842 14.6984 15.9925C13.9855 16.0091 13.2725 15.9343 12.5596 15.8427C11.6062 15.7096 10.6777 15.485 9.7658 15.1605C8.09119 14.5614 6.5658 13.6961 5.20622 12.5396C4.0456 11.5578 3.05907 10.4345 2.25492 9.15319C1.50881 7.96338 0.936788 6.70701 0.55544 5.3508C0.348186 4.61861 0.190674 3.88642 0.0911917 3.13759C0.0165803 2.5302 0 1.89786 0 1.28215C0 0.608206 0.572021 0.0341033 1.23523 0.0174626C2.24663 0.000821962 3.24974 -0.00749837 4.26114 0.0174626C4.92435 0.0341033 5.4715 0.633167 5.47979 1.29879C5.48808 2.23899 5.65389 3.16255 5.91088 4.06114C6.0601 4.56868 6.01036 5.0263 5.66218 5.45896C5.20622 6.03306 4.77513 6.62381 4.31917 7.23119ZM0.928497 1.15735C0.754404 9.14487 7.56062 15.3435 14.8145 15.044C15.0052 14.9025 15.0715 14.7112 15.0715 14.4699C15.0632 13.6545 15.0632 12.8308 15.0715 12.0154C15.0715 11.7575 15.0052 11.5578 14.7648 11.4163C13.6124 11.4246 12.485 11.1917 11.3575 10.8505C11.1917 10.967 11.0259 11.0835 10.8601 11.2083C10.2964 11.6326 9.74093 12.0487 9.18549 12.4896C8.95337 12.6727 8.73782 12.6976 8.46425 12.5562C7.54404 12.1069 6.70674 11.5245 5.94404 10.8422C4.99896 9.99354 4.22798 8.98678 3.61451 7.85522C3.48187 7.61393 3.33264 7.38096 3.29119 7.07311C3.74715 6.47404 4.20311 5.87498 4.65907 5.26759C4.82487 5.04294 5.06528 4.84326 5.10674 4.51044C4.72539 3.43712 4.60933 2.28891 4.543 1.17399C4.41865 0.94102 4.24456 0.924379 4.06218 0.924379C3.31606 0.924379 2.56995 0.924379 1.82383 0.924379C1.59171 0.924379 1.35959 0.924379 1.13575 0.924379C1.05285 1.02422 0.986528 1.09911 0.928497 1.15735Z" fill="black"/>
</svg>
