<svg width="45" height="32" viewBox="0 0 45 32" fill="none" xmlns="http://www.w3.org/2000/svg">
<path fill-rule="evenodd" clip-rule="evenodd" d="M15.2069 2.45545C13.3448 0.920792 11.1724 0 8.68966 0C6.2069 0 4.03448 0.920792 2.48276 2.45545C0.931035 3.9901 0 6.13861 0 8.59406C0 13.505 1.55172 18.1089 4.96552 22.099C8.37931 26.396 12.7241 29.1584 17.6897 30.6931C18 31 18.6207 30.6931 19.2414 30.3861C19.8621 30.0792 20.1724 29.4653 20.4828 28.8515C20.4828 28.2376 20.4828 27.9307 20.1724 27.6238C14.5862 23.9406 11.7931 20.8713 11.7931 18.1089C11.7931 17.495 12.4138 16.5743 13.6552 15.9604C16.4483 14.4257 17.6897 11.9703 17.6897 8.59406C17.6897 6.13861 16.7586 3.9901 15.2069 2.45545ZM39.4136 2.45545C37.5516 0.920792 35.3792 0 32.8964 0C30.4136 0 28.5516 0.920792 26.9998 2.45545C25.4481 3.9901 24.5171 6.13861 24.5171 8.59406C24.5171 13.5049 26.0688 18.1089 29.1723 22.4059C32.5861 26.703 36.9309 29.4653 41.8964 31C42.2067 31.3069 42.8274 31 43.4481 30.6931C44.0688 30.0792 44.3792 29.7723 44.6895 29.1584C44.6895 28.5446 44.6895 28.2376 44.3792 27.9307C38.793 24.2475 35.9998 21.1782 35.9998 18.4158C35.9998 17.495 36.6205 16.8812 37.8619 15.9604C40.655 14.4257 41.8964 11.9703 41.8964 8.59406C41.8964 6.13861 40.9654 3.9901 39.4136 2.45545Z" fill="#D0D0D0"/>
</svg>
