<svg width="106" height="90" viewBox="0 0 106 90" fill="none" xmlns="http://www.w3.org/2000/svg">
<path d="M1.026e-05 76.4559L11.6 90C11.6 90 44.64 83.9893 44.64 51.4515C44.64 18.8335 44.64 0 44.64 0L1.04 3.81163e-06L1.04001 47.2039L15.36 47.2039C15.28 47.2039 17.76 67.6403 1.026e-05 76.4559Z" fill="#D0D0D0"/>
<path d="M61.36 76.4559L72.96 90C72.96 90 106 83.9893 106 51.4515C106 18.8335 106 0 106 0L62.4 3.81163e-06L62.4 47.2039L76.64 47.2039C76.64 47.2039 79.12 67.6403 61.36 76.4559Z" fill="#D0D0D0"/>
</svg>
