<svg width="123" height="85" viewBox="0 0 123 85" fill="none" xmlns="http://www.w3.org/2000/svg">
<g clip-path="url(#clip0_993_8403)">
<path d="M54.3191 82.0742C54.0931 82.0488 53.8657 82.037 53.6383 82.0391C53.4822 82.0391 53.3261 82.0391 53.17 82.0391C53.014 82.0391 52.838 82.0391 52.6719 82.0391H47.5494C42.8088 82.0391 37.9055 82.0391 33.0752 82.029C32.411 82.029 31.7203 82.029 31.0644 81.8347C30.6111 81.7024 30.1379 81.0359 30.1462 80.5385C30.1462 80.0796 30.6061 79.3879 31.1076 79.2657C31.8458 79.1131 32.5993 79.0485 33.3525 79.0731H39.7436H51.7354H52.2601H52.7749C53.1344 79.0772 53.4938 79.0576 53.8508 79.0145C54.1973 78.9805 54.5199 78.8215 54.7594 78.5667C54.9989 78.312 55.1391 77.9785 55.1543 77.6278C55.1643 76.9294 54.6296 76.3349 53.884 76.2143C53.628 76.1758 53.3692 76.1585 53.1103 76.1624C52.9741 76.1624 52.8396 76.1624 52.7035 76.1624C52.5673 76.1624 52.4228 76.1624 52.2834 76.1624H52.2601C49.1307 76.1557 46.0013 76.1518 42.8719 76.1507H42.3439C41.9636 76.1507 41.5734 76.1105 41.3044 75.8157C41.0354 75.521 41.0155 75.0638 41.0404 74.7104C41.161 72.8641 41.1882 71.0127 41.1218 69.1636V68.9509C41.1019 68.281 41.0902 67.9076 41.3559 67.6296C41.6216 67.3516 42.04 67.3415 42.6627 67.3365C44.2551 67.3248 45.8391 67.3231 47.0413 67.3231H52.3548H52.7134H53.0638C53.3589 67.3288 53.654 67.3081 53.9455 67.2611C54.6711 67.1271 55.2074 66.479 55.1427 65.8175C55.0696 65.0839 54.6694 64.6301 53.9804 64.5062C53.6136 64.4475 53.2425 64.4211 52.8712 64.4274C52.7051 64.4274 52.5391 64.4274 52.3863 64.4274C52.2336 64.4274 52.0542 64.4274 51.8882 64.4274H30.372H17.7874C16.7911 64.4274 15.7716 64.4141 14.7903 64.4023C13.8089 64.3906 12.7977 64.3789 11.8014 64.3789C10.2888 64.3789 9.04673 64.4073 7.89271 64.4676C7.80637 64.4676 7.72666 64.4676 7.63367 64.4676C6.95749 64.4718 6.28786 64.3339 5.66747 64.0625C5.04709 63.7912 4.48958 63.3924 4.03049 62.8917C3.59827 62.406 3.27253 61.8338 3.07453 61.2125C2.87653 60.5912 2.81073 59.9347 2.88145 59.286C2.95053 58.3386 2.96495 57.388 2.92462 56.4389C2.91134 55.9465 2.89971 55.4341 2.90303 54.9316C2.90303 54.6481 2.90303 54.3918 2.90303 54.1629C2.90303 53.0124 2.90303 52.4346 3.27497 52.0511C3.62035 51.7027 4.16665 51.6759 4.90223 51.6759H5.42361C5.65442 51.6759 5.90847 51.6759 6.19074 51.6759H6.21399H20.391H36.6485H51.4399C51.6507 51.6759 51.8633 51.6759 52.0741 51.6759C52.285 51.6759 52.4893 51.6759 52.6968 51.6759C53.0684 51.6798 53.4398 51.6619 53.8093 51.6224C54.5665 51.5336 55.1161 50.9726 55.1477 50.2591C55.1809 49.5005 54.5848 48.8975 53.6997 48.792C53.4792 48.7674 53.2574 48.7562 53.0356 48.7585C52.8695 48.7585 52.7184 48.7585 52.559 48.7585C52.3996 48.7585 52.2269 48.7669 52.0609 48.7669H16.8409H12.7861H8.73289C6.19073 48.7669 4.12845 48.7669 2.24217 48.7837C0.415671 48.7954 0.0736283 49.1421 0.0537028 50.9709C0.0204937 54.0156 -0.0027527 57 0.0537028 59.9827C0.125102 63.3975 2.11765 65.9883 5.38377 66.9128C6.35984 67.165 7.36517 67.2833 8.37259 67.2645C12.2913 67.2779 16.4889 67.2829 21.9784 67.2829H37.6531V76.1272H35.9926C35.3284 76.1054 34.4401 76.0803 33.5451 76.0803C32.6867 76.0803 31.9179 76.1038 31.1972 76.149C29.4338 76.2612 27.8763 77.5373 27.3367 79.331C26.8385 80.9639 27.423 82.7073 28.8593 83.8813C29.7045 84.5713 30.7273 84.8861 32.1802 84.8861H32.2167C37.2413 84.8694 42.3455 84.8694 47.2887 84.8694H53.2664H53.5686H53.8575C54.0407 84.8724 54.2239 84.8612 54.4054 84.8359C54.9883 84.7471 55.689 84.439 55.7222 83.481C55.757 82.4745 54.9799 82.1529 54.3191 82.0742Z" fill="#272A3D"/>
<path d="M122.995 78.6108C122.851 74.2565 122.882 69.8268 122.914 65.5478C122.925 63.7508 122.939 61.8935 122.94 60.068C122.94 58.2024 122.94 56.3362 122.94 54.4694C122.94 50.0698 122.95 45.5195 122.927 41.0463C122.909 37.4372 120.745 35.2517 117.139 35.2031C116.061 35.188 114.881 35.1813 113.421 35.1813H111.166H108.923H108.883C107.917 35.1813 106.951 35.1813 105.987 35.1813H103.093C101.308 35.1813 99.8584 35.1914 98.5301 35.2098C95.6608 35.2517 93.3528 37.2195 93.0406 39.8823C92.8745 41.341 92.9227 42.8098 93.0057 44.4393C93.0505 45.3269 93.5155 45.7791 94.5134 45.8763C94.7341 45.898 94.9558 45.9081 95.1776 45.9064C95.3436 45.9064 95.4997 45.9064 95.6608 45.9064C95.8218 45.9064 95.9929 45.9064 96.1589 45.9064H116.712C117.029 45.9064 117.348 45.9064 117.665 45.9064C117.982 45.9064 118.296 45.9064 118.613 45.9064H118.648C118.838 45.8946 119.028 45.9217 119.207 45.9862C119.386 46.0507 119.55 46.1512 119.689 46.2815C119.822 46.4314 119.924 46.607 119.987 46.7976C120.051 46.9882 120.075 47.1898 120.06 47.3902C120.06 47.613 120.06 47.8357 120.06 48.0601C120.06 48.241 120.06 48.4219 120.06 48.6044C120.06 56.2457 120.06 63.8876 120.06 71.53C120.06 71.6523 120.06 71.7745 120.069 71.8984C120.104 72.3001 120.075 72.7048 119.985 73.0976C119.908 73.3378 119.779 73.5574 119.606 73.7401C119.434 73.9228 119.223 74.0638 118.989 74.1526C118.714 74.2315 118.43 74.2682 118.145 74.2615C118.022 74.2615 117.896 74.2615 117.771 74.2615C117.647 74.2615 117.542 74.2531 117.426 74.2531H98.3308C97.8908 74.2531 97.4889 74.2531 97.1037 74.2297C96.3167 74.1979 95.8567 73.7072 95.8418 72.8899C95.8318 72.2836 95.8219 71.736 95.8219 71.1766C95.8219 67.9243 95.8219 54.0942 95.8219 54.0942C95.8219 53.9268 95.8219 53.7693 95.8219 53.6052C95.8359 53.2143 95.8281 52.8229 95.7986 52.4329C95.704 51.4699 95.1942 50.8804 94.4337 50.857H94.3889C93.6616 50.857 93.0937 51.4481 92.9758 52.3291C92.946 52.6166 92.9366 52.906 92.9476 53.1949C92.9476 53.2937 92.9476 53.3925 92.9476 53.4913V57.427C92.9476 64.4458 92.9476 71.7025 92.9625 78.8403C92.9414 79.5315 93.0112 80.2225 93.1701 80.8952C93.8824 83.4793 95.8634 84.9146 98.7476 84.928C99.3304 84.928 99.9099 84.928 100.493 84.928C102.047 84.928 103.628 84.9196 105.157 84.9095C106.686 84.8995 108.269 84.8911 109.824 84.8911C112.481 84.8911 114.65 84.9196 116.651 84.9816H116.881C118.645 84.9816 120.169 84.3636 121.29 83.1929C121.863 82.5828 122.31 81.863 122.602 81.076C122.895 80.289 123.029 79.4507 122.995 78.6108ZM120.071 41.3494C119.995 42.9287 119.573 42.9857 117.627 42.994C116.315 42.994 115.004 42.994 113.693 42.994H107.706H104.934H102.161C100.473 42.994 99.0996 42.994 97.8443 42.9806C97.0141 42.9806 96.5026 42.9036 96.1838 42.5586C95.8285 42.1818 95.8235 41.5889 95.8517 40.8537C95.9298 38.973 96.8214 38.0937 98.6596 38.082C101.112 38.0686 103.799 38.0619 107.113 38.0619H112.32H117.235H117.381C117.513 38.0601 117.645 38.0679 117.776 38.0853C119.41 38.3349 120.164 39.405 120.071 41.3494ZM118.177 81.9586C117.869 82.0266 117.554 82.0564 117.238 82.0474H109.3C105.876 82.0474 102.453 82.0474 99.0315 82.0474H98.9966C98.0303 82.0474 97.0273 81.9653 96.3283 80.9789C95.9497 80.4463 95.6923 79.0228 95.8302 78.2608C95.8437 78.1357 95.8829 78.0149 95.9452 77.9059C96.0075 77.7969 96.0916 77.7022 96.1921 77.6277C96.7899 77.2375 97.6068 77.1488 98.1847 77.1421C99.5861 77.1253 101.077 77.1186 103.022 77.1186H105.55H107.663H108.078H110.628H113.179C115.005 77.1186 116.403 77.1186 117.73 77.1437H117.75C117.863 77.1437 117.994 77.1303 118.132 77.1169C118.27 77.1035 118.464 77.0851 118.63 77.0851C119.435 77.0851 119.91 77.5122 120.043 78.3529C120.34 80.1868 119.605 81.6019 118.177 81.9603V81.9586Z" fill="#272A3D"/>
<path d="M0.0727175 31.3763C0.0627547 34.4913 0.0527928 37.7135 0.0527928 40.8805C0.0527928 41.048 0.0527928 41.202 0.0527928 41.3628C0.0327407 41.7538 0.0432799 42.1458 0.0843318 42.5351C0.18562 43.3055 0.738548 43.8749 1.4293 43.9051H1.49738C2.20806 43.9051 2.78423 43.3072 2.8988 42.4514C2.92603 42.1805 2.93381 41.9079 2.92205 41.6358C2.92205 41.5202 2.92205 41.403 2.92205 41.2874C2.92205 40.5896 2.92205 39.8918 2.92205 39.194V38.6045C2.92205 35.8401 2.92538 33.0756 2.93202 30.3112C2.9453 22.954 2.95857 15.3457 2.87887 7.8696C2.8601 6.50139 3.37954 5.1814 4.32348 4.19857C4.71616 3.79018 5.18574 3.46501 5.70469 3.24213C6.22363 3.01925 6.78147 2.90315 7.3455 2.90064C7.51586 2.90067 7.68608 2.91072 7.85528 2.93077C8.01681 2.94883 8.17926 2.95722 8.34178 2.9559C8.48956 2.9559 8.63735 2.95589 8.78679 2.94584C8.93623 2.93579 9.10061 2.9358 9.25669 2.9358H67.2498C75.0157 2.9358 83.3562 2.9358 91.7415 2.94919C94.8599 2.94919 96.1932 4.03108 96.8325 7.06907C97.0616 8.15598 97.578 8.77899 98.2472 8.77899C98.3433 8.77828 98.4391 8.76705 98.5328 8.74549C99.4162 8.54787 99.8612 7.67701 99.6536 6.52813C99.109 3.42985 97.5083 1.4235 94.8964 0.562683C93.9001 0.227734 92.693 0.070308 91.2301 0.0602596C82.8514 0.0384879 74.6521 0.0351547 67.7396 0.0351547H50.5207H50.1056C46.1338 0.0351547 42.1636 0.0396134 38.1951 0.0485453C34.2266 0.0574773 30.2592 0.0613761 26.293 0.0602596H26.2814C19.246 0.0602596 13.5174 0.040179 8.25046 -0.00671387H8.15747C5.77139 -0.00671387 3.72737 0.795484 2.24459 2.3128C0.7618 3.83012 -0.0368816 5.99723 0.00130893 8.41556C0.120862 16.0742 0.0959639 23.8534 0.0727175 31.3763Z" fill="#272A3D"/>
<path d="M77.5228 13.7044H74.275C73.1923 13.7044 72.1103 13.7044 71.0288 13.7044C68.8851 13.7044 67.1533 13.7145 65.5775 13.7379C62.7547 13.7764 60.538 15.617 60.1694 18.2112C59.9519 19.7435 60.0299 21.363 60.1046 22.9289V22.9959C60.1328 23.577 60.3321 24.2637 61.6389 24.396C61.8723 24.4186 62.1068 24.4287 62.3413 24.4261H62.8062C62.9722 24.4261 63.1266 24.4261 63.2877 24.4261H83.3078C89.2766 24.4261 95.2465 24.4261 101.218 24.4261H101.257C101.541 24.4261 101.797 24.4261 102.028 24.4261H102.556C103.311 24.4261 103.873 24.4529 104.225 24.8113C104.613 25.2082 104.605 25.8162 104.592 27.0287C104.592 27.2765 104.592 27.5512 104.592 27.866C104.592 27.933 104.592 28.0017 104.592 28.0704C104.583 28.2327 104.583 28.3954 104.592 28.5577C104.69 29.6296 105.218 30.2693 106.008 30.2693H106.051C106.891 30.2459 107.396 29.5994 107.434 28.4924C107.472 27.4206 107.464 26.3253 107.454 25.2652C107.454 24.8029 107.454 24.3407 107.454 23.8785C107.454 23.366 107.454 22.8535 107.467 22.3411C107.481 21.2525 107.496 20.1254 107.439 19.0268C107.293 16.1227 105.168 13.9539 102.272 13.753C102.073 13.7396 101.857 13.7329 101.571 13.7329H101.216H100.851H77.5228V13.7044ZM101.01 16.6017H101.287H101.583C101.749 16.6017 101.882 16.6017 102.01 16.6168C102.483 16.6503 102.942 16.7987 103.347 17.0495C103.752 17.3003 104.09 17.6459 104.334 18.0571C104.566 18.4614 104.697 18.9161 104.717 19.3825C104.737 19.849 104.646 20.3135 104.45 20.7367C104.284 21.1285 103.765 21.42 103.389 21.4652C103.004 21.5088 102.615 21.5284 102.227 21.5238H101.82H66.1537C66.0574 21.5238 65.961 21.5238 65.8647 21.5238C65.7684 21.5238 65.6539 21.5322 65.5476 21.5322C65.4088 21.5331 65.2701 21.5247 65.1325 21.507C65.0642 21.4982 64.9954 21.4943 64.9266 21.4953C64.8419 21.4953 64.7605 21.4953 64.6659 21.4953C64.5712 21.4953 64.4683 21.4953 64.3703 21.4953C64.0499 21.4953 63.0768 21.4953 62.9423 20.1639C62.758 18.3501 63.4122 17.0639 64.6908 16.7223C65.157 16.6129 65.6353 16.5645 66.1138 16.5783H101.012L101.01 16.6017Z" fill="#272A3D"/>
<path d="M87.5875 82.1345C87.2831 82.065 86.9714 82.0335 86.6593 82.0407C86.5149 82.0407 86.3704 82.0407 86.226 82.0407C86.0815 82.0407 85.9254 82.0407 85.7677 82.0407H67.139H66.699H66.244C65.9668 82.0428 65.6897 82.0305 65.4138 82.0039C63.8181 81.8364 62.9928 80.9655 62.9613 79.4046C62.9248 77.6746 62.9314 75.9162 62.938 74.2129C62.938 73.1126 62.948 71.9755 62.938 70.8634C62.938 70.3443 63.0609 69.9624 63.3249 69.6911C63.589 69.4198 63.9509 69.3009 64.4474 69.3009H64.5454H64.997C65.2013 69.3009 65.4038 69.3009 65.6064 69.3009C65.809 69.3009 66.0199 69.3009 66.2258 69.3009H84.6103C84.7764 69.3009 84.9507 69.3009 85.1218 69.3009H85.6199C85.8739 69.3009 86.0815 69.3009 86.2725 69.2842C87.0711 69.2323 88.0292 68.9492 88.0608 67.8975C88.0873 67.0718 87.4431 66.5058 86.3804 66.422C86.1479 66.4036 85.8822 66.3952 85.5734 66.3952H85.0337C84.8494 66.3952 84.6651 66.3952 84.4792 66.3952H73.9386C71.0815 66.3952 68.2244 66.3952 65.3673 66.3952C63.1705 66.3952 62.9663 66.1876 62.9264 63.9869C62.9264 63.652 62.9264 63.3003 62.9264 62.967C62.9264 62.8163 62.9264 62.6656 62.9264 62.5149V32.5352C62.9264 32.3678 62.9264 32.2003 62.9264 32.0211C62.9473 31.5628 62.9318 31.1036 62.8799 30.6478C62.8422 30.2995 62.6803 29.9769 62.4243 29.74C62.1684 29.5031 61.8358 29.368 61.4885 29.3599C60.7911 29.3599 60.2199 29.9009 60.0987 30.6662C60.0489 31.0695 60.0339 31.4763 60.0538 31.8821C60.0538 32.0228 60.0538 32.1635 60.0538 32.3041C60.0538 38.4828 60.0538 44.661 60.0538 50.8385V55.0639V55.4826C60.0538 57.7418 60.0671 60.0396 60.0804 62.262C60.1119 67.5609 60.1452 73.0406 59.9957 78.4283C59.9409 80.3358 60.5254 81.9787 61.6827 83.1795C62.8135 84.3519 64.4009 85 66.151 85H66.3785C68.7314 84.9246 71.2752 84.8894 74.3803 84.8894C76.2748 84.8894 78.1993 84.9028 80.064 84.9146C81.9287 84.9263 83.8498 84.9397 85.7411 84.9397H85.9885C86.1213 84.9397 86.2542 84.9397 86.3887 84.9397C86.5232 84.9397 86.6461 84.9397 86.7739 84.9397C87.037 84.9471 87.3 84.9195 87.556 84.8576C88.2766 84.6583 88.627 84.2128 88.6286 83.4944C88.6303 82.7759 88.2866 82.317 87.5875 82.1345Z" fill="#272A3D"/>
<path d="M49.855 56.6483C48.6711 56.6483 47.4673 56.6617 46.2784 56.6901C45.7105 56.7035 45.2522 56.8777 44.95 57.1925C44.8321 57.3194 44.7407 57.4688 44.6811 57.6319C44.6215 57.795 44.5949 57.9685 44.603 58.1421C44.6246 58.9795 45.2672 59.4819 46.3697 59.5372C46.7499 59.5556 47.1601 59.564 47.6566 59.564C48.0019 59.564 48.3473 59.564 48.691 59.564H49.3203H49.7354C50.129 59.564 50.5225 59.564 50.916 59.574C51.3096 59.5841 51.6964 59.5841 52.0784 59.5841C52.6562 59.5841 53.1311 59.574 53.5728 59.5489C54.501 59.4953 55.1004 58.9745 55.1386 58.189C55.1496 58.0144 55.1251 57.8393 55.0666 57.6745C55.008 57.5098 54.9167 57.3589 54.7982 57.2311C54.6268 57.0619 54.4237 56.929 54.2007 56.8402C53.9777 56.7513 53.7394 56.7083 53.4997 56.7136C52.3042 56.6633 51.0721 56.6483 49.855 56.6483Z" fill="#272A3D"/>
<path d="M83.8537 74.213C82.9355 74.213 82.004 74.2314 81.0891 74.2649C80.8477 74.2617 80.608 74.3068 80.384 74.3977C80.16 74.4885 79.956 74.6233 79.784 74.7941C79.6679 74.9222 79.5786 75.0726 79.5216 75.2364C79.4645 75.4001 79.4408 75.5738 79.4519 75.747C79.4917 76.5275 80.0828 77.0366 81.0326 77.1086C81.3249 77.1304 81.6387 77.1421 82.0289 77.1421C82.2962 77.1421 82.5652 77.1421 82.8326 77.132C83.0999 77.122 83.3788 77.122 83.6628 77.122C83.9351 77.122 84.2091 77.122 84.4831 77.122C84.757 77.122 85.0343 77.1304 85.3133 77.1304C85.6935 77.1304 86.0074 77.1304 86.2996 77.1069C87.4038 77.045 88.0464 76.5342 88.0613 75.7035C88.0763 74.8728 87.4171 74.285 86.3776 74.2498C85.5408 74.228 84.6923 74.213 83.8537 74.213Z" fill="#272A3D"/>
</g>
<defs>
<clipPath id="clip0_993_8403">
<rect width="123" height="85" fill="white"/>
</clipPath>
</defs>
</svg>
