<svg width="85" height="85" viewBox="0 0 85 85" fill="none" xmlns="http://www.w3.org/2000/svg">
<g clip-path="url(#clip0_993_8367)">
<path d="M76.5011 85C75.8875 85.0126 75.2781 84.8962 74.7124 84.6583C74.1467 84.4204 73.6372 84.0664 73.217 83.6191C71.6967 82.0653 70.1278 80.5114 68.6109 79.008L66.8 77.2106C66.5043 76.9166 66.207 76.626 65.8946 76.3253L65.2075 75.6533L64.4146 75.9893L63.4806 76.3824C61.3656 77.2803 59.0909 77.7414 56.7932 77.738C54.3207 77.7488 51.8754 77.2212 49.6273 76.192C47.3791 75.1628 45.382 73.6566 43.7744 71.7779C43.0118 70.8809 42.1718 70.4996 40.9691 70.4996H40.9523C33.561 70.5214 26.1277 70.5231 19.84 70.5231H5.33963C5.0171 70.5231 4.77184 70.5231 4.54338 70.5046C3.3451 70.4374 2.21529 69.9244 1.37602 69.0665C0.536743 68.2085 0.048701 67.0677 0.0078125 65.8683C0.0078125 65.6852 0.0078125 65.5021 0.0078125 65.3072C0.0078125 65.2215 0.0078125 65.1392 0.0078125 65.0502V56.147C0.0078125 39.5519 0.00781281 22.3906 0.0212515 5.51322C0.0019279 4.73304 0.10567 3.95468 0.328662 3.20679C0.928365 1.3724 2.68044 0.0839637 4.68449 0.00333124C4.83568 0.00333124 4.98686 -0.00506592 5.13973 -0.00506592H5.4841H5.83854H26.514C46.054 -0.00506592 62.4946 -0.00506633 79.2157 0.00501272C80.0019 -0.0192263 80.7877 0.0655719 81.5507 0.256989C83.5967 0.851653 84.9104 2.57182 84.9876 4.74721C84.9876 4.89504 84.9876 5.04454 84.9876 5.19405V17.5678C84.9876 33.1483 84.9876 49.2597 84.9994 65.1073C84.9994 66.7435 84.6382 67.8841 83.8235 68.8029C82.8156 69.952 81.6498 70.5097 80.274 70.5097H80.2488C79.6424 70.5097 79.036 70.5097 78.4296 70.5097H75.2211L74.8297 71.4789L76.4641 73.1201C77.5879 74.249 78.7504 75.4165 79.9028 76.5554C80.7074 77.3517 81.1912 78.1261 81.4247 78.9929C82.0647 81.3698 80.7528 84.0122 78.6244 84.6472C77.9371 84.8657 77.2221 84.9845 76.5011 85ZM67.5811 74.0928L67.8566 74.4522C67.9137 74.5262 67.9641 74.5967 68.0112 74.6622C68.1114 74.8102 68.2237 74.9496 68.3471 75.0788C70.6989 77.4474 72.661 79.3994 74.492 81.2203C74.7533 81.4939 75.0492 81.7323 75.3722 81.9292C75.7339 82.1368 76.1429 82.2478 76.5599 82.2518C77.5796 82.2518 78.4413 81.5798 78.7538 80.54C79.0897 79.4162 78.364 78.6703 77.9743 78.2705C76.7564 77.0224 75.5033 75.7709 74.2921 74.5598L73.4959 73.7652C72.9247 73.1941 72.3485 72.6263 71.8026 72.0854L70.7644 71.0539L67.5811 74.0928ZM56.8402 45.522C49.8353 45.522 42.1668 51.0857 41.9904 60.0745C41.9508 62.0265 42.3019 63.9667 43.0231 65.7809C43.7443 67.5952 44.8211 69.247 46.19 70.639C47.5519 72.043 49.1772 73.1647 50.973 73.94C52.7687 74.7154 54.6997 75.1292 56.6554 75.1578H56.7848C58.776 75.1674 60.7485 74.7745 62.5841 74.0029C64.4197 73.2313 66.0806 72.0969 67.4669 70.6676C70.1966 67.8656 71.7085 64.133 71.6144 60.4205C71.732 56.6594 70.2974 53.0292 67.5828 50.1735C64.7859 47.2523 60.9306 45.5522 56.9998 45.5069L56.8402 45.522ZM2.69052 17.3175C2.67876 17.5442 2.66868 17.7492 2.65692 17.9407C2.63508 18.3254 2.61661 18.658 2.61661 18.9973C2.61661 25.8746 2.61661 32.7524 2.61661 39.6308V45.139C2.61661 51.7464 2.61661 58.3538 2.61661 64.9611C2.61661 67.2625 3.36917 68.0134 5.7008 68.0487H40.9204L40.7154 67.3952C37.6799 57.6639 40.1426 50.2608 48.0362 45.4027C50.9356 43.6171 53.924 42.715 56.9225 42.715C60.3511 42.715 63.6957 43.8909 66.8638 46.2074C73.857 51.3242 75.8846 58.4434 72.8911 67.365L72.6694 68.0369H73.3699C74.0586 68.0369 74.7373 68.0369 75.4109 68.047C76.0845 68.0571 76.7262 68.0571 77.3763 68.0571C78.4682 68.0571 79.3602 68.042 80.1816 68.0117C81.4768 67.9613 82.2747 67.0929 82.3654 65.6297C82.3789 65.4113 82.3772 65.1997 82.3654 64.9931C82.3654 64.9141 82.3654 64.8368 82.3654 64.7596V59.8611C82.3654 44.4391 82.3654 29.017 82.3654 13.5949C82.3654 13.259 82.3419 12.923 82.315 12.545C82.3016 12.3619 82.2882 12.1654 82.2764 11.9537L82.2495 11.4783H52.6423H47.9152C46.3407 11.4783 44.7655 11.4783 43.1898 11.4783C39.5748 11.4783 36.8064 11.4666 34.196 11.4431H34.1439C32.8487 11.4431 32.0458 11.8966 31.4561 12.9549C31.1709 13.4491 30.8592 13.9274 30.5221 14.3878C30.2181 14.8229 29.9023 15.2714 29.6268 15.7468C29.185 16.5061 28.6323 16.8437 27.8327 16.8437C27.7622 16.8437 27.6899 16.8437 27.616 16.8437C27.4833 16.8437 27.3439 16.8303 27.1893 16.8303C26.9659 16.8303 26.7425 16.8404 26.5275 16.8488C26.3125 16.8572 26.1109 16.8673 25.9093 16.8673L10.3859 16.8505H4.36364H2.71404L2.69052 17.3175ZM5.67896 2.60037C5.51097 2.60037 5.34299 2.60037 5.16661 2.60877C3.34566 2.67932 2.68044 3.3311 2.62165 5.10166C2.59981 5.77359 2.60485 6.44553 2.60989 7.10739C2.60989 7.39464 2.60989 7.6819 2.60989 7.96915V14.0451L2.97105 14.151C3.11048 14.193 3.20959 14.2266 3.28518 14.2518C3.41474 14.3038 3.55222 14.3333 3.69171 14.3391H10.3405C15.5363 14.3391 20.9101 14.3391 26.1949 14.366C26.5838 14.3851 26.9705 14.2972 27.3129 14.1118C27.6553 13.9263 27.9402 13.6506 28.1368 13.3144C28.5114 12.7365 28.9045 12.1536 29.2841 11.5892C29.6637 11.0248 30.0719 10.4133 30.46 9.82537C30.848 9.23743 31.2881 8.98377 31.8761 8.98377C31.945 8.98377 32.0172 8.98377 32.0911 8.99385C32.272 9.01104 32.4537 9.01889 32.6354 9.01737C32.7798 9.01737 32.926 9.01737 33.0721 9.01737C33.2183 9.01737 33.346 9.01737 33.482 9.01737H47.4029H79.8322C80.2757 9.01737 80.7158 9.00561 81.1761 8.99385L81.8665 8.97705L82.3587 8.96529V8.4731C82.3587 8.04642 82.3587 7.63318 82.3688 7.24514C82.3789 6.37666 82.3873 5.55521 82.3436 4.73712C82.2982 3.88544 81.9068 2.83218 80.3076 2.65916C80.0816 2.63659 79.8545 2.62594 79.6273 2.62724H79.3467H5.67896V2.60037Z" fill="#272A3D"/>
<path d="M19.0277 43.6826C16.2392 43.6826 13.4506 43.6826 10.7444 43.6709C9.21239 43.6709 9.01753 43.4626 9.00913 41.8449C8.99737 39.8828 9.00913 37.8872 9.00913 35.9654C9.00913 35.1334 9.00913 34.3013 9.00913 33.4692C9.00913 32.6371 9.00913 31.8045 9.00913 30.9713C9.00913 29.0428 9.00913 27.0488 9.00913 25.0918C9.01753 23.627 9.3871 23.244 10.8032 23.244C13.4775 23.2322 16.266 23.2255 19.0915 23.2255C21.8146 23.2255 24.6753 23.2255 27.5899 23.2423C29.0127 23.2423 29.4713 23.6875 29.478 25.0549C29.5049 31.0586 29.5032 36.5971 29.478 41.9877C29.478 43.2845 29.0564 43.6809 27.7007 43.6843C24.7761 43.6793 21.8599 43.6826 19.0277 43.6826ZM11.4684 26.3803C11.4886 28.3793 11.4819 30.3766 11.4684 32.3067C11.46 35.0247 11.4516 37.8351 11.5171 40.6169L11.5272 41.1091H26.624L26.6878 40.6791C27.0019 38.5306 26.9263 27.4671 26.587 26.2324L26.4862 25.8629H11.4684V26.3803Z" fill="#272A3D"/>
<path d="M60.0546 29.456C51.8989 29.456 44.6521 29.456 37.9042 29.4443C37.4659 29.4573 37.0289 29.3913 36.614 29.2494C35.8396 28.9555 35.8665 28.2079 35.9152 27.9056C35.9487 27.6483 36.0652 27.409 36.2472 27.224C36.4291 27.0391 36.6664 26.9186 36.9231 26.8808C37.101 26.8543 37.2808 26.8425 37.4607 26.8456H37.7278H38.01H56.6226H73.5504C73.6764 26.8456 73.8024 26.8456 73.9267 26.8456C74.051 26.8456 74.1619 26.8456 74.2811 26.8456C74.4635 26.8432 74.6459 26.8528 74.8271 26.8741C75.5192 26.9632 75.9391 27.3932 75.9795 28.05C76.0198 28.7068 75.6653 29.1839 74.98 29.367C74.6421 29.4419 74.2961 29.4735 73.9502 29.4611L60.0546 29.456Z" fill="#272A3D"/>
<path d="M37.4506 38.3172C37.3042 38.3184 37.1579 38.3117 37.0122 38.297C36.2445 38.213 35.8699 37.7796 35.9001 37.0086C35.927 36.2745 36.2714 35.9133 36.9853 35.8713C37.6992 35.8293 38.4149 35.8243 39.0129 35.8243H39.8209H73.5723H74.0947C74.3493 35.8219 74.6039 35.8331 74.8573 35.8579C75.6317 35.9486 76.0097 36.3786 75.9811 37.1379C75.9543 37.8283 75.5864 38.2063 74.8556 38.2937C74.7223 38.3084 74.5883 38.3151 74.4542 38.3138H74.1921H73.9099H38.1293C38.0117 38.3138 37.8958 38.3138 37.7782 38.3138C37.6606 38.3138 37.5598 38.3172 37.4506 38.3172Z" fill="#272A3D"/>
<path d="M33.1966 52.6782H32.901H32.5852H10.8212H10.5608C10.3797 52.6816 10.1988 52.6692 10.0199 52.6412C9.76387 52.5985 9.52883 52.4733 9.35053 52.2846C9.17223 52.096 9.06043 51.8543 9.03212 51.5963C8.98005 51.2217 9.0086 50.5515 9.76957 50.2609C10.1307 50.1323 10.5118 50.0691 10.8951 50.0744C14.6546 50.0677 18.4129 50.0649 22.1702 50.066C25.7404 50.066 29.3101 50.066 32.8792 50.066C33.2192 50.0577 33.5587 50.0984 33.8871 50.187C34.4465 50.3549 34.8647 50.8975 34.8379 51.4233C34.8137 51.7281 34.6864 52.0155 34.4769 52.2381C34.2674 52.4608 33.9882 52.6053 33.6855 52.6479C33.5234 52.6691 33.3601 52.6792 33.1966 52.6782Z" fill="#272A3D"/>
<path d="M20.227 61.667C17.1283 61.667 14.0289 61.667 10.9291 61.667C10.5888 61.6753 10.2492 61.6334 9.92117 61.5427C9.24924 61.3327 8.93846 60.8573 9.02078 60.1703C9.04785 59.8893 9.17292 59.6267 9.37408 59.4286C9.57524 59.2306 9.83967 59.1095 10.1211 59.0868C10.3329 59.0617 10.5461 59.0505 10.7594 59.0532H11.0668H11.386H18.7773H19.2813H24.1326C25.2525 59.0532 26.3724 59.056 27.4923 59.0616C28.2634 59.0616 28.8631 59.2514 29.1822 59.5874C29.2823 59.6934 29.3587 59.8196 29.4062 59.9575C29.4537 60.0954 29.4713 60.2418 29.4577 60.387C29.4073 61.5326 28.0903 61.6603 27.5259 61.662C25.0957 61.6665 22.6628 61.6681 20.227 61.667Z" fill="#272A3D"/>
<path d="M8.45831 9.72796C8.13044 9.71645 7.81758 9.58774 7.57654 9.36519C7.33549 9.14264 7.18226 8.84103 7.14467 8.51512C7.13975 8.18562 7.26395 7.86727 7.49072 7.62816C7.71333 7.34795 8.03748 7.16686 8.3928 7.12421H8.44151C8.77665 7.14419 9.09307 7.28545 9.3317 7.52161C9.57033 7.75777 9.71488 8.0727 9.73835 8.40761C9.72871 8.72972 9.60534 9.03802 9.3901 9.27786C9.17486 9.5177 8.88166 9.67358 8.56246 9.71788L8.45831 9.72796Z" fill="#272A3D"/>
<path d="M22.7879 9.71957C22.4507 9.71025 22.1308 9.56841 21.8975 9.32481C21.6547 9.08937 21.5147 8.76759 21.5078 8.42945C21.5205 8.10946 21.6486 7.80489 21.8685 7.57205C22.0884 7.33921 22.3851 7.19384 22.7039 7.16284H22.7543C23.3792 7.16284 24.0679 7.80287 24.0981 8.40593C24.098 8.56984 24.0653 8.73209 24.0019 8.88321C23.9384 9.03434 23.8455 9.17132 23.7286 9.28616C23.6103 9.41646 23.4672 9.52189 23.3077 9.5963C23.1482 9.67072 22.9755 9.71262 22.7996 9.71957H22.7879Z" fill="#272A3D"/>
<path d="M15.6121 9.69606C15.2806 9.68595 14.9664 9.54553 14.7378 9.30526C14.5092 9.06499 14.3845 8.74426 14.3909 8.41266C14.3972 8.06077 14.5414 7.72541 14.7923 7.47867C15.0087 7.24928 15.307 7.11465 15.6222 7.10406H15.6423C16.2454 7.1175 16.8182 7.70209 16.8384 8.33203C16.8472 8.51076 16.8203 8.68945 16.7591 8.85763C16.698 9.0258 16.6038 9.18007 16.4823 9.31138C16.3759 9.42722 16.2477 9.52085 16.105 9.58688C15.9622 9.6529 15.8079 9.69001 15.6507 9.69606H15.6121Z" fill="#272A3D"/>
</g>
<defs>
<clipPath id="clip0_993_8367">
<rect width="85" height="85" fill="white"/>
</clipPath>
</defs>
</svg>
