<svg width="86" height="86" viewBox="0 0 86 86" fill="none" xmlns="http://www.w3.org/2000/svg">
<g clip-path="url(#clip0_993_8316)">
<path fill-rule="evenodd" clip-rule="evenodd" d="M41.9278 0.0103049C32.8184 0.210438 24.0107 3.31296 16.787 8.86617C8.53083 15.2055 2.85952 24.3289 0.828785 34.5381C-1.20195 44.7473 0.546278 55.3465 5.74803 64.3628C5.93934 64.7218 6.26468 64.9908 6.65327 65.1113C7.04186 65.2317 7.46227 65.1938 7.82309 65.0059C8.00162 64.9122 8.15993 64.7841 8.28891 64.6292C8.4179 64.4742 8.51503 64.2952 8.57477 64.1027C8.63451 63.9101 8.65566 63.7076 8.63703 63.5068C8.61839 63.306 8.56034 63.1109 8.46618 62.9326C8.44732 62.8966 8.42846 62.8605 8.40617 62.8262C3.57063 54.4569 1.94437 44.6144 3.83066 35.1343C5.71694 25.6543 10.987 17.184 18.658 11.3031C25.7925 5.82342 34.5726 2.92172 43.5674 3.07089C52.5622 3.22007 61.2412 6.41131 68.1901 12.1245H66.0191C65.6123 12.1208 65.2206 12.2778 64.929 12.5614C64.6374 12.845 64.4696 13.2322 64.4619 13.6388C64.4582 14.0455 64.6152 14.4372 64.8987 14.7288C65.1823 15.0204 65.5695 15.1883 65.9762 15.196C65.9904 15.1977 66.0048 15.1977 66.0191 15.196H72.0967C72.3164 15.2079 72.5361 15.1724 72.7409 15.0919C72.9456 15.0115 73.1307 14.8878 73.2834 14.7295C73.3172 14.6969 73.3493 14.6625 73.3795 14.6266C73.4787 14.5018 73.558 14.3624 73.6145 14.2133C73.6316 14.1704 73.647 14.1258 73.6624 14.0813V14.0693C73.6744 14.023 73.683 13.9766 73.6916 13.9303C73.7073 13.8415 73.7154 13.7514 73.7156 13.6611V7.50624C73.7202 7.09952 73.5641 6.70742 73.2812 6.41518C72.9983 6.12295 72.6114 5.95421 72.2048 5.94565H72.1568C71.7498 5.95377 71.3625 6.12232 71.0792 6.4146C70.796 6.70688 70.6396 7.09923 70.6442 7.50624V10.1884C63.634 4.23202 54.892 0.691441 45.7126 0.0909012C44.4539 0.0108715 43.1923 -0.0159906 41.9278 0.0103049ZM43.0013 17.8164C39.5096 17.8113 36.1587 19.1929 33.6852 21.6575C31.2117 24.122 29.8178 27.4678 29.8101 30.9595V34.7084H24.6877C24.2783 34.7084 23.8857 34.871 23.5963 35.1604C23.3068 35.4499 23.1442 35.8424 23.1442 36.2518V66.6591C23.1442 67.0684 23.3068 67.461 23.5963 67.7505C23.8857 68.0399 24.2783 68.2025 24.6877 68.2025H61.3167C61.726 68.2025 62.1186 68.0399 62.4081 67.7505C62.6975 67.461 62.8601 67.0684 62.8601 66.6591V36.2449C62.8601 35.8356 62.6975 35.443 62.4081 35.1535C62.1186 34.8641 61.726 34.7015 61.3167 34.7015H56.1925V30.9527C56.183 27.4621 54.7884 24.1181 52.3151 21.655C49.8417 19.192 46.4919 17.8113 43.0013 17.8164ZM78.8741 20.8209C78.4675 20.8281 78.0801 20.9956 77.7962 21.2868C77.5123 21.5781 77.3549 21.9696 77.3581 22.3763C77.3631 22.6606 77.4455 22.9381 77.5965 23.1789C82.4331 31.548 84.06 41.3908 82.1737 50.8712C80.2873 60.3515 75.0166 68.8219 67.3447 74.7021C60.2099 80.1795 51.4305 83.0793 42.437 82.9292C33.4434 82.7791 24.7657 79.5879 17.8177 73.8755H19.9202C20.3269 73.8792 20.7186 73.7222 21.0102 73.4386C21.3018 73.1551 21.4696 72.7679 21.4773 72.3612C21.481 71.9545 21.324 71.5628 21.0405 71.2712C20.7569 70.9796 20.3697 70.8117 19.963 70.8041H14.0174C13.8308 70.7794 13.6413 70.7893 13.4583 70.8332C13.1118 70.9052 12.8006 71.094 12.5767 71.3682C12.3528 71.6423 12.23 71.985 12.2287 72.3389V78.4921C12.2251 78.8988 12.3821 79.2905 12.6656 79.5821C12.9492 79.8737 13.3364 80.0416 13.743 80.0492C14.1497 80.0529 14.5414 79.8959 14.833 79.6124C15.1246 79.3288 15.2925 78.9416 15.3002 78.5349V75.7568C22.3199 81.7439 31.0853 85.3041 40.2918 85.9074C50.6797 86.5973 60.9632 83.4796 69.2191 77.1373C77.4747 70.7975 83.1454 61.674 85.1758 51.4649C87.2062 41.2558 85.4579 30.6568 80.2563 21.6406C80.1235 21.3902 79.9241 21.1813 79.6803 21.0367C79.4365 20.8921 79.1576 20.8174 78.8741 20.8209ZM43.0013 20.8878C44.3291 20.8773 45.6457 21.1304 46.875 21.6323C48.1042 22.1342 49.2217 22.8749 50.1627 23.8116C51.1038 24.7483 51.8496 25.8624 52.3571 27.0894C52.8647 28.3163 53.1237 29.6318 53.1194 30.9595V34.7084H32.8833V30.9595C32.8789 29.6318 33.138 28.3163 33.6455 27.0894C34.153 25.8624 34.8989 24.7483 35.8399 23.8116C36.781 22.8749 37.8985 22.1342 39.1277 21.6323C40.357 21.1304 41.6736 20.8773 43.0013 20.8878ZM26.2225 37.7798H59.7801V65.1157H26.2225V37.7798ZM43.0013 43.2864C41.6279 43.2886 40.3108 43.8331 39.3367 44.8014C38.3627 45.7697 37.8104 47.0835 37.8 48.4569C37.809 49.5594 38.1695 50.6302 38.8288 51.5138C39.4882 52.3974 40.4122 53.0477 41.4665 53.3702V61.1936H44.5379V53.3702C45.5917 53.0471 46.5152 52.3967 47.1742 51.5131C47.8332 50.6296 48.1935 49.5591 48.2027 48.4569C48.1923 47.0835 47.64 45.7697 46.6659 44.8014C45.6918 43.8331 44.3748 43.2886 43.0013 43.2864ZM43.0013 46.3578C43.2797 46.353 43.5562 46.4038 43.8146 46.5073C44.0731 46.6107 44.3083 46.7647 44.5065 46.9601C44.7048 47.1556 44.8619 47.3887 44.9689 47.6457C45.0759 47.9027 45.1305 48.1785 45.1296 48.4569C45.1307 48.7358 45.0762 49.0121 44.9693 49.2698C44.8624 49.5274 44.7052 49.7611 44.5068 49.9572C44.3085 50.1533 44.0731 50.3078 43.8143 50.4118C43.5555 50.5158 43.2785 50.5672 42.9996 50.5628C42.7207 50.5672 42.4438 50.5158 42.185 50.4118C41.9262 50.3078 41.6907 50.1533 41.4924 49.9572C41.294 49.7611 41.1368 49.5274 41.0299 49.2698C40.923 49.0121 40.8685 48.7358 40.8697 48.4569C40.8687 48.1782 40.9235 47.9022 41.0306 47.6449C41.1378 47.3877 41.2953 47.1544 41.4939 46.9589C41.6924 46.7634 41.9281 46.6095 42.187 46.5063C42.4458 46.403 42.7227 46.3526 43.0013 46.3578Z" fill="#272A3D"/>
</g>
<defs>
<clipPath id="clip0_993_8316">
<rect width="86" height="86" fill="white"/>
</clipPath>
</defs>
</svg>
