<svg width="95" height="85" viewBox="0 0 95 85" fill="none" xmlns="http://www.w3.org/2000/svg">
<g clip-path="url(#clip0_993_8377)">
<path d="M92.0663 42.5458C92.0812 36.6098 90.7567 30.9806 88.2684 25.6665C84.7043 18.0553 79.2602 12.1638 71.9364 7.99187C68.0282 5.76735 63.765 4.24394 59.3375 3.48984C55.4443 2.84546 51.4773 2.78926 47.5676 3.3231C40.163 4.27353 33.5929 7.1187 27.8571 11.8586C21.7235 16.9276 17.3918 23.2771 15.1323 31.0139C13.8825 35.2233 13.3006 39.6047 13.4082 43.9965C13.4215 44.4967 13.4082 44.9969 13.5508 45.4705C13.7365 46.1024 13.4397 46.1974 12.9391 46.3042C12.1732 46.4626 11.4256 46.7043 10.6697 46.9111C10.5735 46.0674 10.4243 45.227 10.3879 44.3816C10.1162 38.4347 11.1021 32.4974 13.2806 26.9621C14.9341 22.7473 17.2373 18.8208 20.1055 15.3268C24.3245 10.1378 29.5347 6.2811 35.5954 3.56988C39.3701 1.88078 43.3105 0.72192 47.44 0.335079C49.3961 0.153331 51.3655 0.0016077 53.3282 -0.0067294C59.2613 -0.0500823 64.891 1.37555 70.2653 3.81832C74.9987 5.96467 79.2837 8.99585 82.8923 12.7507C88.3247 18.3799 91.9436 25.0312 93.8036 32.6563C94.8818 36.991 95.2325 41.4764 94.8413 45.9273C94.1235 53.8292 91.5258 61.1008 86.8411 67.5387C82.5951 73.4457 76.8918 78.1375 70.2935 81.1516C66.2569 83.0074 62.0463 84.343 57.5836 84.6748C55.3772 84.8415 53.1575 85.0616 50.9527 84.9833C44.2319 84.7522 37.6688 82.8736 31.834 79.5108C28.2782 77.4849 25.0025 75.0521 22.2191 72.0274C20.5945 70.2566 19.1739 68.2974 17.6902 66.3982C17.299 65.898 17.4515 65.6629 18.0947 65.6112C18.2173 65.6029 18.3417 65.6112 18.4643 65.6112C20.815 65.5378 20.7736 65.5712 22.2771 67.427C25.1214 70.947 28.5458 73.9493 32.401 76.3027C36.8072 79.0122 41.6147 80.6897 46.6757 81.5067C50.0203 82.0477 53.4231 82.1223 56.7879 81.7285C61.8631 81.1715 66.7869 79.6505 71.2981 77.2464C74.0709 75.7577 76.6495 73.9291 78.9751 71.8023C85.0424 66.2815 88.9961 59.5135 90.9291 51.5349C91.1462 50.6361 91.3932 49.7374 91.496 48.8236C91.7297 46.736 91.8822 44.6384 92.0663 42.5458Z" fill="#272A3D"/>
<path d="M15.6859 59.6469C20.0667 59.6469 24.4481 59.6469 28.8301 59.6469C29.2594 59.6469 29.7269 59.5902 30.1115 59.7336C30.4387 59.8376 30.7222 60.0483 30.917 60.3325C31.1119 60.6166 31.207 60.958 31.1874 61.3026C31.1758 62.4815 31.1874 63.6604 31.2122 64.8392C31.2122 65.1627 31.451 65.2661 31.7096 65.086C32.1124 64.8009 32.4771 64.464 32.87 64.1589C36.1855 61.5794 39.4744 58.9899 42.8048 56.4388C43.3684 56.0086 43.3999 55.8568 42.8131 55.405C39.1462 52.5837 35.519 49.7157 31.872 46.8711C31.7164 46.7851 31.5487 46.7233 31.3747 46.6877C31.3014 46.8468 31.2495 47.015 31.2205 47.1879C31.2023 48.1884 31.2205 49.1738 31.1973 50.1676C31.1658 51.7266 30.7415 52.2035 29.2511 52.2085C24.1287 52.2269 19.008 52.2085 13.8856 52.2085C13.6394 52.2231 13.3924 52.2142 13.1479 52.1818C12.7827 52.1148 12.4536 51.9179 12.2208 51.6271C11.988 51.3363 11.8669 50.971 11.8797 50.5978C11.9061 50.2571 12.0438 49.9348 12.2714 49.6811C12.499 49.4274 12.8037 49.2567 13.1379 49.1955C13.5676 49.1535 13.9999 49.144 14.431 49.1671C18.6267 49.1671 22.8224 49.1671 27.0182 49.1671C28.1421 49.1671 28.1603 49.1438 28.1786 48.0717C28.1935 46.5826 28.2051 45.092 28.167 43.603C28.1454 42.8443 28.3759 42.2507 29.0323 41.8872C29.7286 41.502 30.3088 41.8038 30.8857 42.254C33.3176 44.1482 35.771 46.0141 38.2112 47.8999C40.7 49.8241 43.1866 51.7539 45.671 53.6892C46.1203 54.0164 46.5478 54.3729 46.9508 54.7563C47.7283 55.5484 47.7333 56.227 47.0039 57.0174C46.7485 57.2889 46.4713 57.5388 46.175 57.7644C41.257 61.5872 36.3358 65.4067 31.4112 69.2229C31.1677 69.4121 30.9142 69.588 30.6519 69.7498C29.4235 70.5084 28.2648 69.9365 28.2034 68.4792C28.1388 66.9302 28.1919 65.3761 28.1769 63.8238C28.1653 62.7249 28.1521 62.6983 27.053 62.6966C19.0306 62.6866 11.0088 62.6827 2.9876 62.6849C2.49028 62.6849 1.99297 62.7149 1.50725 62.6699C0.670095 62.5949 0.0865673 62.0246 0.0318619 61.2909C-0.0311321 60.4839 0.570624 59.7669 1.45917 59.6519C1.88999 59.6193 2.32241 59.6143 2.75385 59.6369H15.7124L15.6859 59.6469Z" fill="#272A3D"/>
<path d="M52.7114 37.2535C55.198 37.0867 57.8902 39.7546 57.9035 42.4758C57.9167 45.197 55.266 47.8349 52.5838 47.7899C49.8519 47.7449 47.4017 45.032 47.3868 42.5342C47.3702 40.0047 49.8502 37.0834 52.7114 37.2535ZM50.4636 42.5609C50.4886 43.1233 50.7232 43.6556 51.1206 44.052C51.5181 44.4484 52.0493 44.6798 52.6087 44.7001C53.1984 44.6927 53.7616 44.4527 54.1771 44.0316C54.5926 43.6106 54.827 43.0423 54.83 42.4491C54.8037 41.8853 54.5675 41.352 54.1682 40.9554C53.7689 40.5587 53.2358 40.3277 52.675 40.3082C52.0868 40.3186 51.5262 40.5602 51.1129 40.9812C50.6996 41.4022 50.4665 41.9692 50.4636 42.5609Z" fill="#272A3D"/>
<path d="M69.7255 28.5162C69.6261 28.7013 69.4868 29.1198 69.2166 29.4199C68.6795 30.0152 68.0844 30.5604 67.4893 31.1007C65.1104 33.2583 62.7133 35.3943 60.3494 37.5669C59.8521 38.0321 59.5354 38.1155 59.0066 37.5519C57.4732 35.9162 57.4798 35.9829 59.1724 34.4939C61.2098 32.6964 63.1758 30.8172 65.1867 28.9914C65.8987 28.3063 66.6534 27.6675 67.4462 27.0789C68.396 26.4052 69.6659 27.1139 69.7255 28.5162Z" fill="#272A3D"/>
<path d="M54.1594 10.5047C54.1594 11.4302 54.1892 12.3589 54.1494 13.2827C54.1063 14.3215 53.4548 14.9834 52.5878 14.9501C51.7855 14.9201 51.1622 14.2981 51.1423 13.3544C51.1036 11.4424 51.1036 9.52875 51.1423 7.61344C51.1638 6.57631 51.8435 5.91268 52.7089 5.94603C53.5742 5.97937 54.1229 6.62299 54.1577 7.72516C54.1826 8.65724 54.1594 9.57933 54.1594 10.5047Z" fill="#272A3D"/>
<path d="M84.552 40.9835C85.4721 40.9835 86.3954 40.9551 87.3138 40.9835C88.3615 41.0252 89.0146 41.6588 88.9914 42.5342C88.9682 43.4096 88.3283 43.9932 87.2409 44.0115C85.3991 44.0415 83.5557 44.0465 81.714 44.0115C80.6713 43.9932 80.0165 43.3362 80.0397 42.4591C80.0629 41.5821 80.6928 41.0185 81.7886 40.9818C82.7103 40.9585 83.632 40.9835 84.552 40.9835Z" fill="#272A3D"/>
<path d="M54.1621 74.542C54.1621 75.4674 54.1869 76.3945 54.1621 77.3199C54.1256 78.4037 53.5471 79.0523 52.6701 79.059C51.7932 79.0657 51.1583 78.4104 51.14 77.3566C51.1052 75.444 51.1035 73.5215 51.14 71.6156C51.1616 70.6702 51.8031 70.0716 52.6154 70.0633C53.4277 70.0549 54.0842 70.6535 54.1356 71.5789C54.1886 72.5644 54.1472 73.5548 54.1472 74.542H54.1621Z" fill="#272A3D"/>
<path d="M33.7467 21.8299C33.7351 23.1054 32.4553 23.8458 31.5021 23.2789C31.4472 23.2509 31.396 23.2161 31.3496 23.1755C29.8311 21.6448 28.2496 20.1741 26.8223 18.5617C25.9752 17.6063 26.8223 16.3357 27.8816 16.254C28.3391 16.219 28.9243 16.5775 29.294 16.921C30.597 18.1432 31.832 19.4355 33.0869 20.706C33.2648 20.8767 33.4197 21.0701 33.5477 21.2813C33.633 21.4566 33.6997 21.6405 33.7467 21.8299Z" fill="#272A3D"/>
<path d="M72.9983 23.6506C72.5889 23.3355 72.1048 23.0754 71.7749 22.6852C71.3804 22.2167 71.4434 21.6314 71.8296 21.1528C72.1794 20.7243 72.5789 20.3358 72.9685 19.9406C74.0079 18.8885 75.0274 17.8147 76.1066 16.8042C76.9355 16.0205 77.7162 16.0272 78.3594 16.7058C78.9413 17.3195 78.9662 18.0965 78.2666 18.8368C76.9139 20.2724 75.5048 21.6531 74.0924 23.032C73.8454 23.2738 73.4741 23.3872 72.9983 23.6506Z" fill="#272A3D"/>
<path d="M73.2652 61.5144C73.4642 61.6295 73.8836 61.7729 74.172 62.0546C75.543 63.3886 76.9106 64.7225 78.202 66.1315C78.5335 66.4833 78.7623 67.1319 78.6993 67.5871C78.5169 68.7543 77.2256 69.1912 76.3122 68.3792C75.1169 67.3137 74.0261 66.1332 72.8989 64.9926C72.5093 64.5991 72.0799 64.224 71.7815 63.7654C71.1616 62.82 71.9208 61.5244 73.2652 61.5144Z" fill="#272A3D"/>
<path d="M43.0598 15.1435C43.0598 16.264 42.599 16.9627 41.9707 17.1328C41.3076 17.3128 40.6793 17.1094 40.371 16.5108C39.8322 15.4741 39.3669 14.4004 38.9785 13.2977C38.7215 12.554 39.1791 11.8671 39.8903 11.4752C40.0222 11.3926 40.1691 11.3369 40.3225 11.3115C40.4759 11.2861 40.6328 11.2913 40.7841 11.3269C40.9355 11.3625 41.0784 11.4279 41.2046 11.5191C41.3309 11.6104 41.438 11.7258 41.5198 11.8587C42.1929 13.0126 42.6686 14.2815 43.0598 15.1435Z" fill="#272A3D"/>
<path d="M79.8967 32.8448C78.7562 32.8648 78.0931 32.4263 77.8809 31.8044C77.7686 31.4757 77.7808 31.1168 77.915 30.7966C78.0493 30.4763 78.2963 30.2171 78.6087 30.0686C79.5911 29.5657 80.6056 29.129 81.6456 28.7613C82.3767 28.5045 83.1011 28.9281 83.4691 29.6367C83.7725 30.222 83.6581 31.0657 83.0149 31.4192C81.8993 32.0328 80.7007 32.4863 79.8967 32.8448Z" fill="#272A3D"/>
<path d="M79.9911 52.1969C80.82 52.5687 81.9688 52.9989 83.0248 53.6025C83.3025 53.7505 83.5122 54.0012 83.6096 54.3017C83.707 54.6022 83.6846 54.929 83.547 55.2132C83.232 55.9485 82.5175 56.5071 81.8163 56.272C80.6587 55.8738 79.5327 55.3883 78.4478 54.8197C77.8444 54.5079 77.6968 53.8509 77.8957 53.1923C78.1112 52.487 78.8556 52.0751 79.9911 52.1969Z" fill="#272A3D"/>
<path d="M63.7165 67.8356C64.4343 67.8123 64.8769 68.2441 65.1537 68.8227C65.5533 69.6564 65.9113 70.5118 66.228 71.3789C66.5794 72.336 66.2412 73.1263 65.3792 73.5349C64.6498 73.8834 63.869 73.5949 63.4231 72.6928C62.9757 71.8138 62.6025 70.8985 62.3074 69.9566C61.9775 68.8511 62.6986 67.8506 63.7165 67.8356Z" fill="#272A3D"/>
<path d="M64.7602 11.2834C65.8129 11.3535 66.6136 12.4306 66.3152 13.3377C65.9595 14.3873 65.5233 15.4075 65.0105 16.3891C64.8626 16.7026 64.605 16.9504 64.287 17.0851C63.969 17.2198 63.6129 17.232 63.2865 17.1194C62.6698 16.906 62.0763 16.1873 62.2786 15.537C62.6891 14.2576 63.1991 13.0127 63.8037 11.8137C63.9546 11.5085 64.5198 11.4085 64.7602 11.2834Z" fill="#272A3D"/>
<path d="M23.6886 28.7113C24.6186 29.1598 25.8553 29.6884 27.0174 30.352C27.1385 30.426 27.2437 30.5236 27.3269 30.6391C27.41 30.7545 27.4694 30.8855 27.5015 31.0244C27.5336 31.1633 27.5378 31.3072 27.5139 31.4477C27.49 31.5882 27.4384 31.7225 27.3622 31.8427C27.0936 32.2679 26.593 32.5847 26.1338 32.8298C25.905 32.9515 25.5088 32.8731 25.2336 32.7681C24.3186 32.4163 23.4101 32.0428 22.5232 31.6159C21.9049 31.3191 21.5435 30.4771 21.6943 29.9218C21.9016 29.1998 22.6127 28.6662 23.6886 28.7113Z" fill="#272A3D"/>
<path d="M8.94074 50.7412C8.92116 51.1392 8.75017 51.5144 8.46319 51.7891C8.1762 52.0638 7.79519 52.217 7.39903 52.2169C7.00351 52.1972 6.6307 52.0252 6.35786 51.7365C6.08503 51.4478 5.93311 51.0645 5.93359 50.6662C5.95238 50.2681 6.12317 49.8926 6.41038 49.618C6.69758 49.3434 7.07905 49.1909 7.4753 49.1922C7.87181 49.2082 8.24652 49.3789 8.52007 49.668C8.79362 49.9572 8.9445 50.3421 8.94074 50.7412Z" fill="#272A3D"/>
</g>
<defs>
<clipPath id="clip0_993_8377">
<rect width="95" height="85" fill="white"/>
</clipPath>
</defs>
</svg>
