<svg width="95" height="106" viewBox="0 0 95 106" fill="none" xmlns="http://www.w3.org/2000/svg">
<path d="M49.3544 101.004C47.7287 100.429 48.0729 100.793 47.6331 99.3957C47.7861 98.6682 48.0729 97.9982 48.5128 97.3473C49.2014 96.3136 50.0238 95.3373 50.3871 94.093C50.4445 93.9207 50.5975 93.7867 50.674 93.6719C50.674 93.2124 50.674 92.7913 50.674 92.4084C50.368 92.0256 49.9855 91.8916 49.5456 91.9299C48.7997 92.0064 48.0347 92.0064 47.327 92.3319C47.2123 92.3893 47.0975 92.4659 46.9828 92.4659C45.9691 92.5424 45.0511 93.0019 44.0948 93.289C42.909 93.6336 41.7041 94.0165 40.5566 94.4759C39.3517 94.9736 38.1085 95.433 36.9036 95.8925C35.6987 96.3328 34.5321 96.8496 33.3272 97.2899C32.0649 97.7494 30.7643 98.1131 29.5594 98.7448C28.7944 99.1468 27.8955 99.2999 27.0731 99.6062C26.3655 99.8742 25.6961 100.2 25.0075 100.468C24.2999 100.736 23.5923 100.927 22.8846 101.176C22.3491 101.367 21.8327 101.597 21.2972 101.75C20.4557 102.018 19.5568 102.114 18.7917 102.497C18.0267 102.899 17.1278 102.861 16.4011 103.339C16.248 103.435 16.0377 103.511 15.8655 103.511C15.0623 103.511 14.3737 103.971 13.6087 104.105C12.8437 104.239 12.0978 104.526 11.3328 104.641C9.93662 104.851 8.5787 105.368 7.14429 105.349C7.04866 105.349 6.93391 105.33 6.85741 105.387C5.95851 105.847 5.00223 105.713 4.04595 105.751C2.72629 105.828 1.40663 105.904 0.0678391 106C-0.123416 105.579 0.125216 105.215 0.373848 104.909C1.80826 103.205 3.14705 101.425 4.42846 99.5871C5.36561 98.2471 6.43664 97.0219 7.41205 95.701C8.17707 94.6673 8.96122 93.6719 9.87924 92.753C10.4913 92.1596 11.218 91.815 11.9065 91.3939C12.5759 90.9919 13.2836 90.6281 14.0104 90.341C14.6224 90.0921 15.2153 89.8241 15.8082 89.5179C16.8027 89.001 17.7972 88.465 18.83 88.0056C20.3027 87.3355 21.6414 86.455 23.0185 85.6127C24.2808 84.8278 25.5239 84.0238 26.6906 83.1432C28.125 82.0712 29.502 80.9226 30.86 79.7741C32.1605 78.6638 33.4228 77.4769 34.6659 76.29C35.6987 75.3137 36.7124 74.2991 37.7069 73.2654C39.0648 71.868 40.4227 70.4514 41.685 68.9582C43.0621 67.3119 44.5347 65.7614 45.8926 64.1151C47.174 62.5645 48.3216 60.899 49.6221 59.3484C50.3298 58.5061 50.9418 57.5873 51.6303 56.745C52.3953 55.7878 53.0456 54.735 53.7341 53.7395C54.7286 52.3038 55.7614 50.8872 56.7368 49.4515C57.4445 48.4178 58.0947 47.3266 58.8024 46.2738C59.6822 44.972 60.6576 43.7277 61.4799 42.3686C62.4362 40.7606 63.5264 39.21 64.4827 37.602C65.4198 36.0322 66.4526 34.5199 67.4471 32.9693C67.7723 32.4716 68.0783 31.9931 68.4417 31.4188C68.4417 31.2848 68.4417 31.0742 68.4417 30.8636C68.3843 30.8253 68.346 30.787 68.2886 30.7296C68.2695 30.8062 68.2695 30.9402 68.2313 30.9593C66.7586 31.6676 65.4007 32.6056 63.8133 33.0459C63.6411 33.0842 63.5073 33.2565 63.3925 33.3331C62.9717 33.3331 62.6084 33.3331 62.1493 33.3331C62.2258 33.1416 62.245 32.9885 62.3406 32.9502C64.1958 31.9931 65.8597 30.7488 67.6192 29.6767C68.6903 29.0259 69.7231 28.2985 70.7367 27.5136C71.1766 27.169 71.5591 26.7096 71.846 26.231C73.2039 24.0296 74.5427 21.809 75.8432 19.5692C76.8378 17.8655 77.794 16.1235 78.7121 14.3815C79.4197 13.0223 80.0508 11.6057 80.7394 10.2274C81.3896 8.94485 82.0782 7.68141 82.7093 6.37969C83.1109 5.53739 83.3978 4.65682 83.7803 3.69966C83.0918 3.75709 82.6902 4.13995 82.2503 4.40796C80.7585 5.28854 79.2858 6.2074 77.8323 7.16455C76.6656 7.94942 75.5372 8.81085 74.4088 9.65314C73.223 10.5337 72.0181 11.3952 70.8515 12.2949C70.2777 12.7352 69.7613 13.2329 69.2258 13.6923C68.4799 14.3049 67.6766 14.86 66.969 15.5301C65.6876 16.7361 64.3297 17.8846 62.9909 19.0332C59.357 22.1535 56.0483 25.6184 52.6822 29.0259C51.286 30.4425 50.0238 31.9739 48.6467 33.4096C47.2505 34.8645 45.9883 36.4342 44.6686 37.9465C43.6932 39.0568 42.8134 40.2437 41.838 41.354C39.9828 43.4597 38.2998 45.6995 36.6359 47.9583C35.3545 49.6812 34.0157 51.3467 32.7725 53.1078C31.7206 54.5818 30.86 56.1898 29.7698 57.6447C28.3545 59.5399 27.2452 61.6265 25.9447 63.5791C24.9884 65.0148 24.2234 66.5845 23.4201 68.1159C22.4447 70.0111 21.4884 71.9254 20.5513 73.8397C20.0158 74.9309 19.4803 76.0412 19.0021 77.1706C18.6579 77.9746 18.5431 78.8935 18.1415 79.64C17.759 80.3675 17.7972 81.2481 17.3 81.9181C17.2234 82.0329 17.2617 82.2244 17.2234 82.3775C17.0896 82.8561 17.0513 83.3538 16.7644 83.8132C16.5541 84.1387 16.5541 84.5981 16.4776 85.0001C16.4011 85.3255 16.3437 85.6701 16.1142 85.9955C16.0377 85.6892 15.9229 85.4021 15.9229 85.0958C15.9229 84.2727 15.8082 83.4687 16.2289 82.6646C16.4393 82.2626 16.3054 81.7266 16.4011 81.2672C16.7836 79.6783 17.2043 78.0895 17.6633 76.5197C17.8546 75.8306 18.218 75.1989 18.4857 74.548C18.524 74.4523 18.5622 74.3757 18.5814 74.28C18.6961 73.2463 19.2316 72.404 19.6524 71.4851C19.901 70.9108 20.1114 70.3174 20.36 69.7431C20.7999 68.7477 21.2589 67.7331 21.7371 66.7568C22.1961 65.8379 22.6934 64.9191 23.1715 64.0002C23.6496 63.0813 24.0895 62.1433 24.5868 61.2245C25.4474 59.693 26.3463 58.1616 27.2452 56.6493C27.9338 55.5198 28.6796 54.4095 29.3873 53.2992C29.8654 52.5335 30.2862 51.7295 30.7835 50.9638C31.2042 50.3129 31.6824 49.7004 32.1222 49.0495C32.849 47.9966 33.5567 46.9246 34.2834 45.8526C34.6659 45.3166 35.0676 44.7997 35.4501 44.2637C36.0621 43.4214 36.6932 42.5983 37.3053 41.7751C37.8408 41.0668 38.3572 40.3586 38.9118 39.6503C39.5812 38.7888 40.2697 37.9274 40.9774 37.0851C42.1823 35.6302 43.3872 34.1945 44.6112 32.7396C45.5292 31.6485 46.3899 30.519 47.3653 29.4853C48.0729 28.7387 48.7232 27.9156 49.4309 27.169C51.8407 24.6613 54.2696 22.1727 56.7368 19.7224C57.8078 18.6504 58.9745 17.6549 60.122 16.6404C60.9827 15.8746 61.8433 15.0898 62.7422 14.3623C64.1767 13.1755 65.6302 12.0077 67.0837 10.84C68.6329 9.59572 70.2394 8.44713 71.9034 7.37512C73.1657 6.57112 74.3897 5.69054 75.6711 4.92482C76.8951 4.17824 78.1765 3.52738 79.4388 2.85737C80.4907 2.30222 81.5426 1.74708 82.6328 1.2685C83.57 0.847353 84.5454 0.483636 85.5208 0.119918C85.7694 0.024203 86.0754 0.100775 86.4197 0.100775C86.4579 0.330491 86.4962 0.541065 86.4962 0.751638C86.5153 0.981354 86.4962 1.19193 86.3814 1.4025C86.2858 1.78536 86.1902 2.18736 86.0945 2.57023C85.9033 3.25937 85.7503 3.98681 85.5016 4.65682C85.1191 5.74797 84.9279 6.87741 84.4115 7.93027C84.1055 8.56199 83.9716 9.28943 83.723 9.97858C83.4743 10.6486 83.1874 11.3186 82.9197 11.9886C82.6328 12.6777 82.3459 13.3669 82.059 14.056C81.7721 14.726 81.4661 15.3769 81.1793 16.0278C80.8924 16.6786 80.5099 17.2912 80.2804 17.9804C80.0891 18.5738 79.7257 19.1098 79.4388 19.6649C78.9607 20.6412 78.4826 21.6367 77.9853 22.613C77.8514 22.9001 77.641 23.149 77.488 23.417C76.5509 25.1016 75.5755 26.7479 74.7148 28.4707C73.7777 30.3276 72.6493 32.0696 71.5974 33.8499C70.6793 35.4197 69.6848 36.9511 68.7094 38.4825C67.7723 39.9566 66.816 41.4306 65.8214 42.8854C64.8078 44.3786 63.7176 45.8526 62.6849 47.3458C61.4226 49.1643 60.1794 50.9829 58.8789 52.7824C57.7887 54.2755 56.6412 55.7304 55.5128 57.1853C54.0019 59.1187 52.4909 61.0522 50.9418 62.9473C49.5839 64.5936 48.2068 66.2208 46.7915 67.8288C44.7642 70.1451 42.7369 72.4997 40.5566 74.682C39.3134 75.9072 38.185 77.228 36.9228 78.4532C35.3162 80.0038 33.7097 81.5352 32.0075 82.9709C30.4392 84.2918 28.8135 85.517 27.1305 86.6847C25.4857 87.8141 23.7644 88.8096 22.0622 89.8241C20.8956 90.5133 19.7289 91.2024 18.5431 91.8533C18.0267 92.1404 17.453 92.3127 16.8983 92.5424C16.095 92.887 15.3109 93.2699 14.5076 93.5953C14.2207 93.7102 13.8956 93.7676 13.5896 93.8442C12.7289 94.0165 12.0022 94.4185 11.371 95.0502C9.97487 96.4668 8.61696 97.9216 7.35467 99.4339C6.13064 100.889 4.84922 102.267 3.52956 103.76C3.75907 103.799 3.95032 103.837 4.14158 103.837C5.26999 103.818 6.41752 103.933 7.5268 103.473C7.90931 103.32 8.40657 103.416 8.84646 103.32C9.95574 103.109 11.065 102.918 12.1743 102.65C13.1115 102.42 14.0295 102.037 14.9666 101.808C15.8847 101.578 16.7836 101.272 17.6633 100.965C18.524 100.678 19.3846 100.429 20.2262 100.047C20.7808 99.7977 21.3928 99.6445 21.9857 99.4148C22.9229 99.0511 23.8791 98.8022 24.778 98.3236C25.2753 98.0556 25.8299 97.9408 26.3655 97.7494C27.6086 97.3282 28.7561 96.6582 30.0376 96.2753C31.1086 95.969 32.084 95.3756 33.1168 94.9162C33.7479 94.6482 34.3982 94.4376 35.0293 94.1696C35.3736 94.0356 35.6987 93.8442 36.043 93.691C36.4637 93.4996 36.9036 93.3273 37.3435 93.155C38.1085 92.8679 38.8736 92.5807 39.6195 92.2936C40.308 92.0256 40.9965 91.7384 41.7041 91.4704C42.3162 91.2407 42.9282 90.9727 43.5402 90.7813C44.3626 90.5133 45.2424 90.341 46.0456 90.0347C47.5757 89.4604 49.2205 89.537 50.7505 89.0776C51.1522 88.9627 51.6303 88.9818 52.0511 89.2307C52.1849 89.3073 52.3379 89.403 52.4909 89.403C53.2942 89.3647 53.7724 89.8624 54.2887 90.4559C54.6713 91.5279 54.5183 92.5807 54.0784 93.691C53.715 94.6099 53.3325 95.4713 52.8352 96.3136C52.7396 96.4668 52.7396 96.6773 52.7013 96.8879C53.256 97.2516 53.868 97.0602 54.4418 97.0219C54.7478 97.0028 55.0729 96.9262 55.3789 96.9071C55.9909 96.8879 56.5838 96.8688 57.1576 96.6391C57.3106 96.5816 57.4636 96.5242 57.6166 96.5242C58.4964 96.4476 59.3761 96.3902 60.275 96.3328C60.428 96.3136 60.6193 96.3519 60.7532 96.2753C61.4991 95.9116 62.3023 95.969 63.0865 95.9308C64.387 95.8542 65.6684 95.6245 66.9499 95.6053C68.2504 95.567 69.5509 95.3948 70.8515 95.7393C71.0045 95.7776 71.1766 95.7585 71.3296 95.7585C72.2476 95.7776 73.07 96.0073 73.7777 96.7156C74.0646 97.6536 74.3706 98.6491 74.6766 99.6637C75.2886 100.391 76.0536 100.908 77.029 101.119C77.8897 101.31 78.6929 101.674 79.5918 101.712C80.8541 102.382 82.3077 102.152 83.6082 102.65C83.6847 102.688 83.7995 102.669 83.8951 102.669C86.4005 102.727 88.9251 102.784 91.4305 102.861C92.559 102.899 93.6874 103.014 94.854 103.09C94.8158 103.148 94.7966 103.186 94.7775 103.186C93.5535 103.263 92.3295 103.397 91.0863 103.435C89.7858 103.473 88.5043 103.607 87.2229 103.799C86.5727 103.894 85.9033 103.99 85.253 103.99C84.4689 103.99 83.6847 103.875 82.9006 103.799C82.4033 103.741 81.906 103.665 81.4088 103.626C80.4334 103.55 79.458 103.473 78.5208 103.167C78.1574 103.052 77.7749 103.071 77.4115 102.975C76.3596 102.669 75.2695 102.478 74.3132 101.884C73.5482 101.425 72.8788 100.851 72.305 100.161C72.152 99.9699 72.0755 99.7019 72.0181 99.4722C71.7504 98.4959 71.1957 97.9408 70.2395 97.9025C68.2313 97.8642 66.2231 97.8451 64.2149 97.9025C63.5073 97.9216 62.7996 98.1896 62.092 98.3428C60.9636 98.5725 59.7587 98.6682 58.6876 99.0894C57.6166 99.5105 56.4308 99.4148 55.398 99.9317C55.092 100.085 54.6521 99.9891 54.2696 100.066C53.3899 100.257 52.5101 100.506 51.6112 100.697C50.9035 100.774 50.2533 100.851 49.3544 101.004Z" fill="white"/>
<path d="M19.4037 85.115C19.3654 84.6747 19.3463 84.3684 19.3271 84.1387C19.6714 83.4495 19.9583 82.8178 20.2643 82.2053C20.7616 81.2672 21.2397 80.3292 21.7752 79.4104C22.6167 77.9746 23.4774 76.5389 24.3572 75.1223C25.2178 73.7632 26.1167 72.4232 26.9965 71.0831C27.6468 70.1069 28.297 69.1497 28.9664 68.1926C29.6549 67.1971 30.3817 66.2208 31.0702 65.2254C32.3134 63.4834 33.5374 61.7222 34.7997 59.9802C35.5647 58.9082 36.3489 57.8553 37.133 56.8216C38.0702 55.5582 39.0073 54.2947 39.9636 53.0696C41.092 51.6147 42.2778 50.179 43.4253 48.7241C44.3434 47.5564 45.2231 46.3886 46.1603 45.2401C47.3843 43.7278 48.6466 42.2346 49.8898 40.7223C50.9225 39.4589 51.9362 38.1763 52.9881 36.932C54.3843 35.2857 55.7996 33.6777 57.1957 32.0505C58.305 30.7679 59.4143 29.4662 60.5236 28.1836C60.9061 27.7433 61.346 27.3413 61.7667 26.9202C62.9716 25.6567 64.1574 24.3742 65.3815 23.1107C66.3951 22.0579 67.4088 21.005 68.4798 20.0287C69.5126 19.0907 70.6219 18.2484 71.6929 17.3678C71.7503 17.3104 71.865 17.3104 72.018 17.2721C72.018 17.7698 71.712 18.057 71.4825 18.325C70.8131 19.1098 70.0863 19.8564 69.3978 20.6413C68.8814 21.2347 68.3842 21.8473 67.8678 22.4407C66.7776 23.6467 65.6683 24.8336 64.5782 26.0396C63.6219 27.1116 62.6656 28.2028 61.7094 29.2939C61.0591 30.0596 60.4279 30.8445 59.7585 31.5911C58.8405 32.6631 57.9034 33.6968 56.9662 34.7688C55.9717 35.8983 54.9198 36.9894 54.04 38.1954C53.3515 39.1526 52.5291 39.9757 51.8023 40.8946C50.7122 42.2729 49.5838 43.6129 48.4745 44.9912C47.3078 46.4461 46.1603 47.9201 45.0128 49.375C44.0756 50.5618 43.1193 51.7487 42.1822 52.9356C41.2641 54.1033 40.3844 55.271 39.4855 56.4387C38.1658 58.1616 36.8079 59.8845 35.5074 61.6265C34.6467 62.7942 33.8434 64.0002 33.0019 65.1871C32.256 66.24 31.4527 67.2737 30.7068 68.3266C29.9418 69.3986 29.2342 70.528 28.45 71.6C27.838 72.4232 27.2834 73.3037 26.7096 74.146C26.0211 75.1415 25.3134 76.1369 24.6441 77.1324C23.7643 78.4724 22.9228 79.8124 22.0621 81.1715C21.2971 82.3775 20.5512 83.5644 19.7862 84.7704C19.767 84.8661 19.6332 84.9236 19.4037 85.115Z" fill="white"/>
</svg>
