<svg width="104" height="104" viewBox="0 0 104 104" fill="none" xmlns="http://www.w3.org/2000/svg">
<path d="M82.3834 43.1899C81.9573 43.1899 81.5312 43.1735 81.1215 43.1407C79.876 43.026 78.5814 42.8129 77.2703 42.5015C75.2381 42.0097 73.1568 41.1246 70.928 39.7806C70.3053 39.4036 69.6989 38.9774 69.1089 38.5513C68.7484 38.289 68.3551 38.0268 67.9781 37.7645C67.2734 37.2892 66.5687 36.8302 65.8641 36.3713C65.143 35.9123 64.4219 35.4206 63.7008 34.9453C62.7831 34.3224 61.8489 33.6996 60.9312 33.0767C60.0134 32.4539 59.0793 31.831 58.1616 31.2082C57.1783 30.5525 56.1786 29.8969 55.2117 29.274C54.7692 28.979 54.3103 28.684 53.8678 28.3889C53.5073 28.1431 52.016 27.1596 52.016 27.1596C52.016 27.1596 50.7377 28.012 50.2296 28.3562C49.1152 29.0938 47.9844 29.8641 46.8537 30.6181C45.9687 31.2082 45.0837 31.7819 44.1988 32.3719C43.1499 33.0603 42.0683 33.7651 41.003 34.47C39.7739 35.2895 38.5284 36.1254 37.3157 36.945C36.3324 37.6006 35.3491 38.2726 34.3658 38.9283C33.1367 39.7478 32.0059 40.4198 30.9079 40.9771C29.2854 41.7967 27.4663 42.3867 25.172 42.8457C24.0084 43.0752 22.8612 43.1899 21.7468 43.1899C21.3863 43.1899 21.0257 43.1735 20.6816 43.1571C19.0919 43.0588 17.6661 42.8457 16.3551 42.5179C14.6343 42.0917 12.9627 41.4525 11.4058 40.6001C10.062 39.8789 8.7673 38.9938 7.47263 37.8956C6.62044 37.1744 5.85019 36.3221 5.12911 35.5026L4.91606 35.2567C4.27692 34.5519 3.67055 33.6832 3.01502 32.5358C2.09728 30.9623 1.37619 29.2413 0.786213 27.2744C0.097906 24.9796 -0.115142 22.4391 0.130682 19.5379C0.360118 16.3908 1.3598 13.3749 3.06418 10.5065C4.24414 8.52322 5.78464 6.70383 7.63651 5.09753C9.22617 3.7207 11.1108 2.57334 13.4052 1.58989C14.0607 1.31124 14.749 1.11455 15.4701 0.90147C15.9781 0.753952 16.5026 0.606434 17.0106 0.426135C17.2564 0.34418 17.5186 0.311399 17.8136 0.262226C17.8792 0.245835 17.9447 0.245835 18.0103 0.229444C19.1247 0.0819267 20.321 -2.7597e-05 21.5502 -2.7597e-05C22.2221 -2.7597e-05 22.9104 0.0163633 23.6315 0.0655358C25.0245 0.163881 26.5158 0.475307 28.4168 1.09816C29.9082 1.58989 31.2848 2.22913 32.5139 2.9995C33.6611 3.7207 34.7919 4.49107 35.8899 5.22866C36.4799 5.62204 37.0699 6.03181 37.6598 6.42519C38.3317 6.86774 38.9873 7.3103 39.6592 7.73646C40.4131 8.22818 41.1833 8.7363 41.9536 9.24442C42.8057 9.8181 43.6579 10.3918 44.5101 10.9655C45.4934 11.6211 46.4931 12.3095 47.4928 12.9651C48.4433 13.6044 49.3938 14.2108 50.3935 14.8501C50.836 15.1451 51.2949 15.4238 51.7537 15.7352L52.016 15.9155L53.1468 15.1615C53.8514 14.7026 54.5398 14.2436 55.2281 13.7847L56.8833 12.6865C58.3418 11.7194 59.8496 10.7196 61.3409 9.73614C62.1275 9.21164 62.9142 8.67074 63.6844 8.14623C64.2908 7.73646 64.9135 7.3103 65.5199 6.90052L66.5032 6.24489C67.7815 5.39256 69.0925 4.50746 70.4036 3.65513C72.3702 2.37665 74.4515 1.42598 76.7623 0.737561C78.4666 0.229444 80.3513 -0.0164185 82.4982 -0.0164185C83.1373 -0.0164185 83.7928 -2.75988e-05 84.5139 0.049145C86.8574 0.180272 89.2665 0.835906 91.6592 1.99966C93.9863 3.13063 95.8874 4.45829 97.5098 6.09737C98.5095 7.11361 99.6239 8.29375 100.476 9.6378C101.23 10.8343 101.869 12.0636 102.41 13.3094C102.721 14.0305 102.918 14.7517 103.147 15.5221C103.278 15.9811 103.41 16.44 103.573 16.8989C103.655 17.1612 103.705 17.4562 103.754 17.7677C103.77 17.8824 103.787 17.9807 103.803 18.0791C103.95 19.0298 103.967 19.9968 103.983 20.9967C103.983 21.2261 103.983 21.4556 104 21.6687C104.032 23.1603 103.901 24.6027 103.59 25.9139C103.197 27.635 102.77 28.9135 102.23 30.0608C101.164 32.3391 99.9353 34.2405 98.4767 35.8796C97.2312 37.2728 95.8218 38.5021 94.1338 39.6167C92.9047 40.4362 91.5281 41.1246 90.0204 41.6819C88.529 42.2392 86.9394 42.649 85.3333 42.8785C84.2353 43.1079 83.2684 43.1899 82.3834 43.1899ZM21.4682 2.52416C21.1404 2.52416 20.8127 2.55695 20.5013 2.58973C20.2883 2.60612 20.108 2.6389 19.9113 2.6389C18.5511 2.72086 17.1745 2.98311 15.7323 3.44205C13.8968 4.04851 12.1269 4.95001 10.3242 6.2285C8.80008 7.32669 7.50541 8.58878 6.48933 9.98201C5.21105 11.7522 4.27692 13.4733 3.65416 15.2599C2.94947 17.2759 2.58892 19.4723 2.57254 21.9637C2.55615 22.7505 2.68725 23.5372 2.81836 24.3076L2.88391 24.7338C3.01502 25.5369 3.14612 26.3729 3.40834 27.1596C3.83443 28.4709 4.45719 30.1755 5.52242 31.6999C5.62075 31.831 5.71908 31.9785 5.81741 32.1097C6.01407 32.3555 6.19434 32.6014 6.32545 32.8473C6.76793 33.6996 7.42346 34.3224 8.04622 34.9289C8.14455 35.0109 8.22649 35.1092 8.32482 35.1912C9.40645 36.2402 10.6847 37.2072 12.1269 38.0432C14.5032 39.42 17.1417 40.2395 19.9441 40.5018C20.403 40.551 20.8782 40.5674 21.3535 40.5674C22.5007 40.5674 23.697 40.4526 25.0245 40.2231C27.4991 39.7806 29.859 38.8299 32.0387 37.3875C38.0532 33.4045 44.166 29.3232 50.0658 25.3894L54.4414 22.4718C56.8177 20.8819 59.194 19.3084 61.5703 17.7185C64.8808 15.5221 68.1748 13.3094 71.4852 11.113L71.6983 10.9655C72.911 10.1623 74.1729 9.32637 75.4512 8.57239C76.8934 7.72007 78.565 7.17917 80.5807 6.90052C81.351 6.78579 82.0884 6.73662 82.7931 6.73662C83.6617 6.73662 84.4975 6.81857 85.2842 6.98248C87.513 7.44142 89.5451 8.34292 91.2987 9.6378C92.7244 10.6868 93.9044 11.9325 94.8221 13.3421C96.0513 15.2107 96.8215 17.2595 97.1329 19.4068C97.3787 21.1114 97.3459 22.7505 97.0509 24.2748C96.7396 25.8975 96.1987 27.3563 95.4777 28.6184C94.9369 29.5691 94.4288 30.405 93.7405 31.1426C92.2983 32.7161 91.0364 33.7488 89.6598 34.4863C88.824 34.9289 87.726 35.4862 86.5461 35.7648C85.5955 35.9943 84.6122 36.1418 83.6617 36.2893C83.4323 36.3221 83.2192 36.3549 82.9898 36.4041C82.9079 36.4205 82.8259 36.4205 82.744 36.4205C82.5965 36.4205 82.4654 36.4041 82.3015 36.4041H82.2196C81.9901 36.3877 81.7607 36.3549 81.5149 36.3221C81.4165 36.3057 81.3018 36.2893 81.2035 36.2729C81.0724 36.2566 80.9413 36.2402 80.8266 36.2238C80.548 36.191 80.2857 36.1582 80.0235 36.109C77.9914 35.7648 75.9756 34.9453 74.0746 33.6832C70.9444 31.6016 67.7651 29.4871 64.6841 27.4219C62.865 26.209 61.0295 24.9796 59.2104 23.7667C59.0138 23.6356 58.8007 23.5209 58.604 23.4225C58.5221 23.3733 58.4238 23.3242 58.3418 23.275L58.0796 23.1275L54.4414 25.5533L55.015 25.9631C55.1133 26.0287 55.1789 26.0942 55.2608 26.1434C55.4083 26.2581 55.5394 26.3565 55.6869 26.4548C56.3752 26.9138 57.0799 27.3891 57.7682 27.848C59.4398 28.9626 61.177 30.1264 62.8978 31.241C64.1269 32.0441 65.356 32.88 66.5524 33.6832C68.8631 35.2567 71.2394 36.8794 73.714 38.289C74.8448 38.9283 76.0903 39.4364 77.5325 39.8134C78.6305 40.1084 79.7449 40.2559 80.7938 40.3871C81.4821 40.469 82.1868 40.5182 82.8915 40.5182C84.1698 40.5182 85.4644 40.3707 86.7099 40.092C88.6438 39.6495 90.4629 38.9283 92.1345 37.9448C93.675 37.0269 94.9369 36.0599 95.9693 34.9945C97.4934 33.4373 98.7389 31.6671 99.6567 29.7658C100.853 27.3071 101.476 24.6027 101.541 21.5376C101.574 20.1116 101.328 18.6856 101.082 17.4726C100.607 15.0796 99.5911 12.7357 98.0506 10.5393C97.0346 9.08051 95.789 7.76924 94.3633 6.65466C92.8228 5.44174 91.1348 4.49107 89.3648 3.80265C87.5457 3.09785 85.6447 2.80281 84.0223 2.60612C83.6126 2.55695 83.2029 2.52416 82.744 2.52416C81.859 2.52416 80.9904 2.62251 80.1382 2.70446H80.0891C78.7944 2.85198 77.4833 3.16341 76.1887 3.62235C74.6318 4.19603 73.1241 4.95001 71.7311 5.8679C68.0765 8.27736 64.3891 10.7524 60.8165 13.1291C59.6529 13.8994 58.5057 14.6698 57.3422 15.4566L49.5086 20.6852C43.5432 24.6682 37.5943 28.6348 31.6289 32.6178C30.449 33.4045 29.4657 34.0438 28.4168 34.6339C27.073 35.3878 25.4997 35.8796 23.484 36.2074C22.8121 36.3221 22.2221 36.3713 21.714 36.3713C21.5502 36.3713 21.4027 36.3713 21.2552 36.3549C20.3866 36.2893 19.4361 36.1582 18.2725 35.9123C16.4698 35.5354 14.7818 34.7814 13.143 33.6176C12.6513 33.2734 12.2088 32.8636 11.7336 32.4539C11.5861 32.3228 11.455 32.208 11.3075 32.0769C10.5372 31.4049 9.91448 30.5689 9.37367 29.8149C8.83286 29.0774 8.37399 28.225 8.01344 27.2744C7.57096 26.127 7.25958 25.1108 7.03015 24.1601C6.76793 23.0127 6.8171 21.7834 6.86626 20.6033V20.4722C6.89904 19.8165 6.98098 19.1773 7.12848 18.5708C7.39069 17.4726 7.71845 16.3089 8.24288 15.2107C8.89841 13.8502 9.71782 12.6209 10.7503 11.49C11.3403 10.8343 12.0286 10.2279 12.9299 9.55584C14.0771 8.70352 15.2243 8.08067 16.437 7.6545C17.5514 7.26112 18.5675 6.99887 19.5672 6.85135C20.2227 6.75301 20.8946 6.70383 21.5665 6.70383C22.4023 6.70383 23.2545 6.7694 24.1231 6.91692C26.188 7.26112 28.1874 8.09706 30.2032 9.44111C32.5467 11.0146 34.9066 12.5882 37.2501 14.1453C39.5773 15.7024 41.9044 17.2595 44.2315 18.8167C44.5757 19.0462 44.9198 19.2592 45.264 19.4723C45.4279 19.5707 45.5754 19.669 45.7393 19.7673L46.0179 19.9476L49.6561 17.4726L49.1152 17.0629C49.0497 17.0137 48.9841 16.9645 48.935 16.9153C48.8039 16.817 48.6891 16.7186 48.558 16.6203L46.0506 14.9484C42.3797 12.4898 38.594 9.96562 34.8574 7.4742L34.4477 7.19556C33.2842 6.42519 32.0878 5.62204 30.8423 4.91723C29.2199 3.98295 27.4499 3.34371 25.4506 2.91755C24.7131 2.77003 23.9756 2.70446 23.2709 2.6389C22.8612 2.60612 22.4351 2.55695 22.0418 2.50777C21.796 2.54056 21.6485 2.52416 21.4682 2.52416ZM82.2687 9.34276C81.4165 9.34276 80.6463 9.42472 79.9416 9.57224C78.8108 9.8181 77.7947 10.1951 76.9098 10.6868C75.5331 11.4572 74.2057 12.3259 72.9438 13.1618C71.7966 13.9158 70.633 14.7026 69.5186 15.4729C68.7484 15.9975 67.9781 16.522 67.2079 17.0301C66.1918 17.7021 65.1757 18.3741 64.1597 19.0625C63.4386 19.5379 62.7011 20.0296 61.98 20.5049C61.767 20.6361 61.5703 20.7836 61.3737 20.9475C61.2753 21.0131 61.177 21.095 61.0623 21.177L60.4887 21.5867L61.7506 22.4391C62.2095 22.7505 62.6356 23.0291 63.0617 23.3242C63.5369 23.6356 63.9958 23.9634 64.471 24.2748C65.3888 24.8977 66.3229 25.5369 67.2571 26.1598C69.1089 27.3891 71.0591 28.6676 73.2552 30.11C73.5829 30.3231 73.9107 30.5361 74.2221 30.7656C75.1398 31.3721 76.0739 32.0113 77.0736 32.5358C78.5486 33.3062 80.2202 33.7488 82.0557 33.8307C82.2523 33.8471 82.4326 33.8471 82.6129 33.8471C83.252 33.8471 83.8584 33.7979 84.432 33.6832C85.6611 33.4537 86.6936 33.1423 87.5785 32.7161C89.4959 31.7819 90.9873 30.6017 92.1181 29.1101C93.1014 27.8153 93.7897 26.4056 94.2649 24.8321C94.6746 23.4389 94.6746 22.0293 94.6255 20.718C94.5927 20.0296 94.5108 19.3576 94.3633 18.7019C94.0847 17.3579 93.5111 16.0466 92.6753 14.8173C92.0525 13.883 91.4625 13.0635 90.6104 12.4079C89.9548 11.8997 89.2501 11.4408 88.6438 11.031C87.2508 10.1131 85.6447 9.58862 83.9075 9.44111C83.2684 9.37554 82.744 9.34276 82.2687 9.34276ZM20.993 9.37554C19.4197 9.37554 17.8792 9.73614 16.3059 10.4737C14.9785 11.0966 13.7821 11.9981 12.5366 13.3257C10.7339 15.2435 9.68505 17.5054 9.43922 20.0788C9.1934 22.5866 9.45561 24.5699 10.275 26.3237C10.9797 27.8317 11.7008 28.9462 12.553 29.8641C13.4707 30.8312 14.5196 31.6343 15.7651 32.3228C17.5023 33.2734 19.3541 33.7651 21.2716 33.7979H21.4027C22.0418 33.7979 22.7137 33.7488 23.4676 33.634C24.7459 33.4373 25.9094 33.0603 26.9419 32.5194C27.7777 32.0769 28.5643 31.5524 29.3346 31.0443C29.564 30.8967 29.7935 30.7492 30.0065 30.6017C31.6126 29.5691 33.0383 28.6348 34.3658 27.7333C35.5949 26.9138 36.824 26.0778 38.0204 25.2747C38.6431 24.8485 39.2823 24.4224 39.905 24.0126C40.5933 23.5536 41.2653 23.0947 41.9536 22.6358L43.4285 21.6359L42.9369 21.2097C42.8877 21.1606 42.8385 21.1278 42.8058 21.095C42.7074 21.0131 42.6091 20.9147 42.4944 20.8328L41.8225 20.3738C40.6917 19.6034 39.5281 18.8167 38.3809 18.0463L37.9712 17.7677C36.2668 16.6367 34.4969 15.4566 32.7433 14.3256C32.137 13.9322 31.5306 13.5224 30.9406 13.1127C29.7771 12.3259 28.5807 11.5064 27.3188 10.8179C26.4503 10.3426 25.5489 10.0148 24.7623 9.75253C23.6479 9.39194 22.5335 9.37554 21.4354 9.37554C21.3371 9.37554 20.993 9.37554 20.993 9.37554Z" fill="white"/>
<path d="M50.8684 104C49.6229 104 48.3446 103.869 47.0663 103.607C44.772 103.131 42.8054 102.492 41.0682 101.689C39.8063 101.099 38.5608 100.41 37.3481 99.64C35.4306 98.4271 33.5952 96.8208 31.7597 94.7227C30.4978 93.2967 29.367 91.6249 28.4001 89.7727C27.384 87.8222 26.7285 86.1503 26.3351 84.5276L26.2696 84.2818C25.9746 83.0524 25.696 81.9051 25.5485 80.6922C25.4502 79.7743 25.4338 78.8236 25.4174 77.9221C25.4174 77.6926 25.4174 77.4632 25.401 77.2337C25.3682 75.9224 25.483 74.5128 25.7124 72.9393C25.8763 71.8083 26.1713 70.6118 26.6465 69.153C27.1546 67.5795 27.7937 66.1043 28.5476 64.7602C29.6784 62.7605 30.9075 61.0231 32.3169 59.4824C32.8249 58.9087 33.3985 58.3842 33.9557 57.8597C34.2507 57.581 34.5621 57.286 34.8734 56.991C35.152 56.7287 35.4634 56.4992 35.8076 56.2534C35.9715 56.1386 36.1517 56.0075 36.3156 55.8764C37.8725 54.6798 39.6424 53.68 41.7237 52.8113L41.8385 52.7621C42.8873 52.3196 43.9689 51.877 45.0833 51.6639C45.4767 51.5984 45.8536 51.4836 46.2141 51.3853C46.7386 51.2378 47.2302 51.1066 47.7219 51.0575C48.0168 51.0247 48.3118 50.9919 48.6068 50.9591C48.9837 50.9099 49.3607 50.8772 49.7376 50.8444C50.262 50.7952 50.8028 50.7624 51.3273 50.746C51.5239 50.7296 51.7206 50.7296 51.9172 50.7133C51.9336 50.7133 51.9664 50.7133 51.9828 50.7133C52.0156 50.7133 52.0484 50.7133 52.0975 50.7133C52.2614 50.7296 52.4253 50.746 52.5892 50.7624C52.9333 50.7952 53.3103 50.828 53.6708 50.8444C54.228 50.8444 54.7688 50.9263 55.3424 51.0083C55.7357 51.0575 56.1454 51.123 56.5387 51.1558C57.0632 51.1886 57.5712 51.3525 58.112 51.5164C58.6692 51.6803 59.2428 51.8606 59.8656 51.9098C59.8819 51.9098 59.9475 51.9426 59.9803 51.959C60.0294 51.9754 60.0622 51.9917 60.1114 52.0081C62.291 52.8441 64.2248 53.6308 66.0276 54.811C67.5681 55.8272 68.9119 56.8434 70.0918 57.9252C71.5176 59.2201 72.8123 60.7281 73.9595 62.3836C75.1394 64.1046 76.1063 65.9568 76.8438 67.9073C77.3846 69.3661 77.7779 70.8249 78.0729 72.0542C78.2204 72.6278 78.3024 73.1196 78.3351 73.5785C78.4171 74.4964 78.4826 75.4471 78.5318 76.3486C78.5482 76.5617 78.5646 76.7583 78.5646 76.9714H78.5318V77.5943C78.5154 78.8728 78.4826 80.3807 78.204 81.8887C77.9746 83.2163 77.6305 84.5604 77.188 85.9044C76.3686 88.3959 75.123 90.7889 73.4842 93.0345C71.9929 95.0833 70.2229 96.9027 68.2564 98.4271C67.1256 99.2958 65.8801 100.115 64.5854 100.853C63.6676 101.377 62.6516 101.787 61.6847 102.197C60.2425 102.803 58.7348 103.18 57.1779 103.541C56.6698 103.656 56.1454 103.738 55.621 103.803C54.4574 103.967 53.2611 103.984 52.0811 103.984C51.7534 103.984 51.4256 103.984 51.1142 104C51.0651 104 50.9667 104 50.8684 104ZM28.1051 79.4956C28.1215 79.7579 28.1542 79.9873 28.1706 80.2332C28.187 80.4135 28.2198 80.5938 28.2526 80.8233C28.3017 81.0855 28.3345 81.3478 28.3837 81.61C28.482 82.2329 28.564 82.8721 28.7442 83.495C29.2359 85.2488 29.9078 86.9535 30.7436 88.5762C31.7433 90.5267 33.1035 92.3952 34.9062 94.2802C35.447 94.8375 36.037 95.3456 36.627 95.8209C36.84 96.0012 37.0531 96.1815 37.2661 96.3618C38.4133 97.3453 39.8063 98.214 41.5107 99.0335C43.7887 100.115 45.7716 100.755 47.7546 101.05L47.9513 101.082C49.3279 101.279 50.7537 101.476 52.1958 101.476C52.327 101.476 52.4744 101.476 52.6056 101.476C53.0644 101.459 53.5069 101.41 53.9494 101.345C54.1952 101.312 54.441 101.279 54.6705 101.246C55.5227 101.132 56.3912 101.017 57.2598 100.869C58.6856 100.623 60.0294 100.115 61.1602 99.6564C62.8974 98.9516 64.3559 98.1484 65.6178 97.2141C65.9948 96.9355 66.3553 96.6405 66.7159 96.3454C67.1092 96.034 67.5189 95.7062 67.9286 95.4111C68.6497 94.8866 69.2233 94.231 69.7805 93.6082C70.0099 93.3295 70.2557 93.0509 70.5179 92.7886C70.7965 92.4936 71.026 92.1658 71.2554 91.8543C71.3373 91.7396 71.4193 91.6249 71.5012 91.5101C72.6484 89.9858 73.6317 88.1664 74.5167 85.97C74.9264 84.9538 75.2214 84.0359 75.418 83.2C75.6147 82.3804 75.7294 81.5281 75.8441 80.7249C75.8769 80.4791 75.9097 80.2168 75.9588 79.971C75.9916 79.7743 75.9752 79.5776 75.9752 79.3809C75.9752 79.2989 75.9752 79.2006 75.9752 79.1022V78.6105H75.4836C75.2214 78.6105 74.9756 78.6105 74.7297 78.6105C74.4839 78.6105 74.2545 78.6105 74.0086 78.6105C73.6973 78.6105 73.4023 78.6105 73.0909 78.6105C73.009 78.6105 72.9434 78.6105 72.8615 78.6105C72.6648 78.6105 72.4845 78.6105 72.2879 78.6105C72.1076 78.6105 71.9109 78.6105 71.7307 78.6105C71.5012 78.6105 71.2882 78.6105 71.1079 78.5941C71.026 77.7254 71.0588 76.6928 71.1571 76.1191L75.8933 76.0863L75.9261 75.6438C76.2702 71.8083 72.714 63.367 70.0755 61.7443L69.7477 61.5476L66.4373 64.8094C65.8473 64.3013 65.2737 63.7112 64.6345 63.0064L64.8476 62.7769C65.2409 62.3672 65.6342 61.9902 66.0112 61.5968C66.4209 61.187 66.8306 60.7772 67.2239 60.3675L67.9778 59.6135L67.6992 59.2693C66.552 57.8597 62.9138 55.6469 60.2097 54.729C58.407 54.1226 56.2438 53.4833 53.8347 53.4669H53.343V53.9587C53.343 54.2373 53.343 54.4995 53.343 54.7454C53.343 55.3191 53.343 55.86 53.343 56.4009C53.343 56.6631 53.343 56.9254 53.343 57.1713C53.343 57.5646 53.3594 57.9416 53.3266 58.3022C52.9989 58.3514 52.5728 58.3678 52.1139 58.3678C51.5239 58.3678 51.0487 58.335 50.7373 58.2858L50.7045 53.5817L50.262 53.5325C50.0654 53.5161 49.8523 53.4997 49.6229 53.4997C47.771 53.4997 44.985 54.2373 42.1662 55.4502C39.2983 56.6959 37.135 58.1547 36.3648 59.3349L36.1517 59.6627L39.4622 62.99L37.6594 64.793L34.1524 61.3345L33.8082 61.7115C31.8908 63.8587 30.4486 66.301 29.3998 69.2022C28.5967 71.3985 28.187 73.4802 28.1215 75.5782L28.1051 76.0863H28.6131C28.8917 76.0863 29.1539 76.0863 29.4161 76.0863C29.662 76.0863 29.9078 76.0863 30.1372 76.0863C30.4486 76.0863 30.76 76.0863 31.055 76.0863C31.1205 76.0863 31.1861 76.0863 31.268 76.0863C31.4483 76.0863 31.6449 76.0863 31.8252 76.0863C32.0055 76.0863 32.1858 76.0863 32.366 76.0863C32.5955 76.0863 32.7921 76.0863 32.9724 76.1027C33.0543 76.7747 33.0707 77.9221 32.9888 78.5941H28.0723L28.1051 79.4956Z" fill="white"/>
<path d="M11.4222 102C8.19376 96.2143 4.98166 90.4447 1.75316 84.6751L0.720703 82.8393H5.0636L5.07998 82.364C5.11276 81.6264 5.11276 80.8888 5.09637 80.184C5.09637 79.8562 5.09637 79.5448 5.09637 79.2169C5.09637 78.4793 5.09637 77.7418 5.09637 76.9878V76.0043V57.581H7.58739C7.58739 57.663 7.58739 57.7449 7.58739 57.8269C7.58739 67.0221 7.58739 76.2338 7.571 85.4291C7.47267 85.4455 7.35795 85.4619 7.22685 85.4619C7.12852 85.4619 7.0138 85.4619 6.91547 85.4455C6.78437 85.4455 6.66965 85.4291 6.53854 85.4291C6.29272 85.4291 6.07967 85.4455 5.88301 85.4946L5.24387 85.6422L6.21078 87.3796C7.73489 90.1332 9.25899 92.8705 10.7667 95.5914C10.8487 95.7225 10.947 95.8209 11.0453 95.8864C11.0781 95.9028 11.1109 95.9356 11.1436 95.9684L11.6025 96.3946L17.6498 85.4782L15.1588 85.4127C15.1424 85.3307 15.1424 85.2652 15.1424 85.1996C15.1424 76.4797 15.1424 67.7597 15.1424 59.0398V57.5974C15.4702 57.5482 15.9618 57.5154 16.5682 57.5154C16.9943 57.5154 17.404 57.5318 17.7481 57.5646C17.7645 59.2857 17.7645 61.0395 17.7645 62.7441C17.7645 63.6456 17.7645 64.5471 17.7645 65.4486C17.7645 67.3991 17.7645 69.366 17.7645 71.3165V82.8065H22.0419C21.1897 84.3801 20.5177 85.6094 19.8786 86.7731C19.3869 87.6582 18.8953 88.5433 18.4037 89.3957C18.1906 89.7727 16.8632 92.1329 16.8632 92.1329C16.1585 93.3786 15.4702 94.6244 14.7655 95.8701C14.3885 96.5421 14.028 97.2141 13.6511 97.9025C13.3888 98.3778 13.143 98.8368 12.8808 99.3121C12.4055 100.23 11.9139 101.115 11.4222 102Z" fill="white"/>
<path d="M97.5585 97.2797C97.1652 97.2797 96.7883 97.2633 96.4441 97.2469C96.4277 87.9533 96.4277 78.6597 96.4114 69.3661H98.6238L98.3943 68.7104C98.3616 68.6285 98.3452 68.5465 98.3124 68.4646C98.2632 68.3007 98.2141 68.1368 98.1321 67.9892C97.198 66.2846 96.1819 64.4652 94.9692 62.2852C94.5431 61.5312 94.1334 60.7937 93.6909 60.0069L92.7404 58.3186L92.2815 58.8595C92.2323 58.9087 92.1996 58.9579 92.1668 58.9907C92.0685 59.1054 91.9701 59.2201 91.8718 59.3677C91.5277 59.9905 91.1835 60.6134 90.8393 61.2526C90.4952 61.8918 90.1347 62.5311 89.7905 63.1703C89.2005 64.2357 88.5942 65.3011 88.0042 66.3665C87.66 66.9894 87.3159 67.5959 86.9717 68.2187C86.9226 68.3007 86.8898 68.3826 86.857 68.4646C86.8406 68.4974 86.8242 68.5465 86.8078 68.5957L86.5784 69.1038L87.1028 69.2677C87.447 69.3661 87.7583 69.3825 88.0206 69.3825C88.1025 69.3825 88.2008 69.3825 88.2828 69.3825C88.3647 69.3825 88.4467 69.3825 88.5286 69.3825C88.6269 69.3825 88.7417 69.3825 88.8564 69.3989C88.8728 69.448 88.8728 69.4972 88.8891 69.5464C88.9055 69.6119 88.8891 69.7103 88.8891 69.8086C88.8891 69.8578 88.8891 69.9234 88.8891 69.9725V73.2671C88.8891 81.0691 88.8891 88.8712 88.8891 96.6732C88.8891 96.8371 88.8891 97.0174 88.8728 97.1977C88.5122 97.2469 87.9878 97.2797 87.4306 97.2797C87.0209 97.2797 86.6112 97.2633 86.2834 97.2305C86.267 95.4931 86.267 93.7229 86.267 92.0018C86.267 91.0839 86.267 90.1824 86.267 89.2646C86.267 87.3304 86.267 85.3963 86.267 83.4622V71.9722L85.8409 71.9067C85.5295 71.8575 85.2018 71.8411 84.7921 71.8411C84.6282 71.8411 84.4479 71.8411 84.284 71.8411C84.1202 71.8411 83.9563 71.8411 83.7924 71.8411C83.7268 71.8411 83.6449 71.8411 83.5793 71.8411C83.0713 71.8247 82.5633 71.8247 82.0552 71.8247C82.0389 71.8247 82.0388 71.8247 82.0225 71.8247C85.6115 65.3667 89.1841 58.9743 92.6421 52.7949L103.212 71.8411C102.967 71.8411 102.704 71.8411 102.393 71.8411C102.131 71.8411 101.869 71.8411 101.606 71.8411C101.344 71.8411 101.098 71.8411 100.853 71.8411C100.345 71.8411 99.9512 71.8411 99.5743 71.8739L99.3776 71.8903L99.2465 72.0378L99.181 72.1033C99.1318 72.1525 99.1154 72.1853 99.0826 72.2181C99.0335 72.2836 99.0007 72.3656 98.9679 72.4312C98.9515 72.4967 98.9188 72.5787 98.9188 72.677C98.9024 72.7754 98.9024 72.8737 98.9024 72.9557C98.9024 72.9557 98.886 90.9364 98.886 97.2141C98.591 97.2469 98.1321 97.2797 97.5585 97.2797Z" fill="white"/>
<path d="M81.2197 22.7996V20.259C81.613 20.2263 81.99 20.2263 82.3013 20.2263C82.5308 20.2263 82.7766 20.2263 83.006 20.2263C83.2519 20.2263 83.4977 20.2263 83.7435 20.2263H83.7599C83.8254 21.1769 83.8254 21.9965 83.7599 22.7996H81.2197Z" fill="white"/>
<path d="M89.1352 22.8488C88.6927 22.8488 88.2994 22.8324 87.988 22.7996C87.9061 22.4391 87.8405 21.7015 87.9552 20.2755C88.3486 20.2263 88.7747 20.2099 89.2172 20.2099C89.5941 20.2099 90.0202 20.2263 90.4955 20.2591V22.7833C90.1677 22.8324 89.6924 22.8488 89.1352 22.8488Z" fill="white"/>
<path d="M74.5012 22.816C74.4192 22.1604 74.4192 20.9967 74.4848 20.2919C74.747 20.2427 75.1567 20.2099 75.6647 20.2099C76.2055 20.2099 76.6316 20.2427 76.9266 20.2919V22.7997H74.5012V22.816Z" fill="white"/>
<path d="M21.4687 22.8652C21.059 22.8652 20.6493 22.8488 20.3215 22.816C20.2232 22.3079 20.174 21.2261 20.2723 20.3082C20.5346 20.259 20.9607 20.2263 21.567 20.2263C22.0587 20.2263 22.5012 20.259 22.8289 20.3082V22.7832C22.5175 22.8324 22.0423 22.8652 21.4687 22.8652Z" fill="white"/>
<path d="M13.5203 22.7997C13.5039 22.2424 13.5039 21.6687 13.5039 21.095C13.5039 20.8164 13.5039 20.5541 13.5039 20.2591C14.0119 20.2263 14.438 20.2099 14.8477 20.2099C15.2902 20.2099 15.6835 20.2263 16.0605 20.2755C16.1424 20.9967 16.126 22.144 16.0441 22.7997H13.5203Z" fill="white"/>
<path d="M28.3182 22.8488C27.8757 22.8488 27.4824 22.8488 27.1054 22.8324C27.0727 22.2915 27.0891 21.767 27.0891 21.2425C27.0891 20.9147 27.0891 20.5705 27.0891 20.2263C27.1218 20.2099 27.171 20.2099 27.2366 20.2099C27.3021 20.2099 27.3513 20.2099 27.4168 20.2099C27.4988 20.2099 27.5643 20.2263 27.6463 20.2263C27.679 20.2263 27.7118 20.2263 27.7446 20.2263C27.9412 20.2099 28.1215 20.2099 28.3182 20.2099C28.5148 20.2099 28.7115 20.2099 28.9082 20.2263C28.9409 20.2263 28.9737 20.2263 29.0065 20.2263C29.0884 20.2263 29.1704 20.2263 29.2523 20.2099C29.3179 20.2099 29.3834 20.2099 29.449 20.2099C29.4817 20.2099 29.5145 20.2099 29.5473 20.2099V22.8324C29.1376 22.8324 28.7279 22.8488 28.3182 22.8488Z" fill="white"/>
<path d="M51.9671 97.2633C51.115 97.2633 50.2628 97.083 49.427 96.706C47.9684 96.0668 46.854 94.9358 46.1985 93.4607C45.3299 91.461 45.4774 89.4941 46.641 87.6255C46.7885 87.396 46.9359 87.1502 47.0834 86.9207L47.3784 86.4618V71.8247C47.3948 71.8083 47.3948 71.7919 47.4112 71.7755C47.444 71.71 47.4931 71.6116 47.5095 71.5788C48.9353 70.1528 50.4266 68.6449 51.9835 67.1205C51.9835 67.1205 51.9999 67.1041 52.0163 67.1041L56.6214 71.71V86.347L56.6706 86.4454C56.8508 86.7896 57.0311 87.101 57.2278 87.396C57.5555 87.9205 57.8505 88.4287 58.0308 88.986C58.5061 90.4283 58.4405 91.9199 57.8341 93.4115C57.49 94.2638 56.9 95.0342 56.015 95.7882C55.2448 96.4438 54.3434 96.87 53.2618 97.1158C52.8357 97.2142 52.3932 97.2633 51.9671 97.2633ZM49.8858 87.855C49.7547 87.9533 49.6072 88.0681 49.4597 88.1992C48.5584 89.0351 48.1487 90.0513 48.247 91.2315C48.3617 92.6247 49.0992 93.7065 50.3775 94.3294C50.8363 94.5588 51.4099 94.6736 51.9999 94.6736C53.1143 94.6736 54.1304 94.2474 54.8023 93.477C56.1461 91.9527 56.1298 89.7563 54.7695 88.3795C54.5729 88.1828 54.3598 88.0189 54.1796 87.8714C54.1632 87.855 54.1632 87.855 54.1468 87.8386V73.0048L51.9835 70.8576L49.8858 72.9393V87.855Z" fill="white"/>
</svg>
