<svg width="52" height="53" viewBox="0 0 52 53" fill="none" xmlns="http://www.w3.org/2000/svg">
<g clip-path="url(#clip0_446_1014)">
<path d="M3.64912 40.7888C1.62624 40.7888 0 39.162 0 37.1823V3.60651C0 1.60725 1.62624 0 3.64912 0H48.3707C50.3738 0 52.0198 1.60725 52.0198 3.60651V37.2019C52.0198 39.1816 50.3936 40.8084 48.3707 40.8084H3.64912V40.7888ZM3.64912 1.96006C2.73684 1.96006 1.98322 2.68528 1.98322 3.60651V37.2019C1.98322 38.1036 2.71701 38.8484 3.64912 38.8484H48.3707C49.283 38.8484 50.0366 38.1232 50.0366 37.2019V3.60651C50.0366 2.70488 49.3028 1.96006 48.3707 1.96006H3.64912V1.96006Z" fill="#333333"/>
<path d="M50.6515 32.145H0.238037V34.1051H50.6515V32.145Z" fill="#333333"/>
<path d="M20.016 39.4309L14.8145 48.5028L16.5399 49.4691L21.7414 40.3972L20.016 39.4309Z" fill="#333333"/>
<path d="M31.9935 39.4296L30.2681 40.3959L35.4696 49.4678L37.195 48.5015L31.9935 39.4296Z" fill="#333333"/>
<path d="M13.9421 52.9999C11.7407 52.9999 9.95581 51.2359 9.95581 49.0602V48.0802H42.084V49.0602C42.084 51.2359 40.2991 52.9999 38.0977 52.9999H13.9421ZM12.1968 50.0403C12.5538 50.6479 13.2281 51.0399 13.9421 51.0399H38.0779C38.7918 51.0399 39.4661 50.6479 39.8231 50.0403H12.1968Z" fill="#333333"/>
<path d="M4.91846 18.2482L8.40892 13.8969L9.73768 14.9357L7.1 18.2286L9.8765 21.5215L8.56758 22.5995L4.91846 18.2482Z" fill="#333333"/>
<path d="M42.6591 21.541L45.2968 18.2481L42.5203 14.9552L43.8292 13.8772L47.4783 18.2089L43.9878 22.5799L42.6591 21.541Z" fill="#333333"/>
<path d="M11.2846 30.6945L11.1458 8.78105L16.5004 3.48889H41.3105V30.7141H11.2846V30.6945ZM39.7239 29.1265V5.05694H17.1747L12.7522 9.42787L12.8513 29.1265H39.7239Z" fill="#333333"/>
<path d="M11.939 9.78068C11.5027 9.78068 11.1458 9.42787 11.1458 8.99666C11.1458 8.56545 11.5027 8.21264 11.939 8.21264H16.0443V4.27292C16.0443 3.8417 16.4013 3.48889 16.8376 3.48889C17.2739 3.48889 17.6309 3.8417 17.6309 4.27292V8.99666C17.6309 9.42787 17.2739 9.78068 16.8376 9.78068H11.939Z" fill="#333333"/>
<path d="M28.8558 6.66418H19.0984V8.23223H28.8558V6.66418Z" fill="#333333"/>
<path d="M31.8703 3.97888H30.2837V30.1653H31.8703V3.97888Z" fill="#333333"/>
<path d="M35.0634 3.97888H33.4768V30.1653H35.0634V3.97888Z" fill="#333333"/>
<path d="M38.2365 3.97888H36.6499V30.1653H38.2365V3.97888Z" fill="#333333"/>
<path d="M15.6079 27.9505C14.894 27.9505 14.3188 27.3821 14.3188 26.6764V12.4464C14.3188 11.7408 14.894 11.1724 15.6079 11.1724H27.4081C28.122 11.1724 28.6972 11.7408 28.6972 12.4464V26.6568C28.6972 27.3625 28.122 27.9309 27.4081 27.9309H15.6079V27.9505ZM27.1106 26.3824V12.76H15.9054V26.3824H27.1106Z" fill="#333333"/>
<path d="M24.7902 11.7996H23.2036V27.6368H24.7902V11.7996Z" fill="#333333"/>
<path d="M28.1617 14.3477H14.656V15.9157H28.1617V14.3477Z" fill="#333333"/>
</g>
<defs>
<clipPath id="clip0_446_1014">
<rect width="52" height="53" fill="white"/>
</clipPath>
</defs>
</svg>
