<svg width="52" height="52" viewBox="0 0 52 52" fill="none" xmlns="http://www.w3.org/2000/svg">
<path fill-rule="evenodd" clip-rule="evenodd" d="M41.7857 3.71423H39.9286C39.416 3.71423 39 4.13023 39 4.6428C39 5.15538 39.416 5.57138 39.9286 5.57138H41.7857C42.2983 5.57138 42.7143 5.15538 42.7143 4.6428C42.7143 4.13023 42.2983 3.71423 41.7857 3.71423ZM36.2143 3.71423H34.3571C33.8446 3.71423 33.4286 4.13023 33.4286 4.6428C33.4286 5.15538 33.8446 5.57138 34.3571 5.57138H36.2143C36.7269 5.57138 37.1429 5.15538 37.1429 4.6428C37.1429 4.13023 36.7269 3.71423 36.2143 3.71423ZM30.6429 3.71423H28.7857C28.2731 3.71423 27.8571 4.13023 27.8571 4.6428C27.8571 5.15538 28.2731 5.57138 28.7857 5.57138H30.6429C31.1554 5.57138 31.5714 5.15538 31.5714 4.6428C31.5714 4.13023 31.1554 3.71423 30.6429 3.71423ZM45.5 7.42852H6.5C5.98743 7.42852 5.57143 7.84452 5.57143 8.35709C5.57143 8.86966 5.98743 9.28566 6.5 9.28566H45.5C46.0126 9.28566 46.4286 8.86966 46.4286 8.35709C46.4286 7.84452 46.0126 7.42852 45.5 7.42852ZM6.5 9.28566H2.78571C1.248 9.28566 0 10.5337 0 12.0714V41.7857C0 43.3234 1.248 44.5714 2.78571 44.5714H49.2143C50.752 44.5714 52 43.3234 52 41.7857V12.0714C52 10.5337 50.752 9.28566 49.2143 9.28566H45.5C44.9874 9.28566 44.5714 9.70166 44.5714 10.2142C44.5714 10.7268 44.9874 11.1428 45.5 11.1428H49.2143C49.7269 11.1428 50.1429 11.5588 50.1429 12.0714V41.7857C50.1429 42.2982 49.7269 42.7142 49.2143 42.7142H2.78571C2.27314 42.7142 1.85714 42.2982 1.85714 41.7857V12.0714C1.85714 11.5588 2.27314 11.1428 2.78571 11.1428H6.5C7.01257 11.1428 7.42857 10.7268 7.42857 10.2142C7.42857 9.70166 7.01257 9.28566 6.5 9.28566Z" fill="black"/>
<path fill-rule="evenodd" clip-rule="evenodd" d="M21.4167 43.3169L18.6309 50.7454C18.4508 51.2255 18.6941 51.7613 19.1742 51.9405C19.6542 52.1207 20.19 51.8774 20.3692 51.3973L23.155 43.9687C23.3351 43.4887 23.0918 42.9529 22.6117 42.7736C22.1317 42.5935 21.5959 42.8368 21.4167 43.3169ZM28.8452 43.9687L31.6309 51.3973C31.8102 51.8774 32.346 52.1207 32.826 51.9405C33.3061 51.7613 33.5494 51.2255 33.3692 50.7454L30.5835 43.3169C30.4043 42.8368 29.8685 42.5935 29.3884 42.7736C28.9084 42.9529 28.6651 43.4887 28.8452 43.9687Z" fill="black"/>
<path fill-rule="evenodd" clip-rule="evenodd" d="M17.643 52H34.3572C34.8698 52 35.2858 51.584 35.2858 51.0714C35.2858 50.5589 34.8698 50.1429 34.3572 50.1429H17.643C17.1304 50.1429 16.7144 50.5589 16.7144 51.0714C16.7144 51.584 17.1304 52 17.643 52ZM46.4287 38.0714V2.78571C46.4287 1.248 45.1807 0 43.643 0H8.35725C6.81953 0 5.57153 1.248 5.57153 2.78571V38.0714C5.57153 38.584 5.98753 39 6.5001 39C7.01268 39 7.42868 38.584 7.42868 38.0714V2.78571C7.42868 2.27314 7.84468 1.85714 8.35725 1.85714H43.643C44.1555 1.85714 44.5715 2.27314 44.5715 2.78571V38.0714C44.5715 38.584 44.9875 39 45.5001 39C46.0127 39 46.4287 38.584 46.4287 38.0714Z" fill="black"/>
<path fill-rule="evenodd" clip-rule="evenodd" d="M0.928571 39H51.0714C51.584 39 52 38.584 52 38.0714C52 37.5588 51.584 37.1428 51.0714 37.1428H0.928571C0.416 37.1428 0 37.5588 0 38.0714C0 38.584 0.416 39 0.928571 39ZM23.2143 14.3548V12.0714C23.2143 11.5588 23.6303 11.1428 24.1429 11.1428H27.8571C28.3697 11.1428 28.7857 11.5588 28.7857 12.0714V14.3548C29.3104 14.52 29.8146 14.7299 30.2937 14.9806L31.9094 13.3649C32.2716 13.0028 32.8603 13.0028 33.2224 13.3649L35.8494 15.9918C36.2115 16.354 36.2115 16.9427 35.8494 17.3048L34.2336 18.9205C34.4844 19.3997 34.6951 19.9039 34.8595 20.4285H37.1429C37.6554 20.4285 38.0714 20.8445 38.0714 21.3571V25.0714C38.0714 25.584 37.6554 26 37.1429 26H34.8595C34.6942 26.5246 34.4844 27.0288 34.2336 27.508L35.8494 29.1237C36.2115 29.4858 36.2115 30.0745 35.8494 30.4367L33.2224 33.0636C32.8603 33.4258 32.2716 33.4258 31.9094 33.0636L30.2937 31.4479C29.8146 31.6986 29.3104 31.9094 28.7857 32.0738V34.3571C28.7857 34.8697 28.3697 35.2857 27.8571 35.2857H24.1429C23.6303 35.2857 23.2143 34.8697 23.2143 34.3571V32.0738C22.6896 31.9085 22.1854 31.6986 21.7063 31.4479L20.0906 33.0636C19.7284 33.4258 19.1397 33.4258 18.7776 33.0636L16.1506 30.4367C15.7885 30.0745 15.7885 29.4858 16.1506 29.1237L17.7664 27.508C17.5156 27.0288 17.3049 26.5246 17.1405 26H14.8571C14.3446 26 13.9286 25.584 13.9286 25.0714V21.3571C13.9286 20.8445 14.3446 20.4285 14.8571 20.4285H17.1405C17.3058 19.9039 17.5156 19.3997 17.7664 18.9205L16.1506 17.3048C15.7885 16.9427 15.7885 16.354 16.1506 15.9918L18.7776 13.3649C19.1397 13.0028 19.7284 13.0028 20.0906 13.3649L21.7063 14.9806C22.1854 14.7299 22.6896 14.5191 23.2143 14.3548ZM26.9286 13H25.0714V15.0642C25.0714 15.4978 24.7715 15.8739 24.349 15.9705C23.5207 16.158 22.7444 16.4849 22.0471 16.925C21.6803 17.1563 21.2021 17.1033 20.8947 16.796L19.4341 15.3353L18.1211 16.6483L19.5817 18.109C19.8891 18.4163 19.942 18.8945 19.7108 19.2613C19.2706 19.9587 18.9438 20.735 18.7562 21.5633C18.6596 21.9858 18.2836 22.2857 17.8499 22.2857H15.7857V24.1428H17.8499C18.2836 24.1428 18.6596 24.4428 18.7562 24.8653C18.9438 25.6935 19.2706 26.4698 19.7108 27.1672C19.942 27.534 19.8891 28.0122 19.5817 28.3195L18.1211 29.7802L19.4341 31.0932L20.8947 29.6325C21.2021 29.3252 21.6803 29.2723 22.0471 29.5035C22.7444 29.9436 23.5207 30.2705 24.349 30.458C24.7715 30.5546 25.0714 30.9307 25.0714 31.3643V33.4285H26.9286V31.3643C26.9286 30.9307 27.2285 30.5546 27.651 30.458C28.4793 30.2705 29.2556 29.9436 29.9529 29.5035C30.3197 29.2723 30.7979 29.3252 31.1053 29.6325L32.5659 31.0932L33.8789 29.7802L32.4183 28.3195C32.1109 28.0122 32.058 27.534 32.2892 27.1672C32.7294 26.4698 33.0562 25.6935 33.2438 24.8653C33.3404 24.4428 33.7164 24.1428 34.1501 24.1428H36.2143V22.2857H34.1501C33.7164 22.2857 33.3404 21.9858 33.2438 21.5633C33.0562 20.735 32.7294 19.9587 32.2892 19.2613C32.058 18.8945 32.1109 18.4163 32.4183 18.109L33.8789 16.6483L32.5659 15.3353L31.1053 16.796C30.7979 17.1033 30.3197 17.1563 29.9529 16.925C29.2556 16.4849 28.4793 16.158 27.651 15.9705C27.2285 15.8739 26.9286 15.4978 26.9286 15.0642V13Z" fill="black"/>
<path fill-rule="evenodd" clip-rule="evenodd" d="M25.9999 17.6428C22.9254 17.6428 20.4285 20.1398 20.4285 23.2143C20.4285 26.2888 22.9254 28.7857 25.9999 28.7857C29.0744 28.7857 31.5713 26.2888 31.5713 23.2143C31.5713 20.1398 29.0744 17.6428 25.9999 17.6428ZM25.9999 19.5C28.0502 19.5 29.7142 21.164 29.7142 23.2143C29.7142 25.2645 28.0502 26.9285 25.9999 26.9285C23.9496 26.9285 22.2856 25.2645 22.2856 23.2143C22.2856 21.164 23.9496 19.5 25.9999 19.5Z" fill="black"/>
</svg>
