<svg width="522" height="615" viewBox="0 0 522 615" fill="none" xmlns="http://www.w3.org/2000/svg">
<path d="M6.5081 150.078C5.88606 146.126 11.0697 138.082 16.8064 138.221C19.0872 138.29 21.2989 138.845 23.5797 138.776C29.6619 138.498 32.7722 133.714 35.1221 129.831C37.472 125.878 42.1028 121.44 48.0468 122.411C56.548 123.867 60.8332 135.101 70.5095 126.641C76.8681 121.094 77.2828 113.397 84.4709 107.989C89.3781 104.313 97.3956 102.095 103.962 104.175C112.601 106.81 115.78 115.408 124.904 116.864C135.064 118.528 142.39 110.762 145.569 105.146C149.509 98.3502 150.96 91.0001 154.347 84.1355C157.457 77.7562 163.747 69.158 174.944 69.366C184.413 69.5047 188.629 75.5373 193.259 80.3218C199.342 86.5624 211.921 108.89 226.089 106.255C231.619 105.215 234.383 100.777 239.291 98.8356C247.308 95.6459 257.468 100.014 262.306 105.492C267.144 110.97 269.01 117.557 274.471 122.758C275.853 124.075 277.581 125.393 279.793 125.948C287.395 128.028 294.445 121.649 302.601 121.163C308.199 120.816 313.452 123.451 316.631 126.71C319.88 129.969 321.608 133.783 324.096 137.319C324.787 138.29 325.547 139.33 326.791 139.954C330.385 141.896 335.362 140.232 339.785 139.469C350.567 137.597 362.87 142.589 365.911 150.078H6.5081Z" fill="#F5F5FE"/>
<path d="M520.857 44.5236C521.201 42.3346 518.323 37.9566 515.187 38.0424C513.941 38.0853 512.738 38.3858 511.492 38.3429C508.185 38.1712 506.466 35.5959 505.178 33.4498C503.889 31.3037 501.354 28.8572 498.133 29.4152C493.493 30.1878 491.13 36.3256 485.847 31.733C482.367 28.7284 482.109 24.4792 478.2 21.5605C475.494 19.5432 471.112 18.3414 467.504 19.4574C462.778 20.9167 461.017 25.5952 455.991 26.4107C450.45 27.312 446.411 23.0628 444.65 20.0154C442.502 16.3241 441.686 12.3324 439.839 8.55529C438.121 5.07864 434.684 0.400185 428.541 0.486028C423.343 0.571871 421.023 3.87683 418.489 6.49505C415.181 9.88586 408.265 22.1185 400.533 20.6163C397.526 20.0583 396.022 17.6547 393.273 16.5816C388.891 14.8648 383.307 17.2255 380.686 20.23C378.066 23.1916 376.992 26.797 374.028 29.6298C373.254 30.3595 372.309 31.0462 371.107 31.3896C366.94 32.5485 363.073 29.0289 358.606 28.7714C355.513 28.5997 352.678 30.0161 350.916 31.8188C349.155 33.5786 348.167 35.6817 346.835 37.6132C346.449 38.1712 346.019 38.6863 345.332 39.0725C343.356 40.1027 340.607 39.2442 338.244 38.815C332.316 37.7849 325.614 40.5319 323.939 44.6094H520.857V44.5236Z" fill="#F5F5FE"/>
<path d="M253.404 614.949C364.668 614.949 454.865 524.752 454.865 413.488C454.865 302.224 364.668 212.027 253.404 212.027C142.14 212.027 51.9429 302.224 51.9429 413.488C51.9429 524.752 142.14 614.949 253.404 614.949Z" fill="#F5F5FE"/>
<path d="M203.688 382.563C194.522 391.986 202.832 415.059 217.452 411.718C233.158 408.12 230.816 383.648 216.595 379.621C211.056 378.051 206.629 379.536 203.688 382.563Z" fill="#9B87FF"/>
<path d="M276.562 412.974C273.079 416.344 269.024 418.971 264.198 420.056C255.031 422.141 246.436 418.114 238.783 413.488C230.616 408.519 222.478 403.494 214.768 397.84C209.257 393.785 203.631 389.473 200.204 383.419C196.235 376.394 196.007 367.97 196.806 360.117C197.349 354.777 194.864 349.98 193.779 344.869C191.638 334.931 193.836 323.223 203.089 317.512C207.829 314.599 212.769 315.028 217.738 317.17C221.564 318.826 225.105 321.11 229.103 322.252C237.612 324.68 246.807 321.339 255.146 319.625C261.171 318.397 267.767 317.741 273.707 319.711C280.332 321.938 283.473 326.764 287.071 332.361C290.155 337.159 294.838 340.757 298.579 345.011C303.576 350.723 305.09 357.947 303.405 365.286C300.949 376.08 294.724 385.361 289.327 394.813C285.9 400.924 281.874 407.834 276.562 412.974Z" fill="#0B2D4E"/>
<path d="M208.4 515.461C219.394 498.499 226.247 477.71 216.681 458.578C215.71 456.636 214.539 454.523 212.483 453.838C208.057 452.353 202.061 453.952 198.206 456.208C184.87 464.032 176.703 478.767 169.193 491.874C161.397 505.495 154.629 519.659 146.805 533.28C143.635 538.791 140.437 544.36 138.724 550.499C137.239 555.868 137.068 562.007 139.095 567.261C147.89 589.963 172.048 562.15 179.387 553.754C189.924 541.761 199.719 528.825 208.4 515.461Z" fill="#26A8D1"/>
<path d="M263.199 412.689C262.028 413.945 260.657 415.002 259.087 415.773C255.089 417.772 250.263 417.658 246.008 416.344C241.725 415.03 237.898 412.603 234.243 410.005C224.363 403.008 212.141 393.785 206.258 383.048C202.632 376.423 199.948 368.627 203.403 361.403C206.373 355.206 212.426 350.609 219.366 349.952C219.937 349.895 220.536 349.866 221.05 350.123C221.621 350.409 221.993 350.98 222.335 351.522C224.848 355.634 226.819 360.089 229.874 363.83C233.187 367.913 237.299 370.94 241.782 373.653C249.035 378.051 256.974 381.306 263.798 386.332C268.71 389.958 268.853 398.154 267.653 403.837C266.997 407.149 265.455 410.29 263.199 412.689Z" fill="#061F33"/>
<path d="M318.511 493.759C321.995 481.052 323.794 468.03 315.912 459.378C312.343 455.466 306.003 452.753 300.806 450.811C290.669 447.042 280.303 441.959 269.452 440.303C258.001 438.561 245.294 437.504 233.9 439.989C226.647 441.559 219.879 444.472 213.397 447.641C204.716 451.868 198.52 454.695 195.721 463.404C192.637 473.056 190.752 482.965 189.696 492.902C186.64 522.058 190.695 551.27 190.581 580.426C190.581 583.281 190.61 586.28 192.066 588.85C194.922 593.933 202.746 593.99 208.343 593.99C226.847 593.961 245.38 593.933 263.884 593.904C271.594 593.904 277.476 594.704 284.701 595.989C290.783 597.074 296.009 594.418 298.922 589.535C301.692 584.909 301.891 579.512 302.206 574.315C303.348 554.097 306.689 533.994 312.114 514.291C313.685 508.722 316.398 501.412 318.511 493.759Z" fill="#3DC8E8"/>
<path d="M273.707 456.779C277.619 450.468 278.505 442.558 273.393 436.476C271.051 433.677 266.882 433.392 263.341 433.306C256.345 433.192 249.349 433.906 242.553 435.419C236.071 436.876 229.446 439.332 226.647 445.614C224.563 450.268 225.277 455.665 228.047 459.949C230.531 463.832 234.7 466.688 239.297 467.745C246.751 469.458 255.489 469.229 262.628 466.345C267.054 464.546 271.08 461.005 273.707 456.779Z" fill="#26A8D1"/>
<path d="M200.976 592.904C208.429 596.416 216.567 598.187 224.705 599.558C247.436 603.355 270.623 604.155 293.668 603.07C298.579 602.841 303.919 602.356 307.574 599.015C310.287 596.531 311.544 592.875 312.457 589.335C315.541 577.227 315.484 564.577 315.427 552.069C315.37 542.332 315.341 532.566 315.284 522.828C315.256 519.43 317.483 498.784 312.2 499.013C311.629 499.041 311.115 499.327 310.658 499.669C308.031 501.554 306.689 504.695 305.461 507.694C301.606 517.06 298.379 532.052 290.384 538.619C281.96 545.501 272.279 548.7 262.085 552.012C244.409 557.752 224.677 560.236 209.714 572.001C207.229 573.972 204.831 576.142 202.546 578.312C200.462 580.282 197.606 582.31 196.378 585.051C194.351 589.277 197.378 591.219 200.976 592.904Z" fill="#26A8D1"/>
<path d="M358.375 524.056C361.173 529.139 363.972 534.222 366.713 539.334C372.282 549.699 382.619 572.772 366.056 578.455C357.718 581.311 352.949 578.512 347.438 572.43C326.592 549.442 308.802 523.685 294.696 496.043C289.441 485.763 275.535 458.949 292.44 452.81C297.78 450.868 303.948 451.325 308.945 454.009C311.229 455.237 313.257 456.893 315.199 458.635C327.42 469.515 336.101 483.564 343.84 497.814C348.637 506.609 353.52 515.318 358.375 524.056Z" fill="#3DC8E8"/>
<path d="M517.075 579.485H0.494873V615H517.075V579.485Z" fill="white"/>
<path d="M274.021 561.265C275.477 561.008 276.934 560.779 278.39 560.551C285.501 559.437 292.582 558.152 299.607 556.638C313.542 553.64 327.563 551.07 341.755 549.757C343.269 549.614 344.754 549.5 346.267 549.385C352.635 548.9 359.289 548.729 365.114 551.698C370.939 554.668 375.537 561.693 374.109 568.461C373.11 573.229 369.369 576.827 365.228 578.626C361.088 580.454 356.519 580.768 352.064 581.054C337.586 582.025 323.108 582.995 308.602 583.995C301.435 584.48 294.267 584.966 287.1 585.48C280.246 585.965 273.307 586.908 266.425 586.908C263.513 586.908 260.286 586.394 257.83 584.48C254.432 581.853 252.404 576.256 252.09 571.859C251.919 569.574 252.376 566.833 254.175 565.405C255.117 564.663 256.345 564.406 257.516 564.206C263.056 563.235 268.538 562.207 274.021 561.265Z" fill="#3DC8E8"/>
<path d="M217.938 566.404H149.261V579.854H217.938V566.404Z" fill="#B8D1CE"/>
<path d="M161.054 567.718L143.721 479.48C143.264 477.139 141.208 475.454 138.838 475.454H23.6156C21.9593 475.454 20.5315 476.282 19.6178 477.51L19.5892 477.482L14.2778 483.764L18.9895 482.736L36.0659 569.631C36.5228 571.973 38.5788 573.657 40.9489 573.657H156.171C159.313 573.657 161.654 570.773 161.054 567.718Z" fill="#B8D1CE"/>
<path d="M35.6662 579.854H150.889C154.03 579.854 156.371 576.999 155.772 573.915L138.438 485.677C137.982 483.336 135.926 481.68 133.555 481.68H18.3329C15.1917 481.68 12.8501 484.535 13.4498 487.619L30.7832 575.857C31.2686 578.17 33.2961 579.854 35.6662 579.854Z" fill="white"/>
<path d="M71.932 528.568C72.9886 534.508 78.6712 539.334 84.6394 539.334C90.579 539.334 94.4911 534.508 93.3489 528.568C92.2067 522.629 86.5241 517.803 80.6416 517.803C74.7591 517.803 70.8755 522.629 71.932 528.568Z" fill="#B8D1CE"/>
<path d="M257.63 582.881C254.203 583.595 251.519 586.593 248.121 587.593C245.694 588.307 243.095 587.936 240.754 587.05C238.612 586.251 236.413 585.822 234.214 585.109C232.501 584.566 230.188 583.395 228.332 583.795C223.506 584.794 218.652 588.25 214.283 590.477C213.283 590.991 212.227 591.505 211.141 591.305C210.056 591.105 209.143 589.792 209.771 588.849C208.514 590.02 206.829 592.39 204.802 591.477C203.974 591.105 203.46 589.992 203.917 589.221C203.203 589.992 202.489 590.791 201.518 591.162C200.547 591.534 199.291 591.391 198.72 590.506C198.463 590.106 198.377 589.592 198.348 589.106C198.263 587.422 198.777 585.765 199.462 584.252C202.917 576.713 210.742 571.116 217.367 566.633C218.537 565.833 219.737 565.034 221.107 564.606C222.335 564.234 223.62 564.206 224.877 564.177C233.129 564.149 241.382 565.462 249.178 568.118C250.862 568.689 252.719 568.204 254.403 567.889C255.66 567.661 256.945 567.433 258.173 567.775C259.543 568.175 260.6 569.26 261.428 570.402C262.942 572.516 264.112 575.314 263.941 577.998C263.798 580.026 263.655 582.196 261.257 582.624C260.286 582.796 259.286 582.681 258.315 582.796C258.116 582.796 257.887 582.824 257.63 582.881Z" fill="#F8A17A"/>
<path d="M259.115 460.948C264.141 459.32 268.31 456.208 269.852 451.211C271.251 446.699 269.052 441.616 268.653 437.047C268.281 432.678 268.224 428.28 268.51 423.911C268.767 419.856 269.167 415.659 268.538 411.632C268.196 409.319 266.911 409.719 264.598 408.805C262.256 407.892 259.658 407.892 257.116 407.892C251.919 407.892 238.412 407.52 235.214 412.089C233.729 414.174 233.615 416.801 233.558 419.285C233.472 422.284 232.929 426.167 232.444 430.365C232.216 432.221 232.358 434.077 232.073 435.933C231.759 438.018 230.959 439.988 230.274 441.987C227.675 449.497 230.102 456.636 238.241 460.091C244.038 462.547 252.376 463.118 259.115 460.948Z" fill="#F8A17A"/>
<path d="M268.51 411.632C268.167 409.319 266.882 409.719 264.569 408.805C262.228 407.892 259.629 407.892 257.088 407.892C251.891 407.892 238.384 407.52 235.185 412.089C233.701 414.174 233.586 416.801 233.529 419.285C233.444 422.284 232.901 426.167 232.416 430.365C232.187 432.221 232.33 434.077 232.044 435.933C231.787 437.504 231.273 439.046 230.759 440.559C235.785 442.415 241.468 442.844 246.693 441.559C256.145 439.246 263.284 433.363 268.396 425.71C268.424 425.111 268.453 424.511 268.481 423.94C268.738 419.885 269.11 415.659 268.51 411.632Z" fill="#E5785C"/>
<path d="M276.02 382.048C275.992 375.138 275.021 368.57 273.25 363.116C265.569 339.586 236.213 333.761 218.537 350.666C198.834 369.512 206.373 414.545 227.133 430.365C232.672 434.591 240.24 436.076 246.979 434.277C267.368 428.766 276.163 403.665 276.02 382.048Z" fill="#F8A17A"/>
<path d="M273.25 363.087C265.569 339.557 236.213 333.732 218.537 350.637C216.31 352.779 214.425 355.263 212.883 357.976C213.911 358.861 215.025 359.632 215.996 360.203C223.449 364.686 231.53 368.084 239.954 370.226C243.581 371.168 247.379 371.911 250.348 374.195C252.062 375.509 253.347 377.194 254.375 379.05C255.631 381.306 256.517 383.819 257.345 386.246C259.172 391.586 259.972 397.211 260.714 402.78C260.8 403.351 260.886 403.979 261.314 404.379C261.714 404.75 262.313 404.836 262.884 404.836C266.14 404.75 267.71 401.637 270.252 399.981C271.765 398.982 273.307 397.982 274.735 396.869C275.649 391.929 276.077 386.874 276.049 382.02C275.992 375.109 275.021 368.541 273.25 363.087Z" fill="#E5785C"/>
<path d="M257.659 378.164C258.601 380.563 259.172 383.162 259.686 385.703C260.8 391.243 260.885 396.926 260.885 402.551C260.885 403.122 260.914 403.779 261.285 404.236C261.628 404.664 262.228 404.807 262.77 404.864C265.997 405.207 267.967 402.323 270.709 401.009C273.536 399.638 276.391 398.268 278.876 396.326C285.9 390.815 284.301 381.705 284.073 373.624C283.958 369.169 283.816 364.658 282.502 360.431C281.074 355.805 278.304 351.665 275.021 348.095C265.511 337.815 251.119 332.475 237.213 333.361C230.331 333.789 222.564 336.702 217.652 341.67C213.426 345.954 218.566 351.75 222.05 354.52C228.846 359.917 236.442 364.344 244.523 367.57C247.978 368.97 251.662 370.226 254.318 372.853C255.831 374.338 256.888 376.166 257.659 378.164Z" fill="#0B2D4E"/>
<path d="M272.165 382.619C281.189 377.679 283.987 390.187 282.416 396.412C281.788 398.982 280.76 401.495 279.161 403.608C277.019 406.463 270.88 411.175 267.339 408.062C265.74 406.635 265.569 404.236 265.511 402.094C265.397 396.355 266.054 385.96 272.165 382.619Z" fill="#F8A17A"/>
<path d="M402.665 527.169C403.921 524.542 403.722 521.772 402.893 519.288C402.122 516.718 400.752 514.519 399.267 512.12C397.753 509.75 396.24 507.151 395.298 504.039C394.355 500.898 394.612 497.357 395.498 494.358C397.382 488.247 401.266 483.764 403.95 479.167C405.292 476.854 406.377 474.484 406.806 471.856C407.291 469.258 407.12 466.517 405.863 463.918C408.062 465.86 409.147 468.972 409.29 471.999C409.433 475.055 408.662 478.167 407.491 480.909C405.178 486.448 401.694 490.932 400.352 495.815C399.581 498.213 399.41 500.555 399.952 502.897C400.409 505.295 401.666 507.694 402.779 510.321C403.979 512.891 405.121 515.832 405.378 518.859C405.578 521.829 404.921 525.227 402.665 527.169Z" fill="white"/>
<path d="M413.83 579.569H393.87C389.929 579.569 386.731 576.371 386.731 572.43V530.51H420.969V572.43C420.969 576.371 417.799 579.569 413.83 579.569Z" fill="#9B87FF"/>
<path d="M423.368 541.619C415.144 541.619 408.49 548.386 408.49 556.696C408.49 565.034 415.144 571.774 423.368 571.774C431.592 571.774 438.245 565.006 438.245 556.696C438.245 548.386 431.592 541.619 423.368 541.619ZM423.368 566.405C418.085 566.405 413.802 562.065 413.802 556.696C413.802 551.328 418.085 546.987 423.368 546.987C428.651 546.987 432.934 551.328 432.934 556.696C432.934 562.065 428.651 566.405 423.368 566.405Z" fill="#9B87FF"/>
<path opacity="0.2" d="M391.871 560.951C390.843 560.951 390.015 560.122 390.015 559.094V535.222C390.015 534.194 390.843 533.366 391.871 533.366C392.899 533.366 393.727 534.194 393.727 535.222V559.094C393.698 560.122 392.87 560.951 391.871 560.951Z" fill="white"/>
<path d="M413.088 530.539V570.917C413.088 575.714 409.204 579.597 404.407 579.597H412.317C417.114 579.597 420.998 575.714 420.998 570.917V530.539H413.088Z" fill="#8070F2"/>
<path d="M199.805 357.548C195.921 346.696 188.154 337.93 192.637 325.737C195.264 318.54 202.004 313.886 209.628 313.772C213.226 313.715 216.795 314.6 219.908 316.399C223.62 318.54 226.048 321.996 230.359 323.166C240.497 325.908 251.005 318.169 260.686 316.37C270.28 314.6 280.475 317.741 285.187 326.907C287.043 330.534 287.814 334.703 290.27 337.93C294.324 343.355 302.234 345.212 305.461 351.18C310.716 360.917 299.921 374.995 294.439 382.477" stroke="#0B2D4E" stroke-width="4" stroke-miterlimit="10"/>
<path d="M242.753 423.797C240.525 423.797 238.298 423.626 236.071 423.312L236.47 420.599C244.58 421.798 252.661 420.656 259.858 417.343C261.799 416.43 263.456 415.487 264.912 414.431C267.539 412.517 269.824 410.033 271.451 407.206L273.821 408.577C271.994 411.718 269.452 414.488 266.511 416.629C264.912 417.772 263.113 418.828 261 419.799C255.317 422.455 249.092 423.797 242.753 423.797Z" fill="#8070F2"/>
<path d="M228.161 418.458C231.473 415.63 238.812 415.859 241.239 418.8C243.038 420.97 242.496 423.74 240.497 425.596C238.155 427.767 235.271 427.652 232.358 426.996C228.703 426.168 224.191 421.856 228.161 418.458Z" fill="#8070F2"/>
<path d="M225.305 332.819C226.104 332.847 226.904 332.904 227.675 332.876C228.475 332.904 229.274 332.847 230.045 332.819C231.616 332.733 233.215 332.562 234.785 332.333C237.927 331.905 241.039 331.305 244.209 330.877C247.379 330.448 250.605 330.249 253.804 330.448C254.603 330.506 255.403 330.591 256.202 330.705C257.002 330.82 257.801 330.962 258.601 331.191C260.172 331.591 261.742 332.162 263.17 332.99C263.884 333.418 264.569 333.875 265.197 334.418C265.826 334.96 266.397 335.56 266.939 336.188C267.453 336.845 267.91 337.53 268.31 338.273C268.681 339.015 268.995 339.815 269.195 340.614C269.395 341.442 269.481 342.271 269.452 343.127C269.452 343.984 269.281 344.783 269.081 345.583C268.91 346.354 268.71 347.125 268.596 347.868C268.481 348.61 268.453 349.352 268.538 350.123C268.681 351.637 269.252 353.093 269.909 354.521C270.566 355.949 271.394 357.319 272.136 358.719C272.879 360.147 273.507 361.631 273.878 363.202C274.05 363.973 274.164 364.801 274.164 365.601C274.164 366.4 274.021 367.2 273.764 367.942C274.164 366.4 274.021 364.773 273.593 363.288C273.136 361.774 272.451 360.375 271.651 359.004C270.851 357.634 269.995 356.291 269.252 354.864C268.51 353.436 267.882 351.894 267.682 350.238C267.568 349.41 267.568 348.553 267.682 347.753C267.796 346.925 267.996 346.154 268.139 345.383C268.31 344.612 268.424 343.87 268.424 343.127C268.424 342.385 268.367 341.642 268.167 340.9C267.967 340.186 267.71 339.472 267.368 338.787C267.025 338.13 266.597 337.502 266.111 336.902C265.626 336.331 265.083 335.788 264.512 335.274C263.941 334.789 263.313 334.361 262.656 333.961C261.342 333.19 259.886 332.647 258.373 332.247C256.888 331.848 255.317 331.648 253.775 331.505C250.634 331.248 247.493 331.419 244.352 331.733C241.211 332.076 238.069 332.562 234.871 332.847C233.272 332.99 231.673 333.076 230.102 333.076C228.475 333.133 226.876 333.019 225.305 332.819Z" fill="#73B8D4"/>
<path d="M275.963 379.05C263.227 382.306 258.287 406.321 272.508 411.119C287.785 416.259 298.551 394.128 288.528 383.277C284.616 379.05 280.075 378.022 275.963 379.05Z" fill="#9B87FF"/>
<path d="M280.132 382.134C271.337 383.562 265.911 402.238 274.992 407.378C284.73 412.917 293.896 396.269 288.156 386.675C285.9 382.962 282.959 381.677 280.132 382.134Z" fill="#8070F2"/>
<path d="M281.903 380.735L278.504 380.335C280.817 360.403 279.818 334.931 262.056 326.793C253.632 322.938 245.951 320.168 232.273 322.881C230.274 322.624 228.732 321.881 228.732 321.881C241.096 315.827 254.403 319.54 263.484 323.709C283.13 332.704 284.358 359.689 281.903 380.735Z" fill="#9B87FF"/>
<path d="M328.905 359.889H445.784C452.209 359.889 457.492 354.606 457.492 348.181V286.415C457.492 279.961 452.209 274.707 445.784 274.707H328.905C322.48 274.707 317.198 279.961 317.198 286.415V348.181C317.198 354.606 322.452 359.889 328.905 359.889Z" fill="#FFC73C"/>
<path d="M335.673 382.305V343.155L366.313 359.889L335.673 382.305Z" fill="#FFC73C"/>
<path d="M405.435 321.139H341.127C339.699 321.139 338.557 319.997 338.557 318.569V316.284C338.557 314.857 339.699 313.714 341.127 313.714H405.435C406.834 313.714 408.005 314.857 408.005 316.284V318.569C408.005 319.968 406.863 321.139 405.435 321.139Z" fill="white"/>
<path d="M433.562 321.139H415.943C414.516 321.139 413.373 319.997 413.373 318.569V316.284C413.373 314.857 414.516 313.714 415.943 313.714H433.562C434.961 313.714 436.132 314.857 436.132 316.284V318.569C436.132 319.968 434.961 321.139 433.562 321.139Z" fill="white"/>
<path d="M369.255 296.809H433.562C434.961 296.809 436.132 297.951 436.132 299.379V301.664C436.132 303.091 434.961 304.234 433.562 304.234H369.255C367.855 304.234 366.685 303.091 366.685 301.664V299.379C366.685 297.98 367.827 296.809 369.255 296.809Z" fill="white"/>
<path d="M341.127 296.809H358.746C360.174 296.809 361.316 297.951 361.316 299.379V301.664C361.316 303.091 360.174 304.234 358.746 304.234H341.127C339.699 304.234 338.557 303.091 338.557 301.664V299.379C338.557 297.98 339.728 296.809 341.127 296.809Z" fill="white"/>
<path d="M384.76 336.559H341.127C339.699 336.559 338.557 335.417 338.557 333.989V331.704C338.557 330.277 339.699 329.134 341.127 329.134H384.76C386.188 329.134 387.33 330.277 387.33 331.704V333.989C387.33 335.417 386.188 336.559 384.76 336.559Z" fill="white"/>
<path d="M451.724 384.018C448.582 383.99 445.527 383.59 443.385 380.506C439.159 374.452 432.705 369.027 425.481 375.166C421.312 378.707 424.453 386.017 420.855 389.53C417.685 392.642 413.63 392.128 412.031 397.268C409.632 404.864 417.171 411.489 419.598 418.057C421.626 423.568 417.057 425.653 415.029 429.936C413.459 433.249 414.258 436.79 415.972 439.931C418.999 445.499 425.738 449.982 424.167 457.207C422.854 463.232 421.654 468.601 426.966 473.17C430.621 476.311 437.36 479.138 436.846 484.935C436.675 486.991 435.247 488.732 434.847 490.76C434.219 493.958 436.304 497.071 438.702 499.27C444.185 504.267 448.982 508.979 453.066 515.261C454.808 517.945 461.832 523.999 459.034 527.683C464.117 521.001 469.514 514.547 474.14 507.522C477.938 501.754 483.678 493.33 479.765 486.22C478.537 484.021 476.282 482.365 475.682 479.909C474.568 475.483 478.909 471.399 480.508 467.658C483.049 461.776 481.193 454.922 476.71 450.496C474.597 448.412 472.312 446.099 471.998 443.158C471.656 439.931 473.683 436.932 474.597 433.934C475.453 431.193 475.967 428.28 476.282 425.424C476.51 423.397 476.596 421.341 476.11 419.371C475.196 415.63 471.827 413.545 469.343 410.889C463.403 404.55 466.516 397.126 463.917 389.787C461.632 383.162 456.578 384.047 451.724 384.018Z" fill="#3DC8E8"/>
<path d="M459.691 535.193C461.89 509.893 459.862 484.421 455.207 459.492C450.753 435.733 444.899 411.889 436.047 389.359C433.105 381.906 429.821 374.624 426.081 367.542" stroke="#26A8D1" stroke-width="5" stroke-miterlimit="10"/>
<path d="M406.092 401.466C418.542 405.864 430.421 411.889 441.301 419.314C444.071 421.198 445.613 421.769 447.926 424.197" stroke="#26A8D1" stroke-width="5" stroke-miterlimit="10"/>
<path d="M453.837 451.324C441.901 443.614 428.337 438.36 414.316 436.076" stroke="#26A8D1" stroke-width="5" stroke-miterlimit="10"/>
<path d="M458.548 483.935C447.44 474.312 433.876 467.487 419.513 464.346" stroke="#26A8D1" stroke-width="5" stroke-miterlimit="10"/>
<path d="M447.298 423.397C448.154 410.004 451.495 396.811 457.064 384.618" stroke="#26A8D1" stroke-width="5" stroke-miterlimit="10"/>
<path d="M453.666 450.211C459.32 438.132 467.486 427.224 477.481 418.4" stroke="#26A8D1" stroke-width="5" stroke-miterlimit="10"/>
<path d="M459.291 484.877C460.062 481.137 461.433 477.539 463.346 474.226C465.545 470.371 468.429 466.944 471.37 463.632C473.483 461.233 475.625 458.863 477.824 456.521" stroke="#26A8D1" stroke-width="5" stroke-miterlimit="10"/>
<path d="M490.331 430.108C492.616 430.537 494.872 430.651 496.87 428.709C500.783 424.911 506.208 421.856 510.606 427.31C513.147 430.451 509.863 435.334 511.976 438.361C513.861 441.045 516.859 441.245 517.316 445.214C518.002 451.04 511.634 454.809 508.95 459.235C506.722 462.947 509.749 465.089 510.634 468.487C511.32 471.114 510.235 473.57 508.55 475.626C505.58 479.253 500.069 481.566 500.212 487.02C500.326 491.56 500.469 495.615 495.985 498.214C492.901 499.984 487.618 501.098 487.19 505.381C487.047 506.895 487.818 508.351 487.818 509.864C487.818 512.263 485.877 514.233 483.849 515.49C479.194 518.345 475.054 521.115 471.199 525.085C469.571 526.798 463.632 530.225 465.145 533.252C462.375 527.712 459.377 522.258 456.978 516.546C455.008 511.835 452.009 504.924 455.836 500.298C457.035 498.87 458.891 497.985 459.691 496.3C461.119 493.245 458.52 489.675 457.892 486.734C456.864 482.108 459.177 477.397 463.003 474.798C464.831 473.57 466.801 472.228 467.43 470.115C468.115 467.83 467.058 465.346 466.83 463.062C466.601 460.948 466.63 458.75 466.801 456.665C466.916 455.18 467.144 453.667 467.772 452.296C468.943 449.697 471.684 448.669 473.855 447.07C479.052 443.301 477.795 437.476 480.708 432.507C483.249 428.138 486.79 429.48 490.331 430.108Z" fill="#26A8D1"/>
<path d="M463.632 538.678C465.545 520.031 470.542 501.812 477.367 484.393C483.878 467.774 491.445 451.297 500.983 436.191C504.152 431.194 507.522 426.368 511.234 421.742" stroke="#3DC8E8" stroke-width="5" stroke-miterlimit="10"/>
<path d="M521 449.098C511.348 450.554 501.925 453.296 492.987 457.179C490.731 458.179 489.532 458.379 487.504 459.807" stroke="#3DC8E8" stroke-width="5" stroke-miterlimit="10"/>
<path d="M479.48 478.653C489.217 474.712 499.755 472.799 510.263 473.056" stroke="#3DC8E8" stroke-width="5" stroke-miterlimit="10"/>
<path d="M471.542 501.669C480.936 496.215 491.702 493.16 502.582 492.846" stroke="#3DC8E8" stroke-width="5" stroke-miterlimit="10"/>
<path d="M488.075 459.293C489.303 449.469 488.704 439.418 486.362 429.794" stroke="#3DC8E8" stroke-width="5" stroke-miterlimit="10"/>
<path d="M479.737 477.882C477.31 468.344 472.912 459.292 466.858 451.497" stroke="#3DC8E8" stroke-width="5" stroke-miterlimit="10"/>
<path d="M470.885 502.24C470.828 499.413 470.342 496.615 469.428 493.959C468.372 490.847 466.744 487.991 465.088 485.164C463.889 483.137 462.661 481.109 461.404 479.11" stroke="#3DC8E8" stroke-width="5" stroke-miterlimit="10"/>
<path d="M441.444 532.223H488.075L479.88 578.883H449.611L441.444 532.223Z" fill="#EFB126"/>
<path d="M435.722 532.217H493.776V519.11H435.722V532.217Z" fill="#FFC73C"/>
<path opacity="0.1" d="M486.99 538.391H442.529L441.444 532.223H488.075L486.99 538.391Z" fill="#231F20"/>
<path d="M503.153 596.159H9.10929C4.08348 596.159 0 592.276 0 587.478C0 582.681 4.08348 578.797 9.10929 578.797H503.153C508.178 578.797 512.262 582.681 512.262 587.478C512.291 592.276 508.207 596.159 503.153 596.159Z" fill="#DBCDFE"/>
<path d="M117.621 286.215H99.1741C91.3213 286.215 84.8962 292.64 84.8962 300.493C84.8962 305.348 87.352 309.66 91.0929 312.23V322.281L101.373 314.771H117.65C125.503 314.771 131.928 308.346 131.928 300.493C131.899 292.64 125.474 286.215 117.621 286.215Z" fill="#DBCDFE"/>
<path d="M100.161 300.986C100.435 299.82 99.7121 298.651 98.5454 298.377C97.3787 298.102 96.2104 298.826 95.9359 299.992C95.6615 301.159 96.3848 302.327 97.5515 302.602C98.7182 302.876 99.8865 302.153 100.161 300.986Z" fill="white"/>
<path d="M109.927 302.024C110.775 301.176 110.775 299.802 109.927 298.955C109.08 298.107 107.706 298.107 106.858 298.955C106.011 299.802 106.011 301.176 106.858 302.024C107.706 302.871 109.08 302.871 109.927 302.024Z" fill="white"/>
<path d="M120.264 302.024C121.112 301.176 121.112 299.802 120.264 298.955C119.417 298.107 118.043 298.107 117.195 298.955C116.348 299.802 116.348 301.176 117.195 302.024C118.043 302.871 119.417 302.871 120.264 302.024Z" fill="white"/>
<path d="M352.635 417.315C349.78 412.432 342.612 410.004 335.673 418.114C328.734 410.004 321.538 412.432 318.711 417.315C311.686 429.308 335.673 443.443 335.673 443.443C335.673 443.443 359.631 429.308 352.635 417.315Z" fill="#DBCDFE"/>
<path d="M234.614 288.9H198.92C197.035 288.9 195.493 287.358 195.493 285.473V263.942C195.493 262.057 197.035 260.515 198.92 260.515H234.614C236.499 260.515 238.041 262.057 238.041 263.942V285.473C238.041 287.358 236.499 288.9 234.614 288.9Z" fill="#DBCDFE"/>
<path d="M196.178 261.429L214.797 279.476C215.853 280.504 217.652 280.504 218.709 279.476L237.327 261.429" stroke="white" stroke-width="4" stroke-miterlimit="10"/>
<path d="M196.178 287.986L211.456 276.221" stroke="white" stroke-width="4" stroke-miterlimit="10"/>
<path d="M237.355 287.986L222.05 276.221" stroke="white" stroke-width="4" stroke-miterlimit="10"/>
<path d="M162.254 399.638H119.963C118.078 399.638 116.536 398.096 116.536 396.212V368.941C116.536 367.056 118.078 365.514 119.963 365.514H162.254C164.139 365.514 165.681 367.056 165.681 368.941V396.212C165.681 398.096 164.139 399.638 162.254 399.638Z" fill="#DBCDFE"/>
<path d="M141.123 410.432L149.718 398.81H132.499L141.123 410.432Z" fill="#DBCDFE"/>
<path d="M154.03 386.96H151.917V381.134L151.945 380.192L151.974 379.136C151.631 379.478 151.374 379.707 151.231 379.821L150.089 380.763L149.061 379.478L152.288 376.908H154.03V386.96Z" fill="white"/>
<path d="M138.296 376.565H131.328C128.358 376.565 125.931 378.993 125.931 381.962C125.931 383.79 126.845 385.418 128.272 386.389V390.187L132.156 387.36H138.296C141.265 387.36 143.693 384.932 143.693 381.962C143.664 378.993 141.237 376.565 138.296 376.565Z" fill="white"/>
</svg>
